<svg width="451" height="305" viewBox="0 0 451 305" fill="none" xmlns="http://www.w3.org/2000/svg">
<path d="M66.8562 221.003C64.577 222.623 62.8212 224.967 60.8062 226.907C58.5822 229.047 56.3196 230.757 53.6535 232.311C47.2499 236.043 55.3999 245.501 60.177 238.833C61.9838 236.312 63.791 233.747 65.5019 231.157C67.0962 228.744 69.0191 225.981 69.6019 223.115C69.8958 221.672 68.2936 219.983 66.8562 221.003" fill="#F38D28"/>
<path d="M46.192 234.865C47.6466 236.908 49.005 239.501 51.5348 240.261C55.3638 241.412 58.0649 236.431 55.3654 233.68C53.6618 231.944 50.9576 231.944 48.679 231.631C47.78 231.507 46.9477 231.639 46.3638 232.42C45.8733 233.076 45.678 234.144 46.192 234.865" fill="#F38D28"/>
<path d="M58.4342 246.311C59.5618 245.121 59.1201 242.669 58.7618 241.227C58.2638 239.227 57.2419 236.412 55.2367 235.536C53.7493 234.888 52.1081 234.877 50.8878 236.097C49.7889 237.196 49.4805 239.107 50.3263 240.447C51.3425 242.059 53.0217 242.541 54.3581 243.791C55.3086 244.679 56.1143 246.164 57.3509 246.597C57.7113 246.724 58.1774 246.583 58.4342 246.311" fill="#F38D28"/>
<path d="M138.58 221.159C138.361 223.416 139.489 225.467 140.301 227.516C141.154 229.672 141.876 231.963 143.024 233.98C144.126 235.915 146.761 236.575 148.668 235.46C150.769 234.231 151.05 231.863 150.148 229.816C149.225 227.727 147.809 225.808 146.604 223.869C145.43 221.981 144.449 220.083 142.492 218.913C140.669 217.824 138.764 219.269 138.58 221.159" fill="#F38D28"/>
<path d="M143.705 242.899C144.777 241.787 145.588 240.432 146.453 239.159C147.422 237.731 148.597 236.656 149.621 235.292C151.028 233.417 149.677 230.621 147.777 229.82C145.633 228.916 143.24 230.095 142.572 232.32C142.113 233.844 142.002 235.567 141.682 237.148C141.373 238.68 141.046 240.289 141.189 241.856C141.297 243.063 142.756 243.884 143.705 242.899" fill="#F38D28"/>
<path d="M154.653 233.799C154.374 232.931 153.657 232.477 152.988 231.911C152.305 231.335 151.624 230.759 150.944 230.181C148.813 228.373 145.393 228.929 144.586 231.859C143.806 234.692 146.472 237.256 149.265 236.537C150.158 236.308 151.053 236.08 151.946 235.852C152.789 235.637 153.737 235.547 154.364 234.892C154.633 234.611 154.776 234.183 154.653 233.799Z" fill="#F38D28"/>
<path d="M202.653 107.78C204.268 105.261 206.578 102.653 209.568 102.715C212.869 102.781 215.24 106.305 215.277 109.607C215.314 112.907 213.684 115.969 212.097 118.864C213.333 116.807 215.544 114.576 217.754 115.513C220.044 116.484 219.858 119.796 218.99 122.125C217.434 126.304 214.934 130.128 211.729 133.228C212.048 131.16 215.372 131.012 216.628 132.684C217.885 134.357 217.608 136.697 217.128 138.733C214.084 151.672 204.457 163.34 191.67 166.976C185.433 168.749 188.542 149.793 189.133 145.92C191.054 133.299 195.744 118.56 202.653 107.78" fill="#F38D28"/>
<path d="M17.9793 102.939C16.6175 100.276 14.5716 97.4546 11.5893 97.2253C8.29761 96.9719 5.59601 100.248 5.23774 103.531C4.87934 106.812 6.20548 110.017 7.50388 113.053C6.47268 110.885 4.48934 108.451 2.19868 109.168C-0.173724 109.912 -0.311191 113.227 0.325743 115.631C1.46841 119.94 3.58614 123.988 6.47468 127.385C6.35908 125.296 3.06481 124.825 1.65174 126.368C0.238808 127.912 0.287208 130.267 0.566408 132.34C2.33987 145.513 10.7883 158.061 23.1612 162.923C29.196 165.292 27.9424 146.124 27.7315 142.211C27.0445 129.463 23.8091 114.339 17.9793 102.939" fill="#F38D28"/>
<path d="M93.546 40.724C94.8585 37.4986 97.8508 35.0133 101.262 34.3146C102.616 34.0359 104.088 34.0413 105.309 34.6906C106.188 35.1573 106.871 35.9213 107.473 36.7133C109.266 39.0679 110.528 41.824 111.141 44.7186C112.182 40.712 115.542 37.7226 119.089 35.5866C122.257 33.6786 126.252 32.2426 129.577 33.8599C130.42 34.2706 131.197 34.8947 131.58 35.7507C131.885 36.436 131.916 37.212 131.868 37.9613C131.7 40.5667 130.617 43.1053 128.852 45.0306C132.493 41.0973 138.258 39.2613 143.504 40.3639C145.806 40.8493 148.233 42.1253 148.87 44.3906C149.334 46.0426 148.722 47.8119 147.868 49.2999C145.117 54.0945 139.985 57.0919 134.71 58.7479C129.077 60.5159 123.126 61.104 117.354 62.2733C113.464 63.0613 109.253 64.2812 105.709 61.8719C102.695 59.8225 100.283 56.3159 97.5732 53.8586C93.7986 50.4373 91.4732 45.8173 93.546 40.724" fill="#FACF0B"/>
<path d="M200.157 126.78C188.038 85.3054 150.95 43.1587 104.097 48.7213C99.141 49.308 94.2259 50.3547 89.4166 51.804C50.942 63.4 19.2843 100.708 12.3415 140.316C11.5343 145.228 11.0639 150.155 10.9467 155.036C10.7128 164.8 11.8748 174.368 14.7176 183.28C16.342 188.373 18.515 193.252 21.29 197.831C41.0738 229.917 80.3322 235.219 115.813 233.219C120.884 232.937 125.884 232.511 130.77 232.024C142.77 231.168 154.14 227.365 164.257 221.415C169.316 218.44 174.061 214.928 178.412 210.984C196.268 195.46 206.854 172.385 204.878 149.52C204.482 144.947 203.585 140.381 202.137 135.888C201.664 132.86 201.012 129.821 200.157 126.78" fill="#FACF0B"/>
<path d="M154.041 93.9439C148.978 94.5253 144.009 96.4173 139.697 99.692C128.197 108.424 122.134 124.311 124.274 138.503C126.044 150.24 137.129 162.716 150.03 161.991C171.941 160.757 194.573 130.103 183.172 108.969C177.209 97.924 165.389 92.6426 154.041 93.9439Z" fill="white"/>
<path d="M155.81 108.433C149.213 110.188 142.248 114.811 138.845 120.84C137.876 122.559 131.481 135.001 137.977 133.213C139.294 132.852 141.21 129.151 142.169 128.095C143.674 126.437 145.304 124.856 147.157 123.591C150.985 120.979 155.472 119.824 159.976 121.325C162.54 122.608 165.104 123.889 166.385 126.453C167.597 128.876 166.917 137.097 170.01 137.687C172.429 138.147 173.673 134.923 174.178 133.212C175.481 128.815 175.15 122.351 173.446 118.072C170.545 110.785 163.658 106.345 155.81 108.433" fill="#100F0D"/>
<path d="M62.453 93.0254C66.966 93.5427 71.3952 95.2293 75.24 98.148C85.491 105.932 90.8952 120.093 88.9879 132.744C87.4108 143.207 77.5291 154.329 66.0286 153.681C46.4972 152.583 26.3223 125.256 36.4863 106.419C41.8015 96.5721 52.3374 91.864 62.453 93.0254" fill="white"/>
<path d="M60.8757 105.94C66.7574 107.505 72.9653 111.625 75.9992 117C76.8632 118.532 82.5632 129.623 76.7732 128.031C75.5992 127.707 73.8908 124.408 73.0356 123.467C71.6945 121.989 70.2418 120.58 68.5893 119.452C65.1773 117.124 61.1778 116.095 57.1637 117.433C54.8778 118.576 52.5924 119.719 51.4497 122.004C50.37 124.164 50.9752 131.492 48.2184 132.017C46.0622 132.427 44.9538 129.553 44.5022 128.028C43.3418 124.108 43.6356 118.347 45.1549 114.532C47.7418 108.037 53.8804 104.079 60.8757 105.94" fill="#100F0D"/>
<path d="M103.122 175.135C103.642 175.081 104.09 174.755 104.498 174.425C107.578 171.936 109.967 168.597 111.329 164.877C112.045 162.924 112.264 160.289 110.502 159.184C110.071 158.912 109.57 158.777 109.075 158.656C105.446 157.764 93.6112 155.26 92.7913 160.773C92.3038 164.053 99.9497 175.461 103.122 175.135Z" fill="#E72729"/>
<path d="M215.258 36.9041L215.196 36.9949C215.134 36.9095 215.073 36.8268 215.013 36.7455C213.794 37.7642 212.576 38.7814 211.357 39.8001C207.014 43.4294 202.672 47.0588 198.33 50.6881C198.593 48.4268 198.266 46.0841 197.321 44.5001C195.337 41.1787 190.976 39.4988 187.996 42.6028C185.225 45.4908 185.722 50.5829 187.546 53.8175C188.37 55.2802 189.554 56.6374 191.142 57.1828C191.472 57.2961 191.788 57.3681 192.096 57.4214C193.942 58.1641 196.052 58.0907 198.145 56.6441C202.337 53.7481 206.338 50.5334 210.122 47.0481C211.653 50.3294 213.906 53.2921 216.89 55.3214C220.34 57.6668 224.814 58.6401 228.804 57.4387C221.472 52.8987 216.058 45.4454 215.258 36.9041Z" fill="#100F0D"/>
<path d="M306.16 16.5333C304.321 15.8106 302.385 15.3867 300.542 14.6854C299.966 14.4667 297.69 13.6227 296.404 12.7907C296.992 11.192 297.764 9.84807 298.237 8.52274C303.754 10.7307 309.253 12.9787 314.26 16.208C313.837 17.448 313.318 18.7707 312.834 19.88C310.685 18.6187 308.486 17.4466 306.16 16.5333ZM297.818 0.861408C297.362 0.533408 296.869 0.24795 296.4 -5.02561e-05C295.638 1.64262 294.877 3.28668 294.117 4.93068C291.405 10.788 288.694 16.6454 285.982 22.5027C285.153 20.0414 283.676 17.7854 281.929 16.6121C278.266 14.1521 272.95 14.544 271.388 19.196C269.936 23.5227 272.929 28.5333 276.385 30.9813C277.947 32.088 279.829 32.9119 281.732 32.6999C282.126 32.6559 282.488 32.5786 282.83 32.4826C285.098 32.3493 287.238 31.2467 288.693 28.736C291.274 24.2787 293.565 19.632 295.59 14.8493C297.192 16.0826 299.614 16.9373 300.911 17.4093C304.729 18.796 308.166 20.3666 311.578 22.3053C311.573 22.312 311.566 22.3227 311.561 22.3281C309.889 25.9401 309.889 25.94 308.217 29.552C307.621 30.78 307.024 32.008 306.428 33.236C305.565 31.1107 304.229 29.2253 302.682 28.188C299.021 25.728 293.704 26.1186 292.142 30.772C291.672 32.1746 291.673 33.6493 292.002 35.0867C292.13 38.0987 294.411 41.0121 297.346 42.6947C298.866 43.7294 300.665 44.4787 302.486 44.276C302.81 44.24 303.112 44.1787 303.401 44.1067C305.492 43.8547 307.438 42.7347 308.792 40.3973C312.718 33.6187 316.014 26.42 318.641 18.9307C319.377 17.388 320.664 13.9493 321.226 12.3106C318.29 9.80263 300.713 2.36141 297.818 0.861408" fill="#100F0D"/>
<path d="M274.49 84.6158C273.827 79.9911 272.281 75.0728 269.852 69.8609L295.224 66.221C295.424 67.1622 295.656 68.5514 295.919 70.3886C297.082 78.4976 296.964 85.3356 295.565 90.9028C290.1 94.273 285.78 97.5113 282.605 100.618C279.484 103.652 278.119 106.531 278.51 109.255C278.901 111.979 280.441 114.376 283.13 116.447L259.278 119.869C246.618 107.785 237.631 92.9101 232.316 75.2458L258.259 71.5241C260.175 83.081 264.775 93.9621 272.058 104.167C274.661 97.9749 275.472 91.4577 274.49 84.6158ZM360.9 56.7992C361.744 60.8807 362.734 66.8809 363.87 74.7998C364.997 82.6554 365.695 91.1222 365.962 100.2C359.983 105.39 352.4 108.644 343.214 109.961C330.987 111.716 320.8 111.011 312.652 107.848C310.847 101.124 309.486 94.5631 308.568 88.1646C307.641 81.7027 306.998 73.8423 306.639 64.5834L332.202 60.9162C331.64 75.027 332.204 88.4267 333.895 101.115C336.901 103.141 340.907 103.795 345.912 103.077C350.916 102.359 354.622 100.922 357.028 98.7663C356.855 96.6575 356.487 93.6392 355.923 89.7115C354.487 79.7019 352.092 69.3128 348.736 58.5442L360.9 56.7992ZM397.407 51.5619L397.775 54.1277C400.174 70.8524 401.278 85.985 401.087 99.5254L378.281 102.797C378.648 96.7962 378.287 89.9946 377.196 82.3924C376.096 74.7269 374.281 65.677 371.749 55.2427L397.407 51.5619Z" fill="#0A0A0A"/>
<path d="M269.852 69.8609L267.864 56.0028L249.197 58.6808L257.162 75.7743L269.852 69.8609ZM295.224 66.221L308.919 63.3155L306.201 50.5029L293.236 52.3629L295.224 66.221ZM295.565 90.9028L302.913 102.819L307.755 99.833L309.142 94.3162L295.565 90.9028ZM282.605 100.618L292.364 110.656L292.38 110.64L292.396 110.625L282.605 100.618ZM283.13 116.447L285.118 130.306L317.954 125.595L291.672 105.355L283.13 116.447ZM259.278 119.869L249.612 129.996L254.533 134.693L261.266 133.727L259.278 119.869ZM232.316 75.2458L230.328 61.3877L214.222 63.6982L218.91 79.2791L232.316 75.2458ZM258.259 71.5241L272.07 69.2336L269.829 55.7209L256.271 57.666L258.259 71.5241ZM272.058 104.167L260.662 112.3L275.24 132.726L284.964 109.592L272.058 104.167ZM288.348 82.6277C287.451 76.3735 285.422 70.1284 282.542 63.9475L257.162 75.7743C259.139 80.0172 260.203 83.6087 260.632 86.6039L288.348 82.6277ZM271.84 83.719L297.212 80.0791L293.236 52.3629L267.864 56.0028L271.84 83.719ZM281.529 69.1265C281.63 69.6014 281.809 70.6208 282.061 72.3767L309.777 68.4005C309.502 66.482 309.218 64.723 308.919 63.3155L281.529 69.1265ZM282.061 72.3767C283.068 79.3934 282.797 84.27 281.987 87.4894L309.142 94.3162C311.132 86.4013 311.097 77.6017 309.777 68.4005L282.061 72.3767ZM288.216 78.9866C282.223 82.6826 276.978 86.5372 272.814 90.6105L292.396 110.625C294.582 108.485 297.977 105.863 302.913 102.819L288.216 78.9866ZM272.846 90.5794C268.418 94.8845 263.324 101.987 264.652 111.243L292.368 107.267C292.486 108.09 292.461 108.88 292.339 109.581C292.22 110.266 292.027 110.762 291.891 111.05C291.649 111.56 291.592 111.406 292.364 110.656L272.846 90.5794ZM264.652 111.243C265.676 118.381 269.721 123.791 274.588 127.54L291.672 105.355C291.364 105.118 291.49 105.145 291.737 105.53C292.013 105.958 292.268 106.571 292.368 107.267L264.652 111.243ZM281.142 102.589L257.29 106.011L261.266 133.727L285.118 130.306L281.142 102.589ZM268.945 109.742C258.133 99.4221 250.378 86.6861 245.723 71.2125L218.91 79.2791C224.883 99.1342 235.103 116.147 249.612 129.996L268.945 109.742ZM234.304 89.1039L260.247 85.3822L256.271 57.666L230.328 61.3877L234.304 89.1039ZM244.447 73.8145C246.737 87.6237 252.228 100.482 260.662 112.3L283.454 96.0347C277.322 87.4426 273.613 78.5384 272.07 69.2336L244.447 73.8145ZM284.964 109.592C288.58 100.991 289.679 91.9049 288.348 82.6277L260.632 86.6039C261.264 91.0105 260.742 94.959 259.152 98.7421L284.964 109.592ZM360.9 56.7992L374.61 53.9637L371.943 41.0716L358.912 42.9411L360.9 56.7992ZM365.962 100.2L375.139 110.773L380.152 106.422L379.956 99.7872L365.962 100.2ZM312.652 107.848L299.131 111.478L300.971 118.331L307.586 120.899L312.652 107.848ZM306.639 64.5834L304.651 50.7253L292.162 52.517L292.65 65.125L306.639 64.5834ZM332.202 60.9162L346.191 61.4733L346.86 44.6701L330.214 47.0581L332.202 60.9162ZM333.895 101.115L320.018 102.965L320.85 109.206L326.072 112.725L333.895 101.115ZM357.028 98.7663L366.37 109.194L371.551 104.553L370.981 97.6202L357.028 98.7663ZM348.736 58.5442L346.748 44.686L330.482 47.0196L335.37 62.7087L348.736 58.5442ZM347.19 59.6347C347.945 63.2861 348.887 68.9458 350.012 76.7879L377.728 72.8117C376.581 64.816 375.543 58.4752 374.61 53.9637L347.19 59.6347ZM350.012 76.7879C351.054 84.0533 351.714 91.9887 351.968 100.613L379.956 99.7872C379.675 90.2556 378.94 81.2575 377.728 72.8117L350.012 76.7879ZM356.786 89.627C353.166 92.7686 348.217 95.1005 341.226 96.1033L345.202 123.82C356.583 122.187 366.799 118.011 375.139 110.773L356.786 89.627ZM341.226 96.1033C330.451 97.6491 322.886 96.8028 317.719 94.7969L307.586 120.899C318.714 125.219 331.523 125.782 345.202 123.82L341.226 96.1033ZM326.173 104.218C324.502 97.9934 323.258 91.981 322.426 86.1765L294.709 90.1526C295.713 97.1451 297.192 104.255 299.131 111.478L326.173 104.218ZM322.426 86.1765C321.589 80.3463 320.976 72.9994 320.629 64.0418L292.65 65.125C293.02 74.6853 293.692 83.0591 294.709 90.1526L322.426 86.1765ZM308.627 78.4415L334.19 74.7744L330.214 47.0581L304.651 50.7253L308.627 78.4415ZM318.213 60.3592C317.622 75.1926 318.211 89.4018 320.018 102.965L347.773 99.2657C346.198 87.4515 345.658 74.8615 346.191 61.4733L318.213 60.3592ZM326.072 112.725C332.922 117.341 340.817 117.951 347.9 116.935L343.924 89.2185C342.499 89.4229 341.712 89.357 341.409 89.3076C341.161 89.267 341.356 89.2609 341.719 89.505L326.072 112.725ZM347.9 116.935C354.214 116.029 361.044 113.965 366.37 109.194L347.687 88.3384C347.993 88.0644 348.013 88.1633 347.383 88.4074C346.746 88.6544 345.644 88.9717 343.924 89.2185L347.9 116.935ZM370.981 97.6202C370.773 95.0844 370.357 91.7345 369.781 87.7234L342.065 91.6995C342.617 95.544 342.937 98.2306 343.075 99.9124L370.981 97.6202ZM369.781 87.7234C368.228 76.8978 365.655 65.7794 362.103 54.3796L335.37 62.7087C338.529 72.8463 340.746 82.5061 342.065 91.6995L369.781 87.7234ZM350.725 72.4023L362.888 70.6573L358.912 42.9411L346.748 44.686L350.725 72.4023ZM397.407 51.5619L411.265 49.5739L409.277 35.7157L395.419 37.7038L397.407 51.5619ZM401.087 99.5254L403.075 113.383L414.917 111.685L415.086 99.723L401.087 99.5254ZM378.281 102.797L364.307 101.941L363.256 119.096L380.269 116.655L378.281 102.797ZM371.749 55.2427L369.761 41.3846L354.512 43.5723L358.144 58.5434L371.749 55.2427ZM383.549 53.55L383.917 56.1158L411.633 52.1396L411.265 49.5739L383.549 53.55ZM383.917 56.1158C386.236 72.2858 387.267 86.6715 387.088 99.3278L415.086 99.723C415.289 85.2985 414.112 69.4191 411.633 52.1396L383.917 56.1158ZM399.099 85.6673L376.292 88.9391L380.269 116.655L403.075 113.383L399.099 85.6673ZM392.254 103.653C392.693 96.4837 392.245 88.7029 391.054 80.4043L363.338 84.3805C364.329 91.2863 364.603 97.1087 364.307 101.941L392.254 103.653ZM391.054 80.4043C389.872 72.1659 387.954 62.6576 385.355 51.942L358.144 58.5434C360.607 68.6964 362.32 77.2879 363.338 84.3805L391.054 80.4043ZM373.737 69.1009L399.395 65.4201L395.419 37.7038L369.761 41.3846L373.737 69.1009Z" fill="#FACF0B"/>
<path d="M233.952 200.2C233.767 204.038 233.812 207.15 234.088 209.534C234.363 211.918 234.702 214.017 235.105 215.831L227.309 216.731C226.06 213.034 225.184 209.004 224.68 204.641C224.595 203.902 224.49 202.791 224.367 201.307C222.41 202.137 221.328 203.651 221.123 205.849L217.558 206.044L218.127 199.673L241.908 196.925C241.735 199.603 241.434 201.812 241.007 203.552L237.37 203.755C237.422 203.362 237.425 202.976 237.381 202.594C237.274 201.664 236.908 201.006 236.283 200.619C235.659 200.232 234.881 200.092 233.952 200.2ZM264.981 200.565L265.086 201.785C263.297 203.031 261.005 204.105 258.211 205.007C260.324 205.319 262.335 205.364 264.242 205.144L264.993 205.057C266.527 206.837 267.652 209.147 268.367 211.988L259.104 213.058C258.673 211.417 258.019 210.043 257.142 208.936C256.287 207.803 255.309 207.082 254.211 206.774C254.234 207.182 254.316 207.994 254.456 209.21C254.597 210.426 254.835 211.86 255.171 213.513L247.374 214.413C246.284 211.036 245.567 207.869 245.226 204.913C244.882 201.933 244.73 199.16 244.772 196.594L263.44 194.437C264.267 196.782 264.78 198.825 264.981 200.565ZM253.954 197.961C253.91 200.093 253.934 202.18 254.025 204.223C255.314 203.88 256.333 203.292 257.082 202.456C256.445 200.911 255.402 199.413 253.954 197.961ZM279.463 192.586L279.575 193.552C280.302 199.846 280.56 205.53 280.349 210.604L271.766 211.595C271.966 209.35 271.9 206.796 271.57 203.935C271.236 201.05 270.649 197.639 269.808 193.702L279.463 192.586ZM304.55 189.688C304.982 192.175 305.359 194.813 305.682 197.602C306.001 200.368 306.265 203.696 306.473 207.586L303.04 207.982C298.128 206.037 293.494 203.154 289.139 199.332C289.514 200.908 289.8 202.542 289.995 204.234C290.188 205.903 290.328 207.639 290.416 209.441L286.231 209.924C286.369 206.936 286.295 204.203 286.009 201.723C285.719 199.22 285.372 197.255 284.965 195.828C283.846 194.508 282.948 193.319 282.27 192.262L292.427 191.089C293.626 192.689 295.19 194.309 297.119 195.946C299.069 197.557 300.89 198.784 302.582 199.628C302.18 196.147 301.417 192.997 300.294 190.18L304.55 189.688ZM332.353 189.484C332.892 194.157 333.014 199.18 332.717 204.554L324.169 205.541C324.226 202.684 324.126 199.627 323.871 196.371C322.543 195.751 321.107 195.446 319.561 195.455C319.823 198.976 319.845 202.513 319.628 206.066L311.51 207.004C311.55 204.631 311.382 201.824 311.008 198.582C310.63 195.315 310.049 192.169 309.265 189.143L318.706 188.052C318.867 189.024 319.059 190.476 319.282 192.407C320.714 192.677 322.152 193.102 323.597 193.684C323.341 191.467 323.022 189.438 322.64 187.598L331.938 186.524C332.14 187.853 332.278 188.84 332.353 189.484Z" fill="#0A0A0A"/>
<path d="M233.952 200.2L232.689 189.273L223.413 190.344L222.964 199.671L233.952 200.2ZM235.105 215.831L236.368 226.758L248.489 225.358L245.844 213.446L235.105 215.831ZM227.309 216.731L216.887 220.251L219.734 228.68L228.571 227.659L227.309 216.731ZM224.367 201.307L235.33 200.398L234.072 185.243L220.073 191.18L224.367 201.307ZM221.123 205.849L221.722 216.833L231.194 216.316L232.076 206.871L221.123 205.849ZM217.558 206.044L206.602 205.066L205.472 217.719L218.157 217.028L217.558 206.044ZM218.127 199.673L216.864 188.745L207.966 189.773L207.17 198.695L218.127 199.673ZM241.908 196.925L252.885 197.638L253.739 184.485L240.646 185.998L241.908 196.925ZM241.007 203.552L241.619 214.535L249.75 214.082L251.69 206.174L241.007 203.552ZM237.37 203.755L226.463 202.329L224.745 215.476L237.982 214.738L237.37 203.755ZM236.283 200.619L230.49 209.97L230.49 209.97L236.283 200.619ZM222.964 199.671C222.766 203.798 222.788 207.574 223.16 210.796L245.015 208.271C244.837 206.726 244.768 204.279 244.939 200.728L222.964 199.671ZM223.16 210.796C223.468 213.455 223.862 215.943 224.367 218.216L245.844 213.446C245.543 212.091 245.259 210.381 245.015 208.271L223.16 210.796ZM233.843 204.903L226.047 205.804L228.571 227.659L236.368 226.758L233.843 204.903ZM237.731 213.212C236.758 210.332 236.034 207.068 235.607 203.379L213.753 205.904C214.335 210.941 215.363 215.737 216.887 220.251L237.731 213.212ZM235.607 203.379C235.543 202.822 235.451 201.855 235.33 200.398L213.405 202.217C213.53 203.726 213.646 204.982 213.753 205.904L235.607 203.379ZM220.073 191.18C217.5 192.271 215.017 194.04 213.137 196.672C211.272 199.284 210.42 202.156 210.171 204.828L232.076 206.871C232.031 207.345 231.823 208.361 231.04 209.458C230.241 210.577 229.277 211.173 228.662 211.434L220.073 191.18ZM220.524 194.866L216.959 195.06L218.157 217.028L221.722 216.833L220.524 194.866ZM228.515 207.022L229.083 200.65L207.17 198.695L206.602 205.066L228.515 207.022ZM219.389 210.6L243.171 207.852L240.646 185.998L216.864 188.745L219.389 210.6ZM230.931 196.212C230.781 198.53 230.542 200.043 230.324 200.931L251.69 206.174C252.326 203.581 252.688 200.675 252.885 197.638L230.931 196.212ZM240.395 192.569L236.758 192.772L237.982 214.738L241.619 214.535L240.395 192.569ZM248.277 205.18C248.442 203.924 248.459 202.634 248.308 201.332L226.454 203.857C226.391 203.317 226.401 202.801 226.463 202.329L248.277 205.18ZM248.308 201.332C247.931 198.061 246.316 193.894 242.076 191.268L230.49 209.97C229.166 209.15 228.116 208.015 227.412 206.748C226.746 205.55 226.527 204.489 226.454 203.857L248.308 201.332ZM242.076 191.268C238.825 189.254 235.396 188.96 232.689 189.273L235.214 211.127C234.367 211.225 232.493 211.21 230.49 209.97L242.076 191.268ZM264.981 200.565L275.941 199.624L275.927 199.463L275.909 199.303L264.981 200.565ZM265.086 201.785L271.372 210.812L276.59 207.179L276.046 200.844L265.086 201.785ZM258.211 205.007L254.83 194.54L256.607 215.89L258.211 205.007ZM264.993 205.057L273.324 197.875L269.519 193.461L263.731 194.13L264.993 205.057ZM268.367 211.988L269.629 222.915L282.097 221.475L279.034 209.304L268.367 211.988ZM259.104 213.058L248.465 215.853L250.89 225.08L260.367 223.985L259.104 213.058ZM257.142 208.936L248.364 215.565L248.441 215.667L248.52 215.767L257.142 208.936ZM254.211 206.774L257.18 196.182L242.363 192.029L243.228 207.393L254.211 206.774ZM255.171 213.513L256.433 224.44L268.337 223.065L265.95 211.322L255.171 213.513ZM247.374 214.413L236.907 217.794L239.679 226.376L248.637 225.341L247.374 214.413ZM244.772 196.594L243.51 185.667L233.931 186.774L233.774 196.415L244.772 196.594ZM263.44 194.437L273.814 190.78L270.896 182.503L262.178 183.51L263.44 194.437ZM253.954 197.961L261.741 190.192L243.486 171.896L242.956 197.736L253.954 197.961ZM254.025 204.223L243.036 204.713L243.644 218.359L256.847 214.854L254.025 204.223ZM257.082 202.456L265.272 209.799L269.888 204.651L267.251 198.26L257.082 202.456ZM254.022 201.506L254.126 202.726L276.046 200.844L275.941 199.624L254.022 201.506ZM258.801 192.758C258.152 193.209 256.925 193.863 254.83 194.54L261.591 215.475C265.086 214.346 268.443 212.852 271.372 210.812L258.801 192.758ZM256.607 215.89C259.565 216.326 262.544 216.414 265.505 216.071L262.98 194.217C262.126 194.315 261.084 194.312 259.814 194.125L256.607 215.89ZM265.505 216.071L266.256 215.985L263.731 194.13L262.98 194.217L265.505 216.071ZM256.662 212.24C256.836 212.442 257.302 213.092 257.699 214.672L279.034 209.304C278.002 205.203 276.219 201.232 273.324 197.875L256.662 212.24ZM267.104 201.061L257.842 202.131L260.367 223.985L269.629 222.915L267.104 201.061ZM269.743 210.263C269.002 207.443 267.756 204.619 265.764 202.105L248.52 215.767C248.464 215.696 248.424 215.637 248.397 215.593C248.37 215.549 248.358 215.525 248.358 215.524C248.358 215.524 248.37 215.548 248.389 215.602C248.409 215.656 248.435 215.739 248.465 215.853L269.743 210.263ZM265.921 202.307C263.976 199.732 261.114 197.285 257.18 196.182L251.242 217.366C249.505 216.879 248.597 215.874 248.364 215.565L265.921 202.307ZM243.228 207.393C243.272 208.177 243.394 209.31 243.529 210.473L265.383 207.948C265.317 207.37 265.268 206.921 265.234 206.588C265.197 206.218 265.191 206.109 265.193 206.156L243.228 207.393ZM243.529 210.473C243.716 212.091 244.014 213.849 244.391 215.704L265.95 211.322C265.655 209.871 265.477 208.761 265.383 207.948L243.529 210.473ZM253.908 202.585L246.112 203.486L248.637 225.341L256.433 224.44L253.908 202.585ZM257.842 211.032C256.933 208.217 256.398 205.766 256.153 203.651L234.299 206.175C234.737 209.973 235.635 213.855 236.907 217.794L257.842 211.032ZM256.153 203.651C255.855 201.071 255.738 198.785 255.771 196.773L233.774 196.415C233.723 199.535 233.908 202.795 234.299 206.175L256.153 203.651ZM246.035 207.521L264.702 205.365L262.178 183.51L243.51 185.667L246.035 207.521ZM253.066 198.095C253.723 199.959 253.977 201.164 254.054 201.827L275.909 199.303C275.583 196.485 274.81 193.605 273.814 190.78L253.066 198.095ZM242.956 197.736C242.908 200.096 242.934 202.421 243.036 204.713L265.014 203.733C264.934 201.938 264.912 200.09 264.951 198.187L242.956 197.736ZM256.847 214.854C259.81 214.068 262.841 212.511 265.272 209.799L248.892 195.113C249.825 194.072 250.818 193.693 251.203 193.591L256.847 214.854ZM267.251 198.26C265.952 195.113 263.985 192.441 261.741 190.192L246.167 205.731C246.819 206.384 246.937 206.709 246.914 206.652L267.251 198.26ZM279.463 192.586L290.391 191.324L289.128 180.396L278.201 181.659L279.463 192.586ZM280.349 210.604L281.611 221.531L290.949 220.452L291.34 211.061L280.349 210.604ZM271.766 211.595L260.809 210.622L259.614 224.072L273.029 222.523L271.766 211.595ZM269.808 193.702L268.545 182.774L256.521 184.164L259.05 196.001L269.808 193.702ZM268.536 193.849L268.648 194.814L290.502 192.289L290.391 191.324L268.536 193.849ZM268.648 194.814C269.324 200.671 269.541 205.767 269.359 210.146L291.34 211.061C291.579 205.293 291.28 199.021 290.502 192.289L268.648 194.814ZM279.087 199.676L270.504 200.668L273.029 222.523L281.611 221.531L279.087 199.676ZM282.723 212.569C283.004 209.407 282.891 206.083 282.497 202.673L260.642 205.198C260.909 207.509 260.927 209.292 260.809 210.622L282.723 212.569ZM282.497 202.673C282.112 199.336 281.454 195.563 280.565 191.403L259.05 196.001C259.844 199.716 260.361 202.765 260.642 205.198L282.497 202.673ZM271.07 204.629L280.726 203.514L278.201 181.659L268.545 182.774L271.07 204.629ZM304.55 189.688L315.387 187.804L313.608 177.568L303.287 178.761L304.55 189.688ZM306.473 207.586L307.735 218.513L318.009 217.326L317.457 206.999L306.473 207.586ZM303.04 207.982L298.989 218.209L301.558 219.227L304.302 218.91L303.04 207.982ZM289.139 199.332L296.394 191.064L270.436 168.288L278.438 201.881L289.139 199.332ZM290.416 209.441L291.678 220.368L301.901 219.187L301.403 208.908L290.416 209.441ZM286.231 209.924L275.243 209.416L274.646 222.336L287.494 220.851L286.231 209.924ZM284.965 195.828L295.544 192.815L294.893 190.529L293.357 188.716L284.965 195.828ZM282.27 192.262L281.008 181.335L263.495 183.358L273.01 198.199L282.27 192.262ZM292.427 191.089L301.229 184.492L297.44 179.436L291.164 180.161L292.427 191.089ZM297.119 195.946L290 204.332L290.056 204.379L290.113 204.426L297.119 195.946ZM302.582 199.628L297.674 209.472L315.838 218.526L313.509 198.365L302.582 199.628ZM300.294 190.18L299.032 179.252L284.756 180.902L290.076 194.251L300.294 190.18ZM293.712 191.572C294.105 193.831 294.454 196.261 294.754 198.865L316.609 196.34C316.265 193.365 315.859 190.519 315.387 187.804L293.712 191.572ZM294.754 198.865C295.04 201.337 295.288 204.427 295.488 208.172L317.457 206.999C317.242 202.965 316.962 199.399 316.609 196.34L294.754 198.865ZM305.21 196.658L301.777 197.055L304.302 218.91L307.735 218.513L305.21 196.658ZM307.09 197.755C303.459 196.317 299.893 194.134 296.394 191.064L281.884 207.601C287.096 212.174 292.797 215.757 298.989 218.209L307.09 197.755ZM278.438 201.881C278.708 203.011 278.92 204.215 279.068 205.497L300.923 202.972C300.68 200.869 300.321 198.804 299.84 196.783L278.438 201.881ZM279.068 205.497C279.231 206.906 279.352 208.398 279.428 209.973L301.403 208.908C301.304 206.88 301.145 204.9 300.923 202.972L279.068 205.497ZM289.153 198.513L284.969 198.997L287.494 220.851L291.678 220.368L289.153 198.513ZM297.22 210.432C297.38 206.965 297.302 203.63 296.936 200.461L275.081 202.986C275.288 204.776 275.359 206.908 275.243 209.416L297.22 210.432ZM296.936 200.461C296.619 197.713 296.188 195.074 295.544 192.815L274.386 198.842C274.555 199.436 274.82 200.727 275.081 202.986L296.936 200.461ZM293.357 188.716C292.445 187.64 291.868 186.851 291.53 186.325L273.01 198.199C274.028 199.787 275.248 201.376 276.573 202.94L293.357 188.716ZM283.533 203.189L293.689 202.016L291.164 180.161L281.008 181.335L283.533 203.189ZM283.624 197.685C285.426 200.089 287.601 202.295 290 204.332L304.238 187.561C302.78 186.322 301.827 185.29 301.229 184.492L283.624 197.685ZM290.113 204.426C292.506 206.404 295.03 208.154 297.674 209.472L307.489 189.783C306.749 189.414 305.632 188.71 304.125 187.466L290.113 204.426ZM313.509 198.365C313.012 194.066 312.045 189.953 310.513 186.108L290.076 194.251C290.789 196.041 291.347 198.227 291.654 200.89L313.509 198.365ZM301.557 201.107L305.812 200.615L303.287 178.761L299.032 179.252L301.557 201.107ZM332.717 204.554L333.979 215.481L343.188 214.417L343.7 205.161L332.717 204.554ZM324.169 205.541L313.172 205.324L312.923 217.914L325.432 216.468L324.169 205.541ZM323.871 196.371L334.837 195.511L334.336 189.115L328.523 186.403L323.871 196.371ZM319.561 195.455L319.495 184.455L307.718 184.527L308.592 196.271L319.561 195.455ZM319.628 206.066L320.89 216.993L330.043 215.936L330.607 206.739L319.628 206.066ZM311.51 207.004L300.511 206.818L300.299 219.372L312.772 217.931L311.51 207.004ZM309.265 189.143L308.003 178.216L295.445 179.667L298.617 191.904L309.265 189.143ZM318.706 188.052L329.559 186.259L327.851 175.923L317.444 177.125L318.706 188.052ZM319.282 192.407L308.354 193.67L309.284 201.72L317.249 203.218L319.282 192.407ZM323.597 193.684L319.485 203.887L336.648 210.804L334.524 192.422L323.597 193.684ZM322.64 187.598L321.378 176.671L309.426 178.052L311.869 189.832L322.64 187.598ZM331.938 186.524L342.813 184.872L341.22 174.378L330.676 175.596L331.938 186.524ZM321.425 190.746C321.884 194.717 322.001 199.109 321.733 203.946L343.7 205.161C344.027 199.251 343.901 193.596 343.28 188.221L321.425 190.746ZM331.454 193.626L322.907 194.614L325.432 216.468L333.979 215.481L331.454 193.626ZM335.167 205.758C335.232 202.495 335.117 199.076 334.837 195.511L312.905 197.231C313.136 200.178 313.22 202.872 313.172 205.324L335.167 205.758ZM328.523 186.403C325.638 185.056 322.579 184.437 319.495 184.455L319.628 206.455C319.651 206.455 319.606 206.457 319.512 206.437C319.416 206.417 319.313 206.382 319.219 206.339L328.523 186.403ZM308.592 196.271C308.816 199.293 308.836 202.332 308.648 205.393L330.607 206.739C330.855 202.694 330.83 198.66 330.531 194.639L308.592 196.271ZM318.365 195.138L310.247 196.076L312.772 217.931L320.89 216.993L318.365 195.138ZM322.508 207.189C322.559 204.192 322.346 200.878 321.935 197.319L300.08 199.844C300.418 202.77 300.541 205.071 300.511 206.818L322.508 207.189ZM321.935 197.319C321.502 193.574 320.831 189.926 319.913 186.383L298.617 191.904C299.267 194.413 299.758 197.057 300.08 199.844L321.935 197.319ZM310.527 200.071L319.969 198.98L317.444 177.125L308.003 178.216L310.527 200.071ZM307.853 189.846C307.969 190.545 308.136 191.781 308.354 193.67L330.209 191.145C329.981 189.171 329.765 187.504 329.559 186.259L307.853 189.846ZM317.249 203.218C317.923 203.345 318.666 203.557 319.485 203.887L327.709 183.482C325.639 182.648 323.505 182.009 321.315 181.597L317.249 203.218ZM334.524 192.422C334.237 189.937 333.87 187.578 333.411 185.364L311.869 189.832C312.173 191.298 312.444 192.997 312.67 194.947L334.524 192.422ZM323.902 198.525L333.201 197.451L330.676 175.596L321.378 176.671L323.902 198.525ZM321.063 188.175C321.261 189.482 321.375 190.308 321.425 190.746L343.28 188.221C343.182 187.373 343.019 186.225 342.813 184.872L321.063 188.175Z" fill="#FACF0B"/>
<path d="M272.8 167.564C274.344 167.544 275.784 167.37 277.12 167.04C278.456 166.709 279.439 166.153 280.07 165.371C280.724 164.55 281.053 163.348 281.057 161.765L286.695 160.569C286.92 163.48 286.871 165.948 286.547 167.973L263.668 173.628C262.095 169.798 260.782 165.754 259.73 161.498C258.678 157.243 257.994 153.539 257.676 150.387L271.096 147.07C270.988 155.436 271.556 162.267 272.8 167.564ZM321.01 159.058L321.102 159.431L310.292 162.103C309.73 160.363 309.013 158.596 308.14 156.801C306.698 159.234 304.977 161.604 302.976 163.912L292.119 166.595C291.586 165.376 291.063 163.725 290.549 161.644C290.026 159.531 289.815 157.342 289.914 155.076C291.989 153.871 293.86 152.238 295.527 150.178C297.224 148.11 298.316 146.06 298.803 144.028C297.641 142.931 296.46 141.954 295.26 141.097L310.73 137.273C315.457 143.192 318.883 150.453 321.01 159.058ZM306.461 153.606C304.97 151.041 303.269 148.693 301.357 146.561C300.957 151.209 301.12 155.47 301.847 159.345C303.8 157.643 305.338 155.73 306.461 153.606ZM334.247 150.002C334.685 151.772 335.242 153.695 335.92 155.769L325.668 158.303C323.174 153.678 321.239 148.586 319.865 143.025C319.166 140.198 318.715 137.639 318.511 135.349L343.767 129.107C345.536 132.394 347.066 136.45 348.357 141.273C344.266 144.46 339.486 147.058 334.017 149.07L334.247 150.002ZM333.268 145.843C335.195 145.103 336.734 144.195 337.886 143.119C336.575 139.949 334.517 137.359 331.713 135.35C331.976 138.548 332.495 142.046 333.268 145.843Z" fill="white"/>
<path d="M272.8 167.564L257.223 171.22L260.158 183.722L272.998 183.562L272.8 167.564ZM280.07 165.371L292.525 175.414L292.554 175.378L292.583 175.341L280.07 165.371ZM281.057 161.765L277.738 146.113L265.092 148.795L265.057 161.722L281.057 161.765ZM286.695 160.569L302.647 159.335L301.239 141.128L283.375 144.917L286.695 160.569ZM286.547 167.973L290.387 183.505L300.675 180.962L302.347 170.498L286.547 167.973ZM263.668 173.628L248.867 179.706L254.11 192.472L267.507 189.16L263.668 173.628ZM257.676 150.387L253.837 134.854L240.365 138.184L241.757 151.991L257.676 150.387ZM271.096 147.07L287.095 147.275L287.361 126.568L267.257 131.537L271.096 147.07ZM272.998 183.562C275.623 183.53 278.297 183.23 280.959 182.572L273.281 151.507C273.271 151.509 273.065 151.559 272.601 151.565L272.998 183.562ZM280.959 182.572C284.454 181.708 289.016 179.766 292.525 175.414L267.615 155.328C269.862 152.54 272.457 151.711 273.281 151.507L280.959 182.572ZM292.583 175.341C296.376 170.581 297.048 165.247 297.057 161.807L265.057 161.722C265.058 161.449 265.072 158.519 267.556 155.4L292.583 175.341ZM284.377 177.416L290.015 176.221L283.375 144.917L277.738 146.113L284.377 177.416ZM270.743 161.802C270.908 163.941 270.809 165.066 270.748 165.448L302.347 170.498C302.933 166.83 302.932 163.019 302.647 159.335L270.743 161.802ZM282.708 152.44L259.829 158.095L267.507 189.16L290.387 183.505L282.708 152.44ZM278.468 167.55C277.211 164.488 276.137 161.196 275.263 157.659L244.198 165.338C245.427 170.313 246.979 175.108 248.867 179.706L278.468 167.55ZM275.263 157.659C274.329 153.881 273.814 150.957 273.595 148.783L241.757 151.991C242.173 156.12 243.028 160.604 244.198 165.338L275.263 157.659ZM261.515 165.919L274.935 162.602L267.257 131.537L253.837 134.854L261.515 165.919ZM255.097 146.864C254.981 155.914 255.569 164.173 257.223 171.22L288.376 163.907C287.544 160.361 286.996 154.958 287.095 147.275L255.097 146.864ZM321.102 159.431L324.942 174.964L340.474 171.124L336.635 155.592L321.102 159.431ZM310.292 162.103L295.066 167.021L299.65 181.215L314.131 177.636L310.292 162.103ZM308.14 156.801L322.532 149.808L309.537 123.065L294.377 148.642L308.14 156.801ZM302.976 163.912L306.815 179.444L311.741 178.227L315.065 174.393L302.976 163.912ZM292.119 166.595L277.454 172.994L282.853 185.367L295.958 182.128L292.119 166.595ZM289.914 155.076L281.879 141.24L274.312 145.634L273.929 154.377L289.914 155.076ZM295.527 150.178L283.16 140.026L283.123 140.071L283.087 140.116L295.527 150.178ZM298.803 144.028L314.363 147.754L316.518 138.755L309.792 132.399L298.803 144.028ZM295.26 141.097L291.42 125.564L257.649 133.912L285.965 154.12L295.26 141.097ZM310.73 137.273L323.233 127.289L316.839 119.281L306.891 121.74L310.73 137.273ZM306.461 153.606L320.604 161.087L324.755 153.24L320.294 145.566L306.461 153.606ZM301.357 146.561L313.27 135.88L288.589 108.355L285.416 145.188L301.357 146.561ZM301.847 159.345L286.122 162.296L291.279 189.785L312.361 171.405L301.847 159.345ZM305.478 162.898L305.57 163.271L336.635 155.592L336.543 155.219L305.478 162.898ZM317.263 143.899L306.452 146.571L314.131 177.636L324.942 174.964L317.263 143.899ZM325.517 157.186C324.706 154.675 323.701 152.214 322.532 149.808L293.749 163.793C294.325 164.977 294.753 166.052 295.066 167.021L325.517 157.186ZM294.377 148.642C293.459 150.19 292.311 151.789 290.887 153.43L315.065 174.393C317.643 171.42 319.937 168.278 321.904 164.959L294.377 148.642ZM299.137 148.379L288.279 151.063L295.958 182.128L306.815 179.444L299.137 148.379ZM306.783 160.197C306.795 160.222 306.719 160.049 306.579 159.607C306.442 159.177 306.274 158.585 306.081 157.804L275.016 165.483C275.633 167.98 276.411 170.604 277.454 172.994L306.783 160.197ZM306.081 157.804C305.941 157.237 305.864 156.58 305.899 155.775L273.929 154.377C273.766 158.104 274.112 161.825 275.016 165.483L306.081 157.804ZM297.949 168.912C301.877 166.631 305.201 163.659 307.966 160.24L283.087 140.116C282.519 140.817 282.102 141.11 281.879 141.24L297.949 168.912ZM307.893 160.33C310.711 156.897 313.177 152.707 314.363 147.754L283.243 140.302C283.349 139.859 283.475 139.61 283.497 139.567C283.516 139.532 283.437 139.688 283.16 140.026L307.893 160.33ZM309.792 132.399C308.142 130.84 306.398 129.389 304.554 128.073L285.965 154.12C286.523 154.518 287.141 155.022 287.813 155.657L309.792 132.399ZM299.099 156.629L314.57 152.805L306.891 121.74L291.42 125.564L299.099 156.629ZM298.227 147.257C301.287 151.088 303.811 156.157 305.478 162.898L336.543 155.219C333.955 144.75 329.626 135.295 323.233 127.289L298.227 147.257ZM320.294 145.566C318.274 142.091 315.935 138.853 313.27 135.88L289.445 157.243C290.602 158.533 291.665 159.991 292.628 161.647L320.294 145.566ZM285.416 145.188C284.913 151.024 285.084 156.764 286.122 162.296L317.573 156.395C317.157 154.177 317 151.394 317.298 147.934L285.416 145.188ZM312.361 171.405C315.678 168.514 318.493 165.079 320.604 161.087L292.317 146.125C292.182 146.381 291.921 146.772 291.333 147.285L312.361 171.405ZM335.92 155.769L339.759 171.301L356.476 167.169L351.129 150.801L335.92 155.769ZM325.668 158.303L311.586 165.899L317.472 176.81L329.508 173.835L325.668 158.303ZM318.511 135.349L314.672 119.817L301.36 123.107L302.574 136.765L318.511 135.349ZM343.767 129.107L357.858 121.527L351.977 110.596L339.928 113.574L343.767 129.107ZM348.357 141.273L358.189 153.895L366.554 147.379L363.812 137.135L348.357 141.273ZM334.017 149.07L328.494 134.053L315.046 138.998L318.484 152.909L334.017 149.07ZM333.268 145.843L317.591 149.038L321.364 167.554L339.005 160.779L333.268 145.843ZM337.886 143.119L348.808 154.811L356.907 147.246L352.671 137.005L337.886 143.119ZM331.713 135.35L341.034 122.345L312.932 102.204L315.767 136.662L331.713 135.35ZM318.714 153.841C319.262 156.057 319.934 158.36 320.71 160.737L351.129 150.801C350.55 149.029 350.107 147.488 349.779 146.162L318.714 153.841ZM332.08 140.236L321.829 142.77L329.508 173.835L339.759 171.301L332.08 140.236ZM339.75 150.707C337.95 147.369 336.477 143.554 335.397 139.186L304.332 146.864C306.001 153.617 308.397 159.987 311.586 165.899L339.75 150.707ZM335.397 139.186C334.846 136.956 334.563 135.225 334.448 133.933L302.574 136.765C302.866 140.054 303.486 143.44 304.332 146.864L335.397 139.186ZM322.351 150.882L347.606 144.639L339.928 113.574L314.672 119.817L322.351 150.882ZM329.677 136.687C330.7 138.588 331.83 141.409 332.901 145.41L363.812 137.135C362.301 131.49 360.372 126.2 357.858 121.527L329.677 136.687ZM338.524 128.651C335.888 130.704 332.601 132.543 328.494 134.053L339.539 164.086C346.37 161.574 352.644 158.215 358.189 153.895L338.524 128.651ZM318.484 152.909L318.714 153.841L349.779 146.162L349.549 145.23L318.484 152.909ZM339.005 160.779C342.287 159.518 345.766 157.653 348.808 154.811L326.963 131.428C327.344 131.071 327.635 130.887 327.739 130.826C327.84 130.766 327.791 130.807 327.532 130.906L339.005 160.779ZM352.671 137.005C350.211 131.056 346.253 126.085 341.034 122.345L322.392 148.354C322.782 148.633 322.938 148.843 323.1 149.234L352.671 137.005ZM315.767 136.662C316.091 140.606 316.715 144.741 317.591 149.038L348.946 142.648C348.274 139.35 347.861 136.49 347.659 134.037L315.767 136.662Z" fill="#F38D28"/>
</svg>
