<?xml version="1.0" ?><svg height="100px" style="enable-background:new 0 0 100 100;" version="1.1" viewBox="0 0 100 100" width="100px" xml:space="preserve" xmlns="http://www.w3.org/2000/svg" xmlns:xlink="http://www.w3.org/1999/xlink"><style type="text/css">
	.st0{fill:#2ECC71;}
	.st1{fill:#17304C;}
	.st2{fill:#ECF0F1;}
</style><g id="Layer_1"><path class="st0" d="M100,50c0,27.6-22.4,50-50,50S0,77.6,0,50S22.4,0,50,0S100,22.4,100,50z" id="XMLID_15_"/></g><g id="Layer_2"><g id="XMLID_16_"><path class="st1" d="M63.2,25.7c0.2,0.1,0.3,0.2,0.4,0.4" id="XMLID_23_"/><path class="st1" d="M63.6,26.1l0.1,0.2C63.6,26.2,63.6,26.1,63.6,26.1z" id="XMLID_31_"/><path class="st1" d="M63.7,26.3l-0.1-0.2c-0.1-0.1-0.3-0.3-0.4-0.4c-0.3-0.2-0.7-0.4-1.2-0.4H37.1    c-1.1,0-2,0.9-2,2v19.2v25.8c0,0,0,0,0,0c0,0.9,0.6,1.6,1.4,1.9c0.2,0.1,0.4,0.1,0.6,0.1H62c1.1,0,2-0.9,2-2v-45    C64,26.9,63.9,26.6,63.7,26.3z M46.9,28h5.3c0.2,0,0.4,0.2,0.4,0.4s-0.2,0.4-0.4,0.4h-5.3c-0.2,0-0.4-0.2-0.4-0.4S46.7,28,46.9,28    z M49.5,73.1c-0.9,0-1.6-0.7-1.6-1.6s0.7-1.6,1.6-1.6s1.6,0.7,1.6,1.6S50.4,73.1,49.5,73.1z M60.9,68.8H38.1V44.3v-14h18.9h3.9    V68.8z" id="XMLID_28_"/><polygon class="st2" id="XMLID_17_" points="57.1,30.2 38.1,30.2 38.1,44.3 38.1,68.8 60.9,68.8 60.9,30.2   "/><circle class="st2" cx="49.5" cy="71.5" id="XMLID_37_" r="1.6"/><path class="st2" d="M46.9,28.7h5.3c0.2,0,0.4-0.2,0.4-0.4S52.4,28,52.2,28h-5.3c-0.2,0-0.4,0.2-0.4,0.4    S46.7,28.7,46.9,28.7z" id="XMLID_38_"/></g></g></svg>