<?xml version="1.0" ?><svg viewBox="0 0 64 64" xmlns="http://www.w3.org/2000/svg"><defs><style>.cls-1{fill:#414042;}.cls-2{fill:#231f20;}.cls-3{fill:#fff200;}.cls-4{fill:#ffbe00;}</style></defs><title/><g id="phone"><path class="cls-1" d="M47,2H17a5,5,0,0,0-5,5V57a5,5,0,0,0,5,5H47a5,5,0,0,0,5-5V7A5,5,0,0,0,47,2ZM27,26a2.5,2.5,0,1,1-2.5,2.5A2.5,2.5,0,0,1,27,26Zm1,13a2,2,0,0,1-1.33-.5,2,2,0,0,1-.16-2.83L32,29.49l2.51-2.82a2,2,0,1,1,3,2.66L32,35.51l-2.51,2.82A2,2,0,0,1,28,39Zm8.5,0A2.5,2.5,0,1,1,39,36.5,2.5,2.5,0,0,1,36.5,39Z"/><path class="cls-2" d="M52,7V57a5,5,0,0,1-5,5H32V2H47A5,5,0,0,1,52,7Z"/><rect class="cls-3" height="44" width="36" x="14" y="10"/><path class="cls-1" d="M27,26a2.5,2.5,0,1,0,2.5,2.5A2.5,2.5,0,0,0,27,26Zm9.5,8A2.5,2.5,0,1,0,39,36.5,2.5,2.5,0,0,0,36.5,34Zm.83-7.5a2,2,0,0,0-2.82.17L32,29.49l-5.49,6.18a2,2,0,0,0,.16,2.83A2,2,0,0,0,28,39a2,2,0,0,0,1.49-.67L32,35.51l5.49-6.18A2,2,0,0,0,37.33,26.5Z"/><rect class="cls-4" height="44" width="18" x="32" y="10"/><path class="cls-2" d="M37.33,26.5a2,2,0,0,0-2.82.17L32,29.49v6l5.49-6.18A2,2,0,0,0,37.33,26.5Z"/><circle class="cls-2" cx="36.5" cy="36.5" r="2.5"/></g></svg>