<?xml version="1.0" standalone="no"?>
<!DOCTYPE svg PUBLIC "-//W3C//DTD SVG 1.1//EN" "http://www.w3.org/Graphics/SVG/1.1/DTD/svg11.dtd" >
<svg xmlns="http://www.w3.org/2000/svg" xmlns:xlink="http://www.w3.org/1999/xlink" version="1.1">
<metadata></metadata>
<defs>
<font id="trump_soft_proregular" horiz-adv-x="528" >
<font-face units-per-em="2048" ascent="1597" descent="-451" />
<missing-glyph horiz-adv-x="249" />
<glyph unicode="&#x28;C&#x29;" horiz-adv-x="1406" d="M55 778q0 385 160 593t487 208q326 0 488 -208t162 -591q0 -382 -161.5 -589t-490.5 -207q-327 0 -486 206t-159 588zM172 786q0 -333 132 -511.5t403 -178.5q272 0 400 178t128 504q0 330 -130.5 510t-404.5 180q-113 0 -202 -32t-149.5 -90.5t-100.5 -143.5t-58 -188 t-18 -228zM463 567v434q0 96 17.5 162t52 101.5t75.5 50t97 14.5t97 -14.5t75 -50t51.5 -101.5t17.5 -162v-49q0 -30 -31 -30h-65q-31 0 -31 30v105q0 78 -31.5 116.5t-82.5 38.5t-83 -38.5t-32 -116.5v-545q0 -78 32 -117t83 -39q50 0 82 39t32 117v84q0 31 31 31h65 q31 0 31 -31v-29q0 -96 -17.5 -162t-51.5 -101t-75 -49.5t-97 -14.5t-97 14.5t-75.5 49.5t-52 101t-17.5 162z" />
<glyph unicode="&#x28;R&#x29;" horiz-adv-x="753" d="M43 1180q0 191 84.5 295t249.5 104q164 0 249 -104.5t85 -294.5q0 -189 -85 -293.5t-251 -104.5q-164 0 -248 104t-84 294zM121 1184q0 -165 61 -244.5t197 -79.5t195 79t59 241q0 163 -60.5 243t-197.5 80t-195.5 -80t-58.5 -239zM260 969v426q0 30 31 30h92 q72 0 105.5 -35t33.5 -110q0 -71 -16.5 -100.5t-54.5 -46.5l57 -160q6 -15 -1 -25t-24 -10h-20q-26 0 -35 25l-57 159h-27v-153q0 -31 -31 -31h-22q-31 0 -31 31zM344 1204h37q57 0 57 68v8q0 30 -14.5 49t-42.5 19h-37v-144z" />
<glyph unicode="&#x28;P&#x29;" horiz-adv-x="1406" d="M55 778q0 385 160 593t487 208q326 0 488 -208t162 -591q0 -382 -161.5 -589t-490.5 -207q-327 0 -486 206t-159 588zM172 786q0 -333 132 -511.5t403 -178.5q272 0 400 178t128 504q0 330 -130.5 510t-404.5 180q-113 0 -202 -32t-149.5 -90.5t-100.5 -143.5t-58 -188 t-18 -228zM510 285v997q0 31 31 31h174q79 0 128 -12.5t85 -48t50.5 -100t14.5 -167.5v-16q0 -103 -14.5 -167.5t-50.5 -100t-85 -48t-128 -12.5h-78v-356q0 -31 -31 -31h-65q-31 0 -31 31zM637 768h115q60 0 87 35.5t27 120.5v116q0 85 -27 120.5t-87 35.5h-115v-428z" />
<glyph unicode="&#x28;TM&#x29;" horiz-adv-x="1204" d="M35 1505v33q0 31 31 31h374q31 0 31 -31v-33q0 -30 -31 -30h-139v-596q0 -31 -31 -31h-34q-31 0 -31 31v596h-139q-31 0 -31 30zM541 879v659q0 31 30 31h72q26 0 35 -25l149 -481l150 481q9 25 35 25h73q31 0 31 -31v-659q0 -31 -31 -31h-34q-31 0 -31 31v520l-166 -527 q-9 -24 -35 -24q-22 0 -31 26l-153 521v-516q0 -31 -31 -31h-33q-30 0 -30 31z" />
<glyph unicode="ff" horiz-adv-x="698" d="M4 1079v51q0 31 31 31h82v113q0 173 39 240t135 67q21 0 57 -4q27 -6 27 -35v-43q0 -29 -25 -29h-22q-55 0 -71.5 -29.5t-16.5 -109.5v-170h202v113q0 173 39 240t135 67q22 0 58 -4q26 -6 26 -35v-43q0 -29 -24 -29h-23q-55 0 -71.5 -29.5t-16.5 -109.5v-170h103 q30 0 30 -31v-51q0 -30 -30 -30h-103v-1018q0 -31 -30 -31h-62q-31 0 -31 31v1018h-202v-1018q0 -31 -31 -31h-62q-30 0 -30 31v1018h-82q-31 0 -31 30z" />
<glyph unicode="fi" horiz-adv-x="632" d="M4 1079v51q0 31 31 31h82v113q0 173 39 240t135 67q21 0 57 -4q27 -6 27 -35v-43q0 -29 -25 -29h-22q-55 0 -71.5 -29.5t-16.5 -109.5v-170h102q31 0 31 -31v-51q0 -30 -31 -30h-102v-1018q0 -31 -31 -31h-62q-30 0 -30 31v1018h-82q-31 0 -31 30zM412 1403q0 38 27 65 t65 27t65 -27t27 -65t-27 -65t-65 -27t-65 27t-27 65zM442 31v1099q0 31 31 31h62q30 0 30 -31v-1099q0 -31 -30 -31h-62q-31 0 -31 31z" />
<glyph unicode="fl" horiz-adv-x="634" d="M4 1079v51q0 31 31 31h82v113q0 173 39 240t135 67q21 0 57 -4q27 -6 27 -35v-43q0 -29 -25 -29h-22q-55 0 -71.5 -29.5t-16.5 -109.5v-170h102q31 0 31 -31v-51q0 -30 -31 -30h-102v-1018q0 -31 -31 -31h-62q-30 0 -30 31v1018h-82q-31 0 -31 30zM442 31v1507 q0 31 31 31h62q30 0 30 -31v-1507q0 -31 -30 -31h-62q-31 0 -31 31z" />
<glyph unicode="ffi" horiz-adv-x="958" d="M4 1079v51q0 31 31 31h82v113q0 173 39 240t135 67q21 0 57 -4q27 -6 27 -35v-43q0 -29 -25 -29h-22q-55 0 -71.5 -29.5t-16.5 -109.5v-170h202v113q0 173 39 240t135 67q22 0 58 -4q26 -6 26 -35v-43q0 -29 -24 -29h-23q-55 0 -71.5 -29.5t-16.5 -109.5v-170h103 q30 0 30 -31v-51q0 -30 -30 -30h-103v-1018q0 -31 -30 -31h-62q-31 0 -31 31v1018h-202v-1018q0 -31 -31 -31h-62q-30 0 -30 31v1018h-82q-31 0 -31 30zM737 1403q0 38 27 65t65 27t65.5 -27t27.5 -65t-27.5 -65t-65.5 -27t-65 27t-27 65zM768 31v1099q0 31 31 31h61 q31 0 31 -31v-1099q0 -31 -31 -31h-61q-31 0 -31 31z" />
<glyph unicode="ffl" horiz-adv-x="960" d="M4 1079v51q0 31 31 31h82v113q0 173 39 240t135 67q21 0 57 -4q27 -6 27 -35v-43q0 -29 -25 -29h-22q-55 0 -71.5 -29.5t-16.5 -109.5v-170h202v113q0 173 39 240t135 67q22 0 58 -4q26 -6 26 -35v-43q0 -29 -24 -29h-23q-55 0 -71.5 -29.5t-16.5 -109.5v-170h103 q30 0 30 -31v-51q0 -30 -30 -30h-103v-1018q0 -31 -30 -31h-62q-31 0 -31 31v1018h-202v-1018q0 -31 -31 -31h-62q-30 0 -30 31v1018h-82q-31 0 -31 30zM768 31v1507q0 31 31 31h61q31 0 31 -31v-1507q0 -31 -31 -31h-61q-31 0 -31 31z" />
<glyph unicode="fj" horiz-adv-x="632" d="M4 1079v51q0 31 31 31h82v113q0 173 39 240t135 67q21 0 57 -4q27 -6 27 -35v-43q0 -29 -25 -29h-22q-55 0 -71.5 -29.5t-16.5 -109.5v-170h102q31 0 31 -31v-51q0 -30 -31 -30h-102v-1018q0 -31 -31 -31h-62q-30 0 -30 31v1018h-82q-31 0 -31 30zM307 -340q0 14 5 22 t14 7h16q29 0 48 7.5t29.5 18t15.5 34t6 42t1 55.5v1284q0 31 31 31h62q30 0 30 -31v-1265q0 -150 -35.5 -218.5t-140.5 -68.5q-19 0 -55 4q-27 6 -27 35v43zM412 1403q0 38 27 65t65 27t65 -27t27 -65t-27 -65t-65 -27t-65 27t-27 65z" />
<glyph unicode="ft" horiz-adv-x="706" d="M4 1079v51q0 31 31 31h82v113q0 173 39 240t135 67q21 0 57 -4q27 -6 27 -35v-43q0 -29 -25 -29h-22q-55 0 -71.5 -29.5t-16.5 -109.5v-170h202v256q0 31 31 31h62q30 0 30 -31v-256h103q30 0 30 -31v-51q0 -30 -30 -30h-103v-816q0 -80 16.5 -109.5t71.5 -29.5h15 q32 0 32 -28v-43q0 -29 -26 -35q-36 -4 -60 -4q-105 0 -138.5 66.5t-33.5 240.5v758h-202v-1018q0 -31 -31 -31h-62q-30 0 -30 31v1018h-82q-31 0 -31 30z" />
<glyph unicode=" "  horiz-adv-x="249" />
<glyph unicode="&#x09;" horiz-adv-x="249" />
<glyph unicode="&#xa0;" horiz-adv-x="249" />
<glyph unicode="!" horiz-adv-x="305" d="M66 70q0 35 25.5 60.5t60.5 25.5t60.5 -25.5t25.5 -60.5t-25.5 -60.5t-60.5 -25.5t-60.5 25.5t-25.5 60.5zM82 1538q0 31 31 31h80q30 0 30 -31l-30 -1198q0 -31 -31 -31h-21q-30 0 -30 31z" />
<glyph unicode="&#x22;" horiz-adv-x="411" d="M51 1536q-1 15 7.5 24t23.5 9h57q15 0 23.5 -9t7.5 -24l-27 -369q-3 -28 -30 -28h-4q-28 0 -31 28zM242 1536q-1 15 7 24t23 9h58q15 0 23 -9t7 -24l-26 -369q-3 -28 -31 -28h-4q-28 0 -31 28z" />
<glyph unicode="#" horiz-adv-x="948" d="M45 571l14 54q6 26 33 26h139l60 234h-158q-33 0 -27 35l15 53q6 26 33 26h168l104 408q6 27 33 27h55q33 0 27 -35l-103 -400h193l104 408q6 27 33 27h55q33 0 27 -35l-102 -400h131q32 0 26 -34l-14 -54q-6 -26 -33 -26h-141l-60 -234h160q33 0 27 -35l-15 -53 q-6 -26 -32 -26h-168l-105 -408q-6 -27 -32 -27h-56q-32 0 -26 35l102 400h-193l-104 -408q-6 -27 -33 -27h-55q-33 0 -27 35l103 400h-131q-33 0 -27 34zM348 651h193l59 234h-192z" />
<glyph unicode="$" horiz-adv-x="616" d="M66 322v172q0 30 30 30h66q31 0 31 -30v-248q0 -66 23 -104t60 -48v615q-42 44 -61 64.5t-54 64.5t-51 77t-30 81t-14 96v204q0 70 13.5 123t33.5 83.5t50 51t55.5 28t57.5 11.5v76q0 31 31 31h6q31 0 31 -31v-78q32 -4 56.5 -11.5t54 -28t49 -50.5t32.5 -82.5t13 -122.5 v-243q0 -31 -31 -31h-65q-31 0 -31 31v270q0 121 -78 150v-648q40 -37 59.5 -55.5t53 -57t49.5 -69t29.5 -74.5t13.5 -90v-157q0 -169 -45 -253.5t-160 -93.5v-75q0 -31 -31 -31h-6q-31 0 -31 31v75q-118 7 -164 92.5t-46 254.5zM193 1110q0 -116 83 -213v578 q-83 -26 -83 -152v-213zM344 96q35 11 56.5 48.5t21.5 101.5v211q0 81 -78 176v-537z" />
<glyph unicode="%" horiz-adv-x="1212" d="M53 864v408q0 172 39 239.5t150 67.5q108 0 146 -66.5t38 -240.5v-408q0 -174 -38 -240.5t-146 -66.5q-111 0 -150 67.5t-39 239.5zM166 815q0 -87 16 -121.5t58 -34.5t57.5 34t15.5 122v506q0 88 -15.5 122t-57.5 34t-58 -34.5t-16 -121.5v-506zM356 35l406 1507 q6 27 33 27h43q33 0 24 -35l-405 -1507q-6 -27 -33 -27h-43q-34 0 -25 35zM786 291v407q0 172 39 240t150 68q108 0 146 -67t38 -241v-407q0 -174 -38 -240.5t-146 -66.5q-111 0 -150 67.5t-39 239.5zM899 242q0 -87 16 -121.5t58 -34.5t58 34.5t16 121.5v506q0 87 -16 121 t-58 34t-58 -34t-16 -121v-506z" />
<glyph unicode="&#x26;" horiz-adv-x="665" d="M84 281v262q0 112 36.5 179t135.5 99q-100 26 -136 86.5t-36 171.5v211q0 307 240 307q114 0 178.5 -73.5t64.5 -233.5v-30q0 -31 -30 -31h-66q-31 0 -31 31v65q0 80 -33 118t-81 38t-81.5 -38t-33.5 -118v-309q0 -40 18.5 -69t48.5 -42t56.5 -18.5t52.5 -5.5h53v92 q0 31 31 31h66q30 0 30 -31v-92h33q31 0 31 -31v-64q0 -30 -31 -30h-33v-475q0 -160 -64.5 -234t-178.5 -74q-240 0 -240 308zM211 246q0 -80 33.5 -118t81.5 -38t81 38t33 118v510h-53q-26 0 -52.5 -5.5t-56.5 -18.5t-48.5 -42t-18.5 -69v-375z" />
<glyph unicode="'" horiz-adv-x="221" d="M51 1536q-1 15 7.5 24t23.5 9h57q15 0 23.5 -9t7.5 -24l-27 -369q-3 -28 -30 -28h-4q-28 0 -31 28z" />
<glyph unicode="(" horiz-adv-x="342" d="M43 608q0 474 154 936q9 25 34 25h62q17 0 23 -9.5t1 -25.5q-71 -190 -110 -430.5t-39 -495.5t39 -495t110 -430q5 -16 -1 -25.5t-23 -9.5h-62q-25 0 -34 24q-154 462 -154 936z" />
<glyph unicode=")" horiz-adv-x="342" d="M25 -317q71 190 110 430t39 495t-39 495.5t-110 430.5q-5 16 1 25.5t23 9.5h62q25 0 34 -25q154 -462 154 -936t-154 -936q-9 -24 -34 -24h-62q-34 0 -24 35z" />
<glyph unicode="*" horiz-adv-x="550" d="M37 1315v39q0 14 9 21.5t22 6.5l139 -8l-88 131q-17 26 10 43l33 19q12 8 23.5 4t17.5 -17l73 -143l70 141q16 29 41 13l33 -19q13 -6 16 -17.5t-6 -23.5l-86 -133l139 8q13 1 22 -6.5t9 -21.5v-37q0 -14 -9 -22t-22 -7l-141 8l88 -133q20 -26 -10 -43l-33 -18 q-26 -13 -41 14l-70 133l-69 -135q-13 -29 -41 -12l-33 18q-27 17 -8 43l88 133l-145 -8q-15 -1 -23 7t-8 22z" />
<glyph unicode="+" horiz-adv-x="864" d="M82 719v49q0 31 31 31h262v264q0 31 31 31h53q30 0 30 -31v-264h263q30 0 30 -31v-49q0 -31 -30 -31h-263v-264q0 -31 -30 -31h-53q-31 0 -31 31v264h-262q-31 0 -31 31z" />
<glyph unicode="," horiz-adv-x="391" d="M18 -242l134 387q9 25 34 25h82q39 0 23 -37l-203 -387q-11 -22 -37 -22h-10q-15 0 -22 9.5t-1 24.5z" />
<glyph unicode="-" horiz-adv-x="395" d="M66 571v54q0 30 30 30h203q31 0 31 -30v-54q0 -30 -31 -30h-203q-30 0 -30 30z" />
<glyph unicode="." horiz-adv-x="303" d="M66 70q0 35 25.5 60.5t60.5 25.5t60.5 -25.5t25.5 -60.5t-25.5 -60.5t-60.5 -25.5t-60.5 25.5t-25.5 60.5z" />
<glyph unicode="/" horiz-adv-x="575" d="M37 35l387 1507q6 27 33 27h55q33 0 27 -35l-387 -1507q-6 -27 -33 -27h-56q-32 0 -26 35z" />
<glyph unicode="0" horiz-adv-x="655" d="M86 301v967q0 96 17.5 162t52 101t75.5 49.5t97 14.5t97 -14.5t75 -49.5t51.5 -101t17.5 -162v-967q0 -96 -17.5 -162t-51.5 -101.5t-75 -50t-97 -14.5t-97 14.5t-75.5 50t-52 101.5t-17.5 162zM213 246q0 -78 32 -117t83 -39q50 0 82 39t32 117v1077q0 78 -32 117 t-82 39q-51 0 -83 -39t-32 -117v-1077z" />
<glyph unicode="1" horiz-adv-x="442" d="M12 1382v62q0 26 23 35l170 82q19 8 39 8h51q31 0 31 -31v-1507q0 -31 -31 -31h-66q-30 0 -30 31v1388l-152 -61q-15 -6 -25 0.5t-10 23.5z" />
<glyph unicode="2" horiz-adv-x="593" d="M61 31v145q0 81 37 181.5t89.5 196.5t104.5 191.5t89 192.5t37 172v213q0 80 -33.5 118t-81.5 38t-81.5 -38t-33.5 -118v-240q0 -30 -30 -30h-66q-31 0 -31 30v211q0 301 240 301q244 0 244 -301v-207q0 -77 -36.5 -179t-88 -202t-103 -199.5t-88 -201t-36.5 -178.5h284 q31 0 31 -31v-65q0 -31 -31 -31h-385q-31 0 -31 31z" />
<glyph unicode="3" horiz-adv-x="630" d="M63 281v190q0 31 31 31h66q30 0 30 -31v-225q0 -80 33.5 -118t81.5 -38t81.5 38t33.5 118v375q0 40 -18.5 69t-48.5 42t-56.5 18.5t-52.5 5.5h-6q-33 -3 -33 28v54q0 31 18 28h21q26 0 52.5 5.5t56.5 18.5t48.5 42t18.5 69v324q0 80 -33.5 118t-81.5 38t-81.5 -38 t-33.5 -118v-233q0 -31 -30 -31h-66q-31 0 -31 31v198q0 159 64.5 233t177.5 74q242 0 242 -307v-211q0 -111 -36 -171.5t-136 -86.5q99 -32 135.5 -99t36.5 -179v-262q0 -308 -242 -308q-112 0 -177 74t-65 234z" />
<glyph unicode="4" horiz-adv-x="612" d="M18 465v78q0 2 5 37l258 962q6 27 32 27h117q31 0 31 -31v-977h92q31 0 31 -31v-65q0 -31 -31 -31h-92v-403q0 -31 -31 -31h-65q-31 0 -31 31v403h-285q-31 0 -31 31zM150 561h184v873z" />
<glyph unicode="5" horiz-adv-x="624" d="M80 285v102q0 31 31 31h65q31 0 31 -31v-137q0 -83 33.5 -121.5t81.5 -38.5t81 40t33 120v481q0 54 -9 90.5t-26 53t-34 22.5t-39 6q-108 0 -119 -139q-3 -31 -33 -31h-65q-31 0 -31 31v774q0 31 31 31h370q31 0 31 -31v-65q0 -31 -31 -31h-274v-539q23 54 69.5 84.5 t100.5 30.5q78 0 132 -66.5t54 -199.5v-467q0 -163 -59.5 -237.5t-179.5 -74.5q-118 0 -181 73.5t-63 238.5z" />
<glyph unicode="6" horiz-adv-x="647" d="M88 285v1011q0 299 242 299q113 0 176 -69t63 -230v-114q0 -31 -30 -31h-66q-31 0 -31 31v141q0 80 -33 118t-81 38t-81.5 -38t-33.5 -118v-440q23 54 70.5 84t101.5 30q78 0 132 -66.5t54 -199.5v-446q0 -163 -59.5 -237.5t-179.5 -74.5q-118 0 -181 73.5t-63 238.5z M215 250q0 -83 33.5 -121.5t81.5 -38.5t81 40t33 120v457q0 103 -30 139.5t-78 36.5q-121 0 -121 -176v-457z" />
<glyph unicode="7" horiz-adv-x="591" d="M29 35l409 1407h-366q-31 0 -31 31v65q0 31 31 31h489q31 0 31 -31q0 -4 -6 -25l-420 -1486q-9 -27 -35 -27h-76q-35 0 -26 35z" />
<glyph unicode="8" horiz-adv-x="645" d="M80 281v333q0 95 34 155.5t97 102.5q-59 24 -95 91t-36 167v160q0 159 64.5 233t177.5 74q241 0 241 -307v-160q0 -100 -36 -168t-95 -90q131 -88 131 -278v-313q0 -308 -241 -308q-112 0 -177 74t-65 234zM207 246q0 -80 33.5 -118t81.5 -38t81 38t33 118v426 q0 78 -31.5 106.5t-82.5 28.5q-52 0 -83.5 -28.5t-31.5 -106.5v-426zM207 1053q0 -78 31.5 -106.5t83.5 -28.5q51 0 82.5 28.5t31.5 106.5v272q0 80 -33 118t-81 38t-81.5 -38t-33.5 -118v-272z" />
<glyph unicode="9" horiz-adv-x="647" d="M76 838v446q0 162 59.5 236.5t179.5 74.5q118 0 181 -73t63 -238v-1012q0 -299 -242 -299q-113 0 -176 69t-63 230v115q0 31 31 31h65q31 0 31 -31v-141q0 -80 33 -118t81 -38t81.5 38t33.5 118v440q-23 -54 -70.5 -84.5t-101.5 -30.5q-78 0 -132 67t-54 200zM203 862 q0 -103 30 -139.5t78 -36.5q121 0 121 176v457q0 83 -33.5 121.5t-81.5 38.5t-81 -40t-33 -120v-457z" />
<glyph unicode=":" horiz-adv-x="303" d="M66 70q0 35 25.5 60.5t60.5 25.5t60.5 -25.5t25.5 -60.5t-25.5 -60.5t-60.5 -25.5t-60.5 25.5t-25.5 60.5zM66 791q0 35 25.5 60.5t60.5 25.5t60.5 -25.5t25.5 -60.5t-25.5 -60.5t-60.5 -25.5t-60.5 25.5t-25.5 60.5z" />
<glyph unicode=";" horiz-adv-x="352" d="M-25 -242l134 387q9 25 34 25h82q39 0 23 -37l-203 -387q-11 -22 -37 -22h-10q-15 0 -22 9.5t-1 24.5zM106 791q0 35 26 60.5t61 25.5t60.5 -25.5t25.5 -60.5t-25.5 -60.5t-60.5 -25.5t-61 25.5t-26 60.5z" />
<glyph unicode="&#x3c;" horiz-adv-x="864" d="M115 721q-19 23 0 45l516 608q22 25 43 4l47 -39q23 -23 2 -43l-481 -553l481 -553q21 -20 -2 -43l-47 -38q-21 -21 -43 4z" />
<glyph unicode="=" horiz-adv-x="864" d="M82 563v49q0 31 31 31h639q30 0 30 -31v-49q0 -31 -30 -31h-639q-31 0 -31 31zM82 870v50q0 30 31 30h639q30 0 30 -30v-50q0 -30 -30 -30h-639q-31 0 -31 30z" />
<glyph unicode="&#x3e;" horiz-adv-x="864" d="M139 190l482 553l-482 553q-21 20 2 43l47 39q20 20 43 -2l517 -610q19 -22 0 -45l-517 -610q-23 -23 -43 -2l-47 38q-23 23 -2 43z" />
<glyph unicode="?" horiz-adv-x="563" d="M39 1092v198q0 160 65 233.5t179 73.5q239 0 239 -307v-211q0 -142 -48.5 -224.5t-166.5 -92.5l-18 -424q-3 -31 -33 -31h-25q-29 0 -32 31l-17 500q-3 31 19 28h18q26 0 52.5 5.5t56.5 18.5t48.5 42t18.5 69v324q0 80 -33 118t-81 38t-81.5 -38t-33.5 -118v-233 q0 -31 -31 -31h-65q-31 0 -31 31zM164 70q0 35 25.5 60.5t60.5 25.5t60.5 -25.5t25.5 -60.5t-25.5 -60.5t-60.5 -25.5t-60.5 25.5t-25.5 60.5z" />
<glyph unicode="@" horiz-adv-x="1374" d="M41 322q0 129 20.5 255.5t60 245t101.5 220t140 176.5t180.5 118t218.5 43q110 0 203 -39t157.5 -106.5t109.5 -158.5t66 -194t21 -214q0 -101 -17 -201t-53 -192t-86.5 -163t-121.5 -113t-154 -42q-153 0 -168 158q-32 -59 -89 -95t-114 -36q-94 0 -94 122q0 68 24 185 l74 348q16 74 27 118.5t26.5 86.5t32.5 62.5t40.5 33t55.5 12.5q50 0 77 -23.5t57 -76.5l10 55q6 27 35 27h59q17 0 24.5 -10t2.5 -27q-156 -736 -156 -758q0 -19 2.5 -34t10.5 -31t26 -24.5t45 -8.5q70 0 130 62t97 158t57.5 205.5t20.5 211.5q0 94 -17.5 180t-53.5 160.5 t-87.5 129.5t-124.5 86.5t-159 31.5q-115 0 -214 -56t-169 -150t-120.5 -217t-74.5 -258t-24 -272q0 -323 134 -493t363 -170q137 0 269 74q32 18 41 -17l12 -45q6 -25 -17 -41q-79 -44 -149 -65t-156 -21q-285 0 -448.5 207t-163.5 580zM549 160q0 -64 49 -64q77 0 111 156 q104 486 104 518q0 34 -13 49t-42 15q-42 0 -65 -34t-42 -122l-90 -426q-12 -59 -12 -92z" />
<glyph unicode="A" horiz-adv-x="589" d="M16 33l203 1509q3 29 33 29h86q30 0 33 -29l204 -1509q3 -33 -28 -33h-66q-29 0 -32 29l-41 360h-224l-41 -360q-3 -29 -32 -29h-66q-32 0 -29 33zM201 506h190l-96 840z" />
<glyph unicode="B" horiz-adv-x="628" d="M80 31v1507q0 31 31 31h182q149 0 204.5 -69t55.5 -255v-201q0 -200 -150 -237q85 -18 127.5 -88t42.5 -164v-227q0 -102 -14.5 -166t-50.5 -100t-85 -49t-128 -13h-184q-31 0 -31 31zM207 127h125q60 0 87 35.5t27 120.5v301q0 155 -135 155h-104v-612zM207 866h104 q60 0 87.5 35.5t27.5 120.5v268q0 84 -27.5 118t-87.5 34h-104v-576z" />
<glyph unicode="C" horiz-adv-x="612" d="M74 301v967q0 96 17.5 162t51.5 101t75 49.5t97 14.5t97 -14.5t75.5 -49.5t52 -101t17.5 -162v-213q0 -31 -31 -31h-65q-31 0 -31 31v268q0 78 -32 117t-83 39q-50 0 -82 -39t-32 -117v-1077q0 -78 32 -117t82 -39q51 0 83 39t32 117v248q0 30 31 30h65q31 0 31 -30v-193 q0 -96 -17.5 -162t-52 -101.5t-75.5 -50t-97 -14.5t-97 14.5t-75 50t-51.5 101.5t-17.5 162z" />
<glyph unicode="D" horiz-adv-x="626" d="M80 31v1507q0 31 31 31h163q80 0 128.5 -12.5t84.5 -48t51 -100t15 -167.5v-913q0 -103 -15 -167.5t-51 -100t-84.5 -48t-128.5 -12.5h-163q-31 0 -31 31zM207 127h104q60 0 87.5 35.5t27.5 120.5v1003q0 85 -27.5 120.5t-87.5 35.5h-104v-1315z" />
<glyph unicode="E" horiz-adv-x="546" d="M80 31v1507q0 31 31 31h356q31 0 31 -31v-65q0 -31 -31 -31h-260v-588h246q30 0 30 -31v-65q0 -31 -30 -31h-246v-600h260q31 0 31 -31v-65q0 -31 -31 -31h-356q-31 0 -31 31z" />
<glyph unicode="F" horiz-adv-x="538" d="M80 31v1507q0 31 31 31h356q31 0 31 -31v-65q0 -31 -31 -31h-260v-588h246q30 0 30 -31v-65q0 -31 -30 -31h-246v-696q0 -31 -31 -31h-65q-31 0 -31 31z" />
<glyph unicode="G" horiz-adv-x="643" d="M74 301v967q0 96 17.5 162t52.5 101t78.5 49.5t103.5 14.5t103.5 -14.5t78.5 -49.5t52.5 -101t17.5 -162v-215q0 -31 -31 -31h-66q-30 0 -30 31v270q0 79 -33.5 117.5t-91.5 38.5t-91.5 -38.5t-33.5 -117.5v-1077q0 -79 33.5 -117.5t91.5 -38.5t91.5 38.5t33.5 117.5v401 h-107q-31 0 -31 31v61q0 31 31 31h203q31 0 31 -31v-438q0 -96 -17.5 -162t-52.5 -101.5t-78.5 -50t-103.5 -14.5t-103.5 14.5t-78.5 50t-52.5 101.5t-17.5 162z" />
<glyph unicode="H" horiz-adv-x="643" d="M80 31v1507q0 31 31 31h65q31 0 31 -31v-674h229v674q0 31 31 31h65q31 0 31 -31v-1507q0 -31 -31 -31h-65q-31 0 -31 31v706h-229v-706q0 -31 -31 -31h-65q-31 0 -31 31z" />
<glyph unicode="I" horiz-adv-x="286" d="M80 31v1507q0 31 31 31h65q31 0 31 -31v-1507q0 -31 -31 -31h-65q-31 0 -31 31z" />
<glyph unicode="J" horiz-adv-x="286" d="M-43 -307q0 31 8 31q48 0 81.5 37.5t33.5 117.5v1659q0 31 31 31h65q31 0 31 -31v-1628q0 -79 -17 -137t-41 -89t-59.5 -49.5t-63.5 -23t-61 -4.5h-4q-4 0 -4 31v55z" />
<glyph unicode="K" horiz-adv-x="608" d="M80 31v1507q0 31 31 31h65q31 0 31 -31v-1507q0 -31 -31 -31h-65q-31 0 -31 31zM215 805l236 739q9 25 34 25h64q17 0 24 -10t2 -25l-227 -743l264 -756q6 -15 -0.5 -25t-23.5 -10h-64q-26 0 -35 25l-272 739q-8 19 -2 41z" />
<glyph unicode="L" horiz-adv-x="432" d="M80 31v1507q0 31 31 31h65q31 0 31 -31v-1411h178q31 0 31 -31v-65q0 -31 -31 -31h-274q-31 0 -31 31z" />
<glyph unicode="M" horiz-adv-x="897" d="M80 31v1507q0 31 31 31h135q30 0 33 -29l170 -1098l169 1098q3 29 33 29h135q31 0 31 -31v-1507q0 -31 -31 -31h-65q-31 0 -31 31l8 1249l-217 -1251q-3 -29 -32 -29h-25q-30 0 -33 29l-192 1259l8 -1257q0 -31 -31 -31h-65q-31 0 -31 31z" />
<glyph unicode="N" horiz-adv-x="688" d="M80 31v1507q0 31 31 31h63q27 0 33 -27l278 -1087l-4 1083q0 31 31 31h66q30 0 30 -31v-1507q0 -31 -30 -31h-74q-27 0 -33 27l-268 1071l4 -1067q0 -31 -31 -31h-65q-31 0 -31 31z" />
<glyph unicode="O" horiz-adv-x="630" d="M74 301v967q0 96 17.5 162t51.5 101t75 49.5t97 14.5t97 -14.5t75.5 -49.5t52 -101t17.5 -162v-967q0 -96 -17.5 -162t-52 -101.5t-75.5 -50t-97 -14.5t-97 14.5t-75 50t-51.5 101.5t-17.5 162zM201 246q0 -78 32 -117t82 -39q51 0 83 39t32 117v1077q0 78 -32 117 t-83 39q-50 0 -82 -39t-32 -117v-1077z" />
<glyph unicode="P" horiz-adv-x="598" d="M80 31v1507q0 31 31 31h163q80 0 128.5 -12.5t84.5 -48t51 -100t15 -167.5v-242q0 -83 -10.5 -140t-30 -94t-55 -57.5t-78 -28t-105.5 -7.5h-67v-641q0 -31 -31 -31h-65q-31 0 -31 31zM207 799h104q60 0 87.5 35.5t27.5 119.5v332q0 85 -27.5 120.5t-87.5 35.5h-104v-643 z" />
<glyph unicode="Q" horiz-adv-x="630" d="M74 301v967q0 96 17.5 162t51.5 101t75 49.5t97 14.5t97 -14.5t75.5 -49.5t52 -101t17.5 -162v-967q0 -229 -106 -295l92 -199q11 -25 -15 -40l-39 -23q-28 -13 -40 14l-99 217q-10 -2 -35 -2q-56 0 -97 14.5t-75 50t-51.5 101.5t-17.5 162zM201 246q0 -78 32 -117 t82 -39q51 0 83 39t32 117v1077q0 78 -32 117t-83 39q-50 0 -82 -39t-32 -117v-1077z" />
<glyph unicode="R" horiz-adv-x="608" d="M80 31v1507q0 31 31 31h168q79 0 127.5 -12.5t83.5 -48t49 -99.5t14 -168v-235q0 -140 -34 -214.5t-118 -95.5l183 -661q9 -35 -25 -35h-65q-27 0 -33 27l-178 655h-76v-651q0 -31 -31 -31h-65q-31 0 -31 31zM207 809h104q60 0 87.5 35.5t27.5 120.5v321 q0 85 -27.5 120.5t-87.5 35.5h-104v-633z" />
<glyph unicode="S" horiz-adv-x="604" d="M59 322v172q0 30 31 30h66q30 0 30 -30v-248q0 -80 33.5 -118t81.5 -38t81.5 38t33.5 118v211q0 59 -37 118t-89 111.5t-104.5 109.5t-89.5 134t-37 162v200q0 303 242 303t242 -307v-235q0 -31 -31 -31h-66q-30 0 -30 31v270q0 80 -33.5 118t-81.5 38t-81.5 -38 t-33.5 -118v-213q0 -77 37 -143t89 -116.5t104.5 -101.5t89.5 -120t37 -150v-157q0 -180 -53 -264.5t-189 -84.5t-189 85.5t-53 263.5z" />
<glyph unicode="T" horiz-adv-x="548" d="M16 1473v65q0 31 31 31h455q30 0 30 -31v-65q0 -31 -30 -31h-164v-1411q0 -31 -31 -31h-65q-31 0 -31 31v1411h-164q-31 0 -31 31z" />
<glyph unicode="U" horiz-adv-x="638" d="M78 301v1237q0 31 31 31h65q31 0 31 -31v-1292q0 -78 32 -117t82 -39q51 0 83 39t32 117v1292q0 31 31 31h65q31 0 31 -31v-1237q0 -96 -17.5 -162t-52 -101.5t-75.5 -50t-97 -14.5t-97 14.5t-75 50t-51.5 101.5t-17.5 162z" />
<glyph unicode="V" horiz-adv-x="565" d="M23 1536q-3 33 28 33h66q27 0 30 -29l134 -1339l135 1339q3 29 30 29h66q32 0 29 -33l-183 -1507q-3 -29 -32 -29h-86q-30 0 -33 29z" />
<glyph unicode="W" horiz-adv-x="935" d="M27 1536q-3 33 28 33h66q28 0 31 -29l114 -1270l133 1270q0 13 8.5 21t22.5 8h74q14 0 22.5 -8t8.5 -21l135 -1270l112 1270q3 29 31 29h66q31 0 28 -33l-162 -1507q-3 -29 -32 -29h-86q-30 0 -33 29l-127 1153l-125 -1153q-3 -29 -33 -29h-86q-30 0 -33 29z" />
<glyph unicode="X" horiz-adv-x="612" d="M4 35l252 772l-240 727q-6 15 1 25t24 10h65q26 0 35 -25l170 -551l158 549q9 27 35 27h65q36 0 27 -35l-213 -729l217 -770q9 -35 -25 -35h-65q-27 0 -33 27l-166 602l-184 -604q-9 -25 -35 -25h-63q-17 0 -24 10t-1 25z" />
<glyph unicode="Y" horiz-adv-x="606" d="M27 1534q-9 35 26 35h66q29 0 35 -27l149 -735l150 735q6 27 34 27h66q36 0 27 -35l-215 -948v-555q0 -31 -31 -31h-62q-30 0 -30 31v555z" />
<glyph unicode="Z" horiz-adv-x="538" d="M27 31v78q0 8 4 36l325 1297h-280q-31 0 -31 31v65q0 31 31 31h403q31 0 31 -31q0 -2 -0.5 -5t-1.5 -8.5t-2 -11.5l-348 -1386h321q31 0 31 -31v-65q0 -31 -31 -31h-422q-30 0 -30 31z" />
<glyph unicode="[" horiz-adv-x="397" d="M92 -317v1855q0 31 31 31h217q31 0 31 -31v-45q0 -31 -31 -31h-129v-1698h129q31 0 31 -30v-51q0 -31 -31 -31h-217q-31 0 -31 31z" />
<glyph unicode="\" horiz-adv-x="575" d="M37 1534q-6 35 26 35h56q27 0 33 -27l387 -1507q6 -35 -27 -35h-55q-27 0 -33 27z" />
<glyph unicode="]" horiz-adv-x="397" d="M27 -264q0 31 30 31h125v1695h-125q-30 0 -30 31v45q0 31 30 31h217q31 0 31 -31v-1853q0 -31 -31 -31h-217q-30 0 -30 31v51z" />
<glyph unicode="^" horiz-adv-x="864" d="M141 913l215 631q9 25 35 25h82q26 0 35 -25l213 -631q6 -15 -1 -24.5t-24 -9.5h-65q-26 0 -35 24l-166 502l-166 -502q-9 -24 -35 -24h-63q-17 0 -24 9.5t-1 24.5z" />
<glyph unicode="_" horiz-adv-x="587" d="M66 -16v32q0 31 30 31h396q30 0 30 -31v-32q0 -31 -30 -31h-396q-30 0 -30 31z" />
<glyph unicode="`" horiz-adv-x="200" d="M1 1511q6 11 24 11h77q25 0 35 -23l64 -147q7 -17 0.5 -27t-23.5 -10h-45q-26 0 -37 20l-92 150q-9 15 -3 26z" />
<glyph unicode="a" horiz-adv-x="514" d="M55 291v22q0 172 30.5 243t109.5 71q45 0 75.5 -23t55.5 -74v379q0 87 -16 121.5t-58 34.5t-58 -34.5t-16 -121.5v-88q0 -30 -31 -30h-61q-31 0 -31 30v78q0 151 42 215t157 64q106 0 150.5 -61.5t44.5 -217.5v-868q0 -31 -31 -31h-37q-29 0 -35 27l-12 67 q-9 -21 -19 -37t-27 -34.5t-42 -28.5t-56 -10q-75 0 -105 70t-30 237zM178 248q0 -80 15 -117t51 -37q82 0 82 176v86q0 152 -78 152q-39 0 -54.5 -35.5t-15.5 -120.5v-104z" />
<glyph unicode="b" horiz-adv-x="524" d="M70 31v1507q0 31 30 31h62q31 0 31 -31v-471q49 111 135 111q75 0 105 -70.5t30 -237.5v-579q0 -167 -30 -237t-105 -70q-31 0 -56 10t-42 28.5t-27 34.5t-19 37l-12 -67q-6 -27 -35 -27h-37q-30 0 -30 31zM193 270q0 -176 81 -176q36 0 51 37t15 117v665q0 80 -15 117 t-51 37q-81 0 -81 -176v-621z" />
<glyph unicode="c" horiz-adv-x="507" d="M63 225v711q0 137 51.5 189.5t145.5 52.5t145.5 -52.5t51.5 -189.5v-170q0 -31 -31 -31h-61q-31 0 -31 31v184q0 115 -74 115t-74 -115v-739q0 -115 74 -115t74 115v213q0 31 31 31h61q31 0 31 -31v-199q0 -136 -52 -188.5t-145 -52.5t-145 52.5t-52 188.5z" />
<glyph unicode="d" horiz-adv-x="524" d="M61 291v579q0 167 30.5 237.5t105.5 70.5q86 0 135 -111v471q0 31 30 31h62q31 0 31 -31v-1507q0 -31 -31 -31h-37q-29 0 -35 27l-12 67q-13 -30 -26.5 -50t-44.5 -40t-72 -20q-76 0 -106 70t-30 237zM184 248q0 -80 15 -117t51 -37q82 0 82 176v621q0 176 -82 176 q-36 0 -51 -37t-15 -117v-665z" />
<glyph unicode="e" horiz-adv-x="512" d="M63 225v711q0 137 51.5 189.5t145.5 52.5t145.5 -52.5t51.5 -189.5v-371q0 -30 -31 -30h-240v-324q0 -115 74 -115t74 115v141q0 31 31 31h61q31 0 31 -31v-127q0 -136 -52 -188.5t-145 -52.5t-145 52.5t-52 188.5zM186 645h148v305q0 115 -74 115t-74 -115v-305z" />
<glyph unicode="f" horiz-adv-x="372" d="M4 1079v51q0 31 31 31h82v113q0 173 39 240t135 67q21 0 57 -4q27 -6 27 -35v-43q0 -29 -25 -29h-22q-55 0 -71.5 -29.5t-16.5 -109.5v-170h102q31 0 31 -31v-51q0 -30 -31 -30h-102v-1018q0 -31 -31 -31h-62q-30 0 -30 31v1018h-82q-31 0 -31 30z" />
<glyph unicode="g" horiz-adv-x="516" d="M41 37q0 52 9 90t20 58t34 51q-28 51 -28 94q0 68 63 147q-42 38 -60 84t-18 137v193q0 160 42 223.5t141 63.5q60 0 102 -27h135q31 0 31 -31v-14q0 -31 -31 -31h-67q41 -66 41 -184v-193q0 -143 -48 -202.5t-143 -59.5q-37 0 -55 4q-33 -23 -33 -67q0 -27 19.5 -49.5 t68.5 -22.5q43 0 73 -9t59 -35t44 -81t15 -139v-160q0 -162 -49.5 -226.5t-157.5 -64.5q-114 0 -160.5 68.5t-46.5 239.5v143zM164 25v-170q0 -85 20 -120.5t64 -35.5t64 35.5t20 120.5v180q0 92 -17.5 123.5t-62.5 31.5q-52 0 -70 -36t-18 -129zM184 700q0 -87 16 -121 t58 -34t58 34t16 121v209q0 87 -16 121.5t-58 34.5t-58 -34.5t-16 -121.5v-209z" />
<glyph unicode="h" horiz-adv-x="526" d="M68 31v1507q0 31 30 31h62q30 0 30 -31v-471q10 22 19 37.5t25.5 34.5t40 29t53.5 10q74 0 103.5 -71t29.5 -237v-839q0 -31 -31 -31h-61q-31 0 -31 31v882q0 80 -15 117t-51 37q-82 0 -82 -176v-860q0 -31 -30 -31h-62q-30 0 -30 31z" />
<glyph unicode="i" horiz-adv-x="258" d="M37 1403q0 38 27 65t65 27t65 -27t27 -65t-27 -65t-65 -27t-65 27t-27 65zM68 31v1099q0 31 30 31h62q30 0 30 -31v-1099q0 -31 -30 -31h-62q-30 0 -30 31z" />
<glyph unicode="j" horiz-adv-x="258" d="M-68 -340q0 14 5 22t14 7h16q29 0 48 7.5t29.5 18t16 33.5t6.5 42.5t1 55.5v1284q0 31 30 31h62q30 0 30 -31v-1265q0 -150 -35.5 -218.5t-140.5 -68.5q-19 0 -55 4q-27 6 -27 35v43zM37 1403q0 38 27 65t65 27t65 -27t27 -65t-27 -65t-65 -27t-65 27t-27 65z" />
<glyph unicode="k" horiz-adv-x="530" d="M68 31v1507q0 31 30 31h62q30 0 30 -31v-1507q0 -31 -30 -31h-62q-30 0 -30 31zM199 573q-6 22 2 41l192 523q9 24 35 24h64q17 0 23.5 -10t0.5 -25l-188 -526l186 -565q6 -15 -1 -25t-24 -10h-61q-26 0 -35 25z" />
<glyph unicode="l" horiz-adv-x="262" d="M70 31v1507q0 31 30 31h62q31 0 31 -31v-1507q0 -31 -31 -31h-62q-30 0 -30 31z" />
<glyph unicode="m" horiz-adv-x="798" d="M70 31v1099q0 31 30 31h37q29 0 35 -26l12 -68q49 111 144 111q51 0 80 -30.5t43 -96.5q24 59 56 93t91 34q75 0 105 -70.5t30 -237.5v-839q0 -31 -31 -31h-61q-31 0 -31 31v882q0 80 -14.5 117t-50.5 37q-82 0 -82 -166v-870q0 -31 -31 -31h-61q-31 0 -31 31v882 q0 80 -15 117t-51 37q-81 0 -81 -176v-860q0 -31 -31 -31h-62q-30 0 -30 31z" />
<glyph unicode="n" d="M70 31v1099q0 31 30 31h37q29 0 35 -26l12 -68q49 111 144 111q75 0 105 -70.5t30 -237.5v-839q0 -31 -31 -31h-61q-31 0 -31 31v882q0 80 -15 117t-51 37q-81 0 -81 -176v-860q0 -31 -31 -31h-62q-30 0 -30 31z" />
<glyph unicode="o" horiz-adv-x="520" d="M63 225v711q0 137 51.5 189.5t145.5 52.5t145.5 -52.5t51.5 -189.5v-711q0 -136 -52 -188.5t-145 -52.5t-145 52.5t-52 188.5zM186 211q0 -115 74 -115t74 115v739q0 115 -74 115t-74 -115v-739z" />
<glyph unicode="p" horiz-adv-x="526" d="M70 -377v1507q0 31 30 31h37q29 0 35 -26l12 -68q49 111 144 111q75 0 105 -70.5t30 -237.5v-579q0 -167 -30 -237t-105 -70q-86 0 -135 92v-453q0 -31 -31 -31h-62q-30 0 -30 31zM193 270q0 -176 81 -176q36 0 51 37t15 117v665q0 80 -15 117t-51 37q-81 0 -81 -176 v-621z" />
<glyph unicode="q" horiz-adv-x="526" d="M63 291v579q0 167 30.5 237.5t105.5 70.5q31 0 56 -10t41.5 -29t26 -35t19.5 -37l12 68q6 26 35 26h37q31 0 31 -31v-1507q0 -31 -31 -31h-61q-31 0 -31 31v453q-49 -92 -135 -92q-76 0 -106 70t-30 237zM186 248q0 -80 15 -117t51 -37q82 0 82 176v621q0 176 -82 176 q-36 0 -51 -37t-15 -117v-665z" />
<glyph unicode="r" horiz-adv-x="389" d="M70 31v1099q0 31 30 31h37q29 0 35 -26l12 -68q16 41 51 75t87 34q27 0 49 -11q24 -12 14 -41l-29 -77q-12 -28 -41 -15q-29 10 -51 10q-40 0 -55.5 -39.5t-15.5 -136.5v-835q0 -31 -31 -31h-62q-30 0 -30 31z" />
<glyph unicode="s" horiz-adv-x="503" d="M45 270v82q0 31 31 31h61q31 0 31 -31v-106q0 -85 15 -117.5t61 -32.5q49 0 70.5 34.5t21.5 111.5q0 69 -16 121.5t-41.5 86t-56.5 63.5t-62.5 62.5t-57 73t-41.5 106t-16 150.5q0 83 14.5 138.5t44 84t64.5 39.5t84 11q109 0 158 -58t49 -209v-106q0 -31 -31 -31h-61 q-31 0 -31 31v104q0 91 -16.5 123.5t-65.5 32.5q-47 0 -66.5 -30t-19.5 -113q0 -77 16 -134t41.5 -91.5t56.5 -63t62.5 -59t57 -68t41.5 -101.5t16 -149q0 -153 -51.5 -212.5t-161.5 -59.5q-115 0 -158 62.5t-43 223.5z" />
<glyph unicode="t" horiz-adv-x="364" d="M8 1079v51q0 31 31 31h61v256q0 31 31 31h62q30 0 30 -31v-256h103q30 0 30 -31v-51q0 -30 -30 -30h-103v-816q0 -80 16.5 -109.5t71.5 -29.5h15q32 0 32 -28v-43q0 -29 -26 -35q-36 -4 -60 -4q-105 0 -138.5 66.5t-33.5 240.5v758h-61q-31 0 -31 30z" />
<glyph unicode="u" d="M66 291v839q0 31 30 31h62q30 0 30 -31v-882q0 -80 15 -117t51 -37q82 0 82 176v860q0 31 31 31h61q31 0 31 -31v-1099q0 -31 -31 -31h-37q-29 0 -35 27l-12 67q-13 -30 -26.5 -50t-44.5 -40t-72 -20q-75 0 -105 70t-30 237z" />
<glyph unicode="v" horiz-adv-x="483" d="M20 1128q-3 33 29 33h70q28 0 31 -28l90 -949l92 949q3 28 30 28h70q32 0 29 -33l-148 -1099q-3 -29 -32 -29h-78q-30 0 -33 29z" />
<glyph unicode="w" horiz-adv-x="804" d="M20 1128q-3 33 29 33h70q28 0 31 -28l90 -887l92 887q3 28 30 28h80q28 0 31 -28l92 -887l90 887q3 28 31 28h70q31 0 28 -33l-149 -1099q-3 -29 -33 -29h-78q-29 0 -32 29l-91 833l-88 -833q-3 -29 -32 -29h-78q-30 0 -33 29z" />
<glyph unicode="x" horiz-adv-x="491" d="M20 35l162 559l-159 532q-5 15 2 25t24 10h57q26 0 35 -26l105 -367l100 367q9 26 35 26h61q17 0 24.5 -10t2.5 -25l-168 -534l172 -557q5 -15 -2.5 -25t-24.5 -10h-57q-26 0 -35 27l-116 401l-103 -401q-6 -27 -33 -27h-55q-36 0 -27 35z" />
<glyph unicode="y" horiz-adv-x="501" d="M27 1128q-3 33 28 33h70q31 0 31 -28l98 -936l102 936q3 28 33 28h70q31 0 28 -33l-229 -1509q-3 -29 -33 -29h-67q-36 0 -29 33l57 314z" />
<glyph unicode="z" horiz-adv-x="473" d="M16 31v49q0 12 7 37l286 932h-223q-31 0 -31 30v51q0 31 31 31h338q31 0 31 -31v-28q0 -16 -6 -37l-287 -952h237q31 0 31 -31v-51q0 -31 -31 -31h-352q-31 0 -31 31z" />
<glyph unicode="{" horiz-adv-x="471" d="M6 584v47q0 27 29 33q57 14 90 55t43 89.5t10 117.5v422q0 104 41 162.5t115 58.5h80q30 0 30 -31v-45q0 -31 -30 -31h-45q-17 0 -29.5 -5.5t-20.5 -18.5t-12.5 -26t-6.5 -37t-2.5 -42t-0.5 -49v-403q0 -62 -13.5 -112.5t-35 -81.5t-39.5 -48.5t-37 -28.5 q17 -7 36.5 -25.5t40.5 -49.5t34.5 -82t13.5 -111v-399q0 -44 1 -66.5t4.5 -48.5t11 -37.5t21 -19t34.5 -7.5h45q30 0 30 -30v-51q0 -31 -30 -31h-80q-74 0 -115 59t-41 160v422q0 55 -5.5 94.5t-20.5 75t-44 57.5t-73 31q-29 6 -29 33z" />
<glyph unicode="|" horiz-adv-x="307" d="M90 -420v1987q0 30 31 30h65q31 0 31 -30v-1987q0 -31 -31 -31h-65q-31 0 -31 31z" />
<glyph unicode="}" horiz-adv-x="471" d="M27 -266q0 30 30 30h45q21 0 34.5 7.5t21 19t11 37.5t4.5 48.5t1 66.5v399q0 60 13.5 111t34.5 82t40.5 49.5t36.5 25.5q-19 11 -37 28.5t-39.5 48.5t-35 81.5t-13.5 112.5v403q0 31 -0.5 49t-2.5 42t-6.5 37t-12.5 26t-20.5 18.5t-29.5 5.5h-45q-30 0 -30 31v45 q0 31 30 31h80q74 0 115 -58.5t41 -162.5v-422q0 -69 10 -117.5t43 -89.5t90 -55q29 -6 29 -33v-47q0 -27 -29 -33q-44 -9 -73 -31t-44 -57.5t-20.5 -75t-5.5 -94.5v-422q0 -101 -41 -160t-115 -59h-80q-30 0 -30 31v51z" />
<glyph unicode="~" horiz-adv-x="864" d="M76 1120q77 111 196 111q66 0 167.5 -41t148.5 -41q61 0 98 51q19 28 43 10l39 -30q26 -16 8 -41q-37 -59 -88.5 -90t-103.5 -31q-47 0 -153 44t-163 44q-67 0 -104 -51q-20 -25 -43 -8l-37 30q-23 19 -8 43z" />
<glyph unicode="&#xa1;" horiz-adv-x="286" d="M57 1143q0 35 25.5 60.5t60.5 25.5t60.5 -25.5t25.5 -60.5t-25.5 -60.5t-60.5 -25.5t-60.5 25.5t-25.5 60.5zM72 -326l30 1198q0 31 31 31h21q30 0 30 -31l29 -1198q0 -30 -31 -30h-80q-30 0 -30 30z" />
<glyph unicode="&#xa2;" d="M74 446v711q0 205 133 236v147q0 31 31 31h61q31 0 31 -31v-147q137 -27 137 -236v-170q0 -31 -31 -31h-61q-31 0 -31 31v184q0 115 -74 115q-73 0 -73 -115v-739q0 -115 73 -115q74 0 74 115v213q0 31 31 31h61q31 0 31 -31v-199q0 -206 -137 -237v-178q0 -31 -31 -31 h-61q-31 0 -31 31v180q-133 31 -133 235z" />
<glyph unicode="&#xa3;" horiz-adv-x="692" d="M61 31v65q0 31 31 31h62v393h-62q-31 0 -31 31v53q0 31 31 31h62v131h-62q-31 0 -31 31v53q0 31 31 31h62v411q0 303 241 303q33 0 61 -4.5t63.5 -23t59.5 -49.5t41 -89t17 -137v-98q0 -31 -31 -31h-65q-31 0 -31 31v129q0 80 -33.5 118t-81.5 38t-81 -38t-33 -118v-442 h266q31 0 31 -31v-53q0 -31 -31 -31h-266v-131h266q31 0 31 -31v-53q0 -31 -31 -31h-266v-393h321q31 0 31 -31v-65q0 -31 -31 -31h-510q-31 0 -31 31z" />
<glyph unicode="&#xa4;" horiz-adv-x="868" d="M86 399l76 107q-74 95 -74 274v15q0 175 72 272l-74 107q-18 25 6 43l45 32q25 18 43 -6l70 -98q74 39 182 39q110 0 186 -43l72 102q18 24 43 6l45 -32q24 -18 6 -43l-77 -111q69 -97 69 -268v-15q0 -173 -69 -270l77 -111q18 -25 -6 -43l-47 -30q-25 -18 -43 6l-72 100 q-72 -41 -184 -41q-108 0 -182 39l-68 -98q-18 -24 -43 -6l-45 30q-27 18 -8 43zM215 725q0 -89 57 -153t160 -64t160 64t57 153v125q0 89 -57 153t-160 64t-160 -64t-57 -153v-125z" />
<glyph unicode="&#xa5;" horiz-adv-x="651" d="M49 1534q-9 35 27 35h65q29 0 35 -27l150 -735l149 735q6 27 35 27h65q36 0 27 -35l-201 -879h162q31 0 31 -30v-54q0 -30 -31 -30h-176v-131h176q31 0 31 -31v-53q0 -31 -31 -31h-176v-264q0 -31 -31 -31h-61q-31 0 -31 31v264h-176q-31 0 -31 31v53q0 31 31 31h176v131 h-176q-31 0 -31 30v54q0 30 31 30h160z" />
<glyph unicode="&#xa6;" horiz-adv-x="311" d="M92 352q0 31 31 31h65q31 0 31 -31v-772q0 -31 -31 -31h-65q-31 0 -31 31v772zM92 793v774q0 30 31 30h65q31 0 31 -30v-774q0 -31 -31 -31h-65q-31 0 -31 31z" />
<glyph unicode="&#xa7;" horiz-adv-x="679" d="M61 270v82q0 31 31 31h62q30 0 30 -31v-106q0 -85 15 -117.5t61 -32.5q49 0 70.5 34.5t21.5 111.5q0 69 -16 121.5t-41.5 86t-56.5 63.5t-62.5 62.5t-57 73t-41.5 106t-16 150.5q0 138 39.5 198.5t114.5 70.5q-10 58 -10 133q0 83 14.5 138.5t44 84t64.5 39t84 10.5 q109 0 157.5 -57.5t48.5 -208.5v-117q0 -31 -30 -31h-62q-30 0 -30 31v115q0 90 -16.5 122.5t-65.5 32.5q-47 0 -66.5 -30t-19.5 -113q0 -77 16 -134.5t41.5 -93t56.5 -65t62 -61t56.5 -70t41.5 -103t16 -149.5q0 -131 -37.5 -193.5t-115.5 -74.5q10 -58 10 -123 q0 -153 -51.5 -212.5t-161.5 -59.5q-115 0 -158 62.5t-43 223.5zM184 922q0 -80 17 -138t45.5 -94t58.5 -63t65 -63t56 -75q70 14 70 144q0 72 -17 125.5t-46.5 89t-60 64.5t-65.5 68t-57 83q-36 -5 -51 -36.5t-15 -104.5z" />
<glyph unicode="&#xa8;" horiz-adv-x="522" d="M39 1382q0 37 25.5 62.5t62.5 25.5t62.5 -25.5t25.5 -62.5t-25.5 -62.5t-62.5 -25.5t-62.5 25.5t-25.5 62.5zM307 1382q0 37 25.5 62.5t62.5 25.5t62.5 -25.5t25.5 -62.5t-25.5 -62.5t-62.5 -25.5t-62.5 25.5t-25.5 62.5z" />
<glyph unicode="&#xaa;" horiz-adv-x="475" d="M37 977q0 252 139 252q46 0 76 -22.5t55 -73.5v167q0 87 -16 121.5t-58 34.5q-38 0 -54 -27t-19 -94q0 -32 -31 -32h-61q-31 0 -31 8q0 136 42.5 197t156.5 61q106 0 150 -61.5t44 -217.5v-514q0 -31 -31 -31h-34q-29 0 -35 27l-15 68q-10 -21 -19.5 -37t-26 -35 t-41.5 -29t-56 -10q-74 0 -104.5 61.5t-30.5 186.5zM63 496v53q0 31 31 31h287q31 0 31 -31v-53q0 -31 -31 -31h-287q-31 0 -31 31zM160 977q0 -70 15 -103.5t50 -33.5q82 0 82 147q0 59 -20 91t-58 32q-37 0 -53 -31t-16 -102z" />
<glyph unicode="&#xab;" horiz-adv-x="600" d="M39 526q-9 20 0 41l131 303q10 23 35 23h63q17 0 23.5 -10t-0.5 -27l-135 -309l135 -305q7 -17 0.5 -27t-23.5 -10h-63q-26 0 -35 22zM268 526q-9 20 0 41l131 303q10 23 35 23h64q17 0 23 -10t-1 -27l-135 -309l135 -305q7 -17 1 -27t-23 -10h-64q-26 0 -35 22z" />
<glyph unicode="&#xac;" horiz-adv-x="864" d="M63 719v49q0 31 31 31h639q31 0 31 -31v-344q0 -31 -31 -31h-53q-31 0 -31 31v264h-555q-31 0 -31 31z" />
<glyph unicode="&#xad;" horiz-adv-x="395" d="M66 571v54q0 30 30 30h203q31 0 31 -30v-54q0 -30 -31 -30h-203q-30 0 -30 30z" />
<glyph unicode="&#xaf;" horiz-adv-x="491" d="M39 1346v40q0 31 31 31h352q31 0 31 -31v-40q0 -31 -31 -31h-352q-31 0 -31 31z" />
<glyph unicode="&#xb0;" horiz-adv-x="475" d="M41 1294q0 83 57 140t140 57t139.5 -57t56.5 -140t-56.5 -139.5t-139.5 -56.5t-140 56.5t-57 139.5zM127 1294q0 -46 32.5 -78t78.5 -32t78 32t32 78t-32 78.5t-78 32.5t-78.5 -32.5t-32.5 -78.5z" />
<glyph unicode="&#xb1;" horiz-adv-x="864" d="M82 197v49q0 30 31 30h639q30 0 30 -30v-49q0 -31 -30 -31h-639q-31 0 -31 31zM82 743v50q0 30 31 30h262v264q0 31 31 31h53q30 0 30 -31v-264h263q30 0 30 -30v-50q0 -30 -30 -30h-263v-264q0 -31 -30 -31h-53q-31 0 -31 31v264h-262q-31 0 -31 30z" />
<glyph unicode="&#xb2;" horiz-adv-x="436" d="M63 879v77q0 43 21.5 88t52.5 83t61.5 75.5t52 81t21.5 84.5v62q0 37 -15 54t-38 17t-38 -17t-15 -54v-58q0 -31 -31 -31h-41q-31 0 -31 31v70q0 74 43.5 107.5t112.5 33.5q71 0 115.5 -34t44.5 -107v-84q0 -51 -33 -109t-72.5 -103t-72.5 -103t-33 -109h164q30 0 30 -31 v-24q0 -31 -30 -31h-238q-31 0 -31 31z" />
<glyph unicode="&#xb3;" horiz-adv-x="432" d="M57 975v59q0 31 31 31h43q31 0 31 -31v-49q0 -37 15 -54.5t38 -17.5q51 0 51 72v133q0 35 -25.5 49.5t-52.5 14.5q-20 10 -20 30v15q0 30 8 30h10q29 0 54.5 13.5t25.5 48.5v111q0 71 -51 71q-23 0 -38 -17t-15 -54v-54q0 -30 -31 -30h-43q-31 0 -31 30v64q0 141 158 141 t158 -141v-97q0 -51 -16.5 -79t-63.5 -39q47 -16 63.5 -46.5t16.5 -82.5v-121q0 -141 -158 -141t-158 141z" />
<glyph unicode="&#xb4;" horiz-adv-x="200" d="M15.5 1325q-6.5 10 0.5 27l64 147q10 23 35 23h78q18 0 23.5 -11t-3.5 -26l-92 -150q-11 -20 -37 -20h-45q-17 0 -23.5 10z" />
<glyph unicode="&#xb5;" horiz-adv-x="606" d="M104 -377v1507q0 31 31 31h62q30 0 30 -31v-913q0 -123 66 -123q82 0 82 176v860q0 31 31 31h61q31 0 31 -31v-1099q0 -31 -31 -31h-37q-29 0 -35 27l-12 67q-17 -38 -46 -71t-65 -33q-23 0 -45 14v-381q0 -31 -30 -31h-62q-31 0 -31 31z" />
<glyph unicode="&#xb6;" horiz-adv-x="819" d="M47 831v410q0 103 15 167.5t51 100t84.5 48t128.5 12.5h348q31 0 31 -31v-1685q0 -31 -31 -31h-66q-30 0 -30 31v1595h-101v-1598q0 -30 -31 -30h-65q-31 0 -31 30v654h-24q-63 0 -105.5 7.5t-78 28t-55 57.5t-30 94t-10.5 140z" />
<glyph unicode="&#xb7;" horiz-adv-x="303" d="M66 580q0 35 25.5 60.5t60.5 25.5t60.5 -25.5t25.5 -60.5t-25.5 -60.5t-60.5 -25.5t-60.5 25.5t-25.5 60.5z" />
<glyph unicode="&#xb8;" horiz-adv-x="376" d="M57 -297l6 21q9 27 39 18q15 -6 37 -6q38 0 59 18.5t21 44.5q0 25 -21.5 44.5t-60.5 19.5q-2 1 -4.5 4t-6 12t-1.5 19l20 75q6 27 33 27h23q36 0 26 -33l-12 -61q45 0 78 -34t33 -81q0 -56 -46.5 -97.5t-117.5 -41.5q-40 0 -84 12q-28 9 -21 39z" />
<glyph unicode="&#xb9;" horiz-adv-x="329" d="M27 1438v32q0 26 22 37l109 56q19 8 39 8h32q31 0 31 -31v-661q0 -31 -31 -31h-45q-30 0 -30 31v579l-91 -43q-17 -7 -26.5 -1t-9.5 24z" />
<glyph unicode="&#xba;" horiz-adv-x="473" d="M39 971v356q0 137 51.5 189.5t145.5 52.5q45 0 78 -10.5t61 -36t42.5 -74.5t14.5 -121v-356q0 -136 -51.5 -189t-144.5 -53t-145 53t-52 189zM66 496v53q0 31 30 31h287q31 0 31 -31v-53q0 -31 -31 -31h-287q-30 0 -30 31zM162 956q0 -114 74 -114q73 0 73 114v385 q0 115 -73 115q-74 0 -74 -115v-385z" />
<glyph unicode="&#xbb;" horiz-adv-x="600" d="M79 215q-6 10 1 27l135 305l-135 309q-7 17 -1 27t23 10h64q25 0 35 -23l131 -303q9 -21 0 -41l-131 -299q-9 -22 -35 -22h-64q-17 0 -23 10zM308.5 215q-6.5 10 0.5 27l135 305l-135 309q-7 17 -0.5 27t23.5 10h63q25 0 35 -23l131 -303q9 -21 0 -41l-131 -299 q-9 -22 -35 -22h-63q-17 0 -23.5 10z" />
<glyph unicode="&#xbc;" horiz-adv-x="872" d="M33 1438v32q0 26 22 37l109 56q19 8 39 8h33q30 0 30 -31v-661q0 -31 -30 -31h-46q-30 0 -30 31v579l-90 -43q-17 -7 -27 -0.5t-10 23.5zM180 35l406 1507q6 27 32 27h44q33 0 24 -35l-405 -1507q-6 -27 -33 -27h-43q-34 0 -25 35zM494 229v31q0 16 6 37l112 399 q9 27 35 27h90q31 0 31 -31v-413h37q31 0 31 -31v-19q0 -30 -31 -30h-37v-168q0 -31 -31 -31h-35q-30 0 -30 31v168h-148q-30 0 -30 30zM584 279h88v362z" />
<glyph unicode="&#xbd;" horiz-adv-x="933" d="M33 1438v32q0 26 22 37l109 56q19 8 39 8h33q30 0 30 -31v-661q0 -31 -30 -31h-46q-30 0 -30 31v579l-90 -43q-17 -7 -27 -0.5t-10 23.5zM180 35l406 1507q6 27 32 27h44q33 0 24 -35l-405 -1507q-6 -27 -33 -27h-43q-34 0 -25 35zM575 31v78q0 43 21.5 88t52.5 83 t61.5 75.5t52 80.5t21.5 84v62q0 37 -15 54t-38 17t-38 -17t-15 -54v-58q0 -30 -31 -30h-41q-31 0 -31 30v70q0 74 43.5 107.5t112.5 33.5q71 0 115.5 -34t44.5 -107v-84q0 -51 -33 -109t-72.5 -103t-72.5 -103t-33 -109h164q30 0 30 -31v-24q0 -31 -30 -31h-238 q-31 0 -31 31z" />
<glyph unicode="&#xbe;" horiz-adv-x="919" d="M47 975v59q0 31 31 31h43q31 0 31 -31v-49q0 -37 15 -54.5t38 -17.5q51 0 51 72v133q0 35 -25.5 49.5t-52.5 14.5q-20 10 -20 30v15q0 30 8 30h10q29 0 54.5 13.5t25.5 48.5v111q0 71 -51 71q-23 0 -38 -17t-15 -54v-54q0 -30 -31 -30h-43q-31 0 -31 30v64q0 141 158 141 q157 0 157 -141v-97q0 -51 -16 -79t-63 -39q46 -16 62.5 -46.5t16.5 -82.5v-121q0 -141 -157 -141q-158 0 -158 141zM231 35l406 1507q6 27 33 27h43q33 0 24 -35l-405 -1507q-6 -27 -33 -27h-43q-34 0 -25 35zM543 229v31q0 16 6 37l113 399q9 27 34 27h90q31 0 31 -31 v-413h37q31 0 31 -31v-19q0 -30 -31 -30h-37v-168q0 -31 -31 -31h-34q-31 0 -31 31v168h-148q-30 0 -30 30zM633 279h88v362z" />
<glyph unicode="&#xbf;" horiz-adv-x="559" d="M39 -78v211q0 142 48.5 225t166.5 93l18 423q3 31 33 31h25q29 0 32 -31l17 -499q3 -32 -19 -29h-18q-26 0 -52.5 -5.5t-56.5 -18.5t-48.5 -42t-18.5 -69v-324q0 -80 33.5 -117.5t81.5 -37.5t81 37.5t33 117.5v234q0 31 31 31h66q30 0 30 -31v-199q0 -160 -64.5 -233.5 t-178.5 -73.5q-240 0 -240 307zM225 1143q0 35 25.5 60.5t60.5 25.5t60.5 -25.5t25.5 -60.5t-25.5 -60.5t-60.5 -25.5t-60.5 25.5t-25.5 60.5z" />
<glyph unicode="&#xc0;" horiz-adv-x="589" d="M16 33l203 1509q3 29 33 29h86q30 0 33 -29l204 -1509q3 -33 -28 -33h-66q-29 0 -32 29l-41 360h-224l-41 -360q-3 -29 -32 -29h-66q-32 0 -29 33zM156.5 1918q5.5 11 23.5 11h78q26 0 35 -22l63 -148q7 -17 1 -27t-23 -10h-45q-25 0 -37 21l-92 149q-9 15 -3.5 26z M201 506h190l-96 840z" />
<glyph unicode="&#xc1;" horiz-adv-x="589" d="M16 33l203 1509q3 29 33 29h86q30 0 33 -29l204 -1509q3 -33 -28 -33h-66q-29 0 -32 29l-41 360h-224l-41 -360q-3 -29 -32 -29h-66q-32 0 -29 33zM201 506h190l-96 840zM243 1732q-6 10 1 27l63 148q9 22 35 22h78q18 0 23.5 -11t-3.5 -26l-92 -149q-12 -21 -37 -21h-45 q-17 0 -23 10z" />
<glyph unicode="&#xc2;" horiz-adv-x="589" d="M16 33l203 1509q3 29 33 29h86q30 0 33 -29l204 -1509q3 -33 -28 -33h-66q-29 0 -32 29l-41 360h-224l-41 -360q-3 -29 -32 -29h-66q-32 0 -29 33zM124.5 1733q-6.5 11 2.5 26l84 150q11 20 37 20h94q26 0 37 -20l84 -150q9 -15 2.5 -26t-25.5 -11h-41q-25 0 -37 21 l-67 106l-62 -106q-12 -21 -36 -21h-47q-19 0 -25.5 11zM201 506h190l-96 840z" />
<glyph unicode="&#xc3;" horiz-adv-x="589" d="M16 33l203 1509q3 29 33 29h86q30 0 33 -29l204 -1509q3 -33 -28 -33h-66q-29 0 -32 29l-41 360h-224l-41 -360q-3 -29 -32 -29h-66q-32 0 -29 33zM102 1755q28 96 115 96q29 0 72.5 -15t56.5 -15q15 0 21 6l5.5 5.5t5 5.5t4.5 4.5t5.5 3.5t6 2t7.5 1h60q17 0 24 -9.5 t2 -24.5q-15 -44 -47.5 -69.5t-72.5 -25.5q-28 0 -66.5 17.5t-56.5 17.5t-25 -10q-2 -2 -6.5 -7t-6.5 -6.5t-6.5 -4.5t-8.5 -4t-9 -1h-53q-17 0 -25 9t-2 24zM201 506h190l-96 840z" />
<glyph unicode="&#xc4;" horiz-adv-x="589" d="M16 33l203 1509q3 29 33 29h86q30 0 33 -29l204 -1509q3 -33 -28 -33h-66q-29 0 -32 29l-41 360h-224l-41 -360q-3 -29 -32 -29h-66q-32 0 -29 33zM74 1790q0 37 25.5 62.5t62.5 25.5t62.5 -25.5t25.5 -62.5t-25.5 -62.5t-62.5 -25.5t-62.5 25.5t-25.5 62.5zM201 506h190 l-96 840zM342 1790q0 37 25.5 62.5t62.5 25.5t62.5 -25.5t25.5 -62.5t-25.5 -62.5t-62.5 -25.5t-62.5 25.5t-25.5 62.5z" />
<glyph unicode="&#xc5;" horiz-adv-x="589" d="M16 33l203 1509q3 29 33 29h86q30 0 33 -29l204 -1509q3 -33 -28 -33h-66q-29 0 -32 29l-41 360h-224l-41 -360q-3 -29 -32 -29h-66q-32 0 -29 33zM164 1786q0 56 38 93.5t93 37.5t93 -37.5t38 -93.5t-38 -93.5t-93 -37.5t-93 37.5t-38 93.5zM201 506h190l-96 840z M221 1786q0 -31 21.5 -52.5t52.5 -21.5t52.5 21.5t21.5 52.5t-21.5 52.5t-52.5 21.5t-52.5 -21.5t-21.5 -52.5z" />
<glyph unicode="&#xc6;" horiz-adv-x="903" d="M0 35l385 1507q6 27 33 27h405q31 0 31 -31v-65q0 -31 -31 -31h-260v-588h246q31 0 31 -31v-65q0 -31 -31 -31h-246v-600h260q31 0 31 -31v-65q0 -31 -31 -31h-356q-31 0 -31 31v358h-223l-90 -362q-6 -27 -33 -27h-63q-33 0 -27 35zM246 504h190v852z" />
<glyph unicode="&#xc7;" horiz-adv-x="608" d="M70 301v967q0 96 17.5 162t51.5 101t75 49.5t97 14.5t97 -14.5t75.5 -49.5t52 -101t17.5 -162v-213q0 -31 -31 -31h-65q-31 0 -31 31v268q0 78 -32 117t-83 39q-50 0 -82 -39t-32 -117v-1077q0 -78 32 -117t82 -39q51 0 83 39t32 117v248q0 30 31 30h65q31 0 31 -30v-193 q0 -167 -51.5 -241t-147.5 -85l-14 -69q45 0 78 -34t33 -81q0 -56 -46.5 -97.5t-117.5 -41.5q-41 0 -84 12q-28 9 -21 39l6 21q9 27 39 18q15 -6 37 -6q38 0 59 18.5t21 44.5q0 25 -21.5 44.5t-60.5 19.5q-2 1 -4.5 4t-6 12t-1.5 19l20 77q-97 10 -148.5 83.5t-51.5 242.5z " />
<glyph unicode="&#xc8;" horiz-adv-x="546" d="M80 31v1507q0 31 31 31h356q31 0 31 -31v-65q0 -31 -31 -31h-260v-588h246q30 0 30 -31v-65q0 -31 -30 -31h-246v-600h260q31 0 31 -31v-65q0 -31 -31 -31h-356q-31 0 -31 31zM144 1918q6 11 24 11h78q26 0 35 -22l63 -148q7 -17 1 -27t-23 -10h-46q-24 0 -36 21l-93 149 q-9 15 -3 26z" />
<glyph unicode="&#xc9;" horiz-adv-x="546" d="M80 31v1507q0 31 31 31h356q31 0 31 -31v-65q0 -31 -31 -31h-260v-588h246q30 0 30 -31v-65q0 -31 -30 -31h-246v-600h260q31 0 31 -31v-65q0 -31 -31 -31h-356q-31 0 -31 31zM224.5 1732q-6.5 10 0.5 27l64 148q9 22 35 22h77q18 0 24 -11t-3 -26l-92 -149 q-12 -21 -37 -21h-45q-17 0 -23.5 10z" />
<glyph unicode="&#xca;" horiz-adv-x="546" d="M80 31v1507q0 31 31 31h356q31 0 31 -31v-65q0 -31 -31 -31h-260v-588h246q30 0 30 -31v-65q0 -31 -30 -31h-246v-600h260q31 0 31 -31v-65q0 -31 -31 -31h-356q-31 0 -31 31zM116 1733q-6 11 3 26l84 150q11 20 37 20h94q26 0 37 -20l84 -150q9 -15 2.5 -26t-25.5 -11 h-41q-25 0 -37 21l-67 106l-62 -106q-12 -21 -37 -21h-47q-19 0 -25 11z" />
<glyph unicode="&#xcb;" horiz-adv-x="546" d="M61 1790q0 37 26 62.5t63 25.5t62.5 -25.5t25.5 -62.5t-25.5 -62.5t-62.5 -25.5t-63 25.5t-26 62.5zM80 31v1507q0 31 31 31h356q31 0 31 -31v-65q0 -31 -31 -31h-260v-588h246q30 0 30 -31v-65q0 -31 -30 -31h-246v-600h260q31 0 31 -31v-65q0 -31 -31 -31h-356 q-31 0 -31 31zM330 1790q0 37 25.5 62.5t62.5 25.5t62.5 -25.5t25.5 -62.5t-25.5 -62.5t-62.5 -25.5t-62.5 25.5t-25.5 62.5z" />
<glyph unicode="&#xcc;" horiz-adv-x="286" d="M3 1918q6 11 24 11h77q26 0 35 -22l64 -148q7 -17 0.5 -27t-23.5 -10h-45q-25 0 -37 21l-92 149q-9 15 -3 26zM80 31v1507q0 31 31 31h65q31 0 31 -31v-1507q0 -31 -31 -31h-65q-31 0 -31 31z" />
<glyph unicode="&#xcd;" horiz-adv-x="286" d="M80 31v1507q0 31 31 31h65q31 0 31 -31v-1507q0 -31 -31 -31h-65q-31 0 -31 31zM93.5 1732q-6.5 10 0.5 27l64 148q9 22 35 22h77q18 0 24 -11t-3 -26l-92 -149q-12 -21 -37 -21h-45q-17 0 -23.5 10z" />
<glyph unicode="&#xce;" horiz-adv-x="286" d="M-27.5 1733q-6.5 11 2.5 26l84 150q11 20 37 20h94q26 0 37 -20l84 -150q9 -15 3 -26t-25 -11h-41q-25 0 -37 21l-68 106l-61 -106q-12 -21 -37 -21h-47q-19 0 -25.5 11zM80 31v1507q0 31 31 31h65q31 0 31 -31v-1507q0 -31 -31 -31h-65q-31 0 -31 31z" />
<glyph unicode="&#xcf;" horiz-adv-x="286" d="M-78 1790q0 37 25.5 62.5t62.5 25.5t62.5 -25.5t25.5 -62.5t-25.5 -62.5t-62.5 -25.5t-62.5 25.5t-25.5 62.5zM80 31v1507q0 31 31 31h65q31 0 31 -31v-1507q0 -31 -31 -31h-65q-31 0 -31 31zM190 1790q0 37 26 62.5t63 25.5t62.5 -25.5t25.5 -62.5t-25.5 -62.5 t-62.5 -25.5t-63 25.5t-26 62.5z" />
<glyph unicode="&#xd0;" horiz-adv-x="626" d="M12 758v65q0 31 31 31h37v684q0 31 31 31h163q80 0 128.5 -12.5t84.5 -48t51 -100t15 -167.5v-913q0 -103 -15 -167.5t-51 -100t-84.5 -48t-128.5 -12.5h-163q-31 0 -31 31v696h-37q-31 0 -31 31zM207 117h104q60 0 87.5 35.5t27.5 119.5v1024q0 85 -27.5 120.5 t-87.5 35.5h-104v-598h92q31 0 31 -31v-65q0 -31 -31 -31h-92v-610z" />
<glyph unicode="&#xd1;" horiz-adv-x="688" d="M80 31v1507q0 31 31 31h63q27 0 33 -27l278 -1087l-4 1083q0 31 31 31h66q30 0 30 -31v-1507q0 -31 -30 -31h-74q-27 0 -33 27l-268 1071l4 -1067q0 -31 -31 -31h-65q-31 0 -31 31zM152 1755q28 96 114 96q29 0 72.5 -15t56.5 -15q15 0 21 6q2 2 5.5 6t5.5 5.5t5 4 t5.5 3.5t6 2t7.5 1h59q17 0 24.5 -9.5t2.5 -24.5q-15 -44 -48 -69.5t-73 -25.5q-28 0 -66.5 17.5t-56.5 17.5t-25 -10q-2 -2 -6.5 -7t-6.5 -6.5t-6.5 -4.5t-8.5 -4t-9 -1h-53q-17 0 -24.5 9t-1.5 24z" />
<glyph unicode="&#xd2;" horiz-adv-x="630" d="M74 301v967q0 96 17.5 162t51.5 101t75 49.5t97 14.5t97 -14.5t75.5 -49.5t52 -101t17.5 -162v-967q0 -96 -17.5 -162t-52 -101.5t-75.5 -50t-97 -14.5t-97 14.5t-75 50t-51.5 101.5t-17.5 162zM171 1918q6 11 24 11h77q26 0 35 -22l64 -148q7 -17 0.5 -27t-23.5 -10h-45 q-25 0 -37 21l-92 149q-9 15 -3 26zM201 246q0 -78 32 -117t82 -39q51 0 83 39t32 117v1077q0 78 -32 117t-83 39q-50 0 -82 -39t-32 -117v-1077z" />
<glyph unicode="&#xd3;" horiz-adv-x="630" d="M74 301v967q0 96 17.5 162t51.5 101t75 49.5t97 14.5t97 -14.5t75.5 -49.5t52 -101t17.5 -162v-967q0 -96 -17.5 -162t-52 -101.5t-75.5 -50t-97 -14.5t-97 14.5t-75 50t-51.5 101.5t-17.5 162zM201 246q0 -78 32 -117t82 -39q51 0 83 39t32 117v1077q0 78 -32 117 t-83 39q-50 0 -82 -39t-32 -117v-1077zM253 1732q-6 10 1 27l63 148q9 22 35 22h78q18 0 24 -11t-3 -26l-93 -149q-12 -21 -36 -21h-46q-17 0 -23 10z" />
<glyph unicode="&#xd4;" horiz-adv-x="630" d="M74 301v967q0 96 17.5 162t51.5 101t75 49.5t97 14.5t97 -14.5t75.5 -49.5t52 -101t17.5 -162v-967q0 -96 -17.5 -162t-52 -101.5t-75.5 -50t-97 -14.5t-97 14.5t-75 50t-51.5 101.5t-17.5 162zM144.5 1733q-6.5 11 2.5 26l84 150q11 20 37 20h94q26 0 37 -20l84 -150 q9 -15 3 -26t-25 -11h-41q-25 0 -37 21l-68 106l-61 -106q-12 -21 -37 -21h-47q-19 0 -25.5 11zM201 246q0 -78 32 -117t82 -39q51 0 83 39t32 117v1077q0 78 -32 117t-83 39q-50 0 -82 -39t-32 -117v-1077z" />
<glyph unicode="&#xd5;" horiz-adv-x="630" d="M74 301v967q0 96 17.5 162t51.5 101t75 49.5t97 14.5t97 -14.5t75.5 -49.5t52 -101t17.5 -162v-967q0 -96 -17.5 -162t-52 -101.5t-75.5 -50t-97 -14.5t-97 14.5t-75 50t-51.5 101.5t-17.5 162zM123 1755q28 96 115 96q29 0 72.5 -15t56.5 -15q14 0 20 6q2 2 5.5 6 t5.5 5.5t5 4t5.5 3.5t6 2t7.5 1h59q17 0 24.5 -9.5t2.5 -24.5q-15 -44 -48 -69.5t-73 -25.5q-28 0 -66.5 17.5t-56.5 17.5q-17 0 -24 -10q-2 -2 -6.5 -7t-6.5 -6.5t-6.5 -4.5t-8.5 -4t-9 -1h-53q-17 0 -25 9t-2 24zM201 246q0 -78 32 -117t82 -39q51 0 83 39t32 117v1077 q0 78 -32 117t-83 39q-50 0 -82 -39t-32 -117v-1077z" />
<glyph unicode="&#xd6;" horiz-adv-x="630" d="M74 301v967q0 96 17.5 162t51.5 101t75 49.5t97 14.5t97 -14.5t75.5 -49.5t52 -101t17.5 -162v-967q0 -96 -17.5 -162t-52 -101.5t-75.5 -50t-97 -14.5t-97 14.5t-75 50t-51.5 101.5t-17.5 162zM92 1790q0 37 25.5 62.5t62.5 25.5t62.5 -25.5t25.5 -62.5t-25.5 -62.5 t-62.5 -25.5t-62.5 25.5t-25.5 62.5zM201 246q0 -78 32 -117t82 -39q51 0 83 39t32 117v1077q0 78 -32 117t-83 39q-50 0 -82 -39t-32 -117v-1077zM360 1790q0 37 26 62.5t63 25.5t62.5 -25.5t25.5 -62.5t-25.5 -62.5t-62.5 -25.5t-63 25.5t-26 62.5z" />
<glyph unicode="&#xd7;" horiz-adv-x="864" d="M166 514q-22 22 0 45l186 186l-184 185q-22 22 0 45l33 33q23 22 45 0l184 -185l186 187q23 23 46 0l36 -37q22 -23 0 -45l-186 -187l184 -184q22 -23 0 -45l-32 -33q-23 -23 -46 0l-184 185l-186 -187q-22 -23 -45 0z" />
<glyph unicode="&#xd8;" horiz-adv-x="630" d="M74 301v967q0 96 17.5 162t51.5 101t75 49.5t97 14.5q47 0 91 -12l10 64q3 28 33 28h14q15 0 22 -9t4 -24l-14 -98q82 -76 82 -276v-967q0 -96 -17.5 -162t-52 -101.5t-75.5 -50t-97 -14.5q-38 0 -84 11l-10 -64q-3 -29 -33 -29h-14q-15 0 -22.5 9t-4.5 24l15 94 q-88 72 -88 283zM201 207l184 1245q-30 27 -70 27q-50 0 -82 -39t-32 -117v-1116zM250 111q27 -21 65 -21q51 0 83 39t32 117v1071z" />
<glyph unicode="&#xd9;" horiz-adv-x="638" d="M78 301v1237q0 31 31 31h65q31 0 31 -31v-1292q0 -78 32 -117t82 -39q51 0 83 39t32 117v1292q0 31 31 31h65q31 0 31 -31v-1237q0 -96 -17.5 -162t-52 -101.5t-75.5 -50t-97 -14.5t-97 14.5t-75 50t-51.5 101.5t-17.5 162zM169 1918q6 11 24 11h77q26 0 35 -22l64 -148 q7 -17 0.5 -27t-23.5 -10h-45q-25 0 -37 21l-92 149q-9 15 -3 26z" />
<glyph unicode="&#xda;" horiz-adv-x="638" d="M78 301v1237q0 31 31 31h65q31 0 31 -31v-1292q0 -78 32 -117t82 -39q51 0 83 39t32 117v1292q0 31 31 31h65q31 0 31 -31v-1237q0 -96 -17.5 -162t-52 -101.5t-75.5 -50t-97 -14.5t-97 14.5t-75 50t-51.5 101.5t-17.5 162zM267.5 1732q-6.5 10 0.5 27l64 148q9 22 35 22 h77q18 0 24 -11t-3 -26l-92 -149q-12 -21 -37 -21h-45q-17 0 -23.5 10z" />
<glyph unicode="&#xdb;" horiz-adv-x="638" d="M78 301v1237q0 31 31 31h65q31 0 31 -31v-1292q0 -78 32 -117t82 -39q51 0 83 39t32 117v1292q0 31 31 31h65q31 0 31 -31v-1237q0 -96 -17.5 -162t-52 -101.5t-75.5 -50t-97 -14.5t-97 14.5t-75 50t-51.5 101.5t-17.5 162zM149 1733q-6 11 3 26l84 150q11 20 36 20h95 q25 0 36 -20l84 -150q9 -15 3 -26t-25 -11h-41q-25 0 -37 21l-68 106l-61 -106q-12 -21 -37 -21h-47q-19 0 -25 11z" />
<glyph unicode="&#xdc;" horiz-adv-x="638" d="M78 301v1237q0 31 31 31h65q31 0 31 -31v-1292q0 -78 32 -117t82 -39q51 0 83 39t32 117v1292q0 31 31 31h65q31 0 31 -31v-1237q0 -96 -17.5 -162t-52 -101.5t-75.5 -50t-97 -14.5t-97 14.5t-75 50t-51.5 101.5t-17.5 162zM96 1790q0 37 25.5 62.5t62.5 25.5t62.5 -25.5 t25.5 -62.5t-25.5 -62.5t-62.5 -25.5t-62.5 25.5t-25.5 62.5zM365 1790q0 37 25.5 62.5t62.5 25.5t62.5 -25.5t25.5 -62.5t-25.5 -62.5t-62.5 -25.5t-62.5 25.5t-25.5 62.5z" />
<glyph unicode="&#xdd;" horiz-adv-x="606" d="M27 1534q-9 35 26 35h66q29 0 35 -27l149 -735l150 735q6 27 34 27h66q36 0 27 -35l-215 -948v-555q0 -31 -31 -31h-62q-30 0 -30 31v555zM255.5 1732q-6.5 10 0.5 27l63 148q9 22 35 22h78q18 0 24 -11t-3 -26l-93 -149q-12 -21 -36 -21h-45q-17 0 -23.5 10z" />
<glyph unicode="&#xde;" horiz-adv-x="600" d="M80 31v1507q0 31 31 31h65q31 0 31 -31v-303h67q80 0 128.5 -12.5t84.5 -48t51 -100t15 -167.5v-241q0 -103 -15 -167.5t-51 -100t-84.5 -48t-128.5 -12.5h-67v-307q0 -31 -31 -31h-65q-31 0 -31 31zM207 465h104q60 0 87.5 35.5t27.5 120.5v331q0 85 -27.5 120.5 t-87.5 35.5h-104v-643z" />
<glyph unicode="&#xdf;" horiz-adv-x="559" d="M70 31v1298q0 140 55.5 196t161.5 56t161.5 -56t55.5 -196v-100q0 -122 -44 -186.5t-112 -84.5q156 -31 156 -247v-441q0 -59 -4 -100t-15 -78.5t-30.5 -59.5t-51 -35t-75.5 -13q-20 0 -56 4q-26 6 -26 35v43q0 14 4.5 21.5t13.5 6.5h17q29 0 48 7.5t29.5 18.5t15.5 34.5 t6 42t1 55.5v389q0 214 -90 252q-25 13 -25 35v55q0 23 25 35q90 46 90 256v69q0 125 -94 125t-94 -125v-1312q0 -31 -31 -31h-62q-30 0 -30 31z" />
<glyph unicode="&#xe0;" horiz-adv-x="514" d="M55 291v22q0 172 30.5 243t109.5 71q45 0 75.5 -23t55.5 -74v379q0 87 -16 121.5t-58 34.5t-58 -34.5t-16 -121.5v-88q0 -30 -31 -30h-61q-31 0 -31 30v78q0 151 42 215t157 64q106 0 150.5 -61.5t44.5 -217.5v-868q0 -31 -31 -31h-37q-29 0 -35 27l-12 67 q-9 -21 -19 -37t-27 -34.5t-42 -28.5t-56 -10q-75 0 -105 70t-30 237zM119.5 1511q5.5 11 23.5 11h78q25 0 35 -23l63 -147q7 -17 1 -27t-23 -10h-45q-26 0 -37 20l-92 150q-9 15 -3.5 26zM178 248q0 -80 15 -117t51 -37q82 0 82 176v86q0 152 -78 152q-39 0 -54.5 -35.5 t-15.5 -120.5v-104z" />
<glyph unicode="&#xe1;" horiz-adv-x="514" d="M55 291v22q0 172 30.5 243t109.5 71q45 0 75.5 -23t55.5 -74v379q0 87 -16 121.5t-58 34.5t-58 -34.5t-16 -121.5v-88q0 -30 -31 -30h-61q-31 0 -31 30v78q0 151 42 215t157 64q106 0 150.5 -61.5t44.5 -217.5v-868q0 -31 -31 -31h-37q-29 0 -35 27l-12 67 q-9 -21 -19 -37t-27 -34.5t-42 -28.5t-56 -10q-75 0 -105 70t-30 237zM178 248q0 -80 15 -117t51 -37q82 0 82 176v86q0 152 -78 152q-39 0 -54.5 -35.5t-15.5 -120.5v-104zM189.5 1325q-6.5 10 0.5 27l64 147q10 23 35 23h78q18 0 23.5 -11t-3.5 -26l-92 -150 q-11 -20 -37 -20h-45q-17 0 -23.5 10z" />
<glyph unicode="&#xe2;" horiz-adv-x="514" d="M55 291v22q0 172 30.5 243t109.5 71q45 0 75.5 -23t55.5 -74v379q0 87 -16 121.5t-58 34.5t-58 -34.5t-16 -121.5v-88q0 -30 -31 -30h-61q-31 0 -31 30v78q0 151 42 215t157 64q106 0 150.5 -61.5t44.5 -217.5v-868q0 -31 -31 -31h-37q-29 0 -35 27l-12 67 q-9 -21 -19 -37t-27 -34.5t-42 -28.5t-56 -10q-75 0 -105 70t-30 237zM83.5 1326q-6.5 11 2.5 26l84 149q12 21 37 21h94q25 0 37 -21l84 -149q9 -15 2.5 -26t-25.5 -11h-41q-25 0 -36 20l-68 107l-61 -107q-11 -20 -37 -20h-47q-19 0 -25.5 11zM178 248q0 -80 15 -117 t51 -37q82 0 82 176v86q0 152 -78 152q-39 0 -54.5 -35.5t-15.5 -120.5v-104z" />
<glyph unicode="&#xe3;" horiz-adv-x="514" d="M55 291v22q0 172 30.5 243t109.5 71q45 0 75.5 -23t55.5 -74v379q0 87 -16 121.5t-58 34.5t-58 -34.5t-16 -121.5v-88q0 -30 -31 -30h-61q-31 0 -31 30v78q0 151 42 215t157 64q106 0 150.5 -61.5t44.5 -217.5v-868q0 -31 -31 -31h-37q-29 0 -35 27l-12 67 q-9 -21 -19 -37t-27 -34.5t-42 -28.5t-56 -10q-75 0 -105 70t-30 237zM61 1348q28 96 115 96q29 0 72.5 -15.5t56.5 -15.5q15 0 21 6q2 2 7.5 8t8 8t7.5 4.5t11 2.5h60q17 0 24 -10t2 -25q-15 -44 -47.5 -69t-72.5 -25q-28 0 -66.5 17.5t-56.5 17.5t-25 -11l-5.5 -5.5 l-5.5 -5.5t-5 -4t-6.5 -4t-6.5 -2t-8 -1h-53q-17 0 -25 9t-2 24zM178 248q0 -80 15 -117t51 -37q82 0 82 176v86q0 152 -78 152q-39 0 -54.5 -35.5t-15.5 -120.5v-104z" />
<glyph unicode="&#xe4;" horiz-adv-x="514" d="M33 1382q0 37 25.5 62.5t62.5 25.5t62.5 -25.5t25.5 -62.5t-25.5 -62.5t-62.5 -25.5t-62.5 25.5t-25.5 62.5zM55 291v22q0 172 30.5 243t109.5 71q45 0 75.5 -23t55.5 -74v379q0 87 -16 121.5t-58 34.5t-58 -34.5t-16 -121.5v-88q0 -30 -31 -30h-61q-31 0 -31 30v78 q0 151 42 215t157 64q106 0 150.5 -61.5t44.5 -217.5v-868q0 -31 -31 -31h-37q-29 0 -35 27l-12 67q-9 -21 -19 -37t-27 -34.5t-42 -28.5t-56 -10q-75 0 -105 70t-30 237zM178 248q0 -80 15 -117t51 -37q82 0 82 176v86q0 152 -78 152q-39 0 -54.5 -35.5t-15.5 -120.5v-104z M301 1382q0 37 25.5 62.5t62.5 25.5t62.5 -25.5t25.5 -62.5t-25.5 -62.5t-62.5 -25.5t-62.5 25.5t-25.5 62.5z" />
<glyph unicode="&#xe5;" horiz-adv-x="514" d="M55 291v22q0 172 30.5 243t109.5 71q45 0 75.5 -23t55.5 -74v379q0 87 -16 121.5t-58 34.5t-58 -34.5t-16 -121.5v-88q0 -30 -31 -30h-61q-31 0 -31 30v78q0 151 42 215t157 64q106 0 150.5 -61.5t44.5 -217.5v-868q0 -31 -31 -31h-37q-29 0 -35 27l-12 67 q-9 -21 -19 -37t-27 -34.5t-42 -28.5t-56 -10q-75 0 -105 70t-30 237zM123 1399q0 55 37.5 93t93.5 38t93.5 -38t37.5 -93t-37.5 -93t-93.5 -38t-93.5 38t-37.5 93zM178 248q0 -80 15 -117t51 -37q82 0 82 176v86q0 152 -78 152q-39 0 -54.5 -35.5t-15.5 -120.5v-104z M180 1399q0 -31 21.5 -52.5t52.5 -21.5t52.5 21.5t21.5 52.5t-21.5 52.5t-52.5 21.5t-52.5 -21.5t-21.5 -52.5z" />
<glyph unicode="&#xe6;" horiz-adv-x="774" d="M55 291v22q0 172 30.5 243t109.5 71q45 0 75.5 -23t55.5 -74v379q0 87 -16 121.5t-58 34.5t-58 -34.5t-16 -121.5v-88q0 -30 -31 -30h-61q-31 0 -31 30v78q0 151 42 215t157 64q48 0 79.5 -14t53.5 -50q42 64 135 64q94 0 145.5 -52.5t51.5 -189.5v-371q0 -30 -31 -30 h-239v-342q6 -97 73 -97q74 0 74 115v141q0 31 31 31h61q31 0 31 -31v-127q0 -136 -52 -188.5t-145 -52.5q-71 0 -117.5 28.5t-66.5 98.5q-24 -59 -56.5 -93t-91.5 -34q-75 0 -105 70t-30 237zM178 248q0 -80 15 -117t51 -37q82 0 82 176v86q0 152 -78 152 q-39 0 -54.5 -35.5t-15.5 -120.5v-104zM449 645h147v305q0 115 -74 115q-73 0 -73 -115v-305z" />
<glyph unicode="&#xe7;" horiz-adv-x="501" d="M57 225v711q0 137 51.5 189.5t145.5 52.5t145.5 -52.5t51.5 -189.5v-170q0 -31 -31 -31h-62q-30 0 -30 31v184q0 115 -74 115t-74 -115v-739q0 -115 74 -115t74 115v213q0 31 30 31h62q31 0 31 -31v-199q0 -118 -40 -172.5t-112 -64.5l-16 -82q44 0 77 -34t33 -81 q0 -56 -46.5 -97.5t-117.5 -41.5q-41 0 -84 12q-27 9 -20 39l6 21q9 27 39 18q15 -6 37 -6q38 0 59 18.5t21 44.5q0 25 -21.5 44.5t-60.5 19.5q-2 1 -4.5 4t-6 12t-1.5 19l22 88q-76 10 -117 64t-41 175z" />
<glyph unicode="&#xe8;" horiz-adv-x="512" d="M63 225v711q0 137 51.5 189.5t145.5 52.5t145.5 -52.5t51.5 -189.5v-371q0 -30 -31 -30h-240v-324q0 -115 74 -115t74 115v141q0 31 31 31h61q31 0 31 -31v-127q0 -136 -52 -188.5t-145 -52.5t-145 52.5t-52 188.5zM115.5 1511q5.5 11 23.5 11h78q25 0 35 -23l63 -147 q7 -17 1 -27t-23 -10h-45q-26 0 -37 20l-92 150q-9 15 -3.5 26zM186 645h148v305q0 115 -74 115t-74 -115v-305z" />
<glyph unicode="&#xe9;" horiz-adv-x="512" d="M63 225v711q0 137 51.5 189.5t145.5 52.5t145.5 -52.5t51.5 -189.5v-371q0 -30 -31 -30h-240v-324q0 -115 74 -115t74 115v141q0 31 31 31h61q31 0 31 -31v-127q0 -136 -52 -188.5t-145 -52.5t-145 52.5t-52 188.5zM186 645h148v305q0 115 -74 115t-74 -115v-305z M198 1325q-6 10 1 27l63 147q10 23 35 23h78q18 0 23.5 -11t-3.5 -26l-92 -150q-11 -20 -37 -20h-45q-17 0 -23 10z" />
<glyph unicode="&#xea;" horiz-adv-x="512" d="M63 225v711q0 137 51.5 189.5t145.5 52.5t145.5 -52.5t51.5 -189.5v-371q0 -30 -31 -30h-240v-324q0 -115 74 -115t74 115v141q0 31 31 31h61q31 0 31 -31v-127q0 -136 -52 -188.5t-145 -52.5t-145 52.5t-52 188.5zM87.5 1326q-6.5 11 2.5 26l84 149q12 21 37 21h94 q25 0 37 -21l84 -149q9 -15 2.5 -26t-25.5 -11h-41q-25 0 -36 20l-68 107l-61 -107q-11 -20 -37 -20h-47q-19 0 -25.5 11zM186 645h148v305q0 115 -74 115t-74 -115v-305z" />
<glyph unicode="&#xeb;" horiz-adv-x="509" d="M35 1382q0 37 25.5 62.5t62.5 25.5t62.5 -25.5t25.5 -62.5t-25.5 -62.5t-62.5 -25.5t-62.5 25.5t-25.5 62.5zM61 225v711q0 137 51.5 189.5t145.5 52.5t145.5 -52.5t51.5 -189.5v-371q0 -30 -31 -30h-240v-324q0 -115 74 -115t74 115v141q0 31 30 31h62q31 0 31 -31v-127 q0 -136 -52 -188.5t-145 -52.5t-145 52.5t-52 188.5zM184 645h148v305q0 115 -74 115t-74 -115v-305zM303 1382q0 37 25.5 62.5t62.5 25.5t62.5 -25.5t25.5 -62.5t-25.5 -62.5t-62.5 -25.5t-62.5 25.5t-25.5 62.5z" />
<glyph unicode="&#xec;" horiz-adv-x="258" d="M-11.5 1511q5.5 11 23.5 11h78q25 0 35 -23l63 -147q7 -17 1 -27t-23 -10h-45q-26 0 -37 20l-92 150q-9 15 -3.5 26zM68 31v1099q0 31 30 31h62q30 0 30 -31v-1099q0 -31 -30 -31h-62q-30 0 -30 31z" />
<glyph unicode="&#xed;" horiz-adv-x="258" d="M68 31v1099q0 31 30 31h62q30 0 30 -31v-1099q0 -31 -30 -31h-62q-30 0 -30 31zM79 1325q-6 10 1 27l63 147q10 23 35 23h78q18 0 23.5 -11t-3.5 -26l-92 -150q-11 -20 -37 -20h-45q-17 0 -23 10z" />
<glyph unicode="&#xee;" horiz-adv-x="258" d="M-41.5 1326q-6.5 11 2.5 26l84 149q12 21 37 21h94q25 0 37 -21l84 -149q9 -15 2.5 -26t-25.5 -11h-41q-25 0 -36 20l-68 107l-61 -107q-11 -20 -37 -20h-47q-19 0 -25.5 11zM68 31v1099q0 31 30 31h62q30 0 30 -31v-1099q0 -31 -30 -31h-62q-30 0 -30 31z" />
<glyph unicode="&#xef;" horiz-adv-x="258" d="M-92 1382q0 37 25.5 62.5t62.5 25.5t62.5 -25.5t25.5 -62.5t-25.5 -62.5t-62.5 -25.5t-62.5 25.5t-25.5 62.5zM68 31v1099q0 31 30 31h62q30 0 30 -31v-1099q0 -31 -30 -31h-62q-30 0 -30 31zM176 1382q0 37 25.5 62.5t62.5 25.5t62.5 -25.5t25.5 -62.5t-25.5 -62.5 t-62.5 -25.5t-62.5 25.5t-25.5 62.5z" />
<glyph unicode="&#xf0;" horiz-adv-x="522" d="M63 225v707q0 130 37.5 189t94.5 59q48 0 89 -34t54 -75q-5 120 -16.5 181t-40.5 100l-62 -62q-23 -20 -45 2l-6 6q-22 22 0 45l61 60q-43 30 -84 47q-28 12 -16 39l18 35q13 29 39 16q28 -11 82 -39l37 -24l51 51q22 22 45 0l7 -6q22 -22 0 -45l-50 -47 q54 -62 76.5 -167t22.5 -298v-740q0 -136 -52 -188.5t-145 -52.5t-145 52.5t-52 188.5zM186 211q0 -115 74 -115t74 115v698q0 158 -80 158q-68 0 -68 -137v-719z" />
<glyph unicode="&#xf1;" d="M70 31v1099q0 31 30 31h37q29 0 35 -26l12 -68q49 111 144 111q75 0 105 -70.5t30 -237.5v-839q0 -31 -31 -31h-61q-31 0 -31 31v882q0 80 -15 117t-51 37q-81 0 -81 -176v-860q0 -31 -31 -31h-62q-30 0 -30 31zM72 1348q28 96 114 96q29 0 72.5 -15.5t56.5 -15.5 q15 0 21 6q2 2 6.5 7t6.5 6.5l6 4.5t7.5 4t8.5 1h59q17 0 24.5 -10t2.5 -25q-15 -44 -48 -69t-73 -25q-28 0 -66.5 17.5t-56.5 17.5t-25 -11q-2 -2 -6.5 -7t-6.5 -6.5t-6 -4t-8 -3.5t-9 -1h-54q-17 0 -24.5 9t-1.5 24z" />
<glyph unicode="&#xf2;" horiz-adv-x="520" d="M63 225v711q0 137 51.5 189.5t145.5 52.5t145.5 -52.5t51.5 -189.5v-711q0 -136 -52 -188.5t-145 -52.5t-145 52.5t-52 188.5zM119.5 1511q5.5 11 23.5 11h78q25 0 35 -23l63 -147q7 -17 1 -27t-23 -10h-45q-26 0 -37 20l-92 150q-9 15 -3.5 26zM186 211q0 -115 74 -115 t74 115v739q0 115 -74 115t-74 -115v-739z" />
<glyph unicode="&#xf3;" horiz-adv-x="520" d="M63 225v711q0 137 51.5 189.5t145.5 52.5t145.5 -52.5t51.5 -189.5v-711q0 -136 -52 -188.5t-145 -52.5t-145 52.5t-52 188.5zM186 211q0 -115 74 -115t74 115v739q0 115 -74 115t-74 -115v-739zM198 1325q-6 10 1 27l63 147q10 23 35 23h78q18 0 23.5 -11t-3.5 -26 l-92 -150q-11 -20 -37 -20h-45q-17 0 -23 10z" />
<glyph unicode="&#xf4;" horiz-adv-x="520" d="M63 225v711q0 137 51.5 189.5t145.5 52.5t145.5 -52.5t51.5 -189.5v-711q0 -136 -52 -188.5t-145 -52.5t-145 52.5t-52 188.5zM89.5 1326q-6.5 11 2.5 26l84 149q12 21 37 21h94q25 0 37 -21l84 -149q9 -15 3 -26t-25 -11h-41q-26 0 -37 20l-68 107l-61 -107 q-11 -20 -37 -20h-47q-19 0 -25.5 11zM186 211q0 -115 74 -115t74 115v739q0 115 -74 115t-74 -115v-739z" />
<glyph unicode="&#xf5;" horiz-adv-x="518" d="M61 225v711q0 137 51.5 189.5t145.5 52.5t145.5 -52.5t51.5 -189.5v-711q0 -136 -52 -188.5t-145 -52.5t-145 52.5t-52 188.5zM66 1348q28 96 114 96q29 0 72.5 -15.5t56.5 -15.5q15 0 21 6q2 2 6.5 7t6.5 6.5l6 4.5t7.5 4t8.5 1h59q17 0 24.5 -10t2.5 -25 q-15 -44 -48 -69t-73 -25q-28 0 -66.5 17.5t-56.5 17.5t-25 -11l-5.5 -5.5l-5.5 -5.5t-5 -4t-6.5 -4t-6.5 -2t-8 -1h-53q-17 0 -24.5 9t-1.5 24zM184 211q0 -115 74 -115t74 115v739q0 115 -74 115t-74 -115v-739z" />
<glyph unicode="&#xf6;" horiz-adv-x="516" d="M37 1382q0 37 25.5 62.5t62.5 25.5t62.5 -25.5t25.5 -62.5t-25.5 -62.5t-62.5 -25.5t-62.5 25.5t-25.5 62.5zM61 225v711q0 137 51.5 189.5t145.5 52.5t145.5 -52.5t51.5 -189.5v-711q0 -136 -52 -188.5t-145 -52.5t-145 52.5t-52 188.5zM184 211q0 -115 74 -115t74 115 v739q0 115 -74 115t-74 -115v-739zM305 1382q0 37 25.5 62.5t62.5 25.5t62.5 -25.5t25.5 -62.5t-25.5 -62.5t-62.5 -25.5t-62.5 25.5t-25.5 62.5z" />
<glyph unicode="&#xf7;" horiz-adv-x="864" d="M82 719v49q0 31 31 31h639q30 0 30 -31v-49q0 -31 -30 -31h-639q-31 0 -31 31zM346 444q0 35 25.5 60.5t60.5 25.5t60.5 -25.5t25.5 -60.5t-25.5 -60.5t-60.5 -25.5t-60.5 25.5t-25.5 60.5zM346 1042q0 35 25.5 60.5t60.5 25.5t60.5 -25.5t25.5 -60.5t-25.5 -60.5 t-60.5 -25.5t-60.5 25.5t-25.5 60.5z" />
<glyph unicode="&#xf8;" horiz-adv-x="520" d="M63 225v711q0 137 51.5 189.5t145.5 52.5q27 0 62 -7l10 62q3 29 33 29h2q15 0 22 -9t4 -24l-12 -84q76 -53 76 -209v-711q0 -136 -52 -188.5t-145 -52.5q-30 0 -57 6l-10 -70q-3 -29 -33 -29h-2q-32 0 -29 33l14 88q-80 51 -80 213zM186 209l117 842q-21 14 -43 14 q-74 0 -74 -115v-741zM221 106q13 -10 39 -10q74 0 74 115v704z" />
<glyph unicode="&#xf9;" d="M66 291v839q0 31 30 31h62q30 0 30 -31v-882q0 -80 15 -117t51 -37q82 0 82 176v860q0 31 31 31h61q31 0 31 -31v-1099q0 -31 -31 -31h-37q-29 0 -35 27l-12 67q-13 -30 -26.5 -50t-44.5 -40t-72 -20q-75 0 -105 70t-30 237zM115.5 1511q5.5 11 23.5 11h78q25 0 35 -23 l63 -147q7 -17 1 -27t-23 -10h-45q-26 0 -37 20l-92 150q-9 15 -3.5 26z" />
<glyph unicode="&#xfa;" d="M66 291v839q0 31 30 31h62q30 0 30 -31v-882q0 -80 15 -117t51 -37q82 0 82 176v860q0 31 31 31h61q31 0 31 -31v-1099q0 -31 -31 -31h-37q-29 0 -35 27l-12 67q-13 -30 -26.5 -50t-44.5 -40t-72 -20q-75 0 -105 70t-30 237zM204 1325q-6 10 1 27l63 147q10 23 35 23h78 q18 0 23.5 -11t-3.5 -26l-92 -150q-11 -20 -37 -20h-45q-17 0 -23 10z" />
<glyph unicode="&#xfb;" d="M66 291v839q0 31 30 31h62q30 0 30 -31v-882q0 -80 15 -117t51 -37q82 0 82 176v860q0 31 31 31h61q31 0 31 -31v-1099q0 -31 -31 -31h-37q-29 0 -35 27l-12 67q-13 -30 -26.5 -50t-44.5 -40t-72 -20q-75 0 -105 70t-30 237zM93.5 1326q-6.5 11 2.5 26l84 149 q12 21 37 21h94q25 0 37 -21l84 -149q9 -15 3 -26t-25 -11h-41q-26 0 -37 20l-68 107l-61 -107q-11 -20 -37 -20h-47q-19 0 -25.5 11z" />
<glyph unicode="&#xfc;" horiz-adv-x="526" d="M43 1382q0 37 25.5 62.5t62.5 25.5t62.5 -25.5t25.5 -62.5t-25.5 -62.5t-62.5 -25.5t-62.5 25.5t-25.5 62.5zM66 291v839q0 31 30 31h62q30 0 30 -31v-882q0 -80 15 -117t51 -37q82 0 82 176v860q0 31 31 31h61q31 0 31 -31v-1099q0 -31 -31 -31h-37q-29 0 -35 27l-12 67 q-13 -30 -26.5 -50t-44.5 -40t-72 -20q-75 0 -105 70t-30 237zM311 1382q0 37 25.5 62.5t62.5 25.5t62.5 -25.5t25.5 -62.5t-25.5 -62.5t-62.5 -25.5t-62.5 25.5t-25.5 62.5z" />
<glyph unicode="&#xfd;" horiz-adv-x="501" d="M27 1128q-3 33 28 33h70q31 0 31 -28l98 -936l102 936q3 28 33 28h70q31 0 28 -33l-229 -1509q-3 -29 -33 -29h-67q-36 0 -29 33l57 314zM202 1325q-6 10 1 27l63 147q10 23 35 23h78q18 0 23.5 -11t-3.5 -26l-92 -150q-11 -20 -37 -20h-45q-17 0 -23 10z" />
<glyph unicode="&#xfe;" horiz-adv-x="524" d="M68 -377v1915q0 31 30 31h62q30 0 30 -31v-457q10 21 18 33.5t24 29.5t39.5 25.5t54.5 8.5q75 0 105 -70.5t30 -237.5v-579q0 -167 -30 -237t-105 -70q-87 0 -136 92v-453q0 -31 -30 -31h-62q-30 0 -30 31zM190 270q0 -176 82 -176q36 0 51 37t15 117v665q0 80 -15 117 t-51 37q-82 0 -82 -176v-621z" />
<glyph unicode="&#xff;" horiz-adv-x="501" d="M27 1128q-3 33 28 33h70q31 0 31 -28l98 -936l102 936q3 28 33 28h70q31 0 28 -33l-229 -1509q-3 -29 -33 -29h-67q-36 0 -29 33l57 314zM33 1382q0 37 25.5 62.5t62.5 25.5t62.5 -25.5t25.5 -62.5t-25.5 -62.5t-62.5 -25.5t-62.5 25.5t-25.5 62.5zM301 1382 q0 37 25.5 62.5t62.5 25.5t62.5 -25.5t25.5 -62.5t-25.5 -62.5t-62.5 -25.5t-62.5 25.5t-25.5 62.5z" />
<glyph unicode="&#x100;" horiz-adv-x="589" d="M16 33l203 1509q3 29 33 29h86q30 0 33 -29l204 -1509q3 -33 -28 -33h-66q-29 0 -32 29l-41 360h-224l-41 -360q-3 -29 -32 -29h-66q-32 0 -29 33zM88 1753v41q0 31 31 31h352q31 0 31 -31v-41q0 -31 -31 -31h-352q-31 0 -31 31zM201 506h190l-96 840z" />
<glyph unicode="&#x101;" horiz-adv-x="514" d="M47 1346v40q0 31 31 31h352q31 0 31 -31v-40q0 -31 -31 -31h-352q-31 0 -31 31zM55 291v22q0 172 30.5 243t109.5 71q45 0 75.5 -23t55.5 -74v379q0 87 -16 121.5t-58 34.5t-58 -34.5t-16 -121.5v-88q0 -30 -31 -30h-61q-31 0 -31 30v78q0 151 42 215t157 64 q106 0 150.5 -61.5t44.5 -217.5v-868q0 -31 -31 -31h-37q-29 0 -35 27l-12 67q-9 -21 -19 -37t-27 -34.5t-42 -28.5t-56 -10q-75 0 -105 70t-30 237zM178 248q0 -80 15 -117t51 -37q82 0 82 176v86q0 152 -78 152q-39 0 -54.5 -35.5t-15.5 -120.5v-104z" />
<glyph unicode="&#x102;" horiz-adv-x="589" d="M16 33l203 1509q3 29 33 29h86q30 0 33 -29l204 -1509q3 -33 -28 -33h-66q-29 0 -32 29l-41 360h-224l-41 -360q-3 -29 -32 -29h-66q-32 0 -29 33zM109 1860q-3 32 30 32h21q24 0 33 -28q15 -68 104 -68q41 0 69 17.5t35 50.5q9 28 33 28h19q33 0 30 -32 q-10 -69 -63.5 -108.5t-122.5 -39.5t-122.5 39.5t-65.5 108.5zM201 506h190l-96 840z" />
<glyph unicode="&#x103;" horiz-adv-x="514" d="M55 291v22q0 172 30.5 243t109.5 71q45 0 75.5 -23t55.5 -74v379q0 87 -16 121.5t-58 34.5t-58 -34.5t-16 -121.5v-88q0 -30 -31 -30h-61q-31 0 -31 30v78q0 151 42 215t157 64q106 0 150.5 -61.5t44.5 -217.5v-868q0 -31 -31 -31h-37q-29 0 -35 27l-12 67 q-9 -21 -19 -37t-27 -34.5t-42 -28.5t-56 -10q-75 0 -105 70t-30 237zM66 1452q-1 15 7 24t23 9h21q23 0 33 -29q15 -67 104 -67t104 67q10 29 33 29h19q15 0 23 -9t7 -24q-10 -69 -63 -108t-123 -39q-69 0 -122.5 39t-65.5 108zM178 248q0 -80 15 -117t51 -37q82 0 82 176 v86q0 152 -78 152q-39 0 -54.5 -35.5t-15.5 -120.5v-104z" />
<glyph unicode="&#x104;" horiz-adv-x="587" d="M14 33l203 1509q3 29 33 29h86q30 0 33 -29l204 -1513q3 -28 -24 -37q-63 -22 -93 -65.5t-30 -94.5q0 -77 92 -111q32 -13 14 -40l-8 -13q-16 -22 -39 -16q-78 14 -118.5 62.5t-40.5 111.5q0 114 125 172l-45 391h-224l-41 -360q-3 -29 -32 -29h-66q-32 0 -29 33z M199 506h190l-96 840z" />
<glyph unicode="&#x105;" horiz-adv-x="514" d="M55 291v22q0 172 30.5 243t109.5 71q45 0 75.5 -23t55.5 -74v379q0 87 -16 121.5t-58 34.5t-58 -34.5t-16 -121.5v-88q0 -30 -31 -30h-61q-31 0 -31 30v78q0 151 42 215t157 64q106 0 150.5 -61.5t44.5 -217.5v-874q0 -23 -19 -39q-98 -72 -98 -154q0 -77 92 -111 q32 -13 14 -40l-8 -13q-16 -22 -39 -16q-78 14 -119 63t-41 111q0 51 31.5 97.5t97.5 76.5l-26 94q-9 -21 -19 -37t-27 -34.5t-42 -28.5t-56 -10q-75 0 -105 70t-30 237zM178 248q0 -80 15 -117t51 -37q82 0 82 176v86q0 152 -78 152q-39 0 -54.5 -35.5t-15.5 -120.5v-104z " />
<glyph unicode="&#x106;" horiz-adv-x="612" d="M74 301v967q0 96 17.5 162t51.5 101t75 49.5t97 14.5t97 -14.5t75.5 -49.5t52 -101t17.5 -162v-213q0 -31 -31 -31h-65q-31 0 -31 31v268q0 78 -32 117t-83 39q-50 0 -82 -39t-32 -117v-1077q0 -78 32 -117t82 -39q51 0 83 39t32 117v248q0 30 31 30h65q31 0 31 -30v-193 q0 -96 -17.5 -162t-52 -101.5t-75.5 -50t-97 -14.5t-97 14.5t-75 50t-51.5 101.5t-17.5 162zM259.5 1732q-6.5 10 0.5 27l64 148q9 22 34 22h78q18 0 24 -11t-3 -26l-92 -149q-12 -21 -37 -21h-45q-17 0 -23.5 10z" />
<glyph unicode="&#x107;" horiz-adv-x="507" d="M63 225v711q0 137 51.5 189.5t145.5 52.5t145.5 -52.5t51.5 -189.5v-170q0 -31 -31 -31h-61q-31 0 -31 31v184q0 115 -74 115t-74 -115v-739q0 -115 74 -115t74 115v213q0 31 31 31h61q31 0 31 -31v-199q0 -136 -52 -188.5t-145 -52.5t-145 52.5t-52 188.5zM194 1325 q-6 10 1 27l63 147q10 23 35 23h78q18 0 23.5 -11t-3.5 -26l-92 -150q-11 -20 -37 -20h-45q-17 0 -23 10z" />
<glyph unicode="&#x108;" horiz-adv-x="612" d="M74 301v967q0 96 17.5 162t51.5 101t75 49.5t97 14.5t97 -14.5t75.5 -49.5t52 -101t17.5 -162v-213q0 -31 -31 -31h-65q-31 0 -31 31v268q0 78 -32 117t-83 39q-50 0 -82 -39t-32 -117v-1077q0 -78 32 -117t82 -39q51 0 83 39t32 117v248q0 30 31 30h65q31 0 31 -30v-193 q0 -96 -17.5 -162t-52 -101.5t-75.5 -50t-97 -14.5t-97 14.5t-75 50t-51.5 101.5t-17.5 162zM144.5 1733q-6.5 11 2.5 26l84 150q11 20 37 20h94q26 0 37 -20l84 -150q9 -15 3 -26t-25 -11h-41q-25 0 -37 21l-68 106l-61 -106q-12 -21 -37 -21h-47q-19 0 -25.5 11z" />
<glyph unicode="&#x109;" horiz-adv-x="507" d="M63 225v711q0 137 51.5 189.5t145.5 52.5t145.5 -52.5t51.5 -189.5v-170q0 -31 -31 -31h-61q-31 0 -31 31v184q0 115 -74 115t-74 -115v-739q0 -115 74 -115t74 115v213q0 31 31 31h61q31 0 31 -31v-199q0 -136 -52 -188.5t-145 -52.5t-145 52.5t-52 188.5zM87.5 1326 q-6.5 11 2.5 26l84 149q12 21 37 21h94q25 0 37 -21l84 -149q9 -15 2.5 -26t-25.5 -11h-41q-25 0 -36 20l-68 107l-61 -107q-11 -20 -37 -20h-47q-19 0 -25.5 11z" />
<glyph unicode="&#x10a;" horiz-adv-x="612" d="M74 301v967q0 96 17.5 162t51.5 101t75 49.5t97 14.5t97 -14.5t75.5 -49.5t52 -101t17.5 -162v-213q0 -31 -31 -31h-65q-31 0 -31 31v268q0 78 -32 117t-83 39q-50 0 -82 -39t-32 -117v-1077q0 -78 32 -117t82 -39q51 0 83 39t32 117v248q0 30 31 30h65q31 0 31 -30v-193 q0 -96 -17.5 -162t-52 -101.5t-75.5 -50t-97 -14.5t-97 14.5t-75 50t-51.5 101.5t-17.5 162zM227 1790q0 37 25.5 62.5t62.5 25.5t62.5 -25.5t25.5 -62.5t-25.5 -62.5t-62.5 -25.5t-62.5 25.5t-25.5 62.5z" />
<glyph unicode="&#x10b;" horiz-adv-x="507" d="M63 225v711q0 137 51.5 189.5t145.5 52.5t145.5 -52.5t51.5 -189.5v-170q0 -31 -31 -31h-61q-31 0 -31 31v184q0 115 -74 115t-74 -115v-739q0 -115 74 -115t74 115v213q0 31 31 31h61q31 0 31 -31v-199q0 -136 -52 -188.5t-145 -52.5t-145 52.5t-52 188.5zM170 1382 q0 37 25.5 62.5t62.5 25.5t62.5 -25.5t25.5 -62.5t-25.5 -62.5t-62.5 -25.5t-62.5 25.5t-25.5 62.5z" />
<glyph unicode="&#x10c;" horiz-adv-x="612" d="M74 301v967q0 96 17.5 162t51.5 101t75 49.5t97 14.5t97 -14.5t75.5 -49.5t52 -101t17.5 -162v-213q0 -31 -31 -31h-65q-31 0 -31 31v268q0 78 -32 117t-83 39q-50 0 -82 -39t-32 -117v-1077q0 -78 32 -117t82 -39q51 0 83 39t32 117v248q0 30 31 30h65q31 0 31 -30v-193 q0 -96 -17.5 -162t-52 -101.5t-75.5 -50t-97 -14.5t-97 14.5t-75 50t-51.5 101.5t-17.5 162zM144.5 1918q6.5 11 25.5 11h47q26 0 37 -20l61 -107l68 107q11 20 37 20h41q19 0 25 -11t-3 -26l-84 -149q-12 -21 -37 -21h-94q-25 0 -37 21l-84 149q-9 15 -2.5 26z" />
<glyph unicode="&#x10d;" horiz-adv-x="507" d="M63 225v711q0 137 51.5 189.5t145.5 52.5t145.5 -52.5t51.5 -189.5v-170q0 -31 -31 -31h-61q-31 0 -31 31v184q0 115 -74 115t-74 -115v-739q0 -115 74 -115t74 115v213q0 31 31 31h61q31 0 31 -31v-199q0 -136 -52 -188.5t-145 -52.5t-145 52.5t-52 188.5zM87.5 1511 q6.5 11 25.5 11h47q25 0 37 -21l61 -106l68 106q12 21 36 21h41q19 0 25.5 -11t-2.5 -26l-84 -150q-11 -20 -37 -20h-94q-26 0 -37 20l-84 150q-9 15 -2.5 26z" />
<glyph unicode="&#x10e;" horiz-adv-x="626" d="M80 31v1507q0 31 31 31h163q80 0 128.5 -12.5t84.5 -48t51 -100t15 -167.5v-913q0 -103 -15 -167.5t-51 -100t-84.5 -48t-128.5 -12.5h-163q-31 0 -31 31zM128.5 1918q6.5 11 25.5 11h47q26 0 37 -20l61 -107l68 107q11 20 36 20h41q19 0 25.5 -11t-2.5 -26l-84 -149 q-12 -21 -37 -21h-94q-25 0 -37 21l-84 149q-9 15 -2.5 26zM207 127h104q60 0 87.5 35.5t27.5 120.5v1003q0 85 -27.5 120.5t-87.5 35.5h-104v-1315z" />
<glyph unicode="&#x10f;" horiz-adv-x="581" d="M61 291v579q0 167 30.5 237.5t105.5 70.5q86 0 135 -111v471q0 31 30 31h62q31 0 31 -31v-1507q0 -31 -31 -31h-37q-29 0 -35 27l-12 67q-13 -30 -26.5 -50t-44.5 -40t-72 -20q-76 0 -106 70t-30 237zM184 248q0 -80 15 -117t51 -37q82 0 82 176v621q0 176 -82 176 q-36 0 -51 -37t-15 -117v-665zM508 1135l63 405q3 29 33 29h84q17 0 24 -10t1 -25l-131 -408q-9 -24 -35 -24h-10q-32 0 -29 33z" />
<glyph unicode="&#x110;" horiz-adv-x="626" d="M12 758v65q0 31 31 31h37v684q0 31 31 31h163q80 0 128.5 -12.5t84.5 -48t51 -100t15 -167.5v-913q0 -103 -15 -167.5t-51 -100t-84.5 -48t-128.5 -12.5h-163q-31 0 -31 31v696h-37q-31 0 -31 31zM207 117h104q60 0 87.5 35.5t27.5 119.5v1024q0 85 -27.5 120.5 t-87.5 35.5h-104v-598h92q31 0 31 -31v-65q0 -31 -31 -31h-92v-610z" />
<glyph unicode="&#x111;" horiz-adv-x="522" d="M61 291v579q0 167 30.5 237.5t105.5 70.5q86 0 135 -111v270h-162q-31 0 -31 31v45q0 31 31 31h162v94q0 31 30 31h62q31 0 31 -31v-94h41q30 0 30 -31v-45q0 -31 -30 -31h-41v-1306q0 -31 -31 -31h-37q-29 0 -35 27l-12 67q-13 -30 -26.5 -50t-44.5 -40t-72 -20 q-76 0 -106 70t-30 237zM184 248q0 -80 15 -117t51 -37q82 0 82 176v621q0 176 -82 176q-36 0 -51 -37t-15 -117v-665z" />
<glyph unicode="&#x112;" horiz-adv-x="546" d="M78 1753v41q0 31 31 31h352q31 0 31 -31v-41q0 -31 -31 -31h-352q-31 0 -31 31zM80 31v1507q0 31 31 31h356q31 0 31 -31v-65q0 -31 -31 -31h-260v-588h246q30 0 30 -31v-65q0 -31 -30 -31h-246v-600h260q31 0 31 -31v-65q0 -31 -31 -31h-356q-31 0 -31 31z" />
<glyph unicode="&#x113;" horiz-adv-x="509" d="M49 1346v40q0 31 31 31h352q31 0 31 -31v-40q0 -31 -31 -31h-352q-31 0 -31 31zM61 225v711q0 137 51.5 189.5t145.5 52.5t145.5 -52.5t51.5 -189.5v-371q0 -30 -31 -30h-240v-324q0 -115 74 -115t74 115v141q0 31 30 31h62q31 0 31 -31v-127q0 -136 -52 -188.5 t-145 -52.5t-145 52.5t-52 188.5zM184 645h148v305q0 115 -74 115t-74 -115v-305z" />
<glyph unicode="&#x114;" horiz-adv-x="546" d="M80 31v1507q0 31 31 31h356q31 0 31 -31v-65q0 -31 -31 -31h-260v-588h246q30 0 30 -31v-65q0 -31 -30 -31h-246v-600h260q31 0 31 -31v-65q0 -31 -31 -31h-356q-31 0 -31 31zM96 1860q-1 15 7.5 23.5t23.5 8.5h20q24 0 33 -28q15 -68 105 -68q41 0 69 17.5t35 50.5 q9 28 33 28h18q15 0 23.5 -8.5t7.5 -23.5q-10 -69 -63.5 -108.5t-122.5 -39.5t-123 39.5t-66 108.5z" />
<glyph unicode="&#x115;" horiz-adv-x="512" d="M63 225v711q0 137 51.5 189.5t145.5 52.5t145.5 -52.5t51.5 -189.5v-371q0 -30 -31 -30h-240v-324q0 -115 74 -115t74 115v141q0 31 31 31h61q31 0 31 -31v-127q0 -136 -52 -188.5t-145 -52.5t-145 52.5t-52 188.5zM72 1452q-1 15 7 24t23 9h21q23 0 33 -29 q15 -67 104 -67q41 0 69.5 17t35.5 50q10 29 32 29h19q15 0 23 -9t7 -24q-10 -69 -63 -108t-123 -39q-69 0 -122.5 39t-65.5 108zM186 645h148v305q0 115 -74 115t-74 -115v-305z" />
<glyph unicode="&#x116;" horiz-adv-x="546" d="M80 31v1507q0 31 31 31h356q31 0 31 -31v-65q0 -31 -31 -31h-260v-588h246q30 0 30 -31v-65q0 -31 -30 -31h-246v-600h260q31 0 31 -31v-65q0 -31 -31 -31h-356q-31 0 -31 31zM195 1790q0 37 25.5 62.5t62.5 25.5t62.5 -25.5t25.5 -62.5t-25.5 -62.5t-62.5 -25.5 t-62.5 25.5t-25.5 62.5z" />
<glyph unicode="&#x117;" horiz-adv-x="512" d="M63 225v711q0 137 51.5 189.5t145.5 52.5t145.5 -52.5t51.5 -189.5v-371q0 -30 -31 -30h-240v-324q0 -115 74 -115t74 115v141q0 31 31 31h61q31 0 31 -31v-127q0 -136 -52 -188.5t-145 -52.5t-145 52.5t-52 188.5zM170 1382q0 37 25.5 62.5t62.5 25.5t62.5 -25.5 t25.5 -62.5t-25.5 -62.5t-62.5 -25.5t-62.5 25.5t-25.5 62.5zM186 645h148v305q0 115 -74 115t-74 -115v-305z" />
<glyph unicode="&#x118;" horiz-adv-x="546" d="M80 31v1507q0 31 31 31h356q31 0 31 -31v-65q0 -31 -31 -31h-260v-588h246q30 0 30 -31v-65q0 -31 -30 -31h-246v-600h260q31 0 31 -31v-65q0 -31 -31 -31h-27q-114 -79 -114 -168q0 -77 92 -111q32 -13 14 -40l-8 -13q-16 -22 -39 -16q-78 14 -119 63t-41 111 q0 51 31.5 97.5t97.5 76.5h-243q-31 0 -31 31z" />
<glyph unicode="&#x119;" horiz-adv-x="512" d="M63 225v711q0 137 51.5 189.5t145.5 52.5t145.5 -52.5t51.5 -189.5v-371q0 -30 -31 -30h-240v-324q0 -115 74 -115t74 115v141q0 31 31 31h61q31 0 31 -31v-127q0 -179 -105 -225q-110 -76 -110 -166q0 -76 92 -110q33 -13 14 -41l-8 -13q-16 -22 -39 -16q-78 14 -119 63 t-41 111q0 98 95 156q-82 7 -127.5 61t-45.5 180zM186 645h148v305q0 115 -74 115t-74 -115v-305z" />
<glyph unicode="&#x11a;" horiz-adv-x="546" d="M80 31v1507q0 31 31 31h356q31 0 31 -31v-65q0 -31 -31 -31h-260v-588h246q30 0 30 -31v-65q0 -31 -30 -31h-246v-600h260q31 0 31 -31v-65q0 -31 -31 -31h-356q-31 0 -31 31zM118 1918q6 11 25 11h47q26 0 37 -20l62 -107l67 107q11 20 37 20h41q19 0 25.5 -11t-2.5 -26 l-84 -149q-12 -21 -37 -21h-94q-25 0 -37 21l-84 149q-9 15 -3 26z" />
<glyph unicode="&#x11b;" horiz-adv-x="512" d="M63 225v711q0 137 51.5 189.5t145.5 52.5t145.5 -52.5t51.5 -189.5v-371q0 -30 -31 -30h-240v-324q0 -115 74 -115t74 115v141q0 31 31 31h61q31 0 31 -31v-127q0 -136 -52 -188.5t-145 -52.5t-145 52.5t-52 188.5zM87.5 1511q6.5 11 25.5 11h47q25 0 37 -21l61 -106 l68 106q12 21 36 21h41q19 0 25.5 -11t-2.5 -26l-84 -150q-11 -20 -37 -20h-94q-26 0 -37 20l-84 150q-9 15 -2.5 26zM186 645h148v305q0 115 -74 115t-74 -115v-305z" />
<glyph unicode="&#x11c;" horiz-adv-x="643" d="M74 301v967q0 96 17.5 162t52.5 101t78.5 49.5t103.5 14.5t103.5 -14.5t78.5 -49.5t52.5 -101t17.5 -162v-215q0 -31 -31 -31h-66q-30 0 -30 31v270q0 79 -33.5 117.5t-91.5 38.5t-91.5 -38.5t-33.5 -117.5v-1077q0 -79 33.5 -117.5t91.5 -38.5t91.5 38.5t33.5 117.5v401 h-107q-31 0 -31 31v61q0 31 31 31h203q31 0 31 -31v-438q0 -96 -17.5 -162t-52.5 -101.5t-78.5 -50t-103.5 -14.5t-103.5 14.5t-78.5 50t-52.5 101.5t-17.5 162zM155 1733q-6 11 3 26l84 150q11 20 37 20h94q26 0 37 -20l84 -150q9 -15 2.5 -26t-25.5 -11h-41q-25 0 -37 21 l-67 106l-62 -106q-12 -21 -37 -21h-47q-19 0 -25 11z" />
<glyph unicode="&#x11d;" horiz-adv-x="516" d="M41 37q0 52 9 90t20 58t34 51q-28 51 -28 94q0 68 63 147q-42 38 -60 84t-18 137v193q0 160 42 223.5t141 63.5q60 0 102 -27h135q31 0 31 -31v-14q0 -31 -31 -31h-67q41 -66 41 -184v-193q0 -143 -48 -202.5t-143 -59.5q-37 0 -55 4q-33 -23 -33 -67q0 -27 19.5 -49.5 t68.5 -22.5q43 0 73 -9t59 -35t44 -81t15 -139v-160q0 -162 -49.5 -226.5t-157.5 -64.5q-114 0 -160.5 68.5t-46.5 239.5v143zM87.5 1326q-6.5 11 2.5 26l84 149q12 21 37 21h94q25 0 37 -21l84 -149q9 -15 2.5 -26t-25.5 -11h-41q-25 0 -36 20l-68 107l-61 -107 q-11 -20 -37 -20h-47q-19 0 -25.5 11zM164 25v-170q0 -85 20 -120.5t64 -35.5t64 35.5t20 120.5v180q0 92 -17.5 123.5t-62.5 31.5q-52 0 -70 -36t-18 -129zM184 700q0 -87 16 -121t58 -34t58 34t16 121v209q0 87 -16 121.5t-58 34.5t-58 -34.5t-16 -121.5v-209z" />
<glyph unicode="&#x11e;" horiz-adv-x="643" d="M74 301v967q0 96 17.5 162t52.5 101t78.5 49.5t103.5 14.5t103.5 -14.5t78.5 -49.5t52.5 -101t17.5 -162v-215q0 -31 -31 -31h-66q-30 0 -30 31v270q0 79 -33.5 117.5t-91.5 38.5t-91.5 -38.5t-33.5 -117.5v-1077q0 -79 33.5 -117.5t91.5 -38.5t91.5 38.5t33.5 117.5v401 h-107q-31 0 -31 31v61q0 31 31 31h203q31 0 31 -31v-438q0 -96 -17.5 -162t-52.5 -101.5t-78.5 -50t-103.5 -14.5t-103.5 14.5t-78.5 50t-52.5 101.5t-17.5 162zM143 1860q-1 15 7.5 23.5t23.5 8.5h21q23 0 32 -28q15 -68 105 -68q41 0 69 17.5t35 50.5q9 28 33 28h18 q15 0 23.5 -8.5t7.5 -23.5q-10 -69 -63.5 -108.5t-122.5 -39.5t-123 39.5t-66 108.5z" />
<glyph unicode="&#x11f;" horiz-adv-x="516" d="M41 37q0 52 9 90t20 58t34 51q-28 51 -28 94q0 68 63 147q-42 38 -60 84t-18 137v193q0 160 42 223.5t141 63.5q60 0 102 -27h135q31 0 31 -31v-14q0 -31 -31 -31h-67q41 -66 41 -184v-193q0 -143 -48 -202.5t-143 -59.5q-37 0 -55 4q-33 -23 -33 -67q0 -27 19.5 -49.5 t68.5 -22.5q43 0 73 -9t59 -35t44 -81t15 -139v-160q0 -162 -49.5 -226.5t-157.5 -64.5q-114 0 -160.5 68.5t-46.5 239.5v143zM74 1452q-1 15 7 24t23 9h21q23 0 33 -29q15 -67 104 -67q41 0 69.5 17t35.5 50q10 29 32 29h19q15 0 23.5 -9t7.5 -24q-10 -69 -63.5 -108 t-123.5 -39q-69 0 -122.5 39t-65.5 108zM164 25v-170q0 -85 20 -120.5t64 -35.5t64 35.5t20 120.5v180q0 92 -17.5 123.5t-62.5 31.5q-52 0 -70 -36t-18 -129zM184 700q0 -87 16 -121t58 -34t58 34t16 121v209q0 87 -16 121.5t-58 34.5t-58 -34.5t-16 -121.5v-209z" />
<glyph unicode="&#x120;" horiz-adv-x="643" d="M74 301v967q0 96 17.5 162t52.5 101t78.5 49.5t103.5 14.5t103.5 -14.5t78.5 -49.5t52.5 -101t17.5 -162v-215q0 -31 -31 -31h-66q-30 0 -30 31v270q0 79 -33.5 117.5t-91.5 38.5t-91.5 -38.5t-33.5 -117.5v-1077q0 -79 33.5 -117.5t91.5 -38.5t91.5 38.5t33.5 117.5v401 h-107q-31 0 -31 31v61q0 31 31 31h203q31 0 31 -31v-438q0 -96 -17.5 -162t-52.5 -101.5t-78.5 -50t-103.5 -14.5t-103.5 14.5t-78.5 50t-52.5 101.5t-17.5 162zM238 1790q0 37 25.5 62.5t62.5 25.5t62.5 -25.5t25.5 -62.5t-25.5 -62.5t-62.5 -25.5t-62.5 25.5t-25.5 62.5z " />
<glyph unicode="&#x121;" horiz-adv-x="516" d="M41 37q0 52 9 90t20 58t34 51q-28 51 -28 94q0 68 63 147q-42 38 -60 84t-18 137v193q0 160 42 223.5t141 63.5q60 0 102 -27h135q31 0 31 -31v-14q0 -31 -31 -31h-67q41 -66 41 -184v-193q0 -143 -48 -202.5t-143 -59.5q-37 0 -55 4q-33 -23 -33 -67q0 -27 19.5 -49.5 t68.5 -22.5q43 0 73 -9t59 -35t44 -81t15 -139v-160q0 -162 -49.5 -226.5t-157.5 -64.5q-114 0 -160.5 68.5t-46.5 239.5v143zM164 25v-170q0 -85 20 -120.5t64 -35.5t64 35.5t20 120.5v180q0 92 -17.5 123.5t-62.5 31.5q-52 0 -70 -36t-18 -129zM184 700q0 -87 16 -121 t58 -34t58 34t16 121v209q0 87 -16 121.5t-58 34.5t-58 -34.5t-16 -121.5v-209zM186 1382q0 37 25.5 62.5t62.5 25.5t62.5 -25.5t25.5 -62.5t-25.5 -62.5t-62.5 -25.5t-62.5 25.5t-25.5 62.5z" />
<glyph unicode="&#x122;" horiz-adv-x="643" d="M74 301v967q0 96 17.5 162t52.5 101t78.5 49.5t103.5 14.5t103.5 -14.5t78.5 -49.5t52.5 -101t17.5 -162v-215q0 -31 -31 -31h-66q-30 0 -30 31v270q0 79 -33.5 117.5t-91.5 38.5t-91.5 -38.5t-33.5 -117.5v-1077q0 -79 33.5 -117.5t91.5 -38.5t91.5 38.5t33.5 117.5v401 h-107q-31 0 -31 31v61q0 31 31 31h203q31 0 31 -31v-438q0 -96 -17.5 -162t-52.5 -101.5t-78.5 -50t-103.5 -14.5t-103.5 14.5t-78.5 50t-52.5 101.5t-17.5 162zM223 -285l53 158q9 25 35 25h68q38 0 22 -37l-84 -158q-11 -22 -36 -22h-33q-17 0 -24 9.5t-1 24.5z" />
<glyph unicode="&#x123;" horiz-adv-x="516" d="M41 37q0 52 9 90t20 58t34 51q-28 51 -28 94q0 68 63 147q-42 38 -60 84t-18 137v193q0 160 42 223.5t141 63.5q60 0 102 -27h135q31 0 31 -31v-14q0 -31 -31 -31h-67q41 -66 41 -184v-193q0 -143 -48 -202.5t-143 -59.5q-37 0 -55 4q-33 -23 -33 -67q0 -27 19.5 -49.5 t68.5 -22.5q43 0 73 -9t59 -35t44 -81t15 -139v-160q0 -162 -49.5 -226.5t-157.5 -64.5q-114 0 -160.5 68.5t-46.5 239.5v143zM164 25v-170q0 -85 20 -120.5t64 -35.5t64 35.5t20 120.5v180q0 92 -17.5 123.5t-62.5 31.5q-52 0 -70 -36t-18 -129zM184 700q0 -87 16 -121 t58 -34t58 34t16 121v209q0 87 -16 121.5t-58 34.5t-58 -34.5t-16 -121.5v-209zM207 1352l84 157q11 23 37 23h32q17 0 24 -10t1 -25l-53 -158q-9 -24 -35 -24h-68q-38 0 -22 37z" />
<glyph unicode="&#x124;" horiz-adv-x="643" d="M80 31v1507q0 31 31 31h65q31 0 31 -31v-674h229v674q0 31 31 31h65q31 0 31 -31v-1507q0 -31 -31 -31h-65q-31 0 -31 31v706h-229v-706q0 -31 -31 -31h-65q-31 0 -31 31zM151 1733q-6 11 3 26l84 150q11 20 36 20h95q26 0 37 -20l83 -150q9 -15 3 -26t-25 -11h-41 q-25 0 -37 21l-67 106l-62 -106q-12 -21 -37 -21h-47q-19 0 -25 11z" />
<glyph unicode="&#x125;" horiz-adv-x="526" d="M-39.5 1700.5q-6.5 10.5 2.5 25.5l84 150q11 20 37 20h94q26 0 37 -20l84 -150q9 -15 2.5 -25.5t-25.5 -10.5h-40q-26 0 -37 20l-68 107l-61 -107q-11 -20 -37 -20h-47q-19 0 -25.5 10.5zM68 31v1507q0 31 30 31h62q30 0 30 -31v-471q10 22 19 37.5t25.5 34.5t40 29 t53.5 10q74 0 103.5 -71t29.5 -237v-839q0 -31 -31 -31h-61q-31 0 -31 31v882q0 80 -15 117t-51 37q-82 0 -82 -176v-860q0 -31 -30 -31h-62q-30 0 -30 31z" />
<glyph unicode="&#x126;" horiz-adv-x="643" d="M12 1237v47q0 31 31 31h37v223q0 31 31 31h65q31 0 31 -31v-223h229v223q0 31 31 31h65q31 0 31 -31v-223h37q31 0 31 -31v-47q0 -31 -31 -31h-37v-1175q0 -31 -31 -31h-65q-31 0 -31 31v706h-229v-706q0 -31 -31 -31h-65q-31 0 -31 31v1175h-37q-31 0 -31 31zM207 864 h229v342h-229v-342z" />
<glyph unicode="&#x127;" horiz-adv-x="526" d="M-2 1368v45q0 31 31 31h39v94q0 31 30 31h62q30 0 30 -31v-94h164q31 0 31 -31v-45q0 -31 -31 -31h-164v-270q10 22 19 37.5t25.5 34.5t40 29t53.5 10q74 0 103.5 -71t29.5 -237v-839q0 -31 -31 -31h-61q-31 0 -31 31v882q0 80 -15 117t-51 37q-82 0 -82 -176v-860 q0 -31 -30 -31h-62q-30 0 -30 31v1306h-39q-31 0 -31 31z" />
<glyph unicode="&#x128;" horiz-adv-x="286" d="M-49 1755q28 96 115 96q29 0 72.5 -15t56.5 -15q14 0 20 6q2 2 5.5 6t5.5 5.5t5 4t5.5 3.5t6 2t7.5 1h59q17 0 24.5 -9.5t2.5 -24.5q-15 -44 -48 -69.5t-73 -25.5q-28 0 -66.5 17.5t-56.5 17.5q-17 0 -24 -10q-2 -2 -6.5 -7t-6.5 -6.5t-6.5 -4.5t-8.5 -4t-9 -1h-54 q-17 0 -24.5 9t-1.5 24zM80 31v1507q0 31 31 31h65q31 0 31 -31v-1507q0 -31 -31 -31h-65q-31 0 -31 31z" />
<glyph unicode="&#x129;" horiz-adv-x="258" d="M-63 1348q28 96 114 96q29 0 72.5 -15.5t56.5 -15.5q15 0 21 6q2 2 6.5 7t6.5 6.5l6 4.5t7.5 4t8.5 1h59q17 0 24.5 -10t2.5 -25q-15 -44 -48 -69t-73 -25q-28 0 -66.5 17.5t-56.5 17.5t-25 -11l-5.5 -5.5l-5.5 -5.5t-5 -4t-6.5 -4t-6.5 -2t-8 -1h-53q-17 0 -24.5 9 t-1.5 24zM68 31v1099q0 31 30 31h62q30 0 30 -31v-1099q0 -31 -30 -31h-62q-30 0 -30 31z" />
<glyph unicode="&#x12a;" horiz-adv-x="286" d="M-63 1753v41q0 31 30 31h352q31 0 31 -31v-41q0 -31 -31 -31h-352q-30 0 -30 31zM80 31v1507q0 31 31 31h65q31 0 31 -31v-1507q0 -31 -31 -31h-65q-31 0 -31 31z" />
<glyph unicode="&#x12b;" horiz-adv-x="258" d="M-78 1346v40q0 31 31 31h352q31 0 31 -31v-40q0 -31 -31 -31h-352q-31 0 -31 31zM68 31v1099q0 31 30 31h62q30 0 30 -31v-1099q0 -31 -30 -31h-62q-30 0 -30 31z" />
<glyph unicode="&#x12c;" horiz-adv-x="286" d="M-43 1860q-1 15 7.5 23.5t23.5 8.5h20q24 0 33 -28q15 -68 104 -68q41 0 69.5 17.5t35.5 50.5q9 28 33 28h18q15 0 23.5 -8.5t7.5 -23.5q-10 -69 -63.5 -108.5t-123.5 -39.5q-69 0 -122.5 39.5t-65.5 108.5zM80 31v1507q0 31 31 31h65q31 0 31 -31v-1507q0 -31 -31 -31 h-65q-31 0 -31 31z" />
<glyph unicode="&#x12d;" horiz-adv-x="258" d="M-57 1452q-1 15 7 24t23 9h21q23 0 33 -29q15 -67 104 -67q41 0 69.5 17t35.5 50q10 29 32 29h19q15 0 23 -9t7 -24q-10 -69 -63 -108t-123 -39q-69 0 -122.5 39t-65.5 108zM68 31v1099q0 31 30 31h62q30 0 30 -31v-1099q0 -31 -30 -31h-62q-30 0 -30 31z" />
<glyph unicode="&#x12e;" horiz-adv-x="286" d="M-18 -174q0 101 98 160v1552q0 31 31 31h65q31 0 31 -31v-1513q0 -25 -21 -37q-104 -70 -104 -156q0 -77 92 -111q32 -13 14 -40l-8 -13q-16 -22 -39 -16q-78 14 -118.5 62.5t-40.5 111.5z" />
<glyph unicode="&#x12f;" horiz-adv-x="258" d="M-33 -174q0 100 101 160v1144q0 31 30 31h62q30 0 30 -31v-1105q0 -26 -20 -37q-102 -72 -102 -156q0 -77 92 -111q32 -13 14 -40l-8 -13q-16 -22 -39 -16q-78 14 -119 63t-41 111zM37 1403q0 38 27 65t65 27t65 -27t27 -65t-27 -65t-65 -27t-65 27t-27 65z" />
<glyph unicode="&#x130;" horiz-adv-x="286" d="M55 1790q0 37 25.5 62.5t62.5 25.5t62.5 -25.5t25.5 -62.5t-25.5 -62.5t-62.5 -25.5t-62.5 25.5t-25.5 62.5zM80 31v1507q0 31 31 31h65q31 0 31 -31v-1507q0 -31 -31 -31h-65q-31 0 -31 31z" />
<glyph unicode="&#x131;" horiz-adv-x="258" d="M68 31v1099q0 31 30 31h62q30 0 30 -31v-1099q0 -31 -30 -31h-62q-30 0 -30 31z" />
<glyph unicode="&#x132;" horiz-adv-x="573" d="M80 31v1507q0 31 31 31h65q31 0 31 -31v-1507q0 -31 -31 -31h-65q-31 0 -31 31zM244 -307q0 31 8 31q48 0 81.5 37.5t33.5 117.5v1659q0 31 30 31h66q31 0 31 -31v-1628q0 -79 -17 -137t-41 -89t-59.5 -49.5t-63.5 -23t-61 -4.5h-4q-4 0 -4 31v55z" />
<glyph unicode="&#x133;" horiz-adv-x="516" d="M37 1403q0 38 27 65t65 27t65 -27t27 -65t-27 -65t-65 -27t-65 27t-27 65zM68 31v1099q0 31 30 31h62q30 0 30 -31v-1099q0 -31 -30 -31h-62q-30 0 -30 31zM190 -340q0 14 5 22t14 7h16q29 0 48 7.5t29.5 18t16 33.5t6.5 42.5t1 55.5v1284q0 31 30 31h62q31 0 31 -31 v-1265q0 -74 -7 -122.5t-25.5 -88t-54 -58t-90.5 -18.5q-19 0 -55 4q-27 6 -27 35v43zM295 1403q0 38 27 65t65 27t65 -27t27 -65t-27 -65t-65 -27t-65 27t-27 65z" />
<glyph unicode="&#x134;" horiz-adv-x="286" d="M-43 -307q0 31 8 31q48 0 81.5 37.5t33.5 117.5v1659q0 31 31 31h65q31 0 31 -31v-1628q0 -79 -17 -137t-41 -89t-59.5 -49.5t-63.5 -23t-61 -4.5h-4q-4 0 -4 31v55zM-27.5 1733q-6.5 11 2.5 26l84 150q11 20 37 20h94q26 0 37 -20l84 -150q9 -15 3 -26t-25 -11h-41 q-25 0 -37 21l-68 106l-61 -106q-12 -21 -37 -21h-47q-19 0 -25.5 11z" />
<glyph unicode="&#x135;" horiz-adv-x="258" d="M-68 -340q0 14 5 22t14 7h16q29 0 48 7.5t29.5 18t16 33.5t6.5 42.5t1 55.5v1284q0 31 30 31h62q30 0 30 -31v-1265q0 -150 -35.5 -218.5t-140.5 -68.5q-19 0 -55 4q-27 6 -27 35v43zM-41.5 1326q-6.5 11 2.5 26l84 149q12 21 37 21h94q25 0 37 -21l84 -149 q9 -15 2.5 -26t-25.5 -11h-41q-25 0 -36 20l-68 107l-61 -107q-11 -20 -37 -20h-47q-19 0 -25.5 11z" />
<glyph unicode="&#x136;" horiz-adv-x="608" d="M80 31v1507q0 31 31 31h65q31 0 31 -31v-1507q0 -31 -31 -31h-65q-31 0 -31 31zM215 805l236 739q9 25 34 25h64q17 0 24 -10t2 -25l-227 -743l264 -756q6 -15 -0.5 -25t-23.5 -10h-64q-26 0 -35 25l-272 739q-8 19 -2 41zM233 -285l54 158q9 25 35 25h67q39 0 23 -37 l-84 -158q-11 -22 -37 -22h-33q-17 0 -24 9.5t-1 24.5z" />
<glyph unicode="&#x137;" horiz-adv-x="530" d="M68 31v1507q0 31 30 31h62q30 0 30 -31v-1507q0 -31 -30 -31h-62q-30 0 -30 31zM176 -285l53 158q9 25 35 25h68q38 0 22 -37l-84 -158q-11 -22 -37 -22h-32q-17 0 -24 9.5t-1 24.5zM199 573q-6 22 2 41l192 523q9 24 35 24h64q17 0 23.5 -10t0.5 -25l-188 -526l186 -565 q6 -15 -1 -25t-24 -10h-61q-26 0 -35 25z" />
<glyph unicode="&#x138;" horiz-adv-x="532" d="M70 31v1099q0 31 30 31h62q31 0 31 -31v-1099q0 -31 -31 -31h-62q-30 0 -30 31zM201 573q-6 22 2 41l192 523q9 24 35 24h64q17 0 23.5 -10t0.5 -25l-188 -526l186 -565q6 -15 -0.5 -25t-23.5 -10h-62q-26 0 -35 25z" />
<glyph unicode="&#x139;" horiz-adv-x="432" d="M80 31v1507q0 31 31 31h65q31 0 31 -31v-1411h178q31 0 31 -31v-65q0 -31 -31 -31h-274q-31 0 -31 31zM103.5 1732q-6.5 10 0.5 27l64 148q9 22 35 22h78q18 0 23.5 -11t-3.5 -26l-92 -149q-12 -21 -37 -21h-45q-17 0 -23.5 10z" />
<glyph unicode="&#x13a;" horiz-adv-x="262" d="M70 31v1507q0 31 30 31h62q31 0 31 -31v-1507q0 -31 -31 -31h-62q-30 0 -30 31zM91.5 1712q-6.5 10 0.5 27l64 147q10 23 34 23h78q18 0 24 -11t-3 -26l-92 -150q-11 -20 -37 -20h-45q-17 0 -23.5 10z" />
<glyph unicode="&#x13b;" horiz-adv-x="432" d="M80 31v1507q0 31 31 31h65q31 0 31 -31v-1411h178q31 0 31 -31v-65q0 -31 -31 -31h-274q-31 0 -31 31zM139 -285l54 158q9 25 34 25h68q38 0 22 -37l-84 -158q-11 -22 -36 -22h-33q-17 0 -24 9.5t-1 24.5z" />
<glyph unicode="&#x13c;" horiz-adv-x="262" d="M12 -285l54 158q9 25 34 25h68q38 0 22 -37l-84 -158q-11 -22 -36 -22h-33q-17 0 -24 9.5t-1 24.5zM70 31v1507q0 31 30 31h62q31 0 31 -31v-1507q0 -31 -31 -31h-62q-30 0 -30 31z" />
<glyph unicode="&#x13d;" horiz-adv-x="514" d="M80 31v1507q0 31 31 31h65q31 0 31 -31v-1411h178q31 0 31 -31v-65q0 -31 -31 -31h-274q-31 0 -31 31zM305 1135l64 405q3 29 32 29h84q17 0 24 -10t1 -25l-131 -408q-9 -24 -35 -24h-10q-32 0 -29 33z" />
<glyph unicode="&#x13e;" horiz-adv-x="319" d="M70 31v1507q0 31 30 31h62q31 0 31 -31v-1507q0 -31 -31 -31h-62q-30 0 -30 31zM246 1135l63 405q3 29 33 29h84q17 0 24 -10t1 -25l-132 -408q-9 -24 -34 -24h-11q-31 0 -28 33z" />
<glyph unicode="&#x13f;" d="M80 31v1507q0 31 31 31h65q31 0 31 -31v-1411h178q31 0 31 -31v-65q0 -31 -31 -31h-274q-31 0 -31 31zM340 743q0 35 25.5 60.5t60.5 25.5t60.5 -25.5t25.5 -60.5t-25.5 -60.5t-60.5 -25.5t-60.5 25.5t-25.5 60.5z" />
<glyph unicode="&#x140;" horiz-adv-x="419" d="M70 31v1507q0 31 30 31h62q31 0 31 -31v-1507q0 -31 -31 -31h-62q-30 0 -30 31zM254 662q0 35 25.5 60.5t60.5 25.5t60.5 -25.5t25.5 -60.5t-25.5 -61t-60.5 -26t-60.5 26t-25.5 61z" />
<glyph unicode="&#x141;" horiz-adv-x="462" d="M-6 627q-14 28 12 41l105 57v813q0 31 30 31h66q31 0 31 -31v-743l88 49q27 17 41 -10l26 -48q14 -28 -12 -41l-143 -81v-537h178q30 0 30 -31v-65q0 -31 -30 -31h-275q-30 0 -30 31v563l-50 -27q-26 -16 -41 13z" />
<glyph unicode="&#x142;" horiz-adv-x="395" d="M9.5 650.5q3.5 11.5 15.5 17.5l104 57v815q0 31 31 31h61q31 0 31 -31v-747l65 36q28 14 41 -12l27 -47q14 -28 -12 -41l-121 -67v-631q0 -31 -31 -31h-61q-31 0 -31 31v563l-49 -27q-26 -16 -41 13l-27 47q-6 12 -2.5 23.5z" />
<glyph unicode="&#x143;" horiz-adv-x="688" d="M80 31v1507q0 31 31 31h63q27 0 33 -27l278 -1087l-4 1083q0 31 31 31h66q30 0 30 -31v-1507q0 -31 -30 -31h-74q-27 0 -33 27l-268 1071l4 -1067q0 -31 -31 -31h-65q-31 0 -31 31zM286 1732q-6 10 1 27l63 148q9 22 35 22h78q18 0 23.5 -11t-3.5 -26l-92 -149 q-12 -21 -37 -21h-45q-17 0 -23 10z" />
<glyph unicode="&#x144;" d="M70 31v1099q0 31 30 31h37q29 0 35 -26l12 -68q49 111 144 111q75 0 105 -70.5t30 -237.5v-839q0 -31 -31 -31h-61q-31 0 -31 31v882q0 80 -15 117t-51 37q-81 0 -81 -176v-860q0 -31 -31 -31h-62q-30 0 -30 31zM200 1325q-6 10 1 27l63 147q10 23 35 23h78 q18 0 23.5 -11t-3.5 -26l-92 -150q-11 -20 -37 -20h-45q-17 0 -23 10z" />
<glyph unicode="&#x145;" horiz-adv-x="688" d="M80 31v1507q0 31 31 31h63q27 0 33 -27l278 -1087l-4 1083q0 31 31 31h66q30 0 30 -31v-1507q0 -31 -30 -31h-74q-27 0 -33 27l-268 1071l4 -1067q0 -31 -31 -31h-65q-31 0 -31 31zM252 -285l53 158q9 25 35 25h68q38 0 22 -37l-84 -158q-11 -22 -37 -22h-33 q-17 0 -23.5 9.5t-0.5 24.5z" />
<glyph unicode="&#x146;" d="M70 31v1099q0 31 30 31h37q29 0 35 -26l12 -68q49 111 144 111q75 0 105 -70.5t30 -237.5v-839q0 -31 -31 -31h-61q-31 0 -31 31v882q0 80 -15 117t-51 37q-81 0 -81 -176v-860q0 -31 -31 -31h-62q-30 0 -30 31zM170 -285l53 158q9 25 35 25h68q38 0 22 -37l-84 -158 q-11 -22 -37 -22h-32q-17 0 -24 9.5t-1 24.5z" />
<glyph unicode="&#x147;" horiz-adv-x="688" d="M80 31v1507q0 31 31 31h63q27 0 33 -27l278 -1087l-4 1083q0 31 31 31h66q30 0 30 -31v-1507q0 -31 -30 -31h-74q-27 0 -33 27l-268 1071l4 -1067q0 -31 -31 -31h-65q-31 0 -31 31zM173.5 1918q6.5 11 25.5 11h47q26 0 37 -20l61 -107l68 107q11 20 37 20h40 q19 0 25.5 -11t-2.5 -26l-84 -149q-12 -21 -37 -21h-94q-25 0 -37 21l-84 149q-9 15 -2.5 26z" />
<glyph unicode="&#x148;" d="M70 31v1099q0 31 30 31h37q29 0 35 -26l12 -68q49 111 144 111q75 0 105 -70.5t30 -237.5v-839q0 -31 -31 -31h-61q-31 0 -31 31v882q0 80 -15 117t-51 37q-81 0 -81 -176v-860q0 -31 -31 -31h-62q-30 0 -30 31zM91.5 1511q6.5 11 25.5 11h47q25 0 37 -21l61 -106l68 106 q12 21 37 21h41q19 0 25 -11t-3 -26l-84 -150q-11 -20 -37 -20h-94q-26 0 -37 20l-84 150q-9 15 -2.5 26z" />
<glyph unicode="&#x14a;" horiz-adv-x="688" d="M80 31v1507q0 31 31 31h63q27 0 33 -27l276 -1087l-2 1083q0 31 31 31h66q30 0 30 -31v-1628q0 -79 -17 -137t-41 -89t-59 -49.5t-63 -23t-61 -4.5h-5q-4 0 -4 31v55q0 31 9 31q48 0 81 37.5t33 117.5v121l-276 1098l2 -1067q0 -31 -31 -31h-65q-31 0 -31 31z" />
<glyph unicode="&#x14b;" d="M70 31v1099q0 31 30 31h37q29 0 35 -26l12 -68q49 111 144 111q75 0 105 -70.5t30 -237.5v-1005q0 -150 -35.5 -218.5t-140.5 -68.5q-20 0 -56 4q-26 6 -26 35v43q0 14 4.5 22t13.5 7h17q29 0 48 7.5t29.5 18t15.5 34t6 42t1 55.5v1067q0 80 -15 117t-51 37 q-81 0 -81 -176v-860q0 -31 -31 -31h-62q-30 0 -30 31z" />
<glyph unicode="&#x14c;" horiz-adv-x="630" d="M74 301v967q0 96 17.5 162t51.5 101t75 49.5t97 14.5t97 -14.5t75.5 -49.5t52 -101t17.5 -162v-967q0 -96 -17.5 -162t-52 -101.5t-75.5 -50t-97 -14.5t-97 14.5t-75 50t-51.5 101.5t-17.5 162zM109 1753v41q0 31 30 31h353q30 0 30 -31v-41q0 -31 -30 -31h-353 q-30 0 -30 31zM201 246q0 -78 32 -117t82 -39q51 0 83 39t32 117v1077q0 78 -32 117t-83 39q-50 0 -82 -39t-32 -117v-1077z" />
<glyph unicode="&#x14d;" horiz-adv-x="516" d="M51 1346v40q0 31 31 31h352q31 0 31 -31v-40q0 -31 -31 -31h-352q-31 0 -31 31zM61 225v711q0 137 51.5 189.5t145.5 52.5t145.5 -52.5t51.5 -189.5v-711q0 -136 -52 -188.5t-145 -52.5t-145 52.5t-52 188.5zM184 211q0 -115 74 -115t74 115v739q0 115 -74 115t-74 -115 v-739z" />
<glyph unicode="&#x14e;" horiz-adv-x="630" d="M74 301v967q0 96 17.5 162t51.5 101t75 49.5t97 14.5t97 -14.5t75.5 -49.5t52 -101t17.5 -162v-967q0 -96 -17.5 -162t-52 -101.5t-75.5 -50t-97 -14.5t-97 14.5t-75 50t-51.5 101.5t-17.5 162zM127 1860q-1 15 7.5 23.5t23.5 8.5h20q24 0 33 -28q15 -68 104 -68 q41 0 69.5 17.5t35.5 50.5q9 28 33 28h18q15 0 23.5 -8.5t7.5 -23.5q-10 -69 -63.5 -108.5t-123.5 -39.5q-69 0 -122.5 39.5t-65.5 108.5zM201 246q0 -78 32 -117t82 -39q51 0 83 39t32 117v1077q0 78 -32 117t-83 39q-50 0 -82 -39t-32 -117v-1077z" />
<glyph unicode="&#x14f;" horiz-adv-x="520" d="M63 225v711q0 137 51.5 189.5t145.5 52.5t145.5 -52.5t51.5 -189.5v-711q0 -136 -52 -188.5t-145 -52.5t-145 52.5t-52 188.5zM72 1452q-1 15 7 24t23 9h21q23 0 33 -29q15 -67 104 -67q41 0 69.5 17t35.5 50q10 29 32 29h19q15 0 23 -9t7 -24q-10 -69 -63 -108t-123 -39 q-69 0 -122.5 39t-65.5 108zM186 211q0 -115 74 -115t74 115v739q0 115 -74 115t-74 -115v-739z" />
<glyph unicode="&#x150;" horiz-adv-x="630" d="M74 301v967q0 96 17.5 162t51.5 101t75 49.5t97 14.5t97 -14.5t75.5 -49.5t52 -101t17.5 -162v-967q0 -96 -17.5 -162t-52 -101.5t-75.5 -50t-97 -14.5t-97 14.5t-75 50t-51.5 101.5t-17.5 162zM138.5 1732q-6.5 10 0.5 27l64 148q9 22 35 22h77q18 0 24 -11t-3 -26 l-92 -149q-12 -21 -37 -21h-45q-17 0 -23.5 10zM201 246q0 -78 32 -117t82 -39q51 0 83 39t32 117v1077q0 78 -32 117t-83 39q-50 0 -82 -39t-32 -117v-1077zM347.5 1732q-6.5 10 0.5 27l64 148q9 22 34 22h78q18 0 24 -11t-3 -26l-92 -149q-12 -21 -37 -21h-45 q-17 0 -23.5 10z" />
<glyph unicode="&#x151;" horiz-adv-x="518" d="M63 225v711q0 137 51.5 189.5t145.5 52.5t145.5 -52.5t51.5 -189.5v-711q0 -136 -52 -188.5t-145 -52.5t-145 52.5t-52 188.5zM87.5 1325q-6.5 10 0.5 27l64 147q10 23 34 23h78q18 0 24 -11t-3 -26l-92 -150q-11 -20 -37 -20h-45q-17 0 -23.5 10zM186 211 q0 -115 74 -115t74 115v739q0 115 -74 115t-74 -115v-739zM296 1325q-6 10 1 27l63 147q10 23 35 23h78q18 0 24 -11t-3 -26l-93 -150q-11 -20 -36 -20h-46q-17 0 -23 10z" />
<glyph unicode="&#x152;" horiz-adv-x="899" d="M74 301v967q0 96 17.5 162t51.5 101t75 49.5t97 14.5q72 0 125 -26h377q31 0 31 -31v-65q0 -31 -31 -31h-260v-588h246q31 0 31 -31v-65q0 -31 -31 -31h-246v-600h260q31 0 31 -31v-65q0 -31 -31 -31h-377q-56 -27 -125 -27q-56 0 -97 14.5t-75 50t-51.5 101.5t-17.5 162 zM201 246q0 -78 32 -117t82 -39q48 0 81.5 35.5t33.5 103.5v1108q0 69 -33.5 105.5t-81.5 36.5q-50 0 -82 -39t-32 -117v-1077z" />
<glyph unicode="&#x153;" horiz-adv-x="782" d="M63 225v711q0 137 51.5 189.5t145.5 52.5q93 0 135 -64q42 64 135 64q94 0 145.5 -52.5t51.5 -189.5v-371q0 -30 -31 -30h-239v-324q0 -115 73 -115q74 0 74 115v141q0 31 31 31h61q31 0 31 -31v-127q0 -136 -52 -188.5t-145 -52.5q-92 0 -135 63q-43 -63 -135 -63 q-93 0 -145 52.5t-52 188.5zM186 211q0 -115 74 -115t74 115v739q0 115 -74 115t-74 -115v-739zM457 645h147v305q0 115 -74 115q-73 0 -73 -115v-305z" />
<glyph unicode="&#x154;" horiz-adv-x="608" d="M80 31v1507q0 31 31 31h168q79 0 127.5 -12.5t83.5 -48t49 -99.5t14 -168v-235q0 -140 -34 -214.5t-118 -95.5l183 -661q9 -35 -25 -35h-65q-27 0 -33 27l-178 655h-76v-651q0 -31 -31 -31h-65q-31 0 -31 31zM207 809h104q60 0 87.5 35.5t27.5 120.5v321 q0 85 -27.5 120.5t-87.5 35.5h-104v-633zM235 1732q-6 10 1 27l63 148q9 22 35 22h78q18 0 23.5 -11t-3.5 -26l-92 -149q-12 -21 -37 -21h-45q-17 0 -23 10z" />
<glyph unicode="&#x155;" horiz-adv-x="389" d="M70 31v1099q0 31 30 31h37q29 0 35 -26l12 -68q16 41 51 75t87 34q27 0 49 -11q24 -12 14 -41l-29 -77q-12 -28 -41 -15q-29 10 -51 10q-40 0 -55.5 -39.5t-15.5 -136.5v-835q0 -31 -31 -31h-62q-30 0 -30 31zM159 1325q-6 10 1 27l63 147q10 23 35 23h78q18 0 23.5 -11 t-3.5 -26l-92 -150q-11 -20 -37 -20h-45q-17 0 -23 10z" />
<glyph unicode="&#x156;" horiz-adv-x="608" d="M80 31v1507q0 31 31 31h168q79 0 127.5 -12.5t83.5 -48t49 -99.5t14 -168v-235q0 -140 -34 -214.5t-118 -95.5l183 -661q9 -35 -25 -35h-65q-27 0 -33 27l-178 655h-76v-651q0 -31 -31 -31h-65q-31 0 -31 31zM207 809h104q60 0 87.5 35.5t27.5 120.5v321 q0 85 -27.5 120.5t-87.5 35.5h-104v-633zM219 -285l53 158q9 25 35 25h68q38 0 22 -37l-84 -158q-11 -22 -37 -22h-32q-17 0 -24 9.5t-1 24.5z" />
<glyph unicode="&#x157;" horiz-adv-x="389" d="M37 -285l53 158q9 25 35 25h68q38 0 22 -37l-84 -158q-11 -22 -37 -22h-33q-17 0 -23.5 9.5t-0.5 24.5zM70 31v1099q0 31 30 31h37q29 0 35 -26l12 -68q16 41 51 75t87 34q27 0 49 -11q24 -12 14 -41l-29 -77q-12 -28 -41 -15q-29 10 -51 10q-40 0 -55.5 -39.5 t-15.5 -136.5v-835q0 -31 -31 -31h-62q-30 0 -30 31z" />
<glyph unicode="&#x158;" horiz-adv-x="608" d="M80 31v1507q0 31 31 31h168q79 0 127.5 -12.5t83.5 -48t49 -99.5t14 -168v-235q0 -140 -34 -214.5t-118 -95.5l183 -661q9 -35 -25 -35h-65q-27 0 -33 27l-178 655h-76v-651q0 -31 -31 -31h-65q-31 0 -31 31zM118 1918q6 11 25 11h47q26 0 37 -20l62 -107l67 107 q11 20 37 20h41q19 0 25.5 -11t-2.5 -26l-84 -149q-12 -21 -37 -21h-94q-25 0 -37 21l-84 149q-9 15 -3 26zM207 809h104q60 0 87.5 35.5t27.5 120.5v321q0 85 -27.5 120.5t-87.5 35.5h-104v-633z" />
<glyph unicode="&#x159;" horiz-adv-x="387" d="M38 1511q6 11 25 11h48q24 0 36 -21l62 -106l67 106q12 21 37 21h41q19 0 25.5 -11t-2.5 -26l-84 -150q-11 -20 -37 -20h-94q-26 0 -37 20l-84 150q-9 15 -3 26zM68 31v1099q0 31 30 31h37q29 0 35 -26l12 -68q16 41 50.5 75t86.5 34q28 0 50 -11q24 -12 14 -41l-29 -77 q-12 -28 -41 -15q-29 10 -51 10q-40 0 -56 -39.5t-16 -136.5v-835q0 -31 -30 -31h-62q-30 0 -30 31z" />
<glyph unicode="&#x15a;" horiz-adv-x="604" d="M59 322v172q0 30 31 30h66q30 0 30 -30v-248q0 -80 33.5 -118t81.5 -38t81.5 38t33.5 118v211q0 59 -37 118t-89 111.5t-104.5 109.5t-89.5 134t-37 162v200q0 303 242 303t242 -307v-235q0 -31 -31 -31h-66q-30 0 -30 31v270q0 80 -33.5 118t-81.5 38t-81.5 -38 t-33.5 -118v-213q0 -77 37 -143t89 -116.5t104.5 -101.5t89.5 -120t37 -150v-157q0 -180 -53 -264.5t-189 -84.5t-189 85.5t-53 263.5zM239 1732q-6 10 1 27l63 148q9 22 35 22h78q18 0 23.5 -11t-3.5 -26l-92 -149q-12 -21 -37 -21h-45q-17 0 -23 10z" />
<glyph unicode="&#x15b;" horiz-adv-x="503" d="M45 270v82q0 31 31 31h61q31 0 31 -31v-106q0 -85 15 -117.5t61 -32.5q49 0 70.5 34.5t21.5 111.5q0 69 -16 121.5t-41.5 86t-56.5 63.5t-62.5 62.5t-57 73t-41.5 106t-16 150.5q0 83 14.5 138.5t44 84t64.5 39.5t84 11q109 0 158 -58t49 -209v-106q0 -31 -31 -31h-61 q-31 0 -31 31v104q0 91 -16.5 123.5t-65.5 32.5q-47 0 -66.5 -30t-19.5 -113q0 -77 16 -134t41.5 -91.5t56.5 -63t62.5 -59t57 -68t41.5 -101.5t16 -149q0 -153 -51.5 -212.5t-161.5 -59.5q-115 0 -158 62.5t-43 223.5zM185.5 1325q-6.5 10 0.5 27l64 147q10 23 35 23h77 q18 0 24 -11t-3 -26l-92 -150q-11 -20 -37 -20h-45q-17 0 -23.5 10z" />
<glyph unicode="&#x15c;" horiz-adv-x="604" d="M59 322v172q0 30 31 30h66q30 0 30 -30v-248q0 -80 33.5 -118t81.5 -38t81.5 38t33.5 118v211q0 59 -37 118t-89 111.5t-104.5 109.5t-89.5 134t-37 162v200q0 303 242 303t242 -307v-235q0 -31 -31 -31h-66q-30 0 -30 31v270q0 80 -33.5 118t-81.5 38t-81.5 -38 t-33.5 -118v-213q0 -77 37 -143t89 -116.5t104.5 -101.5t89.5 -120t37 -150v-157q0 -180 -53 -264.5t-189 -84.5t-189 85.5t-53 263.5zM130.5 1733q-6.5 11 2.5 26l84 150q11 20 37 20h94q26 0 37 -20l84 -150q9 -15 2.5 -26t-25.5 -11h-40q-25 0 -37 21l-68 106l-61 -106 q-12 -21 -37 -21h-47q-19 0 -25.5 11z" />
<glyph unicode="&#x15d;" horiz-adv-x="503" d="M45 270v82q0 31 31 31h61q31 0 31 -31v-106q0 -85 15 -117.5t61 -32.5q49 0 70.5 34.5t21.5 111.5q0 69 -16 121.5t-41.5 86t-56.5 63.5t-62.5 62.5t-57 73t-41.5 106t-16 150.5q0 83 14.5 138.5t44 84t64.5 39.5t84 11q109 0 158 -58t49 -209v-106q0 -31 -31 -31h-61 q-31 0 -31 31v104q0 91 -16.5 123.5t-65.5 32.5q-47 0 -66.5 -30t-19.5 -113q0 -77 16 -134t41.5 -91.5t56.5 -63t62.5 -59t57 -68t41.5 -101.5t16 -149q0 -153 -51.5 -212.5t-161.5 -59.5q-115 0 -158 62.5t-43 223.5zM81 1326q-6 11 3 26l84 149q12 21 37 21h94 q25 0 37 -21l84 -149q9 -15 2.5 -26t-25.5 -11h-41q-26 0 -37 20l-67 107l-62 -107q-11 -20 -36 -20h-48q-19 0 -25 11z" />
<glyph unicode="&#x15e;" horiz-adv-x="602" d="M59 322v172q0 30 31 30h66q30 0 30 -30v-248q0 -80 33.5 -118t81.5 -38t81.5 38t33.5 118v211q0 59 -37 118t-89 111.5t-104.5 109.5t-89.5 134t-37 162v200q0 303 242 303t242 -307v-235q0 -31 -31 -31h-66q-30 0 -30 31v270q0 80 -33.5 118t-81.5 38t-81.5 -38 t-33.5 -118v-213q0 -77 37 -143t89 -116.5t104.5 -101.5t89.5 -120t37 -150v-157q0 -164 -42.5 -247.5t-150.5 -97.5l-14 -71q44 0 77 -34t33 -81q0 -56 -46 -97.5t-117 -41.5q-41 0 -84 12q-28 9 -21 39l6 21q9 27 39 18q15 -6 37 -6q38 0 59 18.5t21 44.5q0 25 -21.5 44.5 t-60.5 19.5q-2 1 -4.5 4t-6 12t-1.5 19l20 77q-116 10 -161.5 95t-45.5 252z" />
<glyph unicode="&#x15f;" horiz-adv-x="503" d="M45 270v82q0 31 31 31h61q31 0 31 -31v-106q0 -85 15 -117.5t61 -32.5q49 0 70.5 34.5t21.5 111.5q0 69 -16 121.5t-41.5 86t-56.5 63.5t-62.5 62.5t-57 73t-41.5 106t-16 150.5q0 83 14.5 138.5t44 84t64.5 39.5t84 11q109 0 158 -58t49 -209v-106q0 -31 -31 -31h-61 q-31 0 -31 31v104q0 91 -16.5 123.5t-65.5 32.5q-47 0 -66.5 -30t-19.5 -113q0 -77 16 -134t41.5 -91.5t56.5 -63t62.5 -59t57 -68t41.5 -101.5t16 -149q0 -132 -39 -193.5t-119 -74.5l-16 -82q44 0 77 -34t33 -81q0 -56 -46.5 -97.5t-117.5 -41.5q-41 0 -84 12 q-27 9 -20 39l6 21q9 27 39 18q15 -6 37 -6q38 0 59 18.5t21 44.5q0 25 -21.5 44.5t-60.5 19.5q-2 1 -4.5 4t-6 12t-1.5 19l22 88q-97 6 -134.5 69.5t-37.5 214.5z" />
<glyph unicode="&#x160;" horiz-adv-x="604" d="M59 322v172q0 30 31 30h66q30 0 30 -30v-248q0 -80 33.5 -118t81.5 -38t81.5 38t33.5 118v211q0 59 -37 118t-89 111.5t-104.5 109.5t-89.5 134t-37 162v200q0 303 242 303t242 -307v-235q0 -31 -31 -31h-66q-30 0 -30 31v270q0 80 -33.5 118t-81.5 38t-81.5 -38 t-33.5 -118v-213q0 -77 37 -143t89 -116.5t104.5 -101.5t89.5 -120t37 -150v-157q0 -180 -53 -264.5t-189 -84.5t-189 85.5t-53 263.5zM130.5 1918q6.5 11 25.5 11h47q26 0 37 -20l61 -107l68 107q11 20 37 20h40q19 0 25.5 -11t-2.5 -26l-84 -149q-12 -21 -37 -21h-94 q-25 0 -37 21l-84 149q-9 15 -2.5 26z" />
<glyph unicode="&#x161;" horiz-adv-x="503" d="M45 270v82q0 31 31 31h61q31 0 31 -31v-106q0 -85 15 -117.5t61 -32.5q49 0 70.5 34.5t21.5 111.5q0 69 -16 121.5t-41.5 86t-56.5 63.5t-62.5 62.5t-57 73t-41.5 106t-16 150.5q0 83 14.5 138.5t44 84t64.5 39.5t84 11q109 0 158 -58t49 -209v-106q0 -31 -31 -31h-61 q-31 0 -31 31v104q0 91 -16.5 123.5t-65.5 32.5q-47 0 -66.5 -30t-19.5 -113q0 -77 16 -134t41.5 -91.5t56.5 -63t62.5 -59t57 -68t41.5 -101.5t16 -149q0 -153 -51.5 -212.5t-161.5 -59.5q-115 0 -158 62.5t-43 223.5zM81 1511q6 11 25 11h48q24 0 36 -21l62 -106l67 106 q12 21 37 21h41q19 0 25.5 -11t-2.5 -26l-84 -150q-11 -20 -37 -20h-94q-26 0 -37 20l-84 150q-9 15 -3 26z" />
<glyph unicode="&#x162;" horiz-adv-x="548" d="M16 1473v65q0 31 31 31h455q30 0 30 -31v-65q0 -31 -30 -31h-164v-1411q0 -31 -31 -31h-65q-31 0 -31 31v1411h-164q-31 0 -31 31zM172 -285l53 158q9 25 35 25h68q38 0 22 -37l-84 -158q-11 -22 -37 -22h-32q-17 0 -24 9.5t-1 24.5z" />
<glyph unicode="&#x163;" horiz-adv-x="364" d="M8 1079v51q0 31 31 31h61v256q0 31 31 31h62q30 0 30 -31v-256h103q30 0 30 -31v-51q0 -30 -30 -30h-103v-816q0 -80 16.5 -109.5t71.5 -29.5h15q32 0 32 -28v-43q0 -29 -26 -35q-36 -4 -60 -4q-105 0 -138.5 66.5t-33.5 240.5v758h-61q-31 0 -31 30zM127 -285l53 158 q9 25 35 25h68q38 0 22 -37l-84 -158q-11 -22 -37 -22h-32q-17 0 -24 9.5t-1 24.5z" />
<glyph unicode="&#x164;" horiz-adv-x="548" d="M16 1473v65q0 31 31 31h455q30 0 30 -31v-65q0 -31 -30 -31h-164v-1411q0 -31 -31 -31h-65q-31 0 -31 31v1411h-164q-31 0 -31 31zM103.5 1918q6.5 11 25.5 11h47q26 0 37 -20l61 -107l68 107q11 20 37 20h41q19 0 25 -11t-3 -26l-84 -149q-12 -21 -36 -21h-95 q-25 0 -37 21l-84 149q-9 15 -2.5 26z" />
<glyph unicode="&#x165;" horiz-adv-x="366" d="M8 1079v51q0 31 31 31h61v256q0 31 31 31h62q30 0 30 -31v-256h103q30 0 30 -31v-51q0 -30 -30 -30h-103v-816q0 -80 16.5 -109.5t71.5 -29.5h15q32 0 32 -28v-43q0 -29 -26 -35q-36 -4 -60 -4q-105 0 -138.5 66.5t-33.5 240.5v758h-61q-31 0 -31 30zM317 1305l60 305 q6 26 35 26h82q17 0 23.5 -9.5t0.5 -24.5l-127 -306q-9 -24 -37 -24h-8q-36 0 -29 33z" />
<glyph unicode="&#x166;" horiz-adv-x="573" d="M29 1473v65q0 31 30 31h455q31 0 31 -31v-65q0 -31 -31 -31h-164v-588h113q31 0 31 -31v-53q0 -31 -31 -31h-113v-708q0 -31 -31 -31h-65q-31 0 -31 31v708h-112q-31 0 -31 31v53q0 31 31 31h112v588h-164q-30 0 -30 31z" />
<glyph unicode="&#x167;" horiz-adv-x="370" d="M12 1079v51q0 31 31 31h61v256q0 31 31 31h62q30 0 30 -31v-256h103q30 0 30 -31v-51q0 -30 -30 -30h-103v-318h92q31 0 31 -31v-49q0 -30 -31 -30h-92v-388q0 -80 16.5 -109.5t71.5 -29.5h15q32 0 32 -28v-43q0 -29 -26 -35q-36 -4 -60 -4q-105 0 -138.5 66.5 t-33.5 240.5v330h-55q-31 0 -31 30v49q0 31 31 31h55v318h-61q-31 0 -31 30z" />
<glyph unicode="&#x168;" horiz-adv-x="638" d="M78 301v1237q0 31 31 31h65q31 0 31 -31v-1292q0 -78 32 -117t82 -39q51 0 83 39t32 117v1292q0 31 31 31h65q31 0 31 -31v-1237q0 -96 -17.5 -162t-52 -101.5t-75.5 -50t-97 -14.5t-97 14.5t-75 50t-51.5 101.5t-17.5 162zM127 1755q28 96 115 96q29 0 72.5 -15 t56.5 -15q14 0 20 6q2 2 5.5 6t5.5 5.5t5 4t5.5 3.5t6 2t7.5 1h59q17 0 24.5 -9.5t2.5 -24.5q-15 -44 -48 -69.5t-73 -25.5q-28 0 -66.5 17.5t-56.5 17.5q-17 0 -24 -10q-2 -2 -6.5 -7t-6.5 -6.5t-6.5 -4.5t-8.5 -4t-9 -1h-53q-17 0 -25 9t-2 24z" />
<glyph unicode="&#x169;" d="M66 291v839q0 31 30 31h62q30 0 30 -31v-882q0 -80 15 -117t51 -37q82 0 82 176v860q0 31 31 31h61q31 0 31 -31v-1099q0 -31 -31 -31h-37q-29 0 -35 27l-12 67q-13 -30 -26.5 -50t-44.5 -40t-72 -20q-75 0 -105 70t-30 237zM72 1348q28 96 114 96q29 0 72.5 -15.5 t56.5 -15.5q15 0 21 6q2 2 6.5 7t6.5 6.5l6 4.5t7.5 4t8.5 1h59q17 0 24.5 -10t2.5 -25q-15 -44 -48 -69t-73 -25q-28 0 -66.5 17.5t-56.5 17.5t-25 -11q-2 -2 -6.5 -7t-6.5 -6.5t-6 -4t-8 -3.5t-9 -1h-54q-17 0 -24.5 9t-1.5 24z" />
<glyph unicode="&#x16a;" horiz-adv-x="638" d="M78 301v1237q0 31 31 31h65q31 0 31 -31v-1292q0 -78 32 -117t82 -39q51 0 83 39t32 117v1292q0 31 31 31h65q31 0 31 -31v-1237q0 -96 -17.5 -162t-52 -101.5t-75.5 -50t-97 -14.5t-97 14.5t-75 50t-51.5 101.5t-17.5 162zM113 1753v41q0 31 30 31h353q30 0 30 -31v-41 q0 -31 -30 -31h-353q-30 0 -30 31z" />
<glyph unicode="&#x16b;" d="M57 1346v40q0 31 31 31h352q31 0 31 -31v-40q0 -31 -31 -31h-352q-31 0 -31 31zM66 291v839q0 31 30 31h62q30 0 30 -31v-882q0 -80 15 -117t51 -37q82 0 82 176v860q0 31 31 31h61q31 0 31 -31v-1099q0 -31 -31 -31h-37q-29 0 -35 27l-12 67q-13 -30 -26.5 -50 t-44.5 -40t-72 -20q-75 0 -105 70t-30 237z" />
<glyph unicode="&#x16c;" horiz-adv-x="638" d="M78 301v1237q0 31 31 31h65q31 0 31 -31v-1292q0 -78 32 -117t82 -39q51 0 83 39t32 117v1292q0 31 31 31h65q31 0 31 -31v-1237q0 -96 -17.5 -162t-52 -101.5t-75.5 -50t-97 -14.5t-97 14.5t-75 50t-51.5 101.5t-17.5 162zM131 1860q-1 15 7.5 23.5t23.5 8.5h20 q24 0 33 -28q15 -68 104 -68q41 0 69.5 17.5t35.5 50.5q9 28 33 28h18q15 0 23.5 -8.5t7.5 -23.5q-10 -69 -63.5 -108.5t-123.5 -39.5q-69 0 -122.5 39.5t-65.5 108.5z" />
<glyph unicode="&#x16d;" d="M66 291v839q0 31 30 31h62q30 0 30 -31v-882q0 -80 15 -117t51 -37q82 0 82 176v860q0 31 31 31h61q31 0 31 -31v-1099q0 -31 -31 -31h-37q-29 0 -35 27l-12 67q-13 -30 -26.5 -50t-44.5 -40t-72 -20q-75 0 -105 70t-30 237zM78 1452q-1 15 7.5 24t23.5 9h20q23 0 33 -29 q15 -67 104 -67q41 0 69.5 17t35.5 50q10 29 32 29h19q15 0 23.5 -9t7.5 -24q-10 -69 -63.5 -108t-123.5 -39q-69 0 -122.5 39t-65.5 108z" />
<glyph unicode="&#x16e;" horiz-adv-x="638" d="M78 301v1237q0 31 31 31h65q31 0 31 -31v-1292q0 -78 32 -117t82 -39q51 0 83 39t32 117v1292q0 31 31 31h65q31 0 31 -31v-1237q0 -96 -17.5 -162t-52 -101.5t-75.5 -50t-97 -14.5t-97 14.5t-75 50t-51.5 101.5t-17.5 162zM188 1806q0 56 38 93.5t93 37.5q56 0 94 -38 t38 -93t-38 -93t-94 -38q-55 0 -93 37.5t-38 93.5zM246 1806q0 -31 21 -52t52 -21t52.5 21t21.5 52t-21.5 52.5t-52.5 21.5t-52 -21.5t-21 -52.5z" />
<glyph unicode="&#x16f;" d="M66 291v839q0 31 30 31h62q30 0 30 -31v-882q0 -80 15 -117t51 -37q82 0 82 176v860q0 31 31 31h61q31 0 31 -31v-1099q0 -31 -31 -31h-37q-29 0 -35 27l-12 67q-13 -30 -26.5 -50t-44.5 -40t-72 -20q-75 0 -105 70t-30 237zM133 1399q0 55 37.5 93t93.5 38t93.5 -38 t37.5 -93t-37.5 -93t-93.5 -38t-93.5 38t-37.5 93zM190 1399q0 -31 21.5 -52.5t52.5 -21.5t52.5 21.5t21.5 52.5t-21.5 52.5t-52.5 21.5t-52.5 -21.5t-21.5 -52.5z" />
<glyph unicode="&#x170;" horiz-adv-x="638" d="M78 301v1237q0 31 31 31h65q31 0 31 -31v-1292q0 -78 32 -117t82 -39q51 0 83 39t32 117v1292q0 31 31 31h65q31 0 31 -31v-1237q0 -96 -17.5 -162t-52 -101.5t-75.5 -50t-97 -14.5t-97 14.5t-75 50t-51.5 101.5t-17.5 162zM153 1732q-6 10 1 27l63 148q9 22 35 22h78 q18 0 23.5 -11t-3.5 -26l-92 -149q-12 -21 -37 -21h-45q-17 0 -23 10zM361.5 1732q-6.5 10 0.5 27l64 148q9 22 35 22h78q18 0 23.5 -11t-3.5 -26l-92 -149q-12 -21 -37 -21h-45q-17 0 -23.5 10z" />
<glyph unicode="&#x171;" horiz-adv-x="526" d="M66 291v839q0 31 30 31h62q30 0 30 -31v-882q0 -80 15 -117t51 -37q82 0 82 176v860q0 31 31 31h61q31 0 31 -31v-1099q0 -31 -31 -31h-37q-29 0 -35 27l-12 67q-13 -30 -26.5 -50t-44.5 -40t-72 -20q-75 0 -105 70t-30 237zM101.5 1325q-6.5 10 0.5 27l64 147 q10 23 35 23h78q18 0 23.5 -11t-3.5 -26l-92 -150q-11 -20 -37 -20h-45q-17 0 -23.5 10zM310.5 1325q-6.5 10 0.5 27l64 147q10 23 35 23h77q18 0 24 -11t-3 -26l-92 -150q-11 -20 -37 -20h-45q-17 0 -23.5 10z" />
<glyph unicode="&#x172;" horiz-adv-x="638" d="M78 301v1237q0 31 31 31h65q31 0 31 -31v-1292q0 -78 32 -117t82 -39q51 0 83 39t32 117v1292q0 31 31 31h65q31 0 31 -31v-1237q0 -64 -8 -113.5t-19.5 -80t-33.5 -56t-40 -39.5t-48 -32q-101 -63 -101 -146q0 -79 92 -113q33 -13 15 -40l-8 -13q-16 -22 -39 -16 q-78 14 -119 63t-41 111q0 89 82 149q-50 3 -87 20t-67 52.5t-45.5 99.5t-15.5 154z" />
<glyph unicode="&#x173;" d="M66 291v839q0 31 30 31h62q30 0 30 -31v-882q0 -80 15 -117t51 -37q82 0 82 176v860q0 31 31 31h61q31 0 31 -31v-1107q0 -21 -19 -37q-96 -71 -96 -154q0 -77 92 -111q33 -13 15 -40l-9 -13q-16 -22 -39 -16q-78 14 -118.5 62.5t-40.5 111.5q0 51 31 97.5t96 76.5 l-27 94q-13 -30 -26.5 -50t-44.5 -40t-72 -20q-75 0 -105 70t-30 237z" />
<glyph unicode="&#x174;" horiz-adv-x="935" d="M27 1536q-3 33 28 33h66q28 0 31 -29l114 -1270l133 1270q0 13 8.5 21t22.5 8h74q14 0 22.5 -8t8.5 -21l135 -1270l112 1270q3 29 31 29h66q31 0 28 -33l-162 -1507q-3 -29 -32 -29h-86q-30 0 -33 29l-127 1153l-125 -1153q-3 -29 -33 -29h-86q-30 0 -33 29zM296.5 1733 q-6.5 11 2.5 26l84 150q11 20 37 20h94q26 0 37 -20l84 -150q9 -15 2.5 -26t-25.5 -11h-41q-24 0 -36 21l-68 106l-61 -106q-12 -21 -37 -21h-47q-19 0 -25.5 11z" />
<glyph unicode="&#x175;" horiz-adv-x="804" d="M20 1128q-3 33 29 33h70q28 0 31 -28l90 -887l92 887q3 28 30 28h80q28 0 31 -28l92 -887l90 887q3 28 31 28h70q31 0 28 -33l-149 -1099q-3 -29 -33 -29h-78q-29 0 -32 29l-91 833l-88 -833q-3 -29 -32 -29h-78q-30 0 -33 29zM233 1326q-6 11 3 26l83 149q12 21 37 21 h95q24 0 36 -21l84 -149q9 -15 3 -26t-25 -11h-41q-26 0 -37 20l-68 107l-61 -107q-11 -20 -37 -20h-47q-19 0 -25 11z" />
<glyph unicode="&#x176;" horiz-adv-x="606" d="M27 1534q-9 35 26 35h66q29 0 35 -27l149 -735l150 735q6 27 34 27h66q36 0 27 -35l-215 -948v-555q0 -31 -31 -31h-62q-30 0 -30 31v555zM132.5 1733q-6.5 11 2.5 26l84 150q11 20 37 20h94q26 0 37 -20l84 -150q9 -15 3 -26t-25 -11h-41q-25 0 -37 21l-68 106l-61 -106 q-12 -21 -37 -21h-47q-19 0 -25.5 11z" />
<glyph unicode="&#x177;" horiz-adv-x="501" d="M27 1128q-3 33 28 33h70q31 0 31 -28l98 -936l102 936q3 28 33 28h70q31 0 28 -33l-229 -1509q-3 -29 -33 -29h-67q-36 0 -29 33l57 314zM83.5 1326q-6.5 11 2.5 26l84 149q12 21 37 21h94q25 0 37 -21l84 -149q9 -15 2.5 -26t-25.5 -11h-41q-25 0 -36 20l-68 107 l-61 -107q-11 -20 -37 -20h-47q-19 0 -25.5 11z" />
<glyph unicode="&#x178;" horiz-adv-x="606" d="M27 1534q-9 35 26 35h66q29 0 35 -27l149 -735l150 735q6 27 34 27h66q36 0 27 -35l-215 -948v-555q0 -31 -31 -31h-62q-30 0 -30 31v555zM80 1790q0 37 25.5 62.5t62.5 25.5t62.5 -25.5t25.5 -62.5t-25.5 -62.5t-62.5 -25.5t-62.5 25.5t-25.5 62.5zM348 1790 q0 37 25.5 62.5t62.5 25.5t62.5 -25.5t25.5 -62.5t-25.5 -62.5t-62.5 -25.5t-62.5 25.5t-25.5 62.5z" />
<glyph unicode="&#x179;" horiz-adv-x="538" d="M27 31v78q0 8 4 36l325 1297h-280q-31 0 -31 31v65q0 31 31 31h403q31 0 31 -31q0 -2 -0.5 -5t-1.5 -8.5t-2 -11.5l-348 -1386h321q31 0 31 -31v-65q0 -31 -31 -31h-422q-30 0 -30 31zM226.5 1732q-6.5 10 0.5 27l64 148q9 22 35 22h77q18 0 24 -11t-3 -26l-92 -149 q-12 -21 -37 -21h-45q-17 0 -23.5 10z" />
<glyph unicode="&#x17a;" horiz-adv-x="473" d="M16 31v49q0 12 7 37l286 932h-223q-31 0 -31 30v51q0 31 31 31h338q31 0 31 -31v-28q0 -16 -6 -37l-287 -952h237q31 0 31 -31v-51q0 -31 -31 -31h-352q-31 0 -31 31zM194 1325q-6 10 1 27l63 147q10 23 35 23h78q18 0 23.5 -11t-3.5 -26l-92 -150q-11 -20 -37 -20h-45 q-17 0 -23 10z" />
<glyph unicode="&#x17b;" horiz-adv-x="538" d="M27 31v78q0 8 4 36l325 1297h-280q-31 0 -31 31v65q0 31 31 31h403q31 0 31 -31q0 -2 -0.5 -5t-1.5 -8.5t-2 -11.5l-348 -1386h321q31 0 31 -31v-65q0 -31 -31 -31h-422q-30 0 -30 31zM201 1790q0 37 25.5 62.5t62.5 25.5t62.5 -25.5t25.5 -62.5t-25.5 -62.5t-62.5 -25.5 t-62.5 25.5t-25.5 62.5z" />
<glyph unicode="&#x17c;" horiz-adv-x="473" d="M16 31v49q0 12 7 37l286 932h-223q-31 0 -31 30v51q0 31 31 31h338q31 0 31 -31v-28q0 -16 -6 -37l-287 -952h237q31 0 31 -31v-51q0 -31 -31 -31h-352q-31 0 -31 31zM168 1382q0 37 25.5 62.5t62.5 25.5t62.5 -25.5t25.5 -62.5t-25.5 -62.5t-62.5 -25.5t-62.5 25.5 t-25.5 62.5z" />
<glyph unicode="&#x17d;" horiz-adv-x="538" d="M27 31v78q0 8 4 36l325 1297h-280q-31 0 -31 31v65q0 31 31 31h403q31 0 31 -31q0 -2 -0.5 -5t-1.5 -8.5t-2 -11.5l-348 -1386h321q31 0 31 -31v-65q0 -31 -31 -31h-422q-30 0 -30 31zM118 1918q6 11 25 11h47q26 0 37 -20l62 -107l67 107q11 20 37 20h41q19 0 25.5 -11 t-2.5 -26l-84 -149q-12 -21 -37 -21h-94q-25 0 -37 21l-84 149q-9 15 -3 26z" />
<glyph unicode="&#x17e;" horiz-adv-x="473" d="M16 31v49q0 12 7 37l286 932h-223q-31 0 -31 30v51q0 31 31 31h338q31 0 31 -31v-28q0 -16 -6 -37l-287 -952h237q31 0 31 -31v-51q0 -31 -31 -31h-352q-31 0 -31 31zM85.5 1511q6.5 11 25.5 11h47q25 0 37 -21l61 -106l68 106q12 21 36 21h41q19 0 25.5 -11t-2.5 -26 l-84 -150q-11 -20 -37 -20h-94q-26 0 -37 20l-84 150q-9 15 -2.5 26z" />
<glyph unicode="&#x192;" horiz-adv-x="817" d="M82 20l8 43q6 30 29 27q8 -2 22 -2q57 0 81.5 38.5t41.5 123.5l111 518h-105q-35 0 -26 35l10 49q6 27 35 27h110l80 383q64 307 244 307q15 0 47 -4q31 -6 25 -37l-9 -41q-6 -30 -28 -27q-8 2 -23 2q-57 0 -82.5 -39t-42.5 -123l-88 -421h99q35 0 26 -35l-10 -49 q-6 -27 -35 -27h-104l-103 -479q-35 -165 -95.5 -236t-145.5 -71q-16 0 -48 4q-27 3 -24 34z" />
<glyph unicode="&#x1fc;" horiz-adv-x="903" d="M0 35l385 1507q6 27 33 27h405q31 0 31 -31v-65q0 -31 -31 -31h-260v-588h246q31 0 31 -31v-65q0 -31 -31 -31h-246v-600h260q31 0 31 -31v-65q0 -31 -31 -31h-356q-31 0 -31 31v358h-223l-90 -362q-6 -27 -33 -27h-63q-33 0 -27 35zM246 504h190v852zM570.5 1732 q-6.5 10 0.5 27l64 148q9 22 35 22h78q18 0 23.5 -11t-3.5 -26l-92 -149q-12 -21 -37 -21h-45q-17 0 -23.5 10z" />
<glyph unicode="&#x1fd;" horiz-adv-x="774" d="M55 291v22q0 172 30.5 243t109.5 71q45 0 75.5 -23t55.5 -74v379q0 87 -16 121.5t-58 34.5t-58 -34.5t-16 -121.5v-88q0 -30 -31 -30h-61q-31 0 -31 30v78q0 151 42 215t157 64q48 0 79.5 -14t53.5 -50q42 64 135 64q94 0 145.5 -52.5t51.5 -189.5v-371q0 -30 -31 -30 h-239v-342q6 -97 73 -97q74 0 74 115v141q0 31 31 31h61q31 0 31 -31v-127q0 -136 -52 -188.5t-145 -52.5q-71 0 -117.5 28.5t-66.5 98.5q-24 -59 -56.5 -93t-91.5 -34q-75 0 -105 70t-30 237zM178 248q0 -80 15 -117t51 -37q82 0 82 176v86q0 152 -78 152 q-39 0 -54.5 -35.5t-15.5 -120.5v-104zM341.5 1325q-6.5 10 0.5 27l64 147q10 23 34 23h78q18 0 24 -11t-3 -26l-93 -150q-11 -20 -36 -20h-45q-17 0 -23.5 10zM449 645h147v305q0 115 -74 115q-73 0 -73 -115v-305z" />
<glyph unicode="&#x1fe;" horiz-adv-x="630" d="M74 301v967q0 96 17.5 162t51.5 101t75 49.5t97 14.5q47 0 91 -12l10 64q3 28 33 28h14q15 0 22 -9t4 -24l-14 -98q82 -76 82 -276v-967q0 -96 -17.5 -162t-52 -101.5t-75.5 -50t-97 -14.5q-38 0 -84 11l-10 -64q-3 -29 -33 -29h-14q-15 0 -22.5 9t-4.5 24l15 94 q-88 72 -88 283zM201 207l184 1245q-30 27 -70 27q-50 0 -82 -39t-32 -117v-1116zM232.5 1732q-6.5 10 0.5 27l64 148q9 22 35 22h78q18 0 23.5 -11t-3.5 -26l-92 -149q-12 -21 -37 -21h-45q-17 0 -23.5 10zM250 111q27 -21 65 -21q51 0 83 39t32 117v1071z" />
<glyph unicode="&#x1ff;" horiz-adv-x="518" d="M63 225v711q0 137 51.5 189.5t145.5 52.5q27 0 62 -7l10 62q3 29 33 29h2q15 0 22 -9t4 -24l-12 -84q76 -53 76 -209v-711q0 -136 -52 -188.5t-145 -52.5q-30 0 -57 6l-10 -70q-3 -29 -33 -29h-2q-32 0 -29 33l14 88q-80 51 -80 213zM186 209l117 842q-21 14 -43 14 q-74 0 -74 -115v-741zM187.5 1325q-6.5 10 0.5 27l64 147q10 23 35 23h78q18 0 23.5 -11t-3.5 -26l-92 -150q-11 -20 -37 -20h-45q-17 0 -23.5 10zM221 106q13 -10 39 -10q74 0 74 115v704z" />
<glyph unicode="&#x218;" horiz-adv-x="604" d="M59 322v172q0 30 31 30h66q30 0 30 -30v-248q0 -80 33.5 -118t81.5 -38t81.5 38t33.5 118v211q0 59 -37 118t-89 111.5t-104.5 109.5t-89.5 134t-37 162v200q0 303 242 303t242 -307v-235q0 -31 -31 -31h-66q-30 0 -30 31v270q0 80 -33.5 118t-81.5 38t-81.5 -38 t-33.5 -118v-213q0 -77 37 -143t89 -116.5t104.5 -101.5t89.5 -120t37 -150v-157q0 -180 -53 -264.5t-189 -84.5t-189 85.5t-53 263.5zM211 -285l53 158q9 25 35 25h68q38 0 22 -37l-84 -158q-11 -22 -37 -22h-32q-17 0 -24 9.5t-1 24.5z" />
<glyph unicode="&#x219;" horiz-adv-x="503" d="M45 270v82q0 31 31 31h61q31 0 31 -31v-106q0 -85 15 -117.5t61 -32.5q49 0 70.5 34.5t21.5 111.5q0 69 -16 121.5t-41.5 86t-56.5 63.5t-62.5 62.5t-57 73t-41.5 106t-16 150.5q0 83 14.5 138.5t44 84t64.5 39.5t84 11q109 0 158 -58t49 -209v-106q0 -31 -31 -31h-61 q-31 0 -31 31v104q0 91 -16.5 123.5t-65.5 32.5q-47 0 -66.5 -30t-19.5 -113q0 -77 16 -134t41.5 -91.5t56.5 -63t62.5 -59t57 -68t41.5 -101.5t16 -149q0 -153 -51.5 -212.5t-161.5 -59.5q-115 0 -158 62.5t-43 223.5zM160 -285l53 158q9 25 35 25h67q39 0 23 -37l-84 -158 q-11 -22 -37 -22h-33q-17 0 -23.5 9.5t-0.5 24.5z" />
<glyph unicode="&#x237;" horiz-adv-x="258" d="M-68 -340q0 14 5 22t14 7h16q29 0 48 7.5t29.5 18t16 33.5t6.5 42.5t1 55.5v1284q0 31 30 31h62q30 0 30 -31v-1265q0 -150 -35.5 -218.5t-140.5 -68.5q-19 0 -55 4q-27 6 -27 35v43z" />
<glyph unicode="&#x2c6;" horiz-adv-x="454" d="M56.5 1326q-6.5 11 2.5 26l84 149q12 21 37 21h94q25 0 37 -21l84 -149q9 -15 3 -26t-25 -11h-41q-26 0 -37 20l-68 107l-61 -107q-11 -20 -37 -20h-47q-19 0 -25.5 11z" />
<glyph unicode="&#x2c7;" horiz-adv-x="454" d="M56.5 1511q6.5 11 25.5 11h47q25 0 37 -21l61 -106l68 106q12 21 37 21h41q19 0 25 -11t-3 -26l-84 -150q-11 -20 -37 -20h-94q-26 0 -37 20l-84 150q-9 15 -2.5 26z" />
<glyph unicode="&#x2d8;" horiz-adv-x="456" d="M41 1452q-1 15 7.5 24t23.5 9h20q23 0 33 -29q15 -67 104 -67q41 0 69.5 17t35.5 50q10 29 33 29h18q15 0 23.5 -9t7.5 -24q-10 -69 -63.5 -108t-123.5 -39q-69 0 -122.5 39t-65.5 108z" />
<glyph unicode="&#x2d9;" horiz-adv-x="253" d="M39 1382q0 37 25.5 62.5t62.5 25.5t62.5 -25.5t25.5 -62.5t-25.5 -62.5t-62.5 -25.5t-62.5 25.5t-25.5 62.5z" />
<glyph unicode="&#x2da;" horiz-adv-x="339" d="M39 1399q0 55 37.5 93t93.5 38t93.5 -38t37.5 -93t-37.5 -93t-93.5 -38t-93.5 38t-37.5 93zM96 1399q0 -31 21.5 -52.5t52.5 -21.5t52.5 21.5t21.5 52.5t-21.5 52.5t-52.5 21.5t-52.5 -21.5t-21.5 -52.5z" />
<glyph unicode="&#x2db;" horiz-adv-x="540" d="M287 -174q0 107 110 166q16 8 39 8h8q21 0 24.5 -11t-11.5 -24q-70 -66 -70 -133q0 -77 92 -111q33 -13 15 -40l-9 -13q-16 -22 -39 -16q-78 14 -118.5 62.5t-40.5 111.5z" />
<glyph unicode="&#x2dc;" horiz-adv-x="479" d="M47 1348q28 96 115 96q29 0 72.5 -15.5t56.5 -15.5q14 0 20 6q2 2 6.5 7t6.5 6.5l6 4.5t7.5 4t8.5 1h60q17 0 24 -10t2 -25q-15 -44 -48 -69t-73 -25q-28 0 -66.5 17.5t-56.5 17.5q-17 0 -24 -11l-5.5 -5.5l-5.5 -5.5t-5 -4t-6.5 -4t-6.5 -2t-8 -1h-53q-17 0 -25 9t-2 24 z" />
<glyph unicode="&#x2dd;" horiz-adv-x="409" d="M15.5 1325q-6.5 10 0.5 27l64 147q10 23 35 23h78q18 0 23.5 -11t-3.5 -26l-92 -150q-11 -20 -37 -20h-45q-17 0 -23.5 10zM224.5 1325q-6.5 10 0.5 27l64 147q10 23 35 23h77q18 0 24 -11t-3 -26l-92 -150q-11 -20 -37 -20h-45q-17 0 -23.5 10z" />
<glyph unicode="&#x384;" horiz-adv-x="200" d="M15.5 1325q-6.5 10 0.5 27l64 147q10 23 35 23h78q18 0 23.5 -11t-3.5 -26l-92 -150q-11 -20 -37 -20h-45q-17 0 -23.5 10z" />
<glyph unicode="&#x385;" horiz-adv-x="675" d="M39 1403q0 37 25.5 62.5t62.5 25.5t62.5 -25.5t25.5 -62.5t-25.5 -62.5t-62.5 -25.5t-62.5 25.5t-25.5 62.5zM240 1319l69 186q9 25 35 25h78q38 0 22 -37l-96 -186q-12 -23 -37 -23h-47q-17 0 -23.5 10t-0.5 25zM461 1403q0 37 25.5 62.5t62.5 25.5t62.5 -25.5 t25.5 -62.5t-25.5 -62.5t-62.5 -25.5t-62.5 25.5t-25.5 62.5z" />
<glyph unicode="&#x386;" horiz-adv-x="690" d="M11.5 1372q-6.5 10 0.5 27l64 147q10 23 35 23h77q18 0 24 -11t-3 -26l-92 -150q-11 -20 -37 -20h-45q-17 0 -23.5 10zM117 33l202 1509q3 29 33 29h86q30 0 33 -29l205 -1509q3 -33 -29 -33h-65q-30 0 -33 29l-41 360h-223l-41 -360q-3 -29 -33 -29h-66q-31 0 -28 33z M301 506h191l-97 840z" />
<glyph unicode="&#x388;" horiz-adv-x="745" d="M-5 1372q-6 10 1 27l63 147q10 23 35 23h78q18 0 24 -11t-3 -26l-93 -150q-11 -20 -37 -20h-45q-17 0 -23 10zM279 31v1507q0 31 30 31h357q30 0 30 -31v-65q0 -31 -30 -31h-260v-588h245q31 0 31 -31v-65q0 -31 -31 -31h-245v-600h260q30 0 30 -31v-65q0 -31 -30 -31 h-357q-30 0 -30 31z" />
<glyph unicode="&#x389;" horiz-adv-x="841" d="M-5 1372q-6 10 1 27l63 147q10 23 35 23h78q18 0 24 -11t-3 -26l-93 -150q-11 -20 -37 -20h-45q-17 0 -23 10zM279 31v1507q0 31 30 31h66q31 0 31 -31v-674h229v674q0 31 31 31h65q31 0 31 -31v-1507q0 -31 -31 -31h-65q-31 0 -31 31v706h-229v-706q0 -31 -31 -31h-66 q-30 0 -30 31z" />
<glyph unicode="&#x38a;" horiz-adv-x="485" d="M-5 1372q-6 10 1 27l63 147q10 23 35 23h78q18 0 24 -11t-3 -26l-93 -150q-11 -20 -37 -20h-45q-17 0 -23 10zM279 31v1507q0 31 30 31h66q31 0 31 -31v-1507q0 -31 -31 -31h-66q-30 0 -30 31z" />
<glyph unicode="&#x38c;" horiz-adv-x="768" d="M-0.5 1372q-6.5 10 0.5 27l63 147q10 23 35 23h78q18 0 24 -11t-3 -26l-93 -150q-11 -20 -36 -20h-45q-17 0 -23.5 10zM211 301v967q0 96 17.5 162t52 101t75.5 49.5t97 14.5t97 -14.5t75 -49.5t51.5 -101t17.5 -162v-967q0 -96 -17.5 -162t-51.5 -101.5t-75 -50 t-97 -14.5t-97 14.5t-75.5 50t-52 101.5t-17.5 162zM338 246q0 -78 32 -117t83 -39q50 0 82 39t32 117v1077q0 78 -32 117t-82 39q-51 0 -83 -39t-32 -117v-1077z" />
<glyph unicode="&#x38e;" horiz-adv-x="890" d="M44.5 1372q-6.5 10 0.5 27l64 147q10 23 34 23h78q18 0 24 -11t-3 -26l-92 -150q-11 -20 -37 -20h-45q-17 0 -23.5 10zM311 1534q-9 35 27 35h65q29 0 35 -27l150 -735l149 735q6 27 35 27h66q35 0 26 -35l-215 -948v-555q0 -31 -31 -31h-61q-31 0 -31 31v555z" />
<glyph unicode="&#x38f;" horiz-adv-x="770" d="M1.5 1372q-6.5 10 0.5 27l64 147q10 23 34 23h78q18 0 24 -11t-3 -26l-93 -150q-11 -20 -36 -20h-45q-17 0 -23.5 10zM197 31v63q0 15 8.5 23.5t23.5 7.5l113 -10q-129 59 -129 303v850q0 96 17.5 162t52 101t75.5 49.5t97 14.5t97 -14.5t75 -49.5t51.5 -101t17.5 -162 v-850q0 -244 -129 -303l113 10q15 1 24 -7.5t9 -23.5v-63q0 -31 -31 -31h-166q-31 0 -31 31v94q0 21 25 37q59 34 59 141v1020q0 78 -32 117t-82 39q-51 0 -83 -39t-32 -117v-1020q0 -107 59 -141q25 -16 25 -37v-94q0 -31 -31 -31h-166q-30 0 -30 31z" />
<glyph unicode="&#x390;" horiz-adv-x="317" d="M-166 1403q0 37 25.5 62.5t62.5 25.5t62.5 -25.5t25.5 -62.5t-25.5 -62.5t-62.5 -25.5t-62.5 25.5t-25.5 62.5zM35 1319l69 186q9 25 35 25h78q39 0 23 -37l-97 -186q-11 -23 -37 -23h-47q-17 0 -23.5 10t-0.5 25zM66 291v839q0 31 30 31h62q30 0 30 -31v-897 q0 -80 16.5 -109.5t71.5 -29.5h15q33 0 33 -28v-43q0 -29 -27 -35q-36 -4 -59 -4q-105 0 -138.5 66.5t-33.5 240.5zM256 1403q0 37 25.5 62.5t62.5 25.5t62.5 -25.5t25.5 -62.5t-25.5 -62.5t-62.5 -25.5t-62.5 25.5t-25.5 62.5z" />
<glyph unicode="&#x391;" horiz-adv-x="589" d="M16 33l203 1509q3 29 33 29h86q30 0 33 -29l204 -1509q3 -33 -28 -33h-66q-29 0 -32 29l-41 360h-224l-41 -360q-3 -29 -32 -29h-66q-32 0 -29 33zM201 506h190l-96 840z" />
<glyph unicode="&#x392;" horiz-adv-x="628" d="M80 31v1507q0 31 31 31h182q149 0 204.5 -69t55.5 -255v-201q0 -200 -150 -237q85 -18 127.5 -88t42.5 -164v-227q0 -102 -14.5 -166t-50.5 -100t-85 -49t-128 -13h-184q-31 0 -31 31zM207 127h125q60 0 87 35.5t27 120.5v301q0 155 -135 155h-104v-612zM207 866h104 q60 0 87.5 35.5t27.5 120.5v268q0 84 -27.5 118t-87.5 34h-104v-576z" />
<glyph unicode="&#x393;" horiz-adv-x="512" d="M80 31v1507q0 31 31 31h356q31 0 31 -31v-65q0 -31 -31 -31h-260v-1411q0 -31 -31 -31h-65q-31 0 -31 31z" />
<glyph unicode="&#x394;" horiz-adv-x="589" d="M16 33l203 1509q3 29 33 29h86q30 0 33 -29l204 -1509q3 -33 -28 -33h-502q-32 0 -29 33zM158 127h276l-139 1219z" />
<glyph unicode="&#x395;" horiz-adv-x="546" d="M80 31v1507q0 31 31 31h356q31 0 31 -31v-65q0 -31 -31 -31h-260v-588h246q30 0 30 -31v-65q0 -31 -30 -31h-246v-600h260q31 0 31 -31v-65q0 -31 -31 -31h-356q-31 0 -31 31z" />
<glyph unicode="&#x396;" horiz-adv-x="538" d="M27 31v78q0 8 4 36l325 1297h-280q-31 0 -31 31v65q0 31 31 31h403q31 0 31 -31q0 -2 -0.5 -5t-1.5 -8.5t-2 -11.5l-348 -1386h321q31 0 31 -31v-65q0 -31 -31 -31h-422q-30 0 -30 31z" />
<glyph unicode="&#x397;" horiz-adv-x="643" d="M80 31v1507q0 31 31 31h65q31 0 31 -31v-674h229v674q0 31 31 31h65q31 0 31 -31v-1507q0 -31 -31 -31h-65q-31 0 -31 31v706h-229v-706q0 -31 -31 -31h-65q-31 0 -31 31z" />
<glyph unicode="&#x398;" horiz-adv-x="630" d="M74 301v967q0 96 17.5 162t51.5 101t75 49.5t97 14.5t97 -14.5t75.5 -49.5t52 -101t17.5 -162v-967q0 -96 -17.5 -162t-52 -101.5t-75.5 -50t-97 -14.5t-97 14.5t-75 50t-51.5 101.5t-17.5 162zM201 246q0 -78 32 -117t82 -39q51 0 83 39t32 117v1077q0 78 -32 117 t-83 39q-50 0 -82 -39t-32 -117v-1077zM242 758v65q0 31 30 31h88q31 0 31 -31v-65q0 -31 -31 -31h-88q-30 0 -30 31z" />
<glyph unicode="&#x399;" horiz-adv-x="286" d="M80 31v1507q0 31 31 31h65q31 0 31 -31v-1507q0 -31 -31 -31h-65q-31 0 -31 31z" />
<glyph unicode="&#x39a;" horiz-adv-x="608" d="M80 31v1507q0 31 31 31h65q31 0 31 -31v-1507q0 -31 -31 -31h-65q-31 0 -31 31zM215 805l236 739q9 25 34 25h64q17 0 24 -10t2 -25l-227 -743l264 -756q6 -15 -0.5 -25t-23.5 -10h-64q-26 0 -35 25l-272 739q-8 19 -2 41z" />
<glyph unicode="&#x39b;" horiz-adv-x="589" d="M16 33l203 1509q3 29 33 29h86q30 0 33 -29l204 -1509q3 -33 -28 -33h-68q-30 0 -33 29l-151 1317l-150 -1317q-3 -29 -32 -29h-68q-32 0 -29 33z" />
<glyph unicode="&#x39c;" horiz-adv-x="897" d="M80 31v1507q0 31 31 31h135q30 0 33 -29l170 -1098l169 1098q3 29 33 29h135q31 0 31 -31v-1507q0 -31 -31 -31h-65q-31 0 -31 31l8 1249l-217 -1251q-3 -29 -32 -29h-25q-30 0 -33 29l-192 1259l8 -1257q0 -31 -31 -31h-65q-31 0 -31 31z" />
<glyph unicode="&#x39d;" horiz-adv-x="688" d="M80 31v1507q0 31 31 31h63q27 0 33 -27l278 -1087l-4 1083q0 31 31 31h66q30 0 30 -31v-1507q0 -31 -30 -31h-74q-27 0 -33 27l-268 1071l4 -1067q0 -31 -31 -31h-65q-31 0 -31 31z" />
<glyph unicode="&#x39e;" horiz-adv-x="544" d="M41 31v65q0 31 31 31h401q31 0 31 -31v-65q0 -31 -31 -31h-401q-31 0 -31 31zM41 1473v65q0 31 31 31h401q31 0 31 -31v-65q0 -31 -31 -31h-401q-31 0 -31 31zM82 768v66q0 30 31 30h319q31 0 31 -30v-66q0 -31 -31 -31h-319q-31 0 -31 31z" />
<glyph unicode="&#x39f;" horiz-adv-x="630" d="M74 301v967q0 96 17.5 162t51.5 101t75 49.5t97 14.5t97 -14.5t75.5 -49.5t52 -101t17.5 -162v-967q0 -96 -17.5 -162t-52 -101.5t-75.5 -50t-97 -14.5t-97 14.5t-75 50t-51.5 101.5t-17.5 162zM201 246q0 -78 32 -117t82 -39q51 0 83 39t32 117v1077q0 78 -32 117 t-83 39q-50 0 -82 -39t-32 -117v-1077z" />
<glyph unicode="&#x3a0;" horiz-adv-x="643" d="M80 31v1507q0 31 31 31h421q31 0 31 -31v-1507q0 -31 -31 -31h-65q-31 0 -31 31v1411h-229v-1411q0 -31 -31 -31h-65q-31 0 -31 31z" />
<glyph unicode="&#x3a1;" horiz-adv-x="598" d="M80 31v1507q0 31 31 31h163q80 0 128.5 -12.5t84.5 -48t51 -100t15 -167.5v-242q0 -83 -10.5 -140t-30 -94t-55 -57.5t-78 -28t-105.5 -7.5h-67v-641q0 -31 -31 -31h-65q-31 0 -31 31zM207 799h104q60 0 87.5 35.5t27.5 119.5v332q0 85 -27.5 120.5t-87.5 35.5h-104v-643 z" />
<glyph unicode="&#x3a3;" horiz-adv-x="557" d="M25 1462v76q0 31 30 31h422q31 0 31 -31v-65q0 -31 -31 -31h-315l241 -615q9 -21 0 -41l-233 -659h338q31 0 31 -31v-65q0 -31 -31 -31h-445q-30 0 -30 31v78q0 15 6 36l235 662l-243 616q-6 21 -6 39z" />
<glyph unicode="&#x3a4;" horiz-adv-x="548" d="M16 1473v65q0 31 31 31h455q30 0 30 -31v-65q0 -31 -30 -31h-164v-1411q0 -31 -31 -31h-65q-31 0 -31 31v1411h-164q-31 0 -31 31z" />
<glyph unicode="&#x3a5;" horiz-adv-x="606" d="M27 1534q-9 35 26 35h66q29 0 35 -27l149 -735l150 735q6 27 34 27h66q36 0 27 -35l-215 -948v-555q0 -31 -31 -31h-62q-30 0 -30 31v555z" />
<glyph unicode="&#x3a6;" horiz-adv-x="749" d="M51 506v557q0 179 63.5 273.5t196.5 111.5v92q0 31 31 31h66q30 0 30 -31v-92q132 -17 196 -112t64 -273v-557q0 -178 -64 -273t-196 -112v-92q0 -31 -30 -31h-66q-31 0 -31 31v92q-133 17 -196.5 111.5t-63.5 273.5zM178 451q0 -76 32 -133t101 -76v1085 q-69 -19 -101 -76t-32 -133v-667zM438 242q68 19 100.5 76.5t32.5 132.5v667q0 75 -32.5 132.5t-100.5 76.5v-1085z" />
<glyph unicode="&#x3a7;" horiz-adv-x="612" d="M4 35l252 772l-240 727q-6 15 1 25t24 10h65q26 0 35 -25l170 -551l158 549q9 27 35 27h65q36 0 27 -35l-213 -729l217 -770q9 -35 -25 -35h-65q-27 0 -33 27l-166 602l-184 -604q-9 -25 -35 -25h-63q-17 0 -24 10t-1 25z" />
<glyph unicode="&#x3a8;" horiz-adv-x="765" d="M59 721v817q0 31 31 31h66q30 0 30 -31v-872q0 -50 12 -91.5t43.5 -73t77.5 -34.5v1071q0 31 31 31h66q30 0 30 -31v-1071q67 4 100.5 62.5t33.5 136.5v872q0 31 30 31h66q31 0 31 -31v-817q0 -354 -261 -375v-317q0 -31 -30 -31h-66q-31 0 -31 31v317q-133 9 -196.5 102 t-63.5 273z" />
<glyph unicode="&#x3a9;" horiz-adv-x="634" d="M59 31v63q0 15 9 23.5t24 7.5l113 -10q-129 59 -129 303v850q0 96 17.5 162t51.5 101t75 49.5t97 14.5t97 -14.5t75.5 -49.5t52 -101t17.5 -162v-850q0 -244 -129 -303l113 10q15 1 23.5 -7.5t8.5 -23.5v-63q0 -31 -30 -31h-166q-31 0 -31 31v94q0 21 25 37q59 34 59 141 v1020q0 78 -32 117t-83 39q-50 0 -82 -39t-32 -117v-1020q0 -107 59 -141q25 -16 25 -37v-94q0 -31 -31 -31h-166q-31 0 -31 31z" />
<glyph unicode="&#x3aa;" horiz-adv-x="286" d="M-78 1790q0 37 25.5 62.5t62.5 25.5t62.5 -25.5t25.5 -62.5t-25.5 -62.5t-62.5 -25.5t-62.5 25.5t-25.5 62.5zM80 31v1507q0 31 31 31h65q31 0 31 -31v-1507q0 -31 -31 -31h-65q-31 0 -31 31zM190 1790q0 37 26 62.5t63 25.5t62.5 -25.5t25.5 -62.5t-25.5 -62.5 t-62.5 -25.5t-63 25.5t-26 62.5z" />
<glyph unicode="&#x3ab;" horiz-adv-x="606" d="M27 1534q-9 35 26 35h66q29 0 35 -27l149 -735l150 735q6 27 34 27h66q36 0 27 -35l-215 -948v-555q0 -31 -31 -31h-62q-30 0 -30 31v555zM80 1790q0 37 25.5 62.5t62.5 25.5t62.5 -25.5t25.5 -62.5t-25.5 -62.5t-62.5 -25.5t-62.5 25.5t-25.5 62.5zM348 1790 q0 37 25.5 62.5t62.5 25.5t62.5 -25.5t25.5 -62.5t-25.5 -62.5t-62.5 -25.5t-62.5 25.5t-25.5 62.5z" />
<glyph unicode="&#x3ac;" horiz-adv-x="524" d="M61 291v579q0 167 30.5 237.5t105.5 70.5q31 0 56 -10t41.5 -29t26 -35t19.5 -37l12 68q6 26 35 26h37q31 0 31 -31v-1099q0 -31 -31 -31h-37q-29 0 -35 27l-12 67q-13 -30 -26.5 -50t-44.5 -40t-72 -20q-76 0 -106 70t-30 237zM184 248q0 -80 15 -117t51 -37 q82 0 82 176v621q0 176 -82 176q-36 0 -51 -37t-15 -117v-665zM198 1325q-6 10 1 27l63 147q10 23 35 23h78q18 0 23.5 -11t-3.5 -26l-92 -150q-11 -20 -37 -20h-45q-17 0 -23 10z" />
<glyph unicode="&#x3ad;" horiz-adv-x="489" d="M53 225v97q0 49 2 77.5t9.5 62.5t23 54.5t44 40.5t69.5 33q-41 11 -69.5 30t-43.5 40t-23 56t-10 64t-2 78v78q0 137 51.5 189.5t145.5 52.5q45 0 78 -10.5t61 -36t42.5 -74.5t14.5 -121v-27q0 -30 -30 -30h-62q-30 0 -30 30v41q0 115 -74 115t-74 -115v-170 q0 -40 15.5 -69t39 -42t43.5 -18.5t37 -5.5h37q33 3 33 -29v-53q0 -31 -33 -28h-39q-17 0 -37 -5.5t-43 -19t-38 -42.5t-15 -69v-188q0 -115 74 -115t74 115v90q0 31 30 31h62q30 0 30 -31v-76q0 -136 -51.5 -188.5t-144.5 -52.5t-145 52.5t-52 188.5zM194 1325q-6 10 1 27 l63 147q10 23 35 23h78q18 0 23.5 -11t-3.5 -26l-92 -150q-11 -20 -37 -20h-45q-17 0 -23 10z" />
<glyph unicode="&#x3ae;" d="M70 31v1099q0 31 30 31h37q29 0 35 -26l12 -68q49 111 144 111q75 0 105 -70.5t30 -237.5v-839q0 -31 -31 -31h-61q-31 0 -31 31v882q0 80 -15 117t-51 37q-81 0 -81 -176v-860q0 -31 -31 -31h-62q-30 0 -30 31zM200 1325q-6 10 1 27l63 147q10 23 35 23h78 q18 0 23.5 -11t-3.5 -26l-92 -150q-11 -20 -37 -20h-45q-17 0 -23 10z" />
<glyph unicode="&#x3af;" horiz-adv-x="317" d="M66 291v839q0 31 30 31h62q30 0 30 -31v-897q0 -80 16.5 -109.5t71.5 -29.5h15q33 0 33 -28v-43q0 -29 -27 -35q-36 -4 -59 -4q-105 0 -138.5 66.5t-33.5 240.5zM77 1325q-6 10 1 27l63 147q10 23 35 23h78q18 0 23.5 -11t-3.5 -26l-92 -150q-11 -20 -37 -20h-45 q-17 0 -23 10z" />
<glyph unicode="&#x3b0;" horiz-adv-x="524" d="M-37 1403q0 37 25.5 62.5t62.5 25.5t62.5 -25.5t25.5 -62.5t-25.5 -62.5t-62.5 -25.5t-62.5 25.5t-25.5 62.5zM66 225v905q0 31 30 31h62q30 0 30 -31v-919q0 -115 74 -115t74 115v919q0 31 31 31h61q31 0 31 -31v-905q0 -136 -52 -188.5t-145 -52.5t-144.5 52.5 t-51.5 188.5zM164 1319l69 186q9 25 35 25h78q39 0 23 -37l-97 -186q-12 -23 -36 -23h-48q-17 0 -23.5 10t-0.5 25zM385 1403q0 37 25.5 62.5t62.5 25.5t62.5 -25.5t25.5 -62.5t-25.5 -62.5t-62.5 -25.5t-62.5 25.5t-25.5 62.5z" />
<glyph unicode="&#x3b1;" horiz-adv-x="524" d="M61 291v579q0 167 30.5 237.5t105.5 70.5q31 0 56 -10t41.5 -29t26 -35t19.5 -37l12 68q6 26 35 26h37q31 0 31 -31v-1099q0 -31 -31 -31h-37q-29 0 -35 27l-12 67q-13 -30 -26.5 -50t-44.5 -40t-72 -20q-76 0 -106 70t-30 237zM184 248q0 -80 15 -117t51 -37 q82 0 82 176v621q0 176 -82 176q-36 0 -51 -37t-15 -117v-665z" />
<glyph unicode="&#x3b2;" horiz-adv-x="538" d="M68 -377v1716q0 72 14.5 121t42.5 74.5t61 36t78 10.5q94 0 145.5 -52.5t51.5 -189.5v-149q0 -40 -1 -65.5t-5 -56t-12.5 -50.5t-22 -40t-35 -33.5t-51.5 -22.5q84 -19 115.5 -86.5t31.5 -182.5v-397q0 -150 -32 -211t-109 -61q-105 0 -150 92v-453q0 -31 -30 -31h-62 q-30 0 -30 31zM190 270q0 -95 25 -135.5t72 -40.5q39 0 55 32.5t16 121.5v500q0 105 -88 118q-28 3 -28 31v41q0 24 28 33q68 17 68 119v264q0 114 -74 114t-74 -114v-1084z" />
<glyph unicode="&#x3b3;" horiz-adv-x="473" d="M16 1128q-3 33 29 33h70q27 0 30 -28l91 -887l92 887q3 28 30 28h70q32 0 29 -33l-164 -1128l4 -375q0 -31 -31 -31h-61q-31 0 -31 31l4 377z" />
<glyph unicode="&#x3b4;" horiz-adv-x="503" d="M59 225v588q0 168 91 219q-70 95 -70 234q0 85 21.5 148.5t59 99t82.5 52.5t97 17q18 0 53 -6q34 -6 25 -37l-12 -51q-9 -29 -39 -23q-12 4 -29 4q-58 0 -96.5 -45.5t-38.5 -142.5q0 -54 14 -96.5t36 -71.5t48.5 -57t53 -61.5t48.5 -75t36 -108t14 -150.5v-437 q0 -136 -52 -188.5t-145 -52.5t-145 52.5t-52 188.5zM182 211q0 -115 74 -115t74 115v459q0 92 -27 151.5t-74 116.5q-47 -18 -47 -111v-616z" />
<glyph unicode="&#x3b5;" horiz-adv-x="489" d="M53 225v97q0 49 2 77.5t9.5 62.5t23 54.5t44 40.5t69.5 33q-41 11 -69.5 30t-43.5 40t-23 56t-10 64t-2 78v78q0 137 51.5 189.5t145.5 52.5q45 0 78 -10.5t61 -36t42.5 -74.5t14.5 -121v-27q0 -30 -30 -30h-62q-30 0 -30 30v41q0 115 -74 115t-74 -115v-170 q0 -40 15.5 -69t39 -42t43.5 -18.5t37 -5.5h37q33 3 33 -29v-53q0 -31 -33 -28h-39q-17 0 -37 -5.5t-43 -19t-38 -42.5t-15 -69v-188q0 -115 74 -115t74 115v90q0 31 30 31h62q30 0 30 -31v-76q0 -136 -51.5 -188.5t-144.5 -52.5t-145 52.5t-52 188.5z" />
<glyph unicode="&#x3b6;" horiz-adv-x="481" d="M33 313q0 338 307 736h-250q-31 0 -31 30v51q0 31 31 31h354q31 0 31 -31v-69q0 -20 -14 -37q-303 -394 -303 -702q0 -43 7 -73.5t17.5 -50t35 -37t45 -27.5t63.5 -28q112 -46 112 -137q0 -74 -73 -198q-15 -27 -43 -11l-39 27q-25 16 -9 45q39 70 39 100q0 28 -14 42 t-57 34q-45 21 -71.5 36t-56 40t-45 54t-26 73t-10.5 102z" />
<glyph unicode="&#x3b7;" d="M70 31v1099q0 31 30 31h37q29 0 35 -26l12 -68q49 111 144 111q75 0 105 -70.5t30 -237.5v-839q0 -31 -31 -31h-61q-31 0 -31 31v882q0 80 -15 117t-51 37q-81 0 -81 -176v-860q0 -31 -31 -31h-62q-30 0 -30 31z" />
<glyph unicode="&#x3b8;" horiz-adv-x="524" d="M66 225v1112q0 72 14.5 121t42.5 74.5t61 36t78 10.5q94 0 145.5 -52.5t51.5 -189.5v-1112q0 -136 -52 -188.5t-145 -52.5t-144.5 52.5t-51.5 188.5zM188 211q0 -115 74 -115t74 115v514h-148v-514zM188 838h148v514q0 114 -74 114t-74 -114v-514z" />
<glyph unicode="&#x3b9;" horiz-adv-x="317" d="M66 291v839q0 31 30 31h62q30 0 30 -31v-897q0 -80 16.5 -109.5t71.5 -29.5h15q33 0 33 -28v-43q0 -29 -27 -35q-36 -4 -59 -4q-105 0 -138.5 66.5t-33.5 240.5z" />
<glyph unicode="&#x3ba;" horiz-adv-x="532" d="M70 31v1099q0 31 30 31h62q31 0 31 -31v-1099q0 -31 -31 -31h-62q-30 0 -30 31zM201 573q-6 22 2 41l192 523q9 24 35 24h64q17 0 23.5 -10t0.5 -25l-188 -526l186 -565q6 -15 -0.5 -25t-23.5 -10h-62q-26 0 -35 25z" />
<glyph unicode="&#x3bb;" horiz-adv-x="651" d="M-4 35l270 921l-84 369q-23 96 -36 116q-15 23 -44 23h-14q-32 -3 -35 23l-6 53q-3 29 25 35q31 8 71 8q64 0 95.5 -45.5t60.5 -167.5l260 -1126q7 -32 12.5 -52t14.5 -45.5t22 -38t29 -12.5q16 -7 16 -30l2 -41q3 -29 -24 -35q-16 -6 -39 -6q-63 1 -93.5 54t-56.5 163 l-125 536l-188 -710q-6 -27 -33 -27h-73q-36 0 -27 35z" />
<glyph unicode="&#x3bc;" horiz-adv-x="532" d="M70 -377v1507q0 31 30 31h62q31 0 31 -31v-913q0 -123 65 -123q82 0 82 176v860q0 31 31 31h61q31 0 31 -31v-1099q0 -31 -31 -31h-37q-29 0 -35 27l-12 67q-17 -39 -45.5 -71.5t-64.5 -32.5q-23 0 -45 14v-381q0 -31 -31 -31h-62q-30 0 -30 31z" />
<glyph unicode="&#x3bd;" horiz-adv-x="483" d="M20 1128q-3 33 29 33h70q28 0 31 -28l90 -949l92 949q3 28 30 28h70q32 0 29 -33l-148 -1099q-3 -29 -32 -29h-78q-30 0 -33 29z" />
<glyph unicode="&#x3be;" horiz-adv-x="452" d="M55 299v293q0 49 2 77.5t9.5 62.5t23 54.5t44 40.5t69.5 33q-41 11 -69.5 30t-43.5 40t-23 56t-10 64t-2 78v211q0 137 51.5 189.5t145.5 52.5t145.5 -52.5t51.5 -189.5v-26q0 -31 -31 -31h-62q-30 0 -30 31v41q0 114 -74 114t-74 -114v-303q0 -40 15.5 -69t39 -42.5 t43.5 -19t37 -5.5h37q33 3 33 -28v-53q0 -32 -33 -29h-39q-17 0 -37 -5.5t-43 -18.5t-38 -42t-15 -69v-344q0 -100 21.5 -129.5t125.5 -84.5q7 -4 11 -6q30 -16 45.5 -25.5t37.5 -27t32 -39t10 -47.5q0 -77 -84 -200q-20 -23 -43 -9l-41 25q-27 15 -10 45q41 70 41 104 q0 23 -13.5 35t-58.5 37q-51 27 -75.5 41t-52 35t-37 36.5t-19.5 44t-11.5 58.5t-1.5 80z" />
<glyph unicode="&#x3bf;" horiz-adv-x="520" d="M63 225v711q0 137 51.5 189.5t145.5 52.5t145.5 -52.5t51.5 -189.5v-711q0 -136 -52 -188.5t-145 -52.5t-145 52.5t-52 188.5zM186 211q0 -115 74 -115t74 115v739q0 115 -74 115t-74 -115v-739z" />
<glyph unicode="&#x3c0;" horiz-adv-x="532" d="M70 31v1099q0 31 30 31h332q31 0 31 -31v-1099q0 -31 -31 -31h-61q-31 0 -31 31v1018h-147v-1018q0 -31 -31 -31h-62q-30 0 -30 31z" />
<glyph unicode="&#x3c1;" horiz-adv-x="522" d="M66 -377v1313q0 72 14.5 121t42.5 74.5t61 36t78 10.5q94 0 145.5 -52.5t51.5 -189.5v-645q0 -167 -30 -237t-105 -70q-87 0 -136 92v-453q0 -31 -30 -31h-62q-30 0 -30 31zM188 270q0 -176 82 -176q36 0 51 37t15 117v702q0 115 -74 115t-74 -115v-680z" />
<glyph unicode="&#x3c2;" horiz-adv-x="495" d="M61 299v637q0 137 51.5 189.5t145.5 52.5t145.5 -52.5t51.5 -189.5v-170q0 -31 -31 -31h-62q-30 0 -30 31v184q0 115 -74 115t-74 -115v-624q0 -100 21.5 -129.5t125.5 -84.5q7 -4 11 -6q30 -16 45.5 -25.5t37.5 -27t32 -39t10 -47.5q0 -77 -84 -200q-20 -23 -43 -9 l-41 25q-27 15 -10 45q41 70 41 104q0 23 -13.5 35t-58.5 37q-51 27 -75.5 41t-52 35t-37 36.5t-19.5 44t-11.5 58.5t-1.5 80z" />
<glyph unicode="&#x3c3;" horiz-adv-x="542" d="M61 225v695q0 137 51.5 189t145.5 52h238q30 0 30 -31v-49q0 -33 -32 -30l-80 6q41 -46 41 -133v-699q0 -136 -52 -188.5t-145 -52.5t-145 52.5t-52 188.5zM184 211q0 -115 74 -115t74 115v723q0 115 -74 115t-74 -115v-723z" />
<glyph unicode="&#x3c4;" horiz-adv-x="507" d="M-2 1079v51q0 31 31 31h436q31 0 31 -31v-51q0 -30 -31 -30h-158v-816q0 -80 16.5 -109.5t71.5 -29.5h15q32 0 32 -28v-43q0 -29 -26 -35q-36 -4 -60 -4q-105 0 -138.5 66.5t-33.5 240.5v758h-155q-31 0 -31 30z" />
<glyph unicode="&#x3c5;" horiz-adv-x="524" d="M66 225v905q0 31 30 31h62q30 0 30 -31v-919q0 -115 74 -115t74 115v919q0 31 31 31h61q31 0 31 -31v-905q0 -136 -52 -188.5t-145 -52.5t-144.5 52.5t-51.5 188.5z" />
<glyph unicode="&#x3c6;" horiz-adv-x="714" d="M61 287v587q0 140 58 216q18 25 43 0l47 -43q17 -19 2 -43q-27 -47 -27 -115v-617q0 -151 117 -168v1039q0 31 31 31h49q143 0 210.5 -76t67.5 -228v-583q0 -134 -57.5 -209t-181.5 -90v-363q0 -31 -31 -31h-57q-31 0 -31 31v363q-126 15 -183 90t-57 209zM420 104 q117 17 117 168v613q0 153 -117 168v-949z" />
<glyph unicode="&#x3c7;" horiz-adv-x="493" d="M23 35l161 559l-159 532q-5 15 2 25t24 10h58q25 0 34 -26l105 -367l100 367q9 26 35 26h61q17 0 24.5 -10t2.5 -25l-168 -534l172 -557q5 -15 -2 -25t-24 -10h-58q-26 0 -35 27l-116 401l-103 -401q-6 -27 -33 -27h-55q-35 0 -26 35z" />
<glyph unicode="&#x3c8;" horiz-adv-x="724" d="M63 287v843q0 31 31 31h62q30 0 30 -31v-858q0 -151 117 -168v1026q0 31 31 31h57q31 0 31 -31v-1026q117 17 117 168v858q0 31 30 31h62q31 0 31 -31v-843q0 -134 -57.5 -209t-182.5 -90v-363q0 -31 -31 -31h-57q-31 0 -31 31v363q-126 15 -183 90t-57 209z" />
<glyph unicode="&#x3c9;" horiz-adv-x="790" d="M63 225v711q0 124 42.5 178t121.5 62q13 1 22 -7t9 -22v-55q0 -20 -27 -33q-45 -19 -45 -109v-739q0 -115 74 -115t74 115v612q0 31 31 31h61q31 0 31 -31v-612q0 -115 73 -115q74 0 74 115v739q0 90 -45 109q-27 13 -27 33v55q0 14 9 22t22 7q79 -8 121.5 -62t42.5 -178 v-711q0 -136 -51.5 -188.5t-143.5 -52.5q-47 0 -80 17t-57 67q-24 -50 -57 -67t-80 -17q-92 0 -143.5 52.5t-51.5 188.5z" />
<glyph unicode="&#x3ca;" horiz-adv-x="317" d="M-94 1382q0 37 25.5 62.5t62.5 25.5t62.5 -25.5t25.5 -62.5t-25.5 -62.5t-62.5 -25.5t-62.5 25.5t-25.5 62.5zM66 291v839q0 31 30 31h62q30 0 30 -31v-897q0 -80 16.5 -109.5t71.5 -29.5h15q33 0 33 -28v-43q0 -29 -27 -35q-36 -4 -59 -4q-105 0 -138.5 66.5 t-33.5 240.5zM174 1382q0 37 25.5 62.5t62.5 25.5t62.5 -25.5t25.5 -62.5t-25.5 -62.5t-62.5 -25.5t-62.5 25.5t-25.5 62.5z" />
<glyph unicode="&#x3cb;" horiz-adv-x="524" d="M41 1382q0 37 25.5 62.5t62.5 25.5t62.5 -25.5t25.5 -62.5t-25.5 -62.5t-62.5 -25.5t-62.5 25.5t-25.5 62.5zM66 225v905q0 31 30 31h62q30 0 30 -31v-919q0 -115 74 -115t74 115v919q0 31 31 31h61q31 0 31 -31v-905q0 -136 -52 -188.5t-145 -52.5t-144.5 52.5 t-51.5 188.5zM309 1382q0 37 25.5 62.5t62.5 25.5t62.5 -25.5t25.5 -62.5t-25.5 -62.5t-62.5 -25.5t-62.5 25.5t-25.5 62.5z" />
<glyph unicode="&#x3cc;" horiz-adv-x="520" d="M63 225v711q0 137 51.5 189.5t145.5 52.5t145.5 -52.5t51.5 -189.5v-711q0 -136 -52 -188.5t-145 -52.5t-145 52.5t-52 188.5zM186 211q0 -115 74 -115t74 115v739q0 115 -74 115t-74 -115v-739zM198 1325q-6 10 1 27l63 147q10 23 35 23h78q18 0 23.5 -11t-3.5 -26 l-92 -150q-11 -20 -37 -20h-45q-17 0 -23 10z" />
<glyph unicode="&#x3cd;" horiz-adv-x="524" d="M66 225v905q0 31 30 31h62q30 0 30 -31v-919q0 -115 74 -115t74 115v919q0 31 31 31h61q31 0 31 -31v-905q0 -136 -52 -188.5t-145 -52.5t-144.5 52.5t-51.5 188.5zM210 1325q-6 10 1 27l63 147q10 23 35 23h78q18 0 24 -11t-3 -26l-93 -150q-11 -20 -36 -20h-46 q-17 0 -23 10z" />
<glyph unicode="&#x3ce;" horiz-adv-x="790" d="M63 225v711q0 124 42.5 178t121.5 62q13 1 22 -7t9 -22v-55q0 -20 -27 -33q-45 -19 -45 -109v-739q0 -115 74 -115t74 115v612q0 31 31 31h61q31 0 31 -31v-612q0 -115 73 -115q74 0 74 115v739q0 90 -45 109q-27 13 -27 33v55q0 14 9 22t22 7q79 -8 121.5 -62t42.5 -178 v-711q0 -136 -51.5 -188.5t-143.5 -52.5q-47 0 -80 17t-57 67q-24 -50 -57 -67t-80 -17q-92 0 -143.5 52.5t-51.5 188.5zM349.5 1325q-6.5 10 0.5 27l64 147q10 23 35 23h77q18 0 24 -11t-3 -26l-92 -150q-11 -20 -37 -20h-45q-17 0 -23.5 10z" />
<glyph unicode="&#x3f0;" horiz-adv-x="518" d="M70 31v1099q0 31 30 31h62q31 0 31 -31v-1099q0 -31 -31 -31h-62q-30 0 -30 31zM207 573q-12 21 0 41q146 262 155 516q0 31 31 31h66q30 0 30 -31q-9 -272 -159 -530q148 -281 157 -569q0 -31 -30 -31h-64q-31 0 -31 31q-9 265 -155 542z" />
<glyph unicode="&#x401;" horiz-adv-x="546" d="M61 1790q0 37 26 62.5t63 25.5t62.5 -25.5t25.5 -62.5t-25.5 -62.5t-62.5 -25.5t-63 25.5t-26 62.5zM80 31v1507q0 31 31 31h356q31 0 31 -31v-65q0 -31 -31 -31h-260v-588h246q30 0 30 -31v-65q0 -31 -30 -31h-246v-600h260q31 0 31 -31v-65q0 -31 -31 -31h-356 q-31 0 -31 31zM330 1790q0 37 25.5 62.5t62.5 25.5t62.5 -25.5t25.5 -62.5t-25.5 -62.5t-62.5 -25.5t-62.5 25.5t-25.5 62.5z" />
<glyph unicode="&#x402;" horiz-adv-x="724" d="M16 1473v65q0 31 31 31h475q31 0 31 -31v-65q0 -31 -31 -31h-184v-555q53 22 121 22q78 0 124.5 -26.5t73.5 -102.5t27 -211v-258q0 -89 -15 -152t-44.5 -99.5t-66 -53.5t-85.5 -20q-31 -3 -31 28v58q0 22 29 32q39 10 62.5 48t23.5 104v358q0 99 -30.5 134.5t-96.5 35.5 q-52 0 -92 -24v-729q0 -31 -31 -31h-65q-31 0 -31 31v1411h-164q-31 0 -31 31z" />
<glyph unicode="&#x403;" horiz-adv-x="512" d="M80 31v1507q0 31 31 31h356q31 0 31 -31v-65q0 -31 -31 -31h-260v-1411q0 -31 -31 -31h-65q-31 0 -31 31zM224.5 1732q-6.5 10 0.5 27l64 148q9 22 35 22h77q18 0 24 -11t-3 -26l-92 -149q-12 -21 -37 -21h-45q-17 0 -23.5 10z" />
<glyph unicode="&#x404;" horiz-adv-x="608" d="M74 301v967q0 96 17.5 162t51.5 101t75 49.5t97 14.5t97 -14.5t75.5 -49.5t52 -101t17.5 -162v-115q0 -31 -31 -31h-65q-31 0 -31 31v170q0 78 -32 117t-83 39q-50 0 -82 -39t-32 -117v-469h243q31 0 31 -31v-65q0 -31 -31 -31h-243v-481q0 -78 32 -117t82 -39 q51 0 83 39t32 117v164q0 30 31 30h65q31 0 31 -30v-109q0 -96 -17.5 -162t-52 -101.5t-75.5 -50t-97 -14.5t-97 14.5t-75 50t-51.5 101.5t-17.5 162z" />
<glyph unicode="&#x405;" horiz-adv-x="604" d="M59 322v172q0 30 31 30h66q30 0 30 -30v-248q0 -80 33.5 -118t81.5 -38t81.5 38t33.5 118v211q0 59 -37 118t-89 111.5t-104.5 109.5t-89.5 134t-37 162v200q0 303 242 303t242 -307v-235q0 -31 -31 -31h-66q-30 0 -30 31v270q0 80 -33.5 118t-81.5 38t-81.5 -38 t-33.5 -118v-213q0 -77 37 -143t89 -116.5t104.5 -101.5t89.5 -120t37 -150v-157q0 -180 -53 -264.5t-189 -84.5t-189 85.5t-53 263.5z" />
<glyph unicode="&#x406;" horiz-adv-x="286" d="M80 31v1507q0 31 31 31h65q31 0 31 -31v-1507q0 -31 -31 -31h-65q-31 0 -31 31z" />
<glyph unicode="&#x407;" horiz-adv-x="286" d="M-78 1790q0 37 25.5 62.5t62.5 25.5t62.5 -25.5t25.5 -62.5t-25.5 -62.5t-62.5 -25.5t-62.5 25.5t-25.5 62.5zM80 31v1507q0 31 31 31h65q31 0 31 -31v-1507q0 -31 -31 -31h-65q-31 0 -31 31zM190 1790q0 37 26 62.5t63 25.5t62.5 -25.5t25.5 -62.5t-25.5 -62.5 t-62.5 -25.5t-63 25.5t-26 62.5z" />
<glyph unicode="&#x408;" horiz-adv-x="286" d="M-37 -303q0 4 9 15.5t20 15.5q39 8 63.5 45.5t24.5 105.5v1659q0 31 31 31h65q31 0 31 -31v-1604q0 -79 -16.5 -139.5t-41.5 -95t-59 -56.5t-64 -29t-61 -7h-2v31v57v2z" />
<glyph unicode="&#x409;" horiz-adv-x="987" d="M10 6v55q0 31 8 31q48 0 81.5 38t33.5 118v1290q0 31 31 31h401q31 0 31 -31v-641h68q79 0 128 -12.5t85 -48t50.5 -100t14.5 -167.5v-241q0 -103 -14.5 -167.5t-50.5 -100t-85 -48t-128 -12.5h-164q-31 0 -31 31v1411h-209v-1163q0 -66 -11 -118t-31.5 -84t-43.5 -53.5 t-52.5 -31.5t-53 -13.5t-50.5 -3.5q-8 0 -8 31zM596 127h104q60 0 87.5 35.5t27.5 120.5v331q0 85 -27.5 120.5t-87.5 35.5h-104v-643z" />
<glyph unicode="&#x40a;" horiz-adv-x="954" d="M80 31v1507q0 31 31 31h65q31 0 31 -31v-643h229v643q0 31 31 31h65q31 0 31 -31v-643h68q79 0 128 -12.5t85 -48t50.5 -100t14.5 -167.5v-239q0 -103 -14.5 -167.5t-50.5 -100t-85 -48t-128 -12.5h-164q-31 0 -31 31v737h-229v-737q0 -31 -31 -31h-65q-31 0 -31 31z M563 127h105q60 0 87 35.5t27 120.5v329q0 85 -27 120.5t-87 35.5h-105v-641z" />
<glyph unicode="&#x40b;" horiz-adv-x="731" d="M16 1473v65q0 31 31 31h475q31 0 31 -31v-65q0 -31 -31 -31h-184v-555q53 22 121 22q78 0 124.5 -26.5t73.5 -102.5t27 -211v-538q0 -31 -31 -31h-65q-31 0 -31 31v583q0 99 -30.5 134.5t-96.5 35.5q-52 0 -92 -24v-729q0 -31 -31 -31h-65q-31 0 -31 31v1411h-164 q-31 0 -31 31z" />
<glyph unicode="&#x40c;" horiz-adv-x="595" d="M80 31v1507q0 31 31 31h65q31 0 31 -31v-1507q0 -31 -31 -31h-65q-31 0 -31 31zM219 764q-9 20 0 41q205 409 223 733q3 31 33 31h66q31 0 28 -31q-13 -324 -221 -747q210 -426 223 -760q3 -31 -28 -31h-66q-30 0 -33 31q-21 325 -225 733zM286 1699.5q-6 9.5 1 26.5 l63 148q9 22 35 22h78q18 0 23.5 -10.5t-3.5 -25.5l-92 -150q-11 -20 -37 -20h-45q-17 0 -23 9.5z" />
<glyph unicode="&#x40e;" horiz-adv-x="708" d="M-2 1534q-9 35 25 35h67q27 0 33 -27l203 -784l270 786q9 25 35 25h65q17 0 24 -10t1 -25l-528 -1509q-9 -25 -35 -25h-64q-17 0 -23.5 10t-0.5 25l190 536zM164 1800q-1 15 7.5 24t23.5 9h20q23 0 33 -29q15 -67 104 -67q41 0 69.5 17t35.5 50q10 29 32 29h19 q15 0 23.5 -9t7.5 -24q-10 -69 -63.5 -108t-123.5 -39q-69 0 -122.5 39t-65.5 108z" />
<glyph unicode="&#x40f;" horiz-adv-x="643" d="M80 31v1507q0 31 31 31h65q31 0 31 -31v-1411h229v1411q0 31 31 31h65q31 0 31 -31v-1507q0 -31 -31 -31h-153v-186q0 -31 -31 -31h-53q-31 0 -31 31v186h-153q-31 0 -31 31z" />
<glyph unicode="&#x410;" horiz-adv-x="589" d="M16 33l203 1509q3 29 33 29h86q30 0 33 -29l204 -1509q3 -33 -28 -33h-66q-29 0 -32 29l-41 360h-224l-41 -360q-3 -29 -32 -29h-66q-32 0 -29 33zM201 506h190l-96 840z" />
<glyph unicode="&#x411;" horiz-adv-x="598" d="M80 31v1507q0 31 31 31h356q31 0 31 -31v-65q0 -31 -31 -31h-260v-545h67q80 0 128.5 -12.5t84.5 -48t51 -100t15 -167.5v-241q0 -103 -15 -167.5t-51 -100t-84.5 -48t-128.5 -12.5h-163q-31 0 -31 31zM207 127h104q60 0 87.5 35.5t27.5 120.5v331q0 85 -27.5 120.5 t-87.5 35.5h-104v-643z" />
<glyph unicode="&#x412;" horiz-adv-x="628" d="M80 31v1507q0 31 31 31h182q149 0 204.5 -69t55.5 -255v-201q0 -200 -150 -237q85 -18 127.5 -88t42.5 -164v-227q0 -102 -14.5 -166t-50.5 -100t-85 -49t-128 -13h-184q-31 0 -31 31zM207 127h125q60 0 87 35.5t27 120.5v301q0 155 -135 155h-104v-612zM207 866h104 q60 0 87.5 35.5t27.5 120.5v268q0 84 -27.5 118t-87.5 34h-104v-576z" />
<glyph unicode="&#x413;" horiz-adv-x="512" d="M80 31v1507q0 31 31 31h356q31 0 31 -31v-65q0 -31 -31 -31h-260v-1411q0 -31 -31 -31h-65q-31 0 -31 31z" />
<glyph unicode="&#x414;" horiz-adv-x="763" d="M16 82q0 22 23 35q52 27 78.5 76t29.5 129l41 1216q0 31 31 31h402q30 0 30 -31v-1411h66q31 0 31 -31v-282q0 -31 -31 -31h-53q-31 0 -31 31v186h-502v-186q0 -31 -31 -31h-53q-31 0 -31 31v268zM186 127h338v1315h-209l-39 -1088q-3 -80 -23.5 -134.5t-66.5 -92.5z" />
<glyph unicode="&#x415;" horiz-adv-x="546" d="M80 31v1507q0 31 31 31h356q31 0 31 -31v-65q0 -31 -31 -31h-260v-588h246q30 0 30 -31v-65q0 -31 -30 -31h-246v-600h260q31 0 31 -31v-65q0 -31 -31 -31h-356q-31 0 -31 31z" />
<glyph unicode="&#x416;" horiz-adv-x="905" d="M25 31q13 334 223 760q-208 423 -221 747q-3 31 28 31h66q30 0 33 -31q18 -324 223 -733q9 -21 0 -41q-207 -414 -225 -733q-3 -31 -33 -31h-66q-31 0 -28 31zM389 31v1507q0 31 31 31h65q31 0 31 -31v-1507q0 -31 -31 -31h-65q-31 0 -31 31zM528 764q-9 20 0 41 q206 411 224 733q3 31 32 31h66q32 0 29 -31q-13 -322 -222 -747q211 -429 224 -760q3 -31 -29 -31h-66q-29 0 -32 31q-21 323 -226 733z" />
<glyph unicode="&#x417;" horiz-adv-x="600" d="M53 281v129q0 30 31 30h66q30 0 30 -30v-164q0 -80 33.5 -118t81.5 -38t81.5 38t33.5 118v370q0 41 -15.5 69t-41 41.5t-49 18.5t-48.5 5q-5 0 -34 -1t-48 -1q-31 -3 -31 28v60q0 30 33 30q31 -2 78 -2q26 0 49.5 5t49.5 18t41.5 41t15.5 69v328q0 80 -33.5 118t-81.5 38 t-81.5 -38t-33.5 -118v-172q0 -31 -30 -31h-66q-31 0 -31 31v137q0 160 65 233.5t179 73.5q240 0 240 -307v-215q0 -47 -2 -77.5t-10.5 -64.5t-25 -56t-45 -40.5t-69.5 -29.5q41 -13 69.5 -32.5t45 -41t25 -54.5t10.5 -63t2 -77v-258q0 -308 -240 -308q-114 0 -179 74 t-65 234z" />
<glyph unicode="&#x418;" horiz-adv-x="688" d="M80 31v1507q0 31 31 31h65q31 0 31 -31l-4 -1083l278 1087q6 27 33 27h64q30 0 30 -31v-1507q0 -31 -30 -31h-66q-31 0 -31 31l4 1067l-268 -1071q-6 -27 -33 -27h-73q-31 0 -31 31z" />
<glyph unicode="&#x419;" horiz-adv-x="688" d="M80 31v1507q0 31 31 31h65q31 0 31 -31l-4 -1083l278 1087q6 27 33 27h64q30 0 30 -31v-1507q0 -31 -30 -31h-66q-31 0 -31 31l4 1067l-268 -1071q-6 -27 -33 -27h-73q-31 0 -31 31zM160 1800q-1 15 7 24t23 9h21q23 0 33 -29q15 -67 104 -67q41 0 69.5 17t35.5 50 q10 29 32 29h19q15 0 23.5 -9t7.5 -24q-10 -69 -63.5 -108t-123.5 -39q-69 0 -122.5 39t-65.5 108z" />
<glyph unicode="&#x41a;" horiz-adv-x="595" d="M80 31v1507q0 31 31 31h65q31 0 31 -31v-1507q0 -31 -31 -31h-65q-31 0 -31 31zM219 764q-9 20 0 41q205 409 223 733q3 31 33 31h66q31 0 28 -31q-13 -324 -221 -747q210 -426 223 -760q3 -31 -28 -31h-66q-30 0 -33 31q-21 325 -225 733z" />
<glyph unicode="&#x41b;" horiz-adv-x="696" d="M10 6v55q0 31 8 31q48 0 81.5 38t33.5 118v1290q0 31 31 31h422q30 0 30 -31v-1507q0 -31 -30 -31h-66q-31 0 -31 31v1411h-229v-1163q0 -66 -11 -118t-31.5 -84t-43.5 -53.5t-52.5 -31.5t-53 -13.5t-50.5 -3.5q-8 0 -8 31z" />
<glyph unicode="&#x41c;" horiz-adv-x="897" d="M80 31v1507q0 31 31 31h135q30 0 33 -29l170 -1098l169 1098q3 29 33 29h135q31 0 31 -31v-1507q0 -31 -31 -31h-65q-31 0 -31 31l8 1249l-217 -1251q-3 -29 -32 -29h-25q-30 0 -33 29l-192 1259l8 -1257q0 -31 -31 -31h-65q-31 0 -31 31z" />
<glyph unicode="&#x41d;" horiz-adv-x="643" d="M80 31v1507q0 31 31 31h65q31 0 31 -31v-674h229v674q0 31 31 31h65q31 0 31 -31v-1507q0 -31 -31 -31h-65q-31 0 -31 31v706h-229v-706q0 -31 -31 -31h-65q-31 0 -31 31z" />
<glyph unicode="&#x41e;" horiz-adv-x="630" d="M74 301v967q0 96 17.5 162t51.5 101t75 49.5t97 14.5t97 -14.5t75.5 -49.5t52 -101t17.5 -162v-967q0 -96 -17.5 -162t-52 -101.5t-75.5 -50t-97 -14.5t-97 14.5t-75 50t-51.5 101.5t-17.5 162zM201 246q0 -78 32 -117t82 -39q51 0 83 39t32 117v1077q0 78 -32 117 t-83 39q-50 0 -82 -39t-32 -117v-1077z" />
<glyph unicode="&#x41f;" horiz-adv-x="643" d="M80 31v1507q0 31 31 31h421q31 0 31 -31v-1507q0 -31 -31 -31h-65q-31 0 -31 31v1411h-229v-1411q0 -31 -31 -31h-65q-31 0 -31 31z" />
<glyph unicode="&#x420;" horiz-adv-x="598" d="M80 31v1507q0 31 31 31h163q80 0 128.5 -12.5t84.5 -48t51 -100t15 -167.5v-242q0 -83 -10.5 -140t-30 -94t-55 -57.5t-78 -28t-105.5 -7.5h-67v-641q0 -31 -31 -31h-65q-31 0 -31 31zM207 799h104q60 0 87.5 35.5t27.5 119.5v332q0 85 -27.5 120.5t-87.5 35.5h-104v-643 z" />
<glyph unicode="&#x421;" horiz-adv-x="612" d="M74 301v967q0 96 17.5 162t51.5 101t75 49.5t97 14.5t97 -14.5t75.5 -49.5t52 -101t17.5 -162v-213q0 -31 -31 -31h-65q-31 0 -31 31v268q0 78 -32 117t-83 39q-50 0 -82 -39t-32 -117v-1077q0 -78 32 -117t82 -39q51 0 83 39t32 117v248q0 30 31 30h65q31 0 31 -30v-193 q0 -96 -17.5 -162t-52 -101.5t-75.5 -50t-97 -14.5t-97 14.5t-75 50t-51.5 101.5t-17.5 162z" />
<glyph unicode="&#x422;" horiz-adv-x="548" d="M16 1473v65q0 31 31 31h455q30 0 30 -31v-65q0 -31 -30 -31h-164v-1411q0 -31 -31 -31h-65q-31 0 -31 31v1411h-164q-31 0 -31 31z" />
<glyph unicode="&#x423;" horiz-adv-x="708" d="M-2 1534q-9 35 25 35h67q27 0 33 -27l203 -784l270 786q9 25 35 25h65q17 0 24 -10t1 -25l-528 -1509q-9 -25 -35 -25h-64q-17 0 -23.5 10t-0.5 25l190 536z" />
<glyph unicode="&#x424;" horiz-adv-x="749" d="M51 506v557q0 179 63.5 273.5t196.5 111.5v92q0 31 31 31h66q30 0 30 -31v-92q132 -17 196 -112t64 -273v-557q0 -178 -64 -273t-196 -112v-92q0 -31 -30 -31h-66q-31 0 -31 31v92q-133 17 -196.5 111.5t-63.5 273.5zM178 451q0 -76 32 -133t101 -76v1085 q-69 -19 -101 -76t-32 -133v-667zM438 242q68 19 100.5 76.5t32.5 132.5v667q0 75 -32.5 132.5t-100.5 76.5v-1085z" />
<glyph unicode="&#x425;" horiz-adv-x="612" d="M4 35l252 772l-240 727q-6 15 1 25t24 10h65q26 0 35 -25l170 -551l158 549q9 27 35 27h65q36 0 27 -35l-213 -729l217 -770q9 -35 -25 -35h-65q-27 0 -33 27l-166 602l-184 -604q-9 -25 -35 -25h-63q-17 0 -24 10t-1 25z" />
<glyph unicode="&#x426;" horiz-adv-x="673" d="M80 31v1507q0 31 31 31h65q31 0 31 -31v-1411h229v1411q0 31 31 31h65q31 0 31 -31v-1411h66q30 0 30 -31v-282q0 -31 -30 -31h-54q-30 0 -30 31v186h-434q-31 0 -31 31z" />
<glyph unicode="&#x427;" horiz-adv-x="602" d="M49 999v539q0 31 31 31h65q31 0 31 -31v-584q0 -99 30.5 -134.5t96.5 -35.5q51 0 92 25v729q0 31 31 31h66q30 0 30 -31v-1507q0 -31 -30 -31h-66q-31 0 -31 31v651q-55 -23 -121 -23q-78 0 -124.5 26.5t-73.5 102.5t-27 211z" />
<glyph unicode="&#x428;" horiz-adv-x="958" d="M80 31v1507q0 31 31 31h65q31 0 31 -31v-1411h209v1411q0 31 30 31h66q31 0 31 -31v-1411h209v1411q0 31 30 31h66q31 0 31 -31v-1507q0 -31 -31 -31h-737q-31 0 -31 31z" />
<glyph unicode="&#x429;" horiz-adv-x="989" d="M80 31v1507q0 31 31 31h65q31 0 31 -31v-1411h209v1411q0 31 30 31h66q31 0 31 -31v-1411h209v1411q0 31 30 31h66q31 0 31 -31v-1411h65q31 0 31 -31v-282q0 -31 -31 -31h-53q-31 0 -31 31v186h-749q-31 0 -31 31z" />
<glyph unicode="&#x42a;" horiz-adv-x="823" d="M14 1473v65q0 31 31 31h356q31 0 31 -31v-641h68q79 0 128 -12.5t85 -48t50.5 -100t14.5 -167.5v-241q0 -103 -14.5 -167.5t-50.5 -100t-85 -48t-128 -12.5h-164q-31 0 -31 31v1411h-260q-31 0 -31 31zM432 127h105q60 0 87 35.5t27 120.5v331q0 85 -27 120.5t-87 35.5 h-105v-643z" />
<glyph unicode="&#x42b;" horiz-adv-x="903" d="M80 31v1507q0 31 31 31h65q31 0 31 -31v-641h67q80 0 128.5 -12.5t84.5 -48t51 -100t15 -167.5v-241q0 -103 -15 -167.5t-51 -100t-84.5 -48t-128.5 -12.5h-163q-31 0 -31 31zM207 127h104q60 0 87.5 35.5t27.5 120.5v331q0 85 -27.5 120.5t-87.5 35.5h-104v-643zM696 31 v1507q0 31 31 31h66q30 0 30 -31v-1507q0 -31 -30 -31h-66q-31 0 -31 31z" />
<glyph unicode="&#x42c;" horiz-adv-x="598" d="M80 31v1507q0 31 31 31h65q31 0 31 -31v-641h67q80 0 128.5 -12.5t84.5 -48t51 -100t15 -167.5v-241q0 -103 -15 -167.5t-51 -100t-84.5 -48t-128.5 -12.5h-163q-31 0 -31 31zM207 127h104q60 0 87.5 35.5t27.5 120.5v331q0 85 -27.5 120.5t-87.5 35.5h-104v-643z" />
<glyph unicode="&#x42d;" horiz-adv-x="608" d="M51 301v109q0 30 31 30h65q31 0 31 -30v-164q0 -78 32 -117t83 -39t83 39t32 117v481h-244q-31 0 -31 31v65q0 31 31 31h244v469q0 78 -32 117t-83 39t-83 -39t-32 -117v-170q0 -31 -31 -31h-65q-31 0 -31 31v115q0 96 17.5 162t52 101t75.5 49.5t97 14.5t97 -14.5 t75.5 -49.5t52 -101t17.5 -162v-967q0 -96 -17.5 -162t-52 -101.5t-75.5 -50t-97 -14.5t-97 14.5t-75.5 50t-52 101.5t-17.5 162z" />
<glyph unicode="&#x42e;" horiz-adv-x="937" d="M80 31v1507q0 31 31 31h65q31 0 31 -31v-684h174v414q0 96 17.5 162t52 101t75.5 49.5t97 14.5t97 -14.5t75 -49.5t51.5 -101t17.5 -162v-967q0 -96 -17.5 -162t-51.5 -101.5t-75 -50t-97 -14.5t-97 14.5t-75.5 50t-52 101.5t-17.5 162v426h-174v-696q0 -31 -31 -31h-65 q-31 0 -31 31zM508 246q0 -78 32 -117t83 -39q50 0 82 39t32 117v1077q0 78 -32 117t-82 39q-51 0 -83 -39t-32 -117v-1077z" />
<glyph unicode="&#x42f;" horiz-adv-x="606" d="M23 35l182 661q-84 21 -118 95.5t-34 214.5v235q0 104 14 168t49.5 99.5t84 48t127.5 12.5h168q30 0 30 -31v-1507q0 -31 -30 -31h-66q-31 0 -31 31v651h-75l-179 -655q-6 -27 -32 -27h-66q-33 0 -24 35zM180 954q0 -84 27.5 -119.5t87.5 -35.5h104v643h-104 q-60 0 -87.5 -35.5t-27.5 -120.5v-332z" />
<glyph unicode="&#x430;" horiz-adv-x="514" d="M55 291v22q0 172 30.5 243t109.5 71q45 0 75.5 -23t55.5 -74v379q0 87 -16 121.5t-58 34.5t-58 -34.5t-16 -121.5v-88q0 -30 -31 -30h-61q-31 0 -31 30v78q0 151 42 215t157 64q106 0 150.5 -61.5t44.5 -217.5v-868q0 -31 -31 -31h-37q-29 0 -35 27l-12 67 q-9 -21 -19 -37t-27 -34.5t-42 -28.5t-56 -10q-75 0 -105 70t-30 237zM178 248q0 -80 15 -117t51 -37q82 0 82 176v86q0 152 -78 152q-39 0 -54.5 -35.5t-15.5 -120.5v-104z" />
<glyph unicode="&#x431;" horiz-adv-x="522" d="M66 225v740q0 176 18 277.5t57 158.5t113 100q67 38 156 66q27 9 39 -19l16 -32q13 -30 -16 -39q-107 -38 -158 -76q-59 -43 -79.5 -114t-27.5 -216q13 41 54.5 75t89.5 34q57 0 94 -59t37 -189v-707q0 -136 -52 -188.5t-145 -52.5t-144.5 52.5t-51.5 188.5zM188 211 q0 -115 74 -115t74 115v719q0 137 -68 137q-80 0 -80 -158v-698z" />
<glyph unicode="&#x432;" horiz-adv-x="522" d="M68 31v1099q0 31 30 31h166q94 0 145.5 -52t51.5 -189v-58q0 -49 -2 -78t-10 -64t-23 -56t-43.5 -40t-69.5 -30q27 -4 48.5 -12t37.5 -16.5t28 -23t20 -26t13.5 -32t8.5 -34t4.5 -39t1.5 -40.5v-45v-84q0 -136 -51.5 -189t-144.5 -53h-181q-30 0 -30 31zM190 113h89 q73 0 73 114v176q0 41 -14.5 69.5t-38.5 42t-46.5 19t-47.5 5.5h-15v-426zM190 649h13q17 0 37 5.5t43.5 18.5t39 42t15.5 69v150q0 115 -74 115h-74v-400z" />
<glyph unicode="&#x433;" horiz-adv-x="473" d="M68 31v1099q0 31 30 31h332q31 0 31 -31v-51q0 -30 -31 -30h-240v-1018q0 -31 -30 -31h-62q-30 0 -30 31z" />
<glyph unicode="&#x434;" horiz-adv-x="634" d="M14 74q0 22 23 35q78 42 84 155l29 864q3 31 32 31h330q31 0 31 -31v-1015h45q30 0 30 -31v-248q0 -31 -30 -31h-47q-31 0 -31 31v166h-371v-166q0 -31 -30 -31h-64q-31 0 -31 31v240zM176 113h244v936h-146l-28 -760q-3 -62 -18.5 -103.5t-51.5 -72.5z" />
<glyph unicode="&#x435;" horiz-adv-x="512" d="M63 225v711q0 137 51.5 189.5t145.5 52.5t145.5 -52.5t51.5 -189.5v-371q0 -30 -31 -30h-240v-324q0 -115 74 -115t74 115v141q0 31 31 31h61q31 0 31 -31v-127q0 -136 -52 -188.5t-145 -52.5t-145 52.5t-52 188.5zM186 645h148v305q0 115 -74 115t-74 -115v-305z" />
<glyph unicode="&#x436;" horiz-adv-x="778" d="M33 1130q0 31 30 31h66q31 0 31 -31q9 -254 155 -516q12 -20 0 -41q-146 -277 -155 -542q0 -31 -31 -31h-63q-31 0 -31 31q9 286 158 569q-151 260 -160 530zM330 31v1099q0 31 30 31h62q31 0 31 -31v-1099q0 -31 -31 -31h-62q-30 0 -30 31zM467 573q-12 21 0 41 q147 264 156 516q0 31 30 31h66q31 0 31 -31q-9 -270 -160 -530q149 -283 158 -569q0 -31 -31 -31h-64q-30 0 -30 31q-9 263 -156 542z" />
<glyph unicode="&#x437;" horiz-adv-x="491" d="M45 225v76q0 31 31 31h61q31 0 31 -31v-90q0 -115 74 -115q73 0 73 115v192q0 40 -15 69t-38 42.5t-43 19t-37 5.5h-39q-32 -3 -32 28v54q0 31 32 28h37q17 0 37 5.5t43.5 18.5t39 42t15.5 69v166q0 115 -73 115q-74 0 -74 -115v-61q0 -31 -31 -31h-61q-31 0 -31 31v47 q0 137 51.5 189.5t145.5 52.5q45 0 78 -10.5t61 -36t42.5 -74.5t14.5 -121v-74q0 -41 -1 -65.5t-5.5 -56t-14 -51t-25.5 -39.5t-41 -33.5t-60 -22.5q35 -11 60 -25.5t41 -34.5t25.5 -39t14 -49.5t5.5 -54.5t1 -65v-101q0 -136 -51.5 -188.5t-144.5 -52.5t-145 52.5 t-52 188.5z" />
<glyph unicode="&#x438;" horiz-adv-x="581" d="M68 31v1099q0 31 30 31h62q30 0 30 -31l-4 -761l191 766q6 26 33 26h73q31 0 31 -31v-1099q0 -31 -31 -31h-61q-31 0 -31 31l4 762l-190 -766q-6 -27 -33 -27h-74q-30 0 -30 31z" />
<glyph unicode="&#x439;" horiz-adv-x="581" d="M68 31v1099q0 31 30 31h62q30 0 30 -31l-4 -761l191 766q6 26 33 26h73q31 0 31 -31v-1099q0 -31 -31 -31h-61q-31 0 -31 31l4 762l-190 -766q-6 -27 -33 -27h-74q-30 0 -30 31zM98 1411q-1 15 7.5 24t23.5 9h21q22 0 32 -29q15 -67 105 -67q89 0 104 67q10 29 33 29h18 q15 0 23.5 -9t7.5 -24q-10 -69 -63 -108t-123 -39t-123.5 39t-65.5 108z" />
<glyph unicode="&#x43a;" horiz-adv-x="516" d="M68 31v1099q0 31 30 31h62q30 0 30 -31v-1099q0 -31 -30 -31h-62q-30 0 -30 31zM205 573q-12 21 0 41q146 262 155 516q0 31 31 31h66q30 0 30 -31q-9 -272 -159 -530q148 -281 157 -569q0 -31 -30 -31h-64q-31 0 -31 31q-9 265 -155 542z" />
<glyph unicode="&#x43b;" horiz-adv-x="550" d="M16 16v41q0 33 7 31h8q33 0 45 37t12 108v897q0 31 31 31h332q30 0 30 -31v-1099q0 -31 -30 -31h-62q-31 0 -31 31v1018h-147v-758q0 -163 -30.5 -234t-123.5 -71h-12q-29 0 -29 30z" />
<glyph unicode="&#x43c;" horiz-adv-x="753" d="M68 31v1099q0 31 30 31h74q29 0 35 -26l170 -785l170 785q6 26 35 26h73q31 0 31 -31v-1099q0 -31 -31 -31h-61q-31 0 -31 31l8 741l-149 -745q-6 -27 -35 -27h-20q-29 0 -35 27l-150 745l8 -741q0 -31 -30 -31h-62q-30 0 -30 31z" />
<glyph unicode="&#x43d;" d="M68 31v1099q0 31 30 31h62q30 0 30 -31v-483h148v483q0 31 31 31h61q31 0 31 -31v-1099q0 -31 -31 -31h-61q-31 0 -31 31v504h-148v-504q0 -31 -30 -31h-62q-30 0 -30 31z" />
<glyph unicode="&#x43e;" horiz-adv-x="520" d="M63 225v711q0 137 51.5 189.5t145.5 52.5t145.5 -52.5t51.5 -189.5v-711q0 -136 -52 -188.5t-145 -52.5t-145 52.5t-52 188.5zM186 211q0 -115 74 -115t74 115v739q0 115 -74 115t-74 -115v-739z" />
<glyph unicode="&#x43f;" d="M68 31v1099q0 31 30 31h332q31 0 31 -31v-1099q0 -31 -31 -31h-61q-31 0 -31 31v1018h-148v-1018q0 -31 -30 -31h-62q-30 0 -30 31z" />
<glyph unicode="&#x440;" horiz-adv-x="524" d="M70 -377v1507q0 31 30 31h37q29 0 35 -26l12 -68q49 111 144 111q75 0 105 -70.5t30 -237.5v-579q0 -167 -30 -237t-105 -70q-86 0 -135 92v-453q0 -31 -31 -31h-62q-30 0 -30 31zM193 270q0 -176 81 -176q36 0 51 37t15 117v665q0 80 -15 117t-51 37q-81 0 -81 -176 v-621z" />
<glyph unicode="&#x441;" horiz-adv-x="507" d="M63 225v711q0 137 51.5 189.5t145.5 52.5t145.5 -52.5t51.5 -189.5v-170q0 -31 -31 -31h-61q-31 0 -31 31v184q0 115 -74 115t-74 -115v-739q0 -115 74 -115t74 115v213q0 31 31 31h61q31 0 31 -31v-199q0 -136 -52 -188.5t-145 -52.5t-145 52.5t-52 188.5z" />
<glyph unicode="&#x442;" horiz-adv-x="522" d="M12 1079v51q0 31 31 31h436q31 0 31 -31v-51q0 -30 -31 -30h-157v-1018q0 -31 -31 -31h-62q-30 0 -30 31v1018h-156q-31 0 -31 30z" />
<glyph unicode="&#x443;" horiz-adv-x="499" d="M23 1128q-3 33 28 33h70q31 0 31 -28l98 -936l102 936q3 28 33 28h70q31 0 28 -33l-229 -1509q-3 -29 -33 -29h-67q-36 0 -29 33l57 314z" />
<glyph unicode="&#x444;" horiz-adv-x="708" d="M55 287v587q0 135 57 210t183 90v364q0 31 31 31h57q31 0 31 -31v-364q124 -15 181.5 -90.5t57.5 -209.5v-587q0 -134 -57.5 -209t-181.5 -90v-363q0 -31 -31 -31h-57q-31 0 -31 31v363q-126 15 -183 90t-57 209zM178 272q0 -138 117 -168v953q-117 -32 -117 -168v-617z M414 104q116 30 116 168v617q0 136 -116 168v-953z" />
<glyph unicode="&#x445;" horiz-adv-x="499" d="M25 35l161 559l-159 532q-5 15 2 25t24 10h58q25 0 34 -26l105 -367l100 367q9 26 35 26h61q17 0 24.5 -10t2.5 -25l-168 -534l172 -557q5 -15 -2 -25t-24 -10h-58q-26 0 -35 27l-116 401l-103 -401q-6 -27 -33 -27h-55q-35 0 -26 35z" />
<glyph unicode="&#x446;" horiz-adv-x="552" d="M70 31v1099q0 31 30 31h62q31 0 31 -31v-1017h147v1017q0 31 31 31h61q31 0 31 -31v-1017h41q31 0 31 -31v-248q0 -31 -31 -31h-47q-31 0 -31 31v166h-326q-30 0 -30 31z" />
<glyph unicode="&#x447;" horiz-adv-x="507" d="M47 778v352q0 31 31 31h61q31 0 31 -31v-395q0 -80 15 -116.5t51 -36.5q81 0 81 176v372q0 31 31 31h62q30 0 30 -31v-1099q0 -31 -30 -31h-62q-31 0 -31 31v551q-10 -22 -19 -37t-25 -34.5t-39.5 -29.5t-53.5 -10q-74 0 -103.5 70.5t-29.5 236.5z" />
<glyph unicode="&#x448;" horiz-adv-x="778" d="M68 31v1099q0 31 30 31h62q30 0 30 -31v-1017h138v1017q0 31 30 31h62q31 0 31 -31v-1017h137v1017q0 31 30 31h62q31 0 31 -31v-1099q0 -31 -31 -31h-582q-30 0 -30 31z" />
<glyph unicode="&#x449;" horiz-adv-x="802" d="M70 31v1099q0 31 30 31h62q31 0 31 -31v-1017h137v1017q0 31 30 31h62q31 0 31 -31v-1017h137v1017q0 31 31 31h61q31 0 31 -31v-1017h41q30 0 30 -31v-248q0 -31 -30 -31h-47q-31 0 -31 31v166h-576q-30 0 -30 31z" />
<glyph unicode="&#x44a;" horiz-adv-x="669" d="M12 1079v51q0 31 31 31h291q31 0 31 -31v-458h73q93 0 145 -53t52 -189v-188q0 -137 -51.5 -189.5t-145.5 -52.5h-166q-30 0 -30 31v1018h-199q-31 0 -31 30zM365 113h73q74 0 74 114v217q0 115 -74 115h-73v-446z" />
<glyph unicode="&#x44b;" horiz-adv-x="784" d="M68 31v1099q0 31 30 31h62q30 0 30 -31v-458h74q93 0 145 -53t52 -189v-188q0 -137 -51.5 -189.5t-145.5 -52.5h-166q-30 0 -30 31zM190 113h74q74 0 74 114v217q0 115 -74 115h-74v-446zM594 31v1099q0 31 31 31h61q31 0 31 -31v-1099q0 -31 -31 -31h-61q-31 0 -31 31z " />
<glyph unicode="&#x44c;" horiz-adv-x="495" d="M68 31v1099q0 31 30 31h62q30 0 30 -31v-458h74q93 0 145 -53t52 -189v-188q0 -137 -51.5 -189.5t-145.5 -52.5h-166q-30 0 -30 31zM190 113h74q74 0 74 114v217q0 115 -74 115h-74v-446z" />
<glyph unicode="&#x44d;" horiz-adv-x="499" d="M43 225v76q0 31 31 31h61q31 0 31 -31v-90q0 -115 74 -115q73 0 73 115v324h-194q-31 0 -31 30v51q0 31 31 31h194v303q0 115 -73 115q-74 0 -74 -115v-61q0 -31 -31 -31h-61q-31 0 -31 31v47q0 137 51.5 189.5t145.5 52.5q45 0 78 -10.5t61 -36t42.5 -74.5t14.5 -121 v-711q0 -136 -51.5 -188.5t-144.5 -52.5t-145 52.5t-52 188.5z" />
<glyph unicode="&#x44e;" horiz-adv-x="792" d="M70 31v1099q0 31 30 31h62q31 0 31 -31v-483h143v289q0 72 14.5 121t42.5 74.5t61 36t78 10.5q94 0 145.5 -52.5t51.5 -189.5v-711q0 -136 -52 -188.5t-145 -52.5t-144.5 52.5t-51.5 188.5v310h-143v-504q0 -31 -31 -31h-62q-30 0 -30 31zM459 211q0 -115 73 -115 q74 0 74 115v739q0 115 -74 115q-73 0 -73 -115v-739z" />
<glyph unicode="&#x44f;" horiz-adv-x="512" d="M25 35l127 477q-101 45 -101 225v183q0 137 51.5 189t145.5 52h166q30 0 30 -31v-1099q0 -31 -30 -31h-62q-30 0 -30 31v465h-62l-125 -469q-6 -27 -33 -27h-51q-32 0 -26 35zM174 723q0 -115 74 -115h74v441h-74q-74 0 -74 -115v-211z" />
<glyph unicode="&#x451;" horiz-adv-x="509" d="M35 1382q0 37 25.5 62.5t62.5 25.5t62.5 -25.5t25.5 -62.5t-25.5 -62.5t-62.5 -25.5t-62.5 25.5t-25.5 62.5zM61 225v711q0 137 51.5 189.5t145.5 52.5t145.5 -52.5t51.5 -189.5v-371q0 -30 -31 -30h-240v-324q0 -115 74 -115t74 115v141q0 31 30 31h62q31 0 31 -31v-127 q0 -136 -52 -188.5t-145 -52.5t-145 52.5t-52 188.5zM184 645h148v305q0 115 -74 115t-74 -115v-305zM303 1382q0 37 25.5 62.5t62.5 25.5t62.5 -25.5t25.5 -62.5t-25.5 -62.5t-62.5 -25.5t-62.5 25.5t-25.5 62.5z" />
<glyph unicode="&#x452;" horiz-adv-x="526" d="M-2 1368v45q0 31 31 31h39v94q0 31 30 31h62q30 0 30 -31v-94h164q31 0 31 -31v-45q0 -31 -31 -31h-164v-270q10 22 19 37.5t25.5 34.5t40 29t53.5 10q74 0 103.5 -71t29.5 -237v-1005q0 -150 -35.5 -218.5t-140.5 -68.5q-20 0 -56 4q-26 6 -26 35v43q0 14 4.5 22t13.5 7 h17q29 0 48 7.5t29.5 18t15.5 34t6 42t1 55.5v1067q0 80 -15 117t-51 37q-82 0 -82 -176v-860q0 -31 -30 -31h-62q-30 0 -30 31v1306h-39q-31 0 -31 31z" />
<glyph unicode="&#x453;" horiz-adv-x="473" d="M68 31v1099q0 31 30 31h332q31 0 31 -31v-51q0 -30 -31 -30h-240v-1018q0 -31 -30 -31h-62q-30 0 -30 31zM210 1325q-6 10 1 27l63 147q10 23 35 23h78q18 0 24 -11t-3 -26l-93 -150q-11 -20 -36 -20h-46q-17 0 -23 10z" />
<glyph unicode="&#x454;" horiz-adv-x="499" d="M63 225v711q0 137 51.5 189.5t145.5 52.5t145.5 -52.5t51.5 -189.5v-47q0 -31 -31 -31h-61q-31 0 -31 31v61q0 115 -74 115t-74 -115v-303h195q31 0 31 -31v-51q0 -30 -31 -30h-195v-324q0 -115 74 -115t74 115v90q0 31 31 31h61q31 0 31 -31v-76q0 -136 -52 -188.5 t-145 -52.5t-145 52.5t-52 188.5z" />
<glyph unicode="&#x455;" horiz-adv-x="512" d="M49 270v82q0 31 31 31h61q31 0 31 -31v-106q0 -85 15 -117.5t61 -32.5q49 0 70.5 34.5t21.5 111.5q0 69 -16 121.5t-41.5 86t-56.5 63.5t-62.5 62.5t-57 73t-41.5 106t-16 150.5q0 83 14.5 138.5t44 84t64.5 39.5t84 11q109 0 158 -58t49 -209v-106q0 -31 -31 -31h-61 q-31 0 -31 31v104q0 91 -16.5 123.5t-65.5 32.5q-47 0 -66.5 -30t-19.5 -113q0 -77 16 -134t41.5 -91.5t56.5 -63t62.5 -59t57 -68t41.5 -101.5t16 -149q0 -153 -51.5 -212.5t-161.5 -59.5q-115 0 -158 62.5t-43 223.5z" />
<glyph unicode="&#x456;" horiz-adv-x="258" d="M37 1403q0 38 27 65t65 27t65 -27t27 -65t-27 -65t-65 -27t-65 27t-27 65zM68 31v1099q0 31 30 31h62q30 0 30 -31v-1099q0 -31 -30 -31h-62q-30 0 -30 31z" />
<glyph unicode="&#x457;" horiz-adv-x="258" d="M-92 1382q0 37 25.5 62.5t62.5 25.5t62.5 -25.5t25.5 -62.5t-25.5 -62.5t-62.5 -25.5t-62.5 25.5t-25.5 62.5zM68 31v1099q0 31 30 31h62q30 0 30 -31v-1099q0 -31 -30 -31h-62q-30 0 -30 31zM176 1382q0 37 25.5 62.5t62.5 25.5t62.5 -25.5t25.5 -62.5t-25.5 -62.5 t-62.5 -25.5t-62.5 25.5t-25.5 62.5z" />
<glyph unicode="&#x458;" horiz-adv-x="258" d="M-68 -340q0 14 5 22t14 7h16q29 0 48 7.5t29.5 18t16 33.5t6.5 42.5t1 55.5v1284q0 31 30 31h62q30 0 30 -31v-1265q0 -150 -35.5 -218.5t-140.5 -68.5q-19 0 -55 4q-27 6 -27 35v43zM37 1403q0 38 27 65t65 27t65 -27t27 -65t-27 -65t-65 -27t-65 27t-27 65z" />
<glyph unicode="&#x459;" horiz-adv-x="788" d="M16 16v41q0 33 7 31h8q33 0 45 37t12 108v897q0 31 31 31h332q30 0 30 -31v-458h74q93 0 145 -53t52 -189v-188q0 -137 -51.5 -189.5t-145.5 -52.5h-166q-31 0 -31 31v1018h-147v-758q0 -163 -30.5 -234t-123.5 -71h-12q-29 0 -29 30zM481 113h74q74 0 74 114v217 q0 115 -74 115h-74v-446z" />
<glyph unicode="&#x45a;" horiz-adv-x="765" d="M68 31v1099q0 31 30 31h62q30 0 30 -31v-460h148v460q0 31 31 31h61q31 0 31 -31v-458h74q93 0 144.5 -53t51.5 -189v-188q0 -72 -14.5 -121t-42.5 -74.5t-61 -36t-78 -10.5h-166q-31 0 -31 31v526h-148v-526q0 -31 -30 -31h-62q-30 0 -30 31zM461 113h74q73 0 73 114 v217q0 115 -73 115h-74v-446z" />
<glyph unicode="&#x45b;" horiz-adv-x="526" d="M-2 1368v45q0 31 31 31h39v94q0 31 30 31h62q30 0 30 -31v-94h164q31 0 31 -31v-45q0 -31 -31 -31h-164v-270q10 22 19 37.5t25.5 34.5t40 29t53.5 10q74 0 103.5 -71t29.5 -237v-839q0 -31 -31 -31h-61q-31 0 -31 31v882q0 80 -15 117t-51 37q-82 0 -82 -176v-860 q0 -31 -30 -31h-62q-30 0 -30 31v1306h-39q-31 0 -31 31z" />
<glyph unicode="&#x45c;" horiz-adv-x="516" d="M68 31v1099q0 31 30 31h62q30 0 30 -31v-1099q0 -31 -30 -31h-62q-30 0 -30 31zM205 573q-12 21 0 41q146 262 155 516q0 31 31 31h66q30 0 30 -31q-9 -272 -159 -530q148 -281 157 -569q0 -31 -30 -31h-64q-31 0 -31 31q-9 265 -155 542zM235 1325q-6 10 1 27l63 147 q10 23 35 23h78q18 0 23.5 -11t-3.5 -26l-92 -150q-11 -20 -37 -20h-45q-17 0 -23 10z" />
<glyph unicode="&#x45e;" horiz-adv-x="499" d="M23 1128q-3 33 28 33h70q31 0 31 -28l98 -936l102 936q3 28 33 28h70q31 0 28 -33l-229 -1509q-3 -29 -33 -29h-67q-36 0 -29 33l57 314zM63 1452q-1 15 7.5 24t23.5 9h21q22 0 32 -29q15 -67 105 -67q89 0 104 67q10 29 33 29h19q15 0 23 -9t7 -24q-10 -69 -63 -108 t-123 -39t-123.5 39t-65.5 108z" />
<glyph unicode="&#x45f;" d="M68 31v1099q0 31 30 31h62q30 0 30 -31v-1017h148v1017q0 31 31 31h61q31 0 31 -31v-1099q0 -31 -31 -31h-111v-166q0 -31 -30 -31h-47q-31 0 -31 31v166h-113q-30 0 -30 31z" />
<glyph unicode="&#x490;" horiz-adv-x="512" d="M80 31v1507q0 31 31 31h272v186q0 31 31 31h53q31 0 31 -31v-282q0 -31 -31 -31h-260v-1411q0 -31 -31 -31h-65q-31 0 -31 31z" />
<glyph unicode="&#x491;" horiz-adv-x="475" d="M70 31v1099q0 31 30 31h254v166q0 31 31 31h47q31 0 31 -31v-248q0 -30 -31 -30h-239v-1018q0 -31 -31 -31h-62q-30 0 -30 31z" />
<glyph unicode="&#x1e02;" horiz-adv-x="628" d="M80 31v1507q0 31 31 31h182q149 0 204.5 -69t55.5 -255v-201q0 -200 -150 -237q85 -18 127.5 -88t42.5 -164v-227q0 -102 -14.5 -166t-50.5 -100t-85 -49t-128 -13h-184q-31 0 -31 31zM205 1790q0 37 25.5 62.5t62.5 25.5t62.5 -25.5t25.5 -62.5t-25.5 -62.5t-62.5 -25.5 t-62.5 25.5t-25.5 62.5zM207 127h125q60 0 87 35.5t27 120.5v301q0 155 -135 155h-104v-612zM207 866h104q60 0 87.5 35.5t27.5 120.5v268q0 84 -27.5 118t-87.5 34h-104v-576z" />
<glyph unicode="&#x1e03;" horiz-adv-x="524" d="M70 31v1507q0 31 30 31h62q31 0 31 -31v-471q49 111 135 111q75 0 105 -70.5t30 -237.5v-579q0 -167 -30 -237t-105 -70q-31 0 -56 10t-42 28.5t-27 34.5t-19 37l-12 -67q-6 -27 -35 -27h-37q-30 0 -30 31zM193 270q0 -176 81 -176q36 0 51 37t15 117v665q0 80 -15 117 t-51 37q-81 0 -81 -176v-621zM274 1481q0 37 25.5 62.5t62.5 25.5t63 -25.5t26 -62.5t-26 -62.5t-63 -25.5t-62.5 25.5t-25.5 62.5z" />
<glyph unicode="&#x1e0a;" horiz-adv-x="626" d="M80 31v1507q0 31 31 31h163q80 0 128.5 -12.5t84.5 -48t51 -100t15 -167.5v-913q0 -103 -15 -167.5t-51 -100t-84.5 -48t-128.5 -12.5h-163q-31 0 -31 31zM207 127h104q60 0 87.5 35.5t27.5 120.5v1003q0 85 -27.5 120.5t-87.5 35.5h-104v-1315zM211 1790q0 37 25.5 62.5 t62.5 25.5t62.5 -25.5t25.5 -62.5t-25.5 -62.5t-62.5 -25.5t-62.5 25.5t-25.5 62.5z" />
<glyph unicode="&#x1e0b;" horiz-adv-x="524" d="M57 1481q0 37 25.5 62.5t62.5 25.5t62.5 -25.5t25.5 -62.5t-25.5 -62.5t-62.5 -25.5t-62.5 25.5t-25.5 62.5zM61 291v579q0 167 30.5 237.5t105.5 70.5q86 0 135 -111v471q0 31 30 31h62q31 0 31 -31v-1507q0 -31 -31 -31h-37q-29 0 -35 27l-12 67q-13 -30 -26.5 -50 t-44.5 -40t-72 -20q-76 0 -106 70t-30 237zM184 248q0 -80 15 -117t51 -37q82 0 82 176v621q0 176 -82 176q-36 0 -51 -37t-15 -117v-665z" />
<glyph unicode="&#x1e1e;" horiz-adv-x="538" d="M80 31v1507q0 31 31 31h356q31 0 31 -31v-65q0 -31 -31 -31h-260v-588h246q30 0 30 -31v-65q0 -31 -30 -31h-246v-696q0 -31 -31 -31h-65q-31 0 -31 31zM205 1790q0 37 25.5 62.5t62.5 25.5t62.5 -25.5t25.5 -62.5t-25.5 -62.5t-62.5 -25.5t-62.5 25.5t-25.5 62.5z" />
<glyph unicode="&#x1e1f;" horiz-adv-x="372" d="M4 1079v51q0 31 31 31h82v113q0 173 39 240t135 67q21 0 57 -4q27 -6 27 -35v-43q0 -29 -25 -29h-22q-55 0 -71.5 -29.5t-16.5 -109.5v-170h102q31 0 31 -31v-51q0 -30 -31 -30h-102v-1018q0 -31 -31 -31h-62q-30 0 -30 31v1018h-82q-31 0 -31 30zM152 1786 q0 37 25.5 62.5t62.5 25.5t62.5 -25.5t25.5 -62.5t-25.5 -62.5t-62.5 -25.5t-62.5 25.5t-25.5 62.5z" />
<glyph unicode="&#x1e22;" horiz-adv-x="643" d="M80 31v1507q0 31 31 31h65q31 0 31 -31v-674h229v674q0 31 31 31h65q31 0 31 -31v-1507q0 -31 -31 -31h-65q-31 0 -31 31v706h-229v-706q0 -31 -31 -31h-65q-31 0 -31 31zM233 1790q0 37 26 62.5t63 25.5t62.5 -25.5t25.5 -62.5t-25.5 -62.5t-62.5 -25.5t-63 25.5 t-26 62.5z" />
<glyph unicode="&#x1e23;" horiz-adv-x="526" d="M68 31v1507q0 31 30 31h62q30 0 30 -31v-471q10 22 19 37.5t25.5 34.5t40 29t53.5 10q74 0 103.5 -71t29.5 -237v-839q0 -31 -31 -31h-61q-31 0 -31 31v882q0 80 -15 117t-51 37q-82 0 -82 -176v-860q0 -31 -30 -31h-62q-30 0 -30 31zM281 1481q0 37 25.5 62.5t62.5 25.5 t62.5 -25.5t25.5 -62.5t-25.5 -62.5t-62.5 -25.5t-62.5 25.5t-25.5 62.5z" />
<glyph unicode="&#x1e40;" horiz-adv-x="897" d="M80 31v1507q0 31 31 31h135q30 0 33 -29l170 -1098l169 1098q3 29 33 29h135q31 0 31 -31v-1507q0 -31 -31 -31h-65q-31 0 -31 31l8 1249l-217 -1251q-3 -29 -32 -29h-25q-30 0 -33 29l-192 1259l8 -1257q0 -31 -31 -31h-65q-31 0 -31 31zM360 1790q0 37 26 62.5t63 25.5 t62.5 -25.5t25.5 -62.5t-25.5 -62.5t-62.5 -25.5t-63 25.5t-26 62.5z" />
<glyph unicode="&#x1e41;" horiz-adv-x="798" d="M70 31v1099q0 31 30 31h37q29 0 35 -26l12 -68q49 111 144 111q51 0 80 -30.5t43 -96.5q24 59 56 93t91 34q75 0 105 -70.5t30 -237.5v-839q0 -31 -31 -31h-61q-31 0 -31 31v882q0 80 -14.5 117t-50.5 37q-82 0 -82 -166v-870q0 -31 -31 -31h-61q-31 0 -31 31v882 q0 80 -15 117t-51 37q-81 0 -81 -176v-860q0 -31 -31 -31h-62q-30 0 -30 31zM309 1382q0 37 25.5 62.5t62.5 25.5t62.5 -25.5t25.5 -62.5t-25.5 -62.5t-62.5 -25.5t-62.5 25.5t-25.5 62.5z" />
<glyph unicode="&#x1e56;" horiz-adv-x="598" d="M80 31v1507q0 31 31 31h163q80 0 128.5 -12.5t84.5 -48t51 -100t15 -167.5v-242q0 -83 -10.5 -140t-30 -94t-55 -57.5t-78 -28t-105.5 -7.5h-67v-641q0 -31 -31 -31h-65q-31 0 -31 31zM207 799h104q60 0 87.5 35.5t27.5 119.5v332q0 85 -27.5 120.5t-87.5 35.5h-104v-643 zM207 1790q0 37 25.5 62.5t62.5 25.5t62.5 -25.5t25.5 -62.5t-25.5 -62.5t-62.5 -25.5t-62.5 25.5t-25.5 62.5z" />
<glyph unicode="&#x1e57;" horiz-adv-x="524" d="M70 -377v1507q0 31 30 31h37q29 0 35 -26l12 -68q49 111 144 111q75 0 105 -70.5t30 -237.5v-579q0 -167 -30 -237t-105 -70q-86 0 -135 92v-453q0 -31 -31 -31h-62q-30 0 -30 31zM172 1382q0 37 25.5 62.5t62.5 25.5t62.5 -25.5t25.5 -62.5t-25.5 -62.5t-62.5 -25.5 t-62.5 25.5t-25.5 62.5zM193 270q0 -176 81 -176q36 0 51 37t15 117v665q0 80 -15 117t-51 37q-81 0 -81 -176v-621z" />
<glyph unicode="&#x1e60;" horiz-adv-x="604" d="M59 322v172q0 30 31 30h66q30 0 30 -30v-248q0 -80 33.5 -118t81.5 -38t81.5 38t33.5 118v211q0 59 -37 118t-89 111.5t-104.5 109.5t-89.5 134t-37 162v200q0 303 242 303t242 -307v-235q0 -31 -31 -31h-66q-30 0 -30 31v270q0 80 -33.5 118t-81.5 38t-81.5 -38 t-33.5 -118v-213q0 -77 37 -143t89 -116.5t104.5 -101.5t89.5 -120t37 -150v-157q0 -180 -53 -264.5t-189 -84.5t-189 85.5t-53 263.5zM213 1790q0 37 25.5 62.5t62.5 25.5t62.5 -25.5t25.5 -62.5t-25.5 -62.5t-62.5 -25.5t-62.5 25.5t-25.5 62.5z" />
<glyph unicode="&#x1e61;" horiz-adv-x="503" d="M45 270v82q0 31 31 31h61q31 0 31 -31v-106q0 -85 15 -117.5t61 -32.5q49 0 70.5 34.5t21.5 111.5q0 69 -16 121.5t-41.5 86t-56.5 63.5t-62.5 62.5t-57 73t-41.5 106t-16 150.5q0 83 14.5 138.5t44 84t64.5 39.5t84 11q109 0 158 -58t49 -209v-106q0 -31 -31 -31h-61 q-31 0 -31 31v104q0 91 -16.5 123.5t-65.5 32.5q-47 0 -66.5 -30t-19.5 -113q0 -77 16 -134t41.5 -91.5t56.5 -63t62.5 -59t57 -68t41.5 -101.5t16 -149q0 -153 -51.5 -212.5t-161.5 -59.5q-115 0 -158 62.5t-43 223.5zM164 1382q0 37 25.5 62.5t62.5 25.5t62.5 -25.5 t25.5 -62.5t-25.5 -62.5t-62.5 -25.5t-62.5 25.5t-25.5 62.5z" />
<glyph unicode="&#x1e6a;" horiz-adv-x="548" d="M16 1473v65q0 31 31 31h455q30 0 30 -31v-65q0 -31 -30 -31h-164v-1411q0 -31 -31 -31h-65q-31 0 -31 31v1411h-164q-31 0 -31 31zM186 1790q0 37 25.5 62.5t62.5 25.5t62.5 -25.5t25.5 -62.5t-25.5 -62.5t-62.5 -25.5t-62.5 25.5t-25.5 62.5z" />
<glyph unicode="&#x1e6b;" horiz-adv-x="364" d="M8 1079v51q0 31 31 31h61v256q0 31 31 31h62q30 0 30 -31v-256h103q30 0 30 -31v-51q0 -30 -30 -30h-103v-816q0 -80 16.5 -109.5t71.5 -29.5h15q32 0 32 -28v-43q0 -29 -26 -35q-36 -4 -60 -4q-105 0 -138.5 66.5t-33.5 240.5v758h-61q-31 0 -31 30zM74 1649 q0 37 25.5 62.5t62.5 25.5t62.5 -25.5t25.5 -62.5t-25.5 -62.5t-62.5 -25.5t-62.5 25.5t-25.5 62.5z" />
<glyph unicode="&#x1e80;" horiz-adv-x="935" d="M27 1536q-3 33 28 33h66q28 0 31 -29l114 -1270l133 1270q0 13 8.5 21t22.5 8h74q14 0 22.5 -8t8.5 -21l135 -1270l112 1270q3 29 31 29h66q31 0 28 -33l-162 -1507q-3 -29 -32 -29h-86q-30 0 -33 29l-127 1153l-125 -1153q-3 -29 -33 -29h-86q-30 0 -33 29zM326.5 1918 q5.5 11 23.5 11h78q26 0 35 -22l63 -148q7 -17 1 -27t-23 -10h-45q-25 0 -37 21l-92 149q-9 15 -3.5 26z" />
<glyph unicode="&#x1e81;" horiz-adv-x="804" d="M20 1128q-3 33 29 33h70q28 0 31 -28l90 -887l92 887q3 28 30 28h80q28 0 31 -28l92 -887l90 887q3 28 31 28h70q31 0 28 -33l-149 -1099q-3 -29 -33 -29h-78q-29 0 -32 29l-91 833l-88 -833q-3 -29 -32 -29h-78q-30 0 -33 29zM257 1511q6 11 24 11h77q25 0 35 -23 l64 -147q7 -17 0.5 -27t-23.5 -10h-45q-26 0 -37 20l-92 150q-9 15 -3 26z" />
<glyph unicode="&#x1e82;" horiz-adv-x="935" d="M27 1536q-3 33 28 33h66q28 0 31 -29l114 -1270l133 1270q0 13 8.5 21t22.5 8h74q14 0 22.5 -8t8.5 -21l135 -1270l112 1270q3 29 31 29h66q31 0 28 -33l-162 -1507q-3 -29 -32 -29h-86q-30 0 -33 29l-127 1153l-125 -1153q-3 -29 -33 -29h-86q-30 0 -33 29zM425.5 1732 q-6.5 10 0.5 27l63 148q9 22 35 22h78q18 0 24 -11t-3 -26l-93 -149q-12 -21 -36 -21h-45q-17 0 -23.5 10z" />
<glyph unicode="&#x1e83;" horiz-adv-x="804" d="M20 1128q-3 33 29 33h70q28 0 31 -28l90 -887l92 887q3 28 30 28h80q28 0 31 -28l92 -887l90 887q3 28 31 28h70q31 0 28 -33l-149 -1099q-3 -29 -33 -29h-78q-29 0 -32 29l-91 833l-88 -833q-3 -29 -32 -29h-78q-30 0 -33 29zM351.5 1325q-6.5 10 0.5 27l64 147 q10 23 35 23h77q18 0 24 -11t-3 -26l-92 -150q-11 -20 -37 -20h-45q-17 0 -23.5 10z" />
<glyph unicode="&#x1e84;" horiz-adv-x="935" d="M27 1536q-3 33 28 33h66q28 0 31 -29l114 -1270l133 1270q0 13 8.5 21t22.5 8h74q14 0 22.5 -8t8.5 -21l135 -1270l112 1270q3 29 31 29h66q31 0 28 -33l-162 -1507q-3 -29 -32 -29h-86q-30 0 -33 29l-127 1153l-125 -1153q-3 -29 -33 -29h-86q-30 0 -33 29zM244 1790 q0 37 25.5 62.5t62.5 25.5t62.5 -25.5t25.5 -62.5t-25.5 -62.5t-62.5 -25.5t-62.5 25.5t-25.5 62.5zM512 1790q0 37 25.5 62.5t62.5 25.5t62.5 -25.5t25.5 -62.5t-25.5 -62.5t-62.5 -25.5t-62.5 25.5t-25.5 62.5z" />
<glyph unicode="&#x1e85;" horiz-adv-x="804" d="M20 1128q-3 33 29 33h70q28 0 31 -28l90 -887l92 887q3 28 30 28h80q28 0 31 -28l92 -887l90 887q3 28 31 28h70q31 0 28 -33l-149 -1099q-3 -29 -33 -29h-78q-29 0 -32 29l-91 833l-88 -833q-3 -29 -32 -29h-78q-30 0 -33 29zM180 1382q0 37 25.5 62.5t62.5 25.5 t62.5 -25.5t25.5 -62.5t-25.5 -62.5t-62.5 -25.5t-62.5 25.5t-25.5 62.5zM449 1382q0 37 25.5 62.5t62.5 25.5t62.5 -25.5t25.5 -62.5t-25.5 -62.5t-62.5 -25.5t-62.5 25.5t-25.5 62.5z" />
<glyph unicode="&#x1ef2;" horiz-adv-x="606" d="M27 1534q-9 35 26 35h66q29 0 35 -27l149 -735l150 735q6 27 34 27h66q36 0 27 -35l-215 -948v-555q0 -31 -31 -31h-62q-30 0 -30 31v555zM162.5 1918q5.5 11 23.5 11h78q26 0 35 -22l63 -148q7 -17 1 -27t-23 -10h-45q-25 0 -37 21l-92 149q-9 15 -3.5 26z" />
<glyph unicode="&#x1ef3;" horiz-adv-x="501" d="M27 1128q-3 33 28 33h70q31 0 31 -28l98 -936l102 936q3 28 33 28h70q31 0 28 -33l-229 -1509q-3 -29 -33 -29h-67q-36 0 -29 33l57 314zM126 1511q6 11 24 11h77q25 0 35 -23l64 -147q7 -17 0.5 -27t-23.5 -10h-45q-26 0 -37 20l-92 150q-9 15 -3 26z" />
<glyph unicode="&#x2000;" horiz-adv-x="968" />
<glyph unicode="&#x2001;" horiz-adv-x="1937" />
<glyph unicode="&#x2002;" horiz-adv-x="968" />
<glyph unicode="&#x2003;" horiz-adv-x="1937" />
<glyph unicode="&#x2004;" horiz-adv-x="645" />
<glyph unicode="&#x2005;" horiz-adv-x="484" />
<glyph unicode="&#x2006;" horiz-adv-x="322" />
<glyph unicode="&#x2007;" horiz-adv-x="322" />
<glyph unicode="&#x2008;" horiz-adv-x="242" />
<glyph unicode="&#x2009;" horiz-adv-x="387" />
<glyph unicode="&#x200a;" horiz-adv-x="107" />
<glyph unicode="&#x2010;" horiz-adv-x="395" d="M66 571v54q0 30 30 30h203q31 0 31 -30v-54q0 -30 -31 -30h-203q-30 0 -30 30z" />
<glyph unicode="&#x2011;" horiz-adv-x="395" d="M66 571v54q0 30 30 30h203q31 0 31 -30v-54q0 -30 -31 -30h-203q-30 0 -30 30z" />
<glyph unicode="&#x2012;" horiz-adv-x="395" d="M66 571v54q0 30 30 30h203q31 0 31 -30v-54q0 -30 -31 -30h-203q-30 0 -30 30z" />
<glyph unicode="&#x2013;" horiz-adv-x="524" d="M66 571v54q0 30 30 30h332q31 0 31 -30v-54q0 -30 -31 -30h-332q-30 0 -30 30z" />
<glyph unicode="&#x2014;" horiz-adv-x="794" d="M66 571v54q0 30 30 30h602q31 0 31 -30v-54q0 -30 -31 -30h-602q-30 0 -30 30z" />
<glyph unicode="&#x2015;" horiz-adv-x="2179" d="M66 571v54q0 30 30 30h1987q31 0 31 -30v-54q0 -30 -31 -30h-1987q-30 0 -30 30z" />
<glyph unicode="&#x2018;" horiz-adv-x="321" d="M52.5 1132q-6.5 10 0.5 27l166 387q10 23 35 23h10q33 0 27 -35l-98 -385q-6 -27 -33 -27h-84q-17 0 -23.5 10z" />
<glyph unicode="&#x2019;" horiz-adv-x="315" d="M49 1157l98 385q6 27 33 27h84q17 0 23.5 -10t-0.5 -27l-166 -387q-10 -23 -35 -23h-10q-33 0 -27 35z" />
<glyph unicode="&#x201a;" horiz-adv-x="382" d="M45 -242l98 385q6 27 33 27h84q17 0 23.5 -10t-0.5 -27l-166 -387q-9 -22 -35 -22h-10q-33 0 -27 34z" />
<glyph unicode="&#x201c;" horiz-adv-x="577" d="M52.5 1132q-6.5 10 0.5 27l166 387q10 23 35 23h10q33 0 27 -35l-98 -385q-6 -27 -33 -27h-84q-17 0 -23.5 10zM308.5 1132q-6.5 10 0.5 27l166 387q10 23 35 23h10q33 0 27 -35l-98 -385q-6 -27 -33 -27h-84q-17 0 -23.5 10z" />
<glyph unicode="&#x201d;" horiz-adv-x="571" d="M49 1157l98 385q6 27 33 27h84q17 0 23.5 -10t-0.5 -27l-166 -387q-10 -23 -35 -23h-10q-33 0 -27 35zM305 1157l98 385q6 27 33 27h84q17 0 23.5 -10t-0.5 -27l-166 -387q-10 -23 -35 -23h-10q-33 0 -27 35z" />
<glyph unicode="&#x201e;" horiz-adv-x="638" d="M45 -242l98 385q6 27 33 27h84q17 0 23.5 -10t-0.5 -27l-166 -387q-9 -22 -35 -22h-10q-33 0 -27 34zM301 -242l98 385q6 27 33 27h84q17 0 23.5 -10t-0.5 -27l-166 -387q-9 -22 -35 -22h-10q-33 0 -27 34z" />
<glyph unicode="&#x2020;" horiz-adv-x="598" d="M33 1079v51q0 32 30 29l185 -8l-19 387q-3 31 29 31h82q32 0 29 -31l-21 -387l187 8q30 3 30 -29v-51q0 -31 -30 -28l-175 8l-20 -1151q0 -31 -31 -31h-20q-31 0 -31 31l-20 1151l-175 -8q-30 -3 -30 28z" />
<glyph unicode="&#x2021;" horiz-adv-x="610" d="M39 670v51q0 32 31 29l180 -9q-6 71 -6 140q0 99 8 178l-182 -8q-31 -3 -31 28v51q0 32 31 29l184 -8l-18 387q-3 31 28 31h82q32 0 29 -31l-21 -387l187 8q30 3 30 -29v-51q0 -31 -30 -28l-183 8q7 -100 7 -170q0 -62 -7 -148l183 9q30 3 30 -29v-51q0 -32 -30 -29 l-183 6l-12 -739q0 -31 -31 -31h-20q-31 0 -31 31l-14 739l-180 -6q-31 -3 -31 29z" />
<glyph unicode="&#x2022;" horiz-adv-x="550" d="M82 786q0 79 56.5 136t137.5 57q29 0 59.5 -9.5t61.5 -29.5t50.5 -60t19.5 -94q0 -87 -56.5 -139.5t-131.5 -52.5q-83 0 -140 54t-57 138z" />
<glyph unicode="&#x2024;" horiz-adv-x="303" d="M66 70q0 35 25.5 60.5t60.5 25.5t60.5 -25.5t25.5 -60.5t-25.5 -60.5t-60.5 -25.5t-60.5 25.5t-25.5 60.5z" />
<glyph unicode="&#x2025;" horiz-adv-x="606" d="M66 70q0 35 25.5 60.5t60.5 25.5t60.5 -25.5t25.5 -60.5t-25.5 -60.5t-60.5 -25.5t-60.5 25.5t-25.5 60.5zM369 70q0 35 25.5 60.5t60.5 25.5t60.5 -25.5t25.5 -60.5t-25.5 -60.5t-60.5 -25.5t-60.5 25.5t-25.5 60.5z" />
<glyph unicode="&#x2026;" horiz-adv-x="909" d="M66 70q0 35 25.5 60.5t60.5 25.5t60.5 -25.5t25.5 -60.5t-25.5 -60.5t-60.5 -25.5t-60.5 25.5t-25.5 60.5zM369 70q0 35 25.5 60.5t60.5 25.5t60.5 -25.5t25.5 -60.5t-25.5 -60.5t-60.5 -25.5t-60.5 25.5t-25.5 60.5zM672 70q0 35 25.5 60.5t60.5 25.5t60.5 -25.5 t25.5 -60.5t-25.5 -60.5t-60.5 -25.5t-60.5 25.5t-25.5 60.5z" />
<glyph unicode="&#x202f;" horiz-adv-x="387" />
<glyph unicode="&#x2030;" horiz-adv-x="1675" d="M53 864v408q0 172 39 239.5t150 67.5q108 0 146 -66.5t38 -240.5v-408q0 -174 -38 -240.5t-146 -66.5q-111 0 -150 67.5t-39 239.5zM166 815q0 -87 16 -121.5t58 -34.5t57.5 34t15.5 122v506q0 88 -15.5 122t-57.5 34t-58 -34.5t-16 -121.5v-506zM356 35l406 1507 q6 27 33 27h43q33 0 24 -35l-405 -1507q-6 -27 -33 -27h-43q-34 0 -25 35zM786 291v407q0 172 39 240t150 68q108 0 146 -67t38 -241v-407q0 -174 -38 -240.5t-146 -66.5q-111 0 -150 67.5t-39 239.5zM899 242q0 -87 16 -121.5t58 -34.5t58 34.5t16 121.5v506q0 87 -16 121 t-58 34t-58 -34t-16 -121v-506zM1251 291v407q0 172 39 240t150 68q108 0 146 -67t38 -241v-407q0 -174 -38 -240.5t-146 -66.5q-111 0 -150 67.5t-39 239.5zM1364 242q0 -87 16 -121.5t58 -34.5t57.5 34t15.5 122v506q0 87 -15.5 121t-57.5 34t-58 -34t-16 -121v-506z" />
<glyph unicode="&#x2039;" horiz-adv-x="370" d="M39 526q-9 20 0 41l131 303q10 23 35 23h63q17 0 23.5 -10t-0.5 -27l-135 -309l135 -305q7 -17 0.5 -27t-23.5 -10h-63q-26 0 -35 22z" />
<glyph unicode="&#x203a;" horiz-adv-x="370" d="M79 215q-6 10 1 27l135 305l-135 309q-7 17 -1 27t23 10h64q25 0 35 -23l131 -303q9 -21 0 -41l-131 -299q-9 -22 -35 -22h-64q-17 0 -23 10z" />
<glyph unicode="&#x2044;" horiz-adv-x="514" d="M4 35l406 1507q6 27 32 27h43q34 0 25 -35l-406 -1507q-6 -27 -32 -27h-43q-34 0 -25 35z" />
<glyph unicode="&#x205f;" horiz-adv-x="484" />
<glyph unicode="&#x2074;" horiz-adv-x="407" d="M31 1077v31q0 16 6 37l113 399q9 27 34 27h90q31 0 31 -31v-414h37q31 0 31 -30v-19q0 -30 -31 -30h-37v-168q0 -31 -31 -31h-34q-31 0 -31 31v168h-148q-30 0 -30 30zM121 1126h88v363z" />
<glyph unicode="&#x20ac;" horiz-adv-x="675" d="M51 879v53q0 31 31 31h49v305q0 96 17.5 162t52 101t75.5 49.5t97 14.5t97 -14.5t75 -49.5t51.5 -101t17.5 -162v-72q0 -31 -30 -31h-66q-31 0 -31 31v127q0 78 -32 117t-82 39q-51 0 -83 -39t-32 -117v-360h279q30 0 30 -31v-53q0 -31 -30 -31h-279v-131h281 q30 0 30 -31v-53q0 -31 -30 -31h-281v-356q0 -78 32 -117t83 -39q50 0 82 39t32 117v104q0 31 31 31h66q30 0 30 -31v-49q0 -96 -17.5 -162t-51.5 -101.5t-75 -50t-97 -14.5t-97 14.5t-75.5 50t-52 101.5t-17.5 162v301h-47q-31 0 -31 31v53q0 31 31 31h47v131h-49 q-31 0 -31 31z" />
<glyph unicode="&#x2116;" horiz-adv-x="1210" d="M117 31v1507q0 31 30 31h64q27 0 33 -27l278 -1087l-4 1083q0 31 31 31h65q31 0 31 -31v-1507q0 -31 -31 -31h-73q-27 0 -33 27l-268 1071l4 -1067q0 -31 -31 -31h-66q-30 0 -30 31zM760 737v357q0 137 51 189t145 52t145.5 -52t51.5 -189v-357q0 -136 -52 -188.5 t-145 -52.5t-144.5 52.5t-51.5 188.5zM786 262v53q0 31 31 31h287q31 0 31 -31v-53q0 -31 -31 -31h-287q-31 0 -31 31zM883 723q0 -115 73 -115q74 0 74 115v385q0 115 -74 115q-73 0 -73 -115v-385z" />
<glyph unicode="&#x2126;" horiz-adv-x="684" d="M84 31v63q0 15 9 23.5t24 7.5l112 -10q-129 59 -129 303v850q0 96 17.5 162t52 101t75.5 49.5t97 14.5t97 -14.5t75.5 -49.5t52 -101t17.5 -162v-850q0 -244 -129 -303l112 10q15 1 24 -7.5t9 -23.5v-63q0 -31 -31 -31h-166q-30 0 -30 31v94q0 22 24 37q60 34 60 141 v1020q0 78 -32 117t-83 39t-83 -39t-32 -117v-1020q0 -107 60 -141q24 -15 24 -37v-94q0 -31 -30 -31h-166q-31 0 -31 31z" />
<glyph unicode="&#x212b;" horiz-adv-x="643" d="M43 33l205 1528q-58 41 -58 110q0 55 38 93t94 38t93.5 -38t37.5 -93q0 -67 -60 -110l209 -1528q3 -33 -29 -33h-65q-30 0 -33 29l-41 360h-223l-41 -360q-3 -29 -33 -29h-65q-32 0 -29 33zM227 506h191l-96 840zM258 1671q0 -26 19 -44.5t45 -18.5t44.5 18.5t18.5 44.5 t-18.5 45t-44.5 19t-45 -19t-19 -45z" />
<glyph unicode="&#x2153;" horiz-adv-x="944" d="M33 1438v32q0 26 22 37l109 56q19 8 39 8h33q30 0 30 -31v-661q0 -31 -30 -31h-46q-30 0 -30 31v579l-90 -43q-17 -7 -27 -0.5t-10 23.5zM180 35l406 1507q6 27 32 27h44q33 0 24 -35l-405 -1507q-6 -27 -33 -27h-43q-34 0 -25 35zM575 127v59q0 31 31 31h43q31 0 31 -31 v-49q0 -37 15 -54t38 -17q51 0 51 71v133q0 35 -25 49.5t-52 14.5q-21 11 -21 31v14q0 31 8 31h11q29 0 54 13t25 48v111q0 71 -51 71q-23 0 -38 -17t-15 -54v-54q0 -30 -31 -30h-43q-31 0 -31 30v64q0 141 158 141t158 -141v-96q0 -51 -16.5 -79.5t-63.5 -39.5 q47 -16 63.5 -46.5t16.5 -82.5v-121q0 -141 -158 -141t-158 141z" />
<glyph unicode="&#x2154;" horiz-adv-x="995" d="M39 879v77q0 43 21.5 88t52.5 83t61.5 75.5t52 81t21.5 84.5v62q0 37 -15 54t-38 17t-38.5 -17t-15.5 -54v-58q0 -31 -30 -31h-41q-31 0 -31 31v70q0 74 43.5 107.5t112.5 33.5q71 0 115 -34t44 -107v-84q0 -51 -33 -109t-72.5 -103t-72.5 -103t-33 -109h164q31 0 31 -31 v-24q0 -31 -31 -31h-237q-31 0 -31 31zM244 35l405 1507q6 27 33 27h43q34 0 25 -35l-406 -1507q-6 -27 -33 -27h-43q-33 0 -24 35zM639 127v59q0 31 31 31h43q30 0 30 -31v-49q0 -37 15.5 -54t38.5 -17q51 0 51 71v133q0 35 -25.5 49.5t-52.5 14.5q-20 11 -20 31v14 q0 31 8 31h10q30 0 55 13t25 48v111q0 71 -51 71q-23 0 -38.5 -17t-15.5 -54v-54q0 -30 -30 -30h-43q-31 0 -31 30v64q0 141 158 141q157 0 157 -141v-96q0 -51 -16.5 -79.5t-63.5 -39.5q47 -16 63.5 -46.5t16.5 -82.5v-121q0 -141 -157 -141q-158 0 -158 141z" />
<glyph unicode="&#x2206;" horiz-adv-x="645" d="M43 33l203 1509q3 29 33 29h86q29 0 32 -29l205 -1509q3 -33 -29 -33h-501q-32 0 -29 33zM184 127h277l-139 1219z" />
<glyph unicode="&#x220f;" horiz-adv-x="716" d="M117 -174v1712q0 31 30 31h422q31 0 31 -31v-1712q0 -31 -31 -31h-65q-31 0 -31 31v1616h-229v-1616q0 -31 -31 -31h-66q-30 0 -30 31z" />
<glyph unicode="&#x2211;" horiz-adv-x="591" d="M43 1460v78q0 31 31 31h422q30 0 30 -31v-65q0 -31 -30 -31h-316l262 -717q8 -19 2 -41l-256 -762h338q31 0 31 -31v-65q0 -31 -31 -31h-444q-31 0 -31 31v78q0 16 6 37l256 764l-264 718q-6 21 -6 37z" />
<glyph unicode="&#x2212;" horiz-adv-x="864" d="M82 719v49q0 31 31 31h639q30 0 30 -31v-49q0 -31 -30 -31h-639q-31 0 -31 31z" />
<glyph unicode="&#x2260;" horiz-adv-x="864" d="M82 563v49q0 31 31 31h237l49 197h-286q-31 0 -31 30v50q0 30 31 30h313l72 279q6 26 32 26h52q32 0 26 -34l-69 -271h213q30 0 30 -30v-50q0 -30 -30 -30h-240l-49 -197h289q30 0 30 -31v-49q0 -31 -30 -31h-318l-67 -274q-6 -27 -33 -27h-51q-33 0 -27 35l66 266h-209 q-31 0 -31 31z" />
<glyph unicode="&#x25fc;" horiz-adv-x="1157" d="M0 0v1157h1157v-1157h-1157z" />
<glyph unicode="&#xf6c3;" horiz-adv-x="0" d="M88 -285l53 158q9 25 35 25h68q38 0 22 -37l-84 -158q-11 -22 -37 -22h-32q-17 0 -24 9.5t-1 24.5z" />
<glyph unicode="&#xf8ff;" horiz-adv-x="2060" d="M102 350l177 334l339 -168l105 -516h-352zM618 1030l412 406l414 -406l-207 -1030h-414zM1339 0l105 516l338 168l176 -334l-266 -350h-353z" />
<glyph horiz-adv-x="643" d="M74 301v967q0 96 17.5 162t52.5 101t78.5 49.5t103.5 14.5t103.5 -14.5t78.5 -49.5t52.5 -101t17.5 -162v-215q0 -31 -31 -31h-66q-30 0 -30 31v270q0 79 -33.5 117.5t-91.5 38.5t-91.5 -38.5t-33.5 -117.5v-1077q0 -79 33.5 -117.5t91.5 -38.5t91.5 38.5t33.5 117.5v485 h-107q-31 0 -31 31v61q0 31 31 31h203q31 0 31 -31v-522q0 -96 -17.5 -162t-52.5 -101.5t-78.5 -50t-103.5 -14.5t-103.5 14.5t-78.5 50t-52.5 101.5t-17.5 162z" />
<glyph horiz-adv-x="337" d="M10 6v55q0 31 8 31q48 0 81.5 38t33.5 118v1290q0 31 31 31h65q31 0 31 -31v-1259q0 -66 -11 -118t-31.5 -84t-43.5 -53.5t-52.5 -31.5t-53 -13.5t-50.5 -3.5h-4q-4 0 -4 31z" />
<glyph horiz-adv-x="620" d="M80 31v1507q0 31 31 31h182q149 0 204.5 -69t55.5 -255v-254q0 -200 -150 -237q150 -32 150 -252v-471q0 -31 -31 -31h-65q-31 0 -31 31v495q0 85 -27.5 120.5t-87.5 35.5h-104v-651q0 -31 -31 -31h-65q-31 0 -31 31zM207 809h104q60 0 87.5 35.5t27.5 120.5v325 q0 84 -27.5 118t-87.5 34h-104v-633z" />
<glyph horiz-adv-x="514" d="M55 291v76q0 162 43.5 228.5t128.5 66.5h99v247q0 87 -16 121.5t-58 34.5t-58 -34.5t-16 -121.5v-88q0 -30 -31 -30h-61q-31 0 -31 30v78q0 151 42 215t157 64q106 0 150.5 -61.5t44.5 -217.5v-868q0 -31 -31 -31h-37q-29 0 -35 27l-12 67q-9 -21 -19 -37t-27 -34.5 t-42 -28.5t-56 -10q-75 0 -105 70t-30 237zM178 248q0 -80 15 -117t51 -37q82 0 82 176v291h-70q-40 0 -59 -40t-19 -128v-145z" />
<glyph horiz-adv-x="526" d="M63 -147q0 30 31 30h62q30 0 30 -30v-50q0 -114 74 -114t74 114v273q-49 -92 -135 -92q-76 0 -106 70t-30 237v579q0 167 30.5 237.5t105.5 70.5q31 0 56 -10t41.5 -29t26 -35t19.5 -37l12 68q6 26 35 26h37q31 0 31 -31v-1312q0 -136 -52 -189t-145 -53t-145 53t-52 189 v35zM186 248q0 -80 15 -117t51 -37q82 0 82 176v621q0 176 -82 176q-36 0 -51 -37t-15 -117v-665z" />
<glyph horiz-adv-x="258" d="M37 -373q31 117 31 312v1191q0 31 30 31h62q30 0 30 -31v-1200q0 -190 -32 -311q-9 -27 -35 -27h-62q-33 0 -24 35zM37 1403q0 38 27 65t65 27t65 -27t27 -65t-27 -65t-65 -27t-65 27t-27 65z" />
<glyph d="M66 -147q0 30 30 30h62q30 0 30 -30v-50q0 -114 74 -114t74 114v273q-49 -92 -135 -92q-75 0 -105 70t-30 237v839q0 31 30 31h62q30 0 30 -31v-882q0 -80 15 -117t51 -37q82 0 82 176v860q0 31 31 31h61q31 0 31 -31v-1312q0 -136 -52 -189t-145 -53t-144.5 53 t-51.5 189v35z" />
<glyph horiz-adv-x="643" d="M74 301v967q0 96 17.5 162t52.5 101t78.5 49.5t103.5 14.5t103.5 -14.5t78.5 -49.5t52.5 -101t17.5 -162v-215q0 -31 -31 -31h-66q-30 0 -30 31v270q0 79 -33.5 117.5t-91.5 38.5t-91.5 -38.5t-33.5 -117.5v-1077q0 -79 33.5 -117.5t91.5 -38.5t91.5 38.5t33.5 117.5v485 h-107q-31 0 -31 31v61q0 31 31 31h203q31 0 31 -31v-522q0 -96 -17.5 -162t-52.5 -101.5t-78.5 -50t-103.5 -14.5t-103.5 14.5t-78.5 50t-52.5 101.5t-17.5 162zM155 1733q-6 11 3 26l84 150q11 20 37 20h94q26 0 37 -20l84 -150q9 -15 2.5 -26t-25.5 -11h-41q-25 0 -37 21 l-67 106l-62 -106q-12 -21 -37 -21h-47q-19 0 -25 11z" />
<glyph horiz-adv-x="643" d="M74 301v967q0 96 17.5 162t52.5 101t78.5 49.5t103.5 14.5t103.5 -14.5t78.5 -49.5t52.5 -101t17.5 -162v-215q0 -31 -31 -31h-66q-30 0 -30 31v270q0 79 -33.5 117.5t-91.5 38.5t-91.5 -38.5t-33.5 -117.5v-1077q0 -79 33.5 -117.5t91.5 -38.5t91.5 38.5t33.5 117.5v485 h-107q-31 0 -31 31v61q0 31 31 31h203q31 0 31 -31v-522q0 -96 -17.5 -162t-52.5 -101.5t-78.5 -50t-103.5 -14.5t-103.5 14.5t-78.5 50t-52.5 101.5t-17.5 162zM143 1860q-1 15 7.5 23.5t23.5 8.5h21q23 0 32 -28q15 -68 105 -68q41 0 69 17.5t35 50.5q9 28 33 28h18 q15 0 23.5 -8.5t7.5 -23.5q-10 -69 -63.5 -108.5t-122.5 -39.5t-123 39.5t-66 108.5z" />
<glyph horiz-adv-x="643" d="M74 301v967q0 96 17.5 162t52.5 101t78.5 49.5t103.5 14.5t103.5 -14.5t78.5 -49.5t52.5 -101t17.5 -162v-215q0 -31 -31 -31h-66q-30 0 -30 31v270q0 79 -33.5 117.5t-91.5 38.5t-91.5 -38.5t-33.5 -117.5v-1077q0 -79 33.5 -117.5t91.5 -38.5t91.5 38.5t33.5 117.5v485 h-107q-31 0 -31 31v61q0 31 31 31h203q31 0 31 -31v-522q0 -96 -17.5 -162t-52.5 -101.5t-78.5 -50t-103.5 -14.5t-103.5 14.5t-78.5 50t-52.5 101.5t-17.5 162zM238 1790q0 37 25.5 62.5t62.5 25.5t62.5 -25.5t25.5 -62.5t-25.5 -62.5t-62.5 -25.5t-62.5 25.5t-25.5 62.5z " />
<glyph horiz-adv-x="643" d="M74 301v967q0 96 17.5 162t52.5 101t78.5 49.5t103.5 14.5t103.5 -14.5t78.5 -49.5t52.5 -101t17.5 -162v-215q0 -31 -31 -31h-66q-30 0 -30 31v270q0 79 -33.5 117.5t-91.5 38.5t-91.5 -38.5t-33.5 -117.5v-1077q0 -79 33.5 -117.5t91.5 -38.5t91.5 38.5t33.5 117.5v485 h-107q-31 0 -31 31v61q0 31 31 31h203q31 0 31 -31v-522q0 -96 -17.5 -162t-52.5 -101.5t-78.5 -50t-103.5 -14.5t-103.5 14.5t-78.5 50t-52.5 101.5t-17.5 162zM223 -285l53 158q9 25 35 25h68q38 0 22 -37l-84 -158q-11 -22 -36 -22h-33q-17 0 -24 9.5t-1 24.5z" />
<glyph horiz-adv-x="624" d="M80 31v1507q0 31 31 31h65q31 0 31 -31v-1507q0 -31 -31 -31h-65q-31 0 -31 31zM297 6v55q0 31 8 31q48 0 81.5 38t33.5 118v1290q0 31 31 31h65q31 0 31 -31v-1259q0 -66 -11 -118t-31.5 -84t-43.5 -53.5t-52.5 -31.5t-53 -13.5t-50.5 -3.5h-4q-4 0 -4 31z" />
</font>
</defs>
</svg>
