<?xml version="1.0" standalone="no"?>
<!DOCTYPE svg PUBLIC "-//W3C//DTD SVG 1.1//EN" "http://www.w3.org/Graphics/SVG/1.1/DTD/svg11.dtd" >
<svg>
<metadata>
Created by FontForge 20090622 at Tue Jul 28 04:33:24 2015
 By deploy user
Copyright (c) 2012 by Doan BC doanbc1502@gmail.com. All rights reserved.
</metadata>
<defs>
<font id="VNF-Valentina" horiz-adv-x="1122" >
  <font-face 
    font-family="VNF-Valentina"
    font-weight="400"
    font-stretch="normal"
    units-per-em="2048"
    panose-1="2 11 5 0 4 0 0 2 0 4"
    ascent="1638"
    descent="-410"
    x-height="1024"
    cap-height="1638"
    bbox="-900 -703.22 2765 2577"
    underline-thickness="50"
    underline-position="-50"
    unicode-range="U+000D-U+FB02"
  />
<missing-glyph horiz-adv-x="512" 
 />
    <glyph glyph-name=".notdef" horiz-adv-x="512" 
 />
    <glyph glyph-name=".null" horiz-adv-x="1024" 
 />
    <glyph glyph-name=".null" horiz-adv-x="1024" 
 />
    <glyph glyph-name="nonmarkingreturn" unicode="&#xd;" horiz-adv-x="1024" 
 />
    <glyph glyph-name="space" horiz-adv-x="573" 
 />
    <glyph glyph-name="A" unicode="A" horiz-adv-x="1495" 
d="M1464 31v-31h-508v31l125 16q13 2 13 12.5t-11 36.5l-147 420h-506l-145 -428q-7 -19 -1.5 -29t17.5 -12l125 -16v-31h-395v31l125 16q12 2 19 11.5t13 29.5l533 1550l35 27l557 -1569q9 -26 17.5 -37.5t25.5 -13.5zM913 582l-233 665l-227 -665h460z" />
    <glyph glyph-name="B" unicode="B" horiz-adv-x="1315" 
d="M612 1655q105 3 205 -12t178 -57.5t126 -118.5t48 -195q0 -74 -15.5 -131t-40.5 -99t-57.5 -72t-66.5 -50.5t-66.5 -33.5t-58.5 -22q69 -19 140.5 -51.5t129 -82t94 -117t36.5 -156.5q0 -95 -33 -178t-106.5 -145t-192 -98t-289.5 -36h-541v31l125 16q13 2 15 12.5
t2 36.5v1446q0 26 -2 36.5t-15 12.5l-125 17v30zM469 907h80q83 0 142.5 14t100 38t64.5 57.5t36.5 72.5t16.5 81.5t4 86.5q0 108 -29 176t-72 106.5t-92.5 52.5t-90.5 14q-13 0 -31.5 -0.5t-40 -2t-44.5 -4.5t-44 -8v-684zM469 100q0 -23 1.5 -36.5t7 -21t17 -9.5t31.5 -2
q118 0 201.5 18t139 49t88 72t48.5 86.5t20.5 93t4.5 92.5q0 48 -5.5 98.5t-25 97.5t-56.5 87t-99 66t-153.5 35t-219.5 -5v-721z" />
    <glyph glyph-name="C" unicode="C" horiz-adv-x="1438" 
d="M1386 438q-10 -51 -17 -100q-7 -43 -12 -91t-5 -89q0 -37 2.5 -66t5.5 -49q4 -24 8 -43h-47q-5 17 -15 30q-8 11 -23 21t-38 10q-24 0 -51.5 -14.5t-71.5 -31.5t-112 -31.5t-174 -14.5q-109 0 -208 31t-184 86.5t-154 133.5t-117.5 171.5t-74.5 200t-26 219.5
q0 114 25.5 221.5t73 203t116.5 175t155.5 137t189.5 89.5t220 32q53 0 104.5 -12.5t97 -28.5t82 -31t60.5 -20q18 -7 30 1.5t19 22.5q8 15 12 37h48q-6 -15 -10 -38q-4 -20 -5.5 -51t2.5 -76q3 -41 7.5 -88t9.5 -88q5 -48 12 -95h-47q-2 109 -45 194q-18 36 -47 71
t-72.5 62.5t-102.5 44.5t-137 17q-89 0 -163 -31t-133 -85t-103 -128t-73.5 -160.5t-44.5 -181.5t-15 -192q0 -131 26.5 -257t79 -229t132 -174t184.5 -92q98 -20 175.5 -14t137.5 29t104 58.5t75 75.5q72 94 100 228h34z" />
    <glyph glyph-name="D" unicode="D" horiz-adv-x="1653" 
d="M102 1638q138 7 259.5 11t214 5.5t148.5 2t62 0.5q127 0 234.5 -31t194.5 -85.5t153 -129.5t112 -163.5t71 -186.5t30 -199q4 -107 -14.5 -212t-60 -201t-106 -178t-152.5 -142t-199.5 -94.5t-245.5 -34.5h-701v31l125 16q13 2 15 12.5t2 36.5v1446q0 26 -2 36.5
t-15 12.5l-125 17v30zM469 160q0 -44 19.5 -66.5t43.5 -33.5q28 -12 64 -13q33 -3 70 -4q32 -1 72.5 -0.5t84.5 4.5q85 7 155.5 43.5t126 94.5t96 135t66 165t35.5 184t5 193q-4 83 -19.5 164t-42 155t-64.5 140t-87 118.5t-109.5 90t-132.5 55.5q-32 10 -85 14
q-45 4 -118 4t-180 -10v-1433z" />
    <glyph glyph-name="E" unicode="E" horiz-adv-x="1366" 
d="M1315 438q-5 -29 -7.5 -62t-4.5 -66.5t-2.5 -65t-0.5 -56.5q0 -35 2 -69t5 -60q4 -31 8 -59h-1213v31l125 16q13 2 15 12.5t2 36.5v1446q0 26 -2 36.5t-15 12.5l-125 17v30h1131q-11 -24 -12.5 -54.5t-1.5 -55.5q0 -21 1 -45.5t3.5 -51.5l5 -54.5t5.5 -52.5
q6 -60 15 -122h-47q0 35 -5.5 76t-22 82.5t-47.5 80t-83 68.5t-128 48t-181 18h-217q-32 0 -40.5 -11t-8.5 -22v-631h281q33 0 57.5 12.5t43 32.5t31 46.5t20.5 53.5q19 64 22 146h43v-657h-43q5 85 -11 152q-7 28 -19 55.5t-31 49.5t-47 35t-66 13h-281v-725q0 -28 4 -41.5
t16 -20.5q13 -6 58 -11t139 -5q130 0 222 11.5t154.5 34t100.5 56t61.5 77t37 96.5t26.5 116h27z" />
    <glyph glyph-name="F" unicode="F" horiz-adv-x="1300" 
d="M1233 1638q-11 -24 -12.5 -54.5t-1.5 -55.5q0 -21 1 -45.5t3.5 -51.5l5 -54.5t5.5 -52.5q6 -60 15 -122h-47q0 35 -5.5 76t-22 82.5t-47.5 80t-83 68.5t-128 48t-181 18h-217q-32 0 -40.5 -11t-8.5 -22v-631h281q33 0 57.5 12.5t43 32.5t31 46.5t20.5 53.5q19 64 22 146
h43v-657h-43q5 85 -11 152q-7 28 -19 55.5t-31 49.5t-47 35t-66 13h-281v-754q0 -26 2 -36.5t14 -12.5l125 -16v-31h-508v31l125 16q13 2 15 12.5t2 36.5v1446q0 26 -2 36.5t-15 12.5l-125 17v30h1131z" />
    <glyph glyph-name="G" unicode="G" horiz-adv-x="1610" 
d="M1522 506l-125 -17q-13 -2 -15 -12.5t-2 -36.5v-354q-29 4 -59.5 -3.5t-65 -21.5l-75 -31.5t-90 -33.5t-109.5 -26.5t-133 -10.5q-113 0 -214 31.5t-187.5 88.5t-155.5 136t-118 173.5t-75 202.5t-26 222t25 222t72.5 203.5t116 176t156 138t193 90t225.5 32.5
q67 0 120.5 -14.5t95.5 -31.5t73 -31.5t55 -14.5q23 0 38.5 8t25.5 19q11 12 18 28h47q-6 -15 -10 -38q-3 -20 -4.5 -51t2.5 -76q3 -41 7.5 -88t9.5 -88q5 -48 12 -95h-47q-12 111 -62 198q-22 37 -54 73t-78 64t-107.5 45t-141.5 17q-86 0 -158 -30.5t-130 -84.5
t-103 -127.5t-75 -160t-46 -182t-18 -193.5q-1 -95 12 -188.5t40 -179t68.5 -159.5t98 -130.5t127.5 -92t158 -42.5q51 -5 94.5 3.5t82 24.5t74 38l70.5 44v301q0 26 -2 36.5t-14 12.5l-125 17v31h508v-31z" />
    <glyph glyph-name="H" unicode="H" horiz-adv-x="1673" 
d="M1446 1591q-12 -2 -14 -12.5t-2 -36.5v-1446q0 -26 2 -36.5t14 -12.5l125 -16v-31h-508v31l125 16q12 2 14 12.5t2 36.5v742h-735v-742q0 -26 2 -36.5t14 -12.5l125 -16v-31h-508v31l125 16q13 2 15 12.5t2 36.5v1446q0 26 -2 36.5t-15 12.5l-125 17v30h508v-30l-125 -17
q-12 -2 -14 -12.5t-2 -36.5v-639h735v639q0 26 -2 36.5t-14 12.5l-125 17v30h508v-30z" />
    <glyph glyph-name="I" unicode="I" horiz-adv-x="713" 
d="M610 1638v-30l-125 -17q-12 -2 -14 -12.5t-2 -36.5v-1446q0 -26 2 -36.5t14 -12.5l125 -16v-31h-508v31l125 16q13 2 15 12.5t2 36.5v1446q0 26 -2 36.5t-15 12.5l-125 17v30h508z" />
    <glyph glyph-name="J" unicode="J" horiz-adv-x="903" 
d="M760 1638v-30l-125 -17q-13 -2 -15 -12.5t-2 -36.5v-1374q-24 0 -40 -23.5t-30.5 -65.5t-32.5 -101t-46 -130q-19 -51 -52 -83t-72.5 -48.5t-83 -18t-83.5 10.5q-33 9 -61 26t-48.5 41t-30.5 53.5t-7 64.5q1 15 10 33.5t26 34.5t42.5 27t60.5 11q25 0 45 -12t34 -30.5
t22 -40t8 -40.5q0 -28 -9 -47t-20 -30q-13 -13 -29 -21q39 -11 67 2.5t47 46.5t30.5 83t17.5 112.5t8 134.5t2 149v1235q0 26 -2 36.5t-14 12.5l-125 17v30h508z" />
    <glyph glyph-name="K" unicode="K" horiz-adv-x="1563" 
d="M1532 31v-31h-526v31l124 16q13 2 16.5 14t-13.5 35l-596 776l-68 -75v-701q0 -26 2 -36.5t14 -12.5l125 -16v-31h-508v31l125 16q13 2 15 12.5t2 36.5v1446q0 26 -2 36.5t-15 12.5l-125 17v30h508v-30l-125 -17q-12 -2 -14 -12.5t-2 -36.5v-620l610 628q19 19 13 28.5
t-29 12.5l-125 17v30h451v-30l-109 -15q-19 -3 -44.5 -13t-45.5 -30l-512 -544l684 -910q5 -7 13 -15.5l16 -16.5t16.5 -14t15.5 -7z" />
    <glyph glyph-name="L" unicode="L" horiz-adv-x="1346" 
d="M1315 438q-5 -29 -7.5 -62t-4.5 -66.5t-2.5 -65t-0.5 -56.5q0 -35 2 -69t5 -60q4 -31 8 -59h-1213v31l125 16q13 2 15 12.5t2 36.5v1446q0 26 -2 36.5t-15 12.5l-125 17v30h508v-30l-125 -17q-12 -2 -14 -12.5t-2 -36.5v-1417q0 -28 4 -41.5t16 -20.5q13 -6 58 -11
t139 -5q130 0 222 11.5t154.5 34t100.5 56t61.5 77t37 96.5t26.5 116h27z" />
    <glyph glyph-name="M" unicode="M" horiz-adv-x="1853" 
d="M1626 1591q-12 -2 -14 -12.5t-2 -36.5v-1446q0 -26 2 -36.5t14 -12.5l125 -16v-31h-508v31l125 16q12 2 14 12.5t2 36.5v1293l-507 -1409l-553 1374v-1258q0 -26 2 -36.5t14 -12.5l125 -16v-31h-377v31l125 16q12 2 14 12.5t2 36.5v1417v40t-1.5 23t-4.5 10.5t-8 4.5
l-127 17v30h379l481 -1198l436 1198h367v-30z" />
    <glyph glyph-name="N" unicode="N" horiz-adv-x="1501" 
d="M1413 1638v-30l-125 -17q-12 -2 -14 -12.5t-2 -36.5v-1511q0 -9 -2 -16q-2 -6 -5.5 -10.5t-9.5 -4.5q-8 0 -19 9.5t-20 20.5q-11 13 -22 31l-870 1272v-1237q0 -26 2 -36.5t14 -12.5l125 -16v-31h-377v31l125 16q12 2 14 12.5t2 36.5v1417v40t-1.5 23t-4.5 10.5t-8 4.5
l-127 17v30h309l781 -1161v1065q0 26 -2 36.5t-15 12.5l-125 17v30h377z" />
    <glyph glyph-name="O" unicode="O" horiz-adv-x="1683" 
d="M842 1669q105 0 203.5 -30t184 -85t156 -132.5t121 -172t78 -203.5t27.5 -227t-27.5 -226.5t-78 -203t-121 -172t-156 -132.5t-184 -85.5t-203.5 -30.5t-203.5 30.5t-184 85.5t-156 132.5t-121 172t-78 203t-27.5 226.5t27.5 227t78 203.5t121 172t156 132.5t183.5 85
t204 30zM842 39q71 0 138 26t126 74.5t108.5 118t85 156t55 189t19.5 216.5t-19.5 216.5t-55 189t-85 156t-108.5 118t-126 74.5t-138 26q-107 0 -203.5 -57.5t-170 -161t-116.5 -247t-43 -314.5t43 -314.5t116.5 -247t170 -161t203.5 -57.5z" />
    <glyph glyph-name="P" unicode="P" horiz-adv-x="1241" 
d="M102 1638l510 17q105 3 205 -12t178 -57.5t126 -118.5t48 -195q0 -89 -22.5 -154.5t-60 -112t-86 -77t-101.5 -51.5q-85 -32 -162 -37t-137 3q-70 9 -131 31v-778q0 -26 2 -36.5t14 -12.5l125 -16v-31h-508v31l125 16q13 2 15 12.5t2 36.5v1446q0 26 -2 36.5t-15 12.5
l-125 17v30zM469 907h80q83 0 142.5 14t100 38t64.5 57.5t36.5 72.5t16.5 81.5t4 86.5q0 92 -21 155.5t-56 103.5t-80.5 60t-95 26.5t-99 2t-92.5 -13.5v-684z" />
    <glyph glyph-name="Q" unicode="Q" horiz-adv-x="1655" 
d="M2765 -406q-111 -79 -223.5 -131t-224.5 -82t-223.5 -39.5t-221.5 -3.5q-166 10 -327.5 51t-315 96.5t-298.5 119.5l-277.5 120t-251 97.5t-220.5 52.5q0 39 7.5 71.5t19.5 59.5t27.5 49t31.5 39q38 40 86 64q-59 54 -110.5 126t-89.5 157.5t-60 181t-22 196.5
q0 118 27.5 227t78 204t121.5 172.5t156.5 132.5t184 85.5t204.5 30.5q110 0 208 -30.5t180 -85.5t147 -132.5t110.5 -172.5t69.5 -204t24 -227q0 -117 -24 -225.5t-69.5 -203t-110.5 -172t-147 -133t-180 -86t-208 -30.5q-53 0 -108 11.5t-108 29.5t-102.5 40.5t-91.5 45.5
q-30 -11 -56 -26t-44.5 -36t-29.5 -48.5t-11 -63.5q207 -49 407.5 -109l397 -116.5t390 -102t384.5 -65.5q108 -12 216 -14t215.5 9.5t214.5 36.5t214 66zM326 819q0 -204 45.5 -354.5t119.5 -248.5t168 -143.5t191 -39.5q92 6 179 58.5t154.5 151t108.5 242.5t41 334
q0 193 -42.5 338t-112 242t-158.5 145.5t-182 50.5q-95 3 -187 -45t-164 -145.5t-116.5 -244t-44.5 -341.5z" />
    <glyph glyph-name="R" unicode="R" horiz-adv-x="1567" 
d="M102 1638l510 17q105 3 205 -12t178 -57.5t126 -118.5t48 -195q0 -78 -17.5 -138.5t-47.5 -106t-69.5 -78t-84 -54t-91 -34t-89.5 -17.5q48 -6 104.5 -35.5t107.5 -83.5t89 -132t49 -179q8 -88 28 -150.5t48.5 -105t66 -67.5t81 -38.5t92 -17.5t100.5 -4l-16 -31
q-107 -28 -192 -33t-150 7.5t-112.5 40t-80.5 65t-53.5 82.5t-32.5 92q-11 43 -15.5 98t-11.5 113.5t-21.5 117t-44.5 108t-80.5 86t-129.5 52.5q-18 4 -39.5 4.5t-41.5 -0.5q-23 -1 -46 -4v-733q0 -26 2 -36.5t14 -12.5l125 -16v-31h-508v31l125 16q13 2 15 12.5t2 36.5
v1446q0 26 -2 36.5t-15 12.5l-125 17v30zM469 907h80q83 0 142.5 14t100 38t64.5 57.5t36.5 72.5t16.5 81.5t4 86.5q0 92 -21 155.5t-56 103.5t-80.5 60t-95 26.5t-99 2t-92.5 -13.5v-684z" />
    <glyph glyph-name="S" unicode="S" horiz-adv-x="1251" 
d="M1001 1223q-2 22 -8 59t-21.5 79.5t-43.5 86t-72.5 78.5t-109 57.5t-152.5 22.5q-89 0 -149 -25t-97 -66.5t-53 -95.5t-16 -112q0 -51 26 -95t67.5 -81.5t92.5 -68.5t102 -55.5t95.5 -43.5t72.5 -33l155 -80t128 -88t92.5 -114t48.5 -159q12 -103 -3.5 -181.5t-50 -136
t-85.5 -96.5t-111 -62.5t-125.5 -33.5t-128.5 -10q-64 0 -129 17t-122.5 37.5l-103 37.5t-69.5 17t-39 -12.5t-23 -26.5q-10 -18 -15 -39h-48q4 19 8 43q3 20 6 49t3 66q0 41 -5.5 89t-12.5 91l-17 100h45q0 -83 28.5 -144.5t75 -106t104 -72.5t115.5 -44.5t110.5 -23
t88.5 -6.5q84 0 141.5 21.5t93 59.5t51 91.5t15.5 118.5q0 61 -23.5 109.5t-64.5 89t-95.5 74t-115.5 65.5l-125.5 63t-125.5 65t-115.5 73t-95.5 86.5t-65 106.5t-24 132q0 106 27.5 182.5t70.5 129.5t96.5 84.5t106 48.5t98 22.5t73.5 5.5q48 0 91.5 -9t82 -20t70.5 -21.5
t57 -14.5q23 -5 42.5 0t33.5 13q17 9 30 21h47q-6 -15 -10 -38q-3 -20 -4.5 -51t2.5 -76q3 -41 7.5 -88t9.5 -88q5 -48 12 -95h-48v21z" />
    <glyph glyph-name="T" unicode="T" horiz-adv-x="1323" 
d="M1276 1638q-11 -24 -12.5 -54.5t-1.5 -55.5q0 -21 1 -45.5t3.5 -51.5l5 -54.5t5.5 -52.5q6 -60 15 -122h-47q0 35 -5.5 76t-22 82t-48 79.5t-83.5 68.5t-128 48t-182 19q-2 -6 -2 -14v-19v-1446q0 -26 2 -36.5t15 -12.5l124 -16v-31h-507v31l124 16q13 2 15 12.5t2 36.5
v1446v19t-2 14q-106 -1 -182 -19t-128 -48t-83.5 -68.5t-48 -79.5t-22 -82t-5.5 -76h-47q8 62 15 122q3 25 5.5 52.5t4.5 54.5t3.5 51.5t1.5 45.5q0 25 -1.5 55.5t-12.5 54.5h1229z" />
    <glyph glyph-name="U" unicode="U" horiz-adv-x="1604" 
d="M1516 1638v-30l-125 -17q-13 -2 -14 -12.5t-1 -36.5v-958q0 -124 -24.5 -235t-84.5 -194.5t-162 -132.5t-257 -49q-139 0 -238 27t-166 77t-106.5 121t-60.5 159.5t-27 192.5t-6 220v772q0 26 -2 36.5t-15 12.5l-125 17v30h508v-30l-125 -17q-12 -2 -14 -12.5t-2 -36.5
v-768q0 -107 2.5 -202.5t14 -175.5t35.5 -143.5t67 -108t108.5 -68t159.5 -23.5q126 0 208 44.5t130 122t67 181t19 222.5v919q0 26 -2 36.5t-14 12.5l-125 17v30h377z" />
    <glyph glyph-name="V" unicode="V" horiz-adv-x="1495" 
d="M1464 1638v-30l-125 -17q-12 -2 -19 -11.5t-13 -29.5l-533 -1550l-35 -27l-557 1569q-9 26 -17.5 37.5t-25.5 13.5l-108 15v30h508v-30l-125 -17q-13 -2 -13 -12.5t11 -36.5l403 -1149l395 1157q7 19 1.5 29t-17.5 12l-125 17v30h395z" />
    <glyph glyph-name="W" unicode="W" horiz-adv-x="2300" 
d="M2269 1638v-30l-125 -17q-12 -2 -19 -11.5t-14 -29.5l-532 -1550l-35 -27l-395 1114l-375 -1087l-35 -27l-557 1569q-9 26 -17.5 37.5t-25.5 13.5l-108 15v30h508v-30l-125 -17q-13 -2 -13 -12.5t11 -36.5l403 -1149l285 834l-113 315q-9 26 -17.5 37.5t-25.5 13.5
l-108 15v30h507v-30l-124 -17q-13 -2 -13 -12.5t11 -36.5l403 -1149l395 1157q6 19 1 29t-17 12l-125 17v30h395z" />
    <glyph glyph-name="X" unicode="X" horiz-adv-x="1501" 
d="M1470 0h-507v31l124 16q13 2 15.5 12.5t-12.5 36.5l-369 631l-424 -639q-11 -19 -3.5 -29t19.5 -12l125 -16v-31h-407v31l108 14q9 1 19 6t18.5 12t15 13.5t9.5 11.5l475 715l-436 739l-18.5 31t-24.5 20l-109 15v30h508v-30l-125 -17q-12 -2 -14.5 -12.5t12.5 -36.5
l348 -592l397 600q11 19 3.5 29t-19.5 12l-125 17v30h395v-30l-108 -15q-19 -3 -31 -18t-18 -25l-449 -678l457 -776l18.5 -31t24.5 -20l108 -14v-31z" />
    <glyph glyph-name="Y" unicode="Y" horiz-adv-x="1442" 
d="M1411 1638v-30l-108 -15q-19 -3 -31 -18t-19 -25l-424 -641v-813q0 -26 2 -36.5t15 -12.5l125 -16v-31h-508v31l125 16q12 2 14 12.5t2 36.5v729l-422 717l-18.5 31t-24.5 20l-108 15v30h508v-30l-125 -17q-13 -2 -15.5 -12.5t13.5 -36.5l348 -592l397 600q11 19 3.5 29
t-19.5 12l-125 17v30h395z" />
    <glyph glyph-name="Z" unicode="Z" horiz-adv-x="1315" 
d="M242 1638h977v-45l-908 -1521h377q66 0 129.5 2t119.5 12t104.5 32.5t85.5 63t60.5 103t31.5 153.5h45q-10 -54 -18 -105l-6.5 -45.5t-5.5 -46.5t-3.5 -44t-1.5 -39q0 -48 1 -91.5t3 -66.5h-1182v61l901 1508h-381q-90 0 -154 -25t-108 -63t-69.5 -83t-39.5 -86
t-18 -71.5t-4 -38.5h-47q9 62 16 121q6 51 11.5 104t5.5 91q0 28 -3 56t-7 50q-4 26 -9 49h48z" />
    <glyph glyph-name="Agrave" unicode="&#xc0;" horiz-adv-x="1495" 
d="M432 2132q-6 5 -8 9q-2 3 -1 6t9 3h189q10 0 16.5 -3t10.5 -6q4 -4 7 -9l154 -350h-35zM1464 31v-31h-508v31l125 16q13 2 13 12.5t-11 36.5l-147 420h-506l-145 -428q-7 -19 -1.5 -29t17.5 -12l125 -16v-31h-395v31l125 16q12 2 19 11.5t13 29.5l533 1550l35 27
l557 -1569q9 -26 17.5 -37.5t25.5 -13.5zM913 582l-233 665l-227 -665h460z" />
    <glyph glyph-name="Aacute" unicode="&#xc1;" horiz-adv-x="1495" 
d="M1040 2150q8 0 9 -3t-1 -6q-3 -4 -8 -9l-342 -350h-34l153 350q3 5 7 9q4 3 10.5 6t17.5 3h188zM1464 31v-31h-508v31l125 16q13 2 13 12.5t-11 36.5l-147 420h-506l-145 -428q-7 -19 -1.5 -29t17.5 -12l125 -16v-31h-395v31l125 16q12 2 19 11.5t13 29.5l533 1550l35 27
l557 -1569q9 -26 17.5 -37.5t25.5 -13.5zM913 582l-233 665l-227 -665h460z" />
    <glyph glyph-name="Acircumflex" unicode="&#xc2;" horiz-adv-x="1495" 
d="M485 1765l228 349q18 31 28 34q6 3 11.5 1.5t9.5 -4.5q4 -4 8 -9l264 -371h-160l-174 254l-170 -254h-45zM1464 31v-31h-508v31l125 16q13 2 13 12.5t-11 36.5l-147 420h-506l-145 -428q-7 -19 -1.5 -29t17.5 -12l125 -16v-31h-395v31l125 16q12 2 19 11.5t13 29.5
l533 1550l35 27l557 -1569q9 -26 17.5 -37.5t25.5 -13.5zM913 582l-233 665l-227 -665h460z" />
    <glyph glyph-name="uni1EA6" unicode="&#x1ea6;" horiz-adv-x="1495" 
d="M485 1765l228 349q18 31 28 34q6 3 11.5 1.5t9.5 -4.5q4 -4 8 -9l264 -371h-160l-174 254l-170 -254h-45zM1464 31v-31h-508v31l125 16q13 2 13 12.5t-11 36.5l-147 420h-506l-145 -428q-7 -19 -1.5 -29t17.5 -12l125 -16v-31h-395v31l125 16q12 2 19 11.5t13 29.5
l533 1550l35 27l557 -1569q9 -26 17.5 -37.5t25.5 -13.5zM913 582l-233 665l-227 -665h460zM753 2307q-6 5 -8 9q-2 3 -1 6t9 3h189q10 0 16.5 -3t10.5 -6q4 -4 7 -9l154 -350h-35z" />
    <glyph glyph-name="uni1EA4" unicode="&#x1ea4;" horiz-adv-x="1495" 
d="M530 1765l170 254l174 -254h160l-264 371q-4 5 -8 9q-4 3 -9.5 4.5t-11.5 -1.5q-10 -3 -28 -34l-228 -349h45zM1356 45q-17 2 -25.5 13.5t-17.5 37.5l-557 1569l-35 -27l-533 -1550q-6 -20 -13 -29.5t-19 -11.5l-125 -16v-31h395v31l-125 16q-12 2 -17.5 12t1.5 29
l145 428h506l147 -420q11 -26 11 -36.5t-13 -12.5l-125 -16v-31h508v31zM453 582l227 665l233 -665h-460zM1000 1957h-35l154 350q3 5 7 9q4 3 10.5 6t16.5 3h189q8 0 8.5 -3t-1.5 -6l-7 -9z" />
    <glyph glyph-name="uni1EAA" unicode="&#x1eaa;" horiz-adv-x="1495" 
d="M485 1765l228 349q18 31 28 34q6 3 11.5 1.5t9.5 -4.5q4 -4 8 -9l264 -371h-160l-174 254l-170 -254h-45zM1464 31v-31h-508v31l125 16q13 2 13 12.5t-11 36.5l-147 420h-506l-145 -428q-7 -19 -1.5 -29t17.5 -12l125 -16v-31h-395v31l125 16q12 2 19 11.5t13 29.5
l533 1550l35 27l557 -1569q9 -26 17.5 -37.5t25.5 -13.5zM913 582l-233 665l-227 -665h460zM623 2340q24 38 48 55.5t51.5 20.5t60 -5.5t73.5 -23.5l71.5 -24t82.5 -23t77 -7t54 23q20 23 33 41q7 10 12 18l19 -14l-95 -137q-27 -40 -55 -58.5t-58.5 -21.5t-65 6.5
t-75.5 24.5q-18 6 -54 21.5t-76.5 26.5t-78 10t-57.5 -28l-19 -26.5t-13 -19.5q-6 -10 -11 -17l-20 14z" />
    <glyph glyph-name="uni1EA8" unicode="&#x1ea8;" horiz-adv-x="1495" 
d="M485 1765l228 349q18 31 28 34q6 3 11.5 1.5t9.5 -4.5q4 -4 8 -9l264 -371h-160l-174 254l-170 -254h-45zM1464 31v-31h-508v31l125 16q13 2 13 12.5t-11 36.5l-147 420h-506l-145 -428q-7 -19 -1.5 -29t17.5 -12l125 -16v-31h-395v31l125 16q12 2 19 11.5t13 29.5
l533 1550l35 27l557 -1569q9 -26 17.5 -37.5t25.5 -13.5zM913 582l-233 665l-227 -665h460zM1212 2245q8 -33 4.5 -57t-15 -43.5t-30.5 -36t-41 -33.5l-29.5 -24t-31.5 -28.5t-31.5 -36t-30.5 -46.5h-20q-2 12 -1.5 30.5t6 40.5t18 47t36.5 52q51 60 51 113q0 60 -55 88v-2
q-31 14 -53 14q-16 0 -28.5 -6.5t-26.5 -17.5q-5 -5 -9 -9.5t-2 -7.5q0 -6 13 -10q27 -12 40.5 -26t16.5 -29q0 -28 -14.5 -43t-40.5 -17q-20 0 -37.5 9.5t-28.5 29.5q-9 26 -8.5 46t6.5 32q20 54 63.5 78.5t102.5 24.5q31 0 60 -7.5t52.5 -23t40 -40.5t23.5 -61z" />
    <glyph glyph-name="uni1EAC" unicode="&#x1eac;" horiz-adv-x="1495" 
d="M485 1765l228 349q18 31 28 34q6 3 11.5 1.5t9.5 -4.5q4 -4 8 -9l264 -371h-160l-174 254l-170 -254h-45zM1464 31v-31h-508v31l125 16q13 2 13 12.5t-11 36.5l-147 420h-506l-145 -428q-7 -19 -1.5 -29t17.5 -12l125 -16v-31h-395v31l125 16q12 2 19 11.5t13 29.5
l533 1550l35 27l557 -1569q9 -26 17.5 -37.5t25.5 -13.5zM913 582l-233 665l-227 -665h460zM675 -403q-21 0 -39.5 8t-32.5 21.5t-22 32t-8 39.5q0 22 8 40.5t22 32.5t32.5 22t39.5 8t40 -8t33 -22t22 -32.5t8 -40.5q0 -21 -8 -39.5t-22 -32t-33 -21.5t-40 -8z" />
    <glyph glyph-name="Atilde" unicode="&#xc3;" horiz-adv-x="1495" 
d="M508 2073q24 38 48 55.5t51.5 20.5t60 -5.5t73.5 -23.5l71.5 -24t82.5 -23t77 -7t54 23q20 23 33 41q7 10 12 18l19 -14l-95 -137q-27 -40 -55 -58.5t-58.5 -21.5t-65 6.5t-75.5 24.5q-18 6 -54 21.5t-76.5 26.5t-78 10t-57.5 -28l-19 -26.5t-13 -19.5q-6 -10 -11 -17
l-20 14zM1464 31v-31h-508v31l125 16q13 2 13 12.5t-11 36.5l-147 420h-506l-145 -428q-7 -19 -1.5 -29t17.5 -12l125 -16v-31h-395v31l125 16q12 2 19 11.5t13 29.5l533 1550l35 27l557 -1569q9 -26 17.5 -37.5t25.5 -13.5zM913 582l-233 665l-227 -665h460z" />
    <glyph glyph-name="Adieresis" unicode="&#xc4;" horiz-adv-x="1495" 
d="M657 2036q0 -23 -9 -43.5t-24 -36t-35.5 -24.5t-43.5 -9t-44 9t-37 24.5t-25 36t-9 43.5t9 43.5t25 36.5t37 25t44 9t43.5 -9t35.5 -25t24 -36.5t9 -43.5zM1067 2036q0 -23 -8.5 -43.5t-24 -36t-36.5 -24.5t-46 -9q-23 0 -42.5 9t-34 24.5t-23 36t-8.5 43.5t8.5 43.5
t23 36.5t34 25t42.5 9q25 0 46 -9t36.5 -25t24 -36.5t8.5 -43.5zM1356 45q-17 2 -25.5 13.5t-17.5 37.5l-557 1569l-35 -27l-533 -1550q-6 -20 -13 -29.5t-19 -11.5l-125 -16v-31h395v31l-125 16q-12 2 -17.5 12t1.5 29l145 428h506l147 -420q11 -26 11 -36.5t-13 -12.5
l-125 -16v-31h508v31zM453 582l227 665l233 -665h-460z" />
    <glyph glyph-name="Abreve" unicode="&#x102;" horiz-adv-x="1495" 
d="M1006 2150l-37 -55q-51 -74 -120.5 -107.5t-141.5 -25.5q-54 6 -104.5 35.5t-92.5 83.5l-53 69h159l15 -20q43 -63 104 -82q56 -19 114.5 2.5t98.5 81.5l13 18h45zM1464 31v-31h-508v31l125 16q13 2 13 12.5t-11 36.5l-147 420h-506l-145 -428q-7 -19 -1.5 -29t17.5 -12
l125 -16v-31h-395v31l125 16q12 2 19 11.5t13 29.5l533 1550l35 27l557 -1569q9 -26 17.5 -37.5t25.5 -13.5zM913 582l-233 665l-227 -665h460z" />
    <glyph glyph-name="uni1EB0" unicode="&#x1eb0;" horiz-adv-x="1495" 
d="M1006 2150l-37 -55q-51 -74 -120.5 -107.5t-141.5 -25.5q-54 6 -104.5 35.5t-92.5 83.5l-53 69h159l15 -20q43 -63 104 -82q56 -19 114.5 2.5t98.5 81.5l13 18h45zM1464 31v-31h-508v31l125 16q13 2 13 12.5t-11 36.5l-147 420h-506l-145 -428q-7 -19 -1.5 -29t17.5 -12
l125 -16v-31h-395v31l125 16q12 2 19 11.5t13 29.5l533 1550l35 27l557 -1569q9 -26 17.5 -37.5t25.5 -13.5zM913 582l-233 665l-227 -665h460zM467 2498q-6 5 -8 9q-2 3 -1 6t9 3h189q10 0 16.5 -3t10.5 -6q4 -4 7 -9l154 -350h-35z" />
    <glyph glyph-name="uni1EAE" unicode="&#x1eae;" horiz-adv-x="1495" 
d="M961 2150l-13 -18q-40 -60 -98.5 -81.5t-114.5 -2.5q-61 19 -104 82l-15 20h-159l53 -69q42 -54 92.5 -83.5t104.5 -35.5q72 -8 141.5 25.5t120.5 107.5l37 55h-45zM1356 45q-17 2 -25.5 13.5t-17.5 37.5l-557 1569l-35 -27l-533 -1550q-6 -20 -13 -29.5t-19 -11.5
l-125 -16v-31h395v31l-125 16q-12 2 -17.5 12t1.5 29l145 428h506l147 -420q11 -26 11 -36.5t-13 -12.5l-125 -16v-31h508v31zM453 582l227 665l233 -665h-460zM764 2148h-35l154 350q3 5 7 9q4 3 10.5 6t16.5 3h189q8 0 8.5 -3t-1.5 -6l-7 -9z" />
    <glyph glyph-name="uni1EB4" unicode="&#x1eb4;" horiz-adv-x="1495" 
d="M1006 2150l-37 -55q-51 -74 -120.5 -107.5t-141.5 -25.5q-54 6 -104.5 35.5t-92.5 83.5l-53 69h159l15 -20q43 -63 104 -82q56 -19 114.5 2.5t98.5 81.5l13 18h45zM1464 31v-31h-508v31l125 16q13 2 13 12.5t-11 36.5l-147 420h-506l-145 -428q-7 -19 -1.5 -29t17.5 -12
l125 -16v-31h-395v31l125 16q12 2 19 11.5t13 29.5l533 1550l35 27l557 -1569q9 -26 17.5 -37.5t25.5 -13.5zM913 582l-233 665l-227 -665h460zM498 2389q24 38 48 55.5t51.5 20.5t60 -5.5t73.5 -23.5l71.5 -24t82.5 -23t77 -7t54 23q20 23 33 41q7 10 12 18l19 -14
l-95 -137q-27 -40 -55 -58.5t-58.5 -21.5t-65 6.5t-75.5 24.5q-18 6 -54 21.5t-76.5 26.5t-78 10t-57.5 -28l-19 -26.5t-13 -19.5q-6 -10 -11 -17l-20 14z" />
    <glyph glyph-name="uni1EB2" unicode="&#x1eb2;" horiz-adv-x="1495" 
d="M1006 2150l-37 -55q-51 -74 -120.5 -107.5t-141.5 -25.5q-54 6 -104.5 35.5t-92.5 83.5l-53 69h159l15 -20q43 -63 104 -82q56 -19 114.5 2.5t98.5 81.5l13 18h45zM1464 31v-31h-508v31l125 16q13 2 13 12.5t-11 36.5l-147 420h-506l-145 -428q-7 -19 -1.5 -29t17.5 -12
l125 -16v-31h-395v31l125 16q12 2 19 11.5t13 29.5l533 1550l35 27l557 -1569q9 -26 17.5 -37.5t25.5 -13.5zM913 582l-233 665l-227 -665h460zM979 2445q8 -33 4.5 -57t-15 -43.5t-30.5 -36t-41 -33.5l-29.5 -24t-31.5 -28.5t-31.5 -36t-30.5 -46.5h-20q-2 12 -1.5 30.5
t6 40.5t18 47t36.5 52q51 60 51 113q0 60 -55 88v-2q-31 14 -53 14q-16 0 -28.5 -6.5t-26.5 -17.5q-5 -5 -9 -9.5t-2 -7.5q0 -6 13 -10q27 -12 40.5 -26t16.5 -29q0 -28 -14.5 -43t-40.5 -17q-20 0 -37.5 9.5t-28.5 29.5q-9 26 -8.5 46t6.5 32q20 54 63.5 78.5t102.5 24.5
q31 0 60 -7.5t52.5 -23t40 -40.5t23.5 -61z" />
    <glyph glyph-name="uni1EB6" unicode="&#x1eb6;" horiz-adv-x="1495" 
d="M1006 2150l-37 -55q-51 -74 -120.5 -107.5t-141.5 -25.5q-54 6 -104.5 35.5t-92.5 83.5l-53 69h159l15 -20q43 -63 104 -82q56 -19 114.5 2.5t98.5 81.5l13 18h45zM1464 31v-31h-508v31l125 16q13 2 13 12.5t-11 36.5l-147 420h-506l-145 -428q-7 -19 -1.5 -29t17.5 -12
l125 -16v-31h-395v31l125 16q12 2 19 11.5t13 29.5l533 1550l35 27l557 -1569q9 -26 17.5 -37.5t25.5 -13.5zM913 582l-233 665l-227 -665h460zM675 -403q-21 0 -39.5 8t-32.5 21.5t-22 32t-8 39.5q0 22 8 40.5t22 32.5t32.5 22t39.5 8t40 -8t33 -22t22 -32.5t8 -40.5
q0 -21 -8 -39.5t-22 -32t-33 -21.5t-40 -8z" />
    <glyph glyph-name="Aring" unicode="&#xc5;" horiz-adv-x="1495" 
d="M874 2009q0 -29 -11 -55t-30 -45t-45 -30t-57 -11q-29 0 -54 11t-43 30t-28 45t-10 55q0 28 10 54t28 46t43 31.5t54 11.5q31 0 57 -11.5t45 -31.5t30 -46t11 -54zM825 2009q0 18 -7 35t-20 30t-30 21t-37 8q-18 0 -34 -8t-28 -21t-19 -30t-7 -35t7 -35t19 -29.5t28 -20
t34 -7.5q20 0 37 7.5t30 20t20 29.5t7 35zM1356 45q-17 2 -25.5 13.5t-17.5 37.5l-557 1569l-35 -27l-533 -1550q-6 -20 -13 -29.5t-19 -11.5l-125 -16v-31h395v31l-125 16q-12 2 -17.5 12t1.5 29l145 428h506l147 -420q11 -26 11 -36.5t-13 -12.5l-125 -16v-31h508v31z
M453 582l227 665l233 -665h-460z" />
    <glyph glyph-name="uni1EA2" unicode="&#x1ea2;" horiz-adv-x="1495" 
d="M1464 31v-31h-508v31l125 16q13 2 13 12.5t-11 36.5l-147 420h-506l-145 -428q-7 -19 -1.5 -29t17.5 -12l125 -16v-31h-395v31l125 16q12 2 19 11.5t13 29.5l533 1550l35 27l557 -1569q9 -26 17.5 -37.5t25.5 -13.5zM913 582l-233 665l-227 -665h460zM959 2062
q8 -33 4.5 -57t-15 -43.5t-30.5 -36t-41 -33.5l-29.5 -24t-31.5 -28.5t-31.5 -36t-30.5 -46.5h-20q-2 12 -1.5 30.5t6 40.5t18 47t36.5 52q51 60 51 113q0 60 -55 88v-2q-31 14 -53 14q-16 0 -28.5 -6.5t-26.5 -17.5q-5 -5 -9 -9.5t-2 -7.5q0 -6 13 -10q27 -12 40.5 -26
t16.5 -29q0 -28 -14.5 -43t-40.5 -17q-20 0 -37.5 9.5t-28.5 29.5q-9 26 -8.5 46t6.5 32q20 54 63.5 78.5t102.5 24.5q31 0 60 -7.5t52.5 -23t40 -40.5t23.5 -61z" />
    <glyph glyph-name="uni1EA0" unicode="&#x1ea0;" horiz-adv-x="1495" 
d="M1464 31v-31h-508v31l125 16q13 2 13 12.5t-11 36.5l-147 420h-506l-145 -428q-7 -19 -1.5 -29t17.5 -12l125 -16v-31h-395v31l125 16q12 2 19 11.5t13 29.5l533 1550l35 27l557 -1569q9 -26 17.5 -37.5t25.5 -13.5zM913 582l-233 665l-227 -665h460zM675 -403
q-21 0 -39.5 8t-32.5 21.5t-22 32t-8 39.5q0 22 8 40.5t22 32.5t32.5 22t39.5 8t40 -8t33 -22t22 -32.5t8 -40.5q0 -21 -8 -39.5t-22 -32t-33 -21.5t-40 -8z" />
    <glyph glyph-name="AE" unicode="&#xc6;" horiz-adv-x="2417" 
d="M2365 438q-5 -29 -7.5 -62t-4 -66.5t-2 -65t-0.5 -56.5q0 -35 2 -69t5 -60q3 -31 7 -59h-1212v31l125 16q12 2 14 12.5t2 36.5v420h-684l-303 -428q-11 -15 -3.5 -27t20.5 -14l125 -16v-31h-418v31l125 16q12 2 26.5 12t26.5 29l1083 1550h992q-11 -24 -13 -54.5
t-2 -55.5q0 -21 1 -45.5t3.5 -51.5l5 -54.5t5.5 -52.5q7 -60 16 -122h-47q0 35 -5.5 76t-22 82.5t-47.5 80t-83 68.5t-128 48t-181 18h-217q-32 0 -40.5 -11t-8.5 -22v-631h280q33 0 57.5 12.5t43 32.5t31 46.5t20.5 53.5q19 64 22 146h43v-657h-43q6 85 -10 152
q-7 28 -19 55.5t-31.5 49.5t-47.5 35t-66 13h-280v-725q0 -28 4 -41.5t16 -20.5q12 -6 57.5 -11t139.5 -5q130 0 222 11.5t154.5 34t100.5 56t61.5 77t37 96.5t26.5 116h26zM1292 582v911l-647 -911h647z" />
    <glyph glyph-name="AEacute" unicode="&#x1fc;" horiz-adv-x="2028" 
d="M2365 438q-5 -29 -7.5 -62t-4 -66.5t-2 -65t-0.5 -56.5q0 -35 2 -69t5 -60q3 -31 7 -59h-1212v31l125 16q12 2 14 12.5t2 36.5v420h-684l-303 -428q-11 -15 -3.5 -27t20.5 -14l125 -16v-31h-418v31l125 16q12 2 26.5 12t26.5 29l1083 1550h992q-11 -24 -13 -54.5
t-2 -55.5q0 -21 1 -45.5t3.5 -51.5l5 -54.5t5.5 -52.5q7 -60 16 -122h-47q0 35 -5.5 76t-22 82.5t-47.5 80t-83 68.5t-128 48t-181 18h-217q-32 0 -40.5 -11t-8.5 -22v-631h280q33 0 57.5 12.5t43 32.5t31 46.5t20.5 53.5q19 64 22 146h43v-657h-43q6 85 -10 152
q-7 28 -19 55.5t-31.5 49.5t-47.5 35t-66 13h-280v-725q0 -28 4 -41.5t16 -20.5q12 -6 57.5 -11t139.5 -5q130 0 222 11.5t154.5 34t100.5 56t61.5 77t37 96.5t26.5 116h26zM1292 582v911l-647 -911h647zM1188 1925q8 0 8.5 -3t-1.5 -6l-7 -9l-342 -351h-35l154 351q3 5 7 9
q4 3 10.5 6t16.5 3h189z" />
    <glyph glyph-name="uni01E2" unicode="&#x1e2;" horiz-adv-x="2028" 
d="M2339 438q-13 -63 -26.5 -116t-37 -96.5t-61.5 -77t-100.5 -56t-154.5 -34t-222 -11.5q-94 0 -139.5 5t-57.5 11q-12 7 -16 20.5t-4 41.5v725h280q38 0 66 -13t47.5 -35t31.5 -49.5t19 -55.5q16 -67 10 -152h43v657h-43q-3 -82 -22 -146q-8 -27 -20.5 -53.5t-31 -46.5
t-43 -32.5t-57.5 -12.5h-280v631q0 11 8.5 22t40.5 11h217q105 0 181 -18t128 -48t83 -68.5t47.5 -80t22 -82.5t5.5 -76h47q-9 62 -16 122q-3 25 -5.5 52.5l-5 54.5t-3.5 51.5t-1 45.5q0 25 2 55.5t13 54.5h-992l-1083 -1550q-12 -19 -26.5 -29t-26.5 -12l-125 -16v-31h418
v31l-125 16q-13 2 -20.5 14t3.5 27l303 428h684v-420q0 -26 -2 -36.5t-14 -12.5l-125 -16v-31h1212q-4 28 -7 59q-3 26 -5 60t-2 69q0 25 0.5 56.5t2 65t4 66.5t7.5 62h-26zM645 582l647 911v-911h-647zM961 1763v121h848v-121h-848z" />
    <glyph glyph-name="Ccedilla" unicode="&#xc7;" horiz-adv-x="1438" 
d="M1386 438q-10 -51 -17 -100q-7 -43 -12 -91t-5 -89q0 -37 2.5 -66t5.5 -49q4 -24 8 -43h-47q-5 17 -15 30q-8 11 -23 21t-38 10q-24 0 -51.5 -14.5t-71.5 -31.5t-112 -31.5t-174 -14.5h-31l-31 -80q61 0 107 -20.5t76 -53t44 -73t11 -80.5q-2 -31 -15 -59t-36.5 -49
t-58 -33.5t-79.5 -12.5q-48 0 -87 13t-67 30t-45.5 32.5t-23.5 21.5l16 14q36 -22 74 -41.5t84 -19.5q69 0 105 30.5t41 73.5q4 32 -8 66.5t-38.5 63t-67 47t-93.5 18.5l32 118q-98 12 -185.5 50t-162.5 96t-135 133.5t-102.5 164t-65 188t-22.5 204.5q0 114 25.5 221.5
t73 203t116.5 175t155.5 137t189.5 89.5t220 32q53 0 104.5 -12.5t97 -28.5t82 -31t60.5 -20q18 -7 30 1.5t19 22.5q8 15 12 37h48q-6 -15 -10 -38q-4 -20 -5.5 -51t2.5 -76q3 -41 7.5 -88t9.5 -88q5 -48 12 -95h-47q-2 109 -45 194q-18 36 -47 71t-72.5 62.5t-102.5 44.5
t-137 17q-89 0 -163.5 -31t-134 -86t-103.5 -129.5t-73.5 -162t-44 -183.5t-13.5 -194q1 -130 27.5 -254.5t79.5 -226.5t131.5 -172t183.5 -91q98 -20 175.5 -14t137.5 29t104 58.5t75 75.5q72 94 100 228h34z" />
    <glyph glyph-name="Dcroat" unicode="&#x110;" horiz-adv-x="1653" 
d="M-21 879q-32 17 -58.5 40.5t-43.5 52t-24.5 62.5t-2.5 72q6 30 20 52t33 35.5t41 18.5t42 2q13 -2 25 -9t21 -19t14.5 -28.5t4.5 -37.5q-15 -5 -30.5 -12.5t-28.5 -19t-22 -26.5t-11 -36q-1 -29 15 -50.5t42 -38.5zM16 937q27 -18 60.5 -29.5t62 -18t47.5 -9.5l19 -3
q-2 0 10 1t29 3v661q0 26 -2 36.5t-15 12.5l-125 17v30q138 7 259.5 11t214 5.5t148.5 2t62 0.5q127 0 234.5 -31t194.5 -85.5t153 -129.5t112 -163.5t71 -186.5t30 -199q4 -107 -14.5 -212t-60 -201t-106 -178t-152.5 -142t-199.5 -94.5t-245.5 -34.5h-701v31l125 16
q13 2 15 12.5t2 36.5v738q-51 0 -100 3.5t-93 14.5q-40 10 -72 27zM810 772q-39 30 -82 44t-87.5 19t-88.5 4t-83 -1v-678q0 -44 19.5 -66.5t43.5 -33.5q28 -12 64 -13q33 -3 70 -4q32 -1 72.5 -0.5t84.5 4.5q85 7 155.5 43.5t126 94.5t96 135t66 165t35.5 184t5 193
q-4 83 -19.5 164t-42 155t-64.5 140t-87 118.5t-109.5 90t-132.5 55.5q-32 10 -85 14q-45 4 -118 4t-180 -10v-708q48 -1 93 -1.5t88 -5t83 -15.5t78 -33z" />
    <glyph glyph-name="Egrave" unicode="&#xc8;" horiz-adv-x="1366" 
d="M475 2132q-6 5 -8 9q-2 3 -1 6t9 3h189q10 0 16.5 -3t10.5 -6q4 -4 7 -9l154 -350h-35zM1315 438q-5 -29 -7.5 -62t-4.5 -66.5t-2.5 -65t-0.5 -56.5q0 -35 2 -69t5 -60q4 -31 8 -59h-1213v31l125 16q13 2 15 12.5t2 36.5v1446q0 26 -2 36.5t-15 12.5l-125 17v30h1131
q-11 -24 -12.5 -54.5t-1.5 -55.5q0 -21 1 -45.5t3.5 -51.5l5 -54.5t5.5 -52.5q6 -60 15 -122h-47q0 35 -5.5 76t-22 82.5t-47.5 80t-83 68.5t-128 48t-181 18h-217q-32 0 -40.5 -11t-8.5 -22v-631h281q33 0 57.5 12.5t43 32.5t31 46.5t20.5 53.5q19 64 22 146h43v-657h-43
q5 85 -11 152q-7 28 -19 55.5t-31 49.5t-47 35t-66 13h-281v-725q0 -28 4 -41.5t16 -20.5q13 -6 58 -11t139 -5q130 0 222 11.5t154.5 34t100.5 56t61.5 77t37 96.5t26.5 116h27z" />
    <glyph glyph-name="Eacute" unicode="&#xc9;" horiz-adv-x="1366" 
d="M1020 2150q8 0 8.5 -3t-1.5 -6l-7 -9l-342 -350h-35l154 350q3 5 7 9q4 3 10.5 6t16.5 3h189zM1315 438q-5 -29 -7.5 -62t-4.5 -66.5t-2.5 -65t-0.5 -56.5q0 -35 2 -69t5 -60q4 -31 8 -59h-1213v31l125 16q13 2 15 12.5t2 36.5v1446q0 26 -2 36.5t-15 12.5l-125 17v30
h1131q-11 -24 -12.5 -54.5t-1.5 -55.5q0 -21 1 -45.5t3.5 -51.5l5 -54.5t5.5 -52.5q6 -60 15 -122h-47q0 35 -5.5 76t-22 82.5t-47.5 80t-83 68.5t-128 48t-181 18h-217q-32 0 -40.5 -11t-8.5 -22v-631h281q33 0 57.5 12.5t43 32.5t31 46.5t20.5 53.5q19 64 22 146h43v-657
h-43q5 85 -11 152q-7 28 -19 55.5t-31 49.5t-47 35t-66 13h-281v-725q0 -28 4 -41.5t16 -20.5q13 -6 58 -11t139 -5q130 0 222 11.5t154.5 34t100.5 56t61.5 77t37 96.5t26.5 116h27z" />
    <glyph glyph-name="uni1EC0" unicode="&#x1ec0;" horiz-adv-x="1366" 
d="M426 1765l227 349q20 31 29 34q6 3 11 1.5t9 -4.5l9 -9l264 -371h-160l-174 254l-170 -254h-45zM1315 438q-5 -29 -7.5 -62t-4.5 -66.5t-2.5 -65t-0.5 -56.5q0 -35 2 -69t5 -60q4 -31 8 -59h-1213v31l125 16q13 2 15 12.5t2 36.5v1446q0 26 -2 36.5t-15 12.5l-125 17v30
h1131q-11 -24 -12.5 -54.5t-1.5 -55.5q0 -21 1 -45.5t3.5 -51.5l5 -54.5t5.5 -52.5q6 -60 15 -122h-47q0 35 -5.5 76t-22 82.5t-47.5 80t-83 68.5t-128 48t-181 18h-217q-32 0 -40.5 -11t-8.5 -22v-631h281q33 0 57.5 12.5t43 32.5t31 46.5t20.5 53.5q19 64 22 146h43v-657
h-43q5 85 -11 152q-7 28 -19 55.5t-31 49.5t-47 35t-66 13h-281v-725q0 -28 4 -41.5t16 -20.5q13 -6 58 -11t139 -5q130 0 222 11.5t154.5 34t100.5 56t61.5 77t37 96.5t26.5 116h27zM753 2307q-6 5 -8 9q-2 3 -1 6t9 3h189q10 0 16.5 -3t10.5 -6q4 -4 7 -9l154 -350h-35z
" />
    <glyph glyph-name="uni1EC4" unicode="&#x1ec4;" horiz-adv-x="1366" 
d="M426 1765l227 349q20 31 29 34q6 3 11 1.5t9 -4.5l9 -9l264 -371h-160l-174 254l-170 -254h-45zM1315 438q-5 -29 -7.5 -62t-4.5 -66.5t-2.5 -65t-0.5 -56.5q0 -35 2 -69t5 -60q4 -31 8 -59h-1213v31l125 16q13 2 15 12.5t2 36.5v1446q0 26 -2 36.5t-15 12.5l-125 17v30
h1131q-11 -24 -12.5 -54.5t-1.5 -55.5q0 -21 1 -45.5t3.5 -51.5l5 -54.5t5.5 -52.5q6 -60 15 -122h-47q0 35 -5.5 76t-22 82.5t-47.5 80t-83 68.5t-128 48t-181 18h-217q-32 0 -40.5 -11t-8.5 -22v-631h281q33 0 57.5 12.5t43 32.5t31 46.5t20.5 53.5q19 64 22 146h43v-657
h-43q5 85 -11 152q-7 28 -19 55.5t-31 49.5t-47 35t-66 13h-281v-725q0 -28 4 -41.5t16 -20.5q13 -6 58 -11t139 -5q130 0 222 11.5t154.5 34t100.5 56t61.5 77t37 96.5t26.5 116h27zM538 2382q24 38 48 55.5t51.5 20.5t60 -5.5t73.5 -23.5l71.5 -24t82.5 -23t77 -7t54 23
q20 23 33 41q7 10 12 18l19 -14l-95 -137q-27 -40 -55 -58.5t-58.5 -21.5t-65 6.5t-75.5 24.5q-18 6 -54 21.5t-76.5 26.5t-78 10t-57.5 -28l-19 -26.5t-13 -19.5q-6 -10 -11 -17l-20 14z" />
    <glyph glyph-name="uni1EC2" unicode="&#x1ec2;" horiz-adv-x="1366" 
d="M426 1765l227 349q20 31 29 34q6 3 11 1.5t9 -4.5l9 -9l264 -371h-160l-174 254l-170 -254h-45zM1315 438q-5 -29 -7.5 -62t-4.5 -66.5t-2.5 -65t-0.5 -56.5q0 -35 2 -69t5 -60q4 -31 8 -59h-1213v31l125 16q13 2 15 12.5t2 36.5v1446q0 26 -2 36.5t-15 12.5l-125 17v30
h1131q-11 -24 -12.5 -54.5t-1.5 -55.5q0 -21 1 -45.5t3.5 -51.5l5 -54.5t5.5 -52.5q6 -60 15 -122h-47q0 35 -5.5 76t-22 82.5t-47.5 80t-83 68.5t-128 48t-181 18h-217q-32 0 -40.5 -11t-8.5 -22v-631h281q33 0 57.5 12.5t43 32.5t31 46.5t20.5 53.5q19 64 22 146h43v-657
h-43q5 85 -11 152q-7 28 -19 55.5t-31 49.5t-47 35t-66 13h-281v-725q0 -28 4 -41.5t16 -20.5q13 -6 58 -11t139 -5q130 0 222 11.5t154.5 34t100.5 56t61.5 77t37 96.5t26.5 116h27zM1160 2245q8 -33 4.5 -57t-15 -43.5t-30.5 -36t-41 -33.5l-29.5 -24t-31.5 -28.5
t-31.5 -36t-30.5 -46.5h-20q-2 12 -1.5 30.5t6 40.5t18 47t36.5 52q51 60 51 113q0 60 -55 88v-2q-31 14 -53 14q-16 0 -28.5 -6.5t-26.5 -17.5q-5 -5 -9 -9.5t-2 -7.5q0 -6 13 -10q27 -12 40.5 -26t16.5 -29q0 -28 -14.5 -43t-40.5 -17q-20 0 -37.5 9.5t-28.5 29.5
q-9 26 -8.5 46t6.5 32q20 54 63.5 78.5t102.5 24.5q31 0 60 -7.5t52.5 -23t40 -40.5t23.5 -61z" />
    <glyph glyph-name="uni1EC6" unicode="&#x1ec6;" horiz-adv-x="1366" 
d="M426 1765l227 349q20 31 29 34q6 3 11 1.5t9 -4.5l9 -9l264 -371h-160l-174 254l-170 -254h-45zM1315 438q-5 -29 -7.5 -62t-4.5 -66.5t-2.5 -65t-0.5 -56.5q0 -35 2 -69t5 -60q4 -31 8 -59h-1213v31l125 16q13 2 15 12.5t2 36.5v1446q0 26 -2 36.5t-15 12.5l-125 17v30
h1131q-11 -24 -12.5 -54.5t-1.5 -55.5q0 -21 1 -45.5t3.5 -51.5l5 -54.5t5.5 -52.5q6 -60 15 -122h-47q0 35 -5.5 76t-22 82.5t-47.5 80t-83 68.5t-128 48t-181 18h-217q-32 0 -40.5 -11t-8.5 -22v-631h281q33 0 57.5 12.5t43 32.5t31 46.5t20.5 53.5q19 64 22 146h43v-657
h-43q5 85 -11 152q-7 28 -19 55.5t-31 49.5t-47 35t-66 13h-281v-725q0 -28 4 -41.5t16 -20.5q13 -6 58 -11t139 -5q130 0 222 11.5t154.5 34t100.5 56t61.5 77t37 96.5t26.5 116h27zM699 -403q-21 0 -39.5 8t-32.5 21.5t-22 32t-8 39.5q0 22 8 40.5t22 32.5t32.5 22t39.5 8
t40 -8t33 -22t22 -32.5t8 -40.5q0 -21 -8 -39.5t-22 -32t-33 -21.5t-40 -8z" />
    <glyph glyph-name="uni1EBC" horiz-adv-x="1366" 
d="M508 2073q24 38 48 55.5t51.5 20.5t60 -5.5t73.5 -23.5l71.5 -24t82.5 -23t77 -7t54 23q20 23 33 41q7 10 12 18l19 -14l-95 -137q-27 -40 -55 -58.5t-58.5 -21.5t-65 6.5t-75.5 24.5q-18 6 -54 21.5t-76.5 26.5t-78 10t-57.5 -28l-19 -26.5t-13 -19.5q-6 -10 -11 -17
l-20 14zM1315 438q-5 -29 -7.5 -62t-4.5 -66.5t-2.5 -65t-0.5 -56.5q0 -35 2 -69t5 -60q4 -31 8 -59h-1213v31l125 16q13 2 15 12.5t2 36.5v1446q0 26 -2 36.5t-15 12.5l-125 17v30h1131q-11 -24 -12.5 -54.5t-1.5 -55.5q0 -21 1 -45.5t3.5 -51.5l5 -54.5t5.5 -52.5
q6 -60 15 -122h-47q0 35 -5.5 76t-22 82.5t-47.5 80t-83 68.5t-128 48t-181 18h-217q-32 0 -40.5 -11t-8.5 -22v-631h281q33 0 57.5 12.5t43 32.5t31 46.5t20.5 53.5q19 64 22 146h43v-657h-43q5 85 -11 152q-7 28 -19 55.5t-31 49.5t-47 35t-66 13h-281v-725q0 -28 4 -41.5
t16 -20.5q13 -6 58 -11t139 -5q130 0 222 11.5t154.5 34t100.5 56t61.5 77t37 96.5t26.5 116h27z" />
    <glyph glyph-name="Edieresis" unicode="&#xcb;" horiz-adv-x="1366" 
d="M637 2036q0 -23 -9 -43.5t-24.5 -36t-36 -24.5t-43.5 -9t-43.5 9t-36.5 24.5t-25 36t-9 43.5t9 43.5t25 36.5t36.5 25t43.5 9t43.5 -9t36 -25t24.5 -36.5t9 -43.5zM1047 2036q0 -23 -9 -43.5t-24.5 -36t-36.5 -24.5t-45 -9q-23 0 -43 9t-34.5 24.5t-23 36t-8.5 43.5
t8.5 43.5t23 36.5t34.5 25t43 9q24 0 45 -9t36.5 -25t24.5 -36.5t9 -43.5zM1288 438q-13 -63 -26.5 -116t-37 -96.5t-61.5 -77t-100.5 -56t-154.5 -34t-222 -11.5q-94 0 -139 5t-58 11q-12 7 -16 20.5t-4 41.5v725h281q38 0 66 -13t47 -35t31 -49.5t19 -55.5q16 -67 11 -152
h43v657h-43q-3 -82 -22 -146q-8 -27 -20.5 -53.5t-31 -46.5t-43 -32.5t-57.5 -12.5h-281v631q0 11 8.5 22t40.5 11h217q105 0 181 -18t128 -48t83 -68.5t47.5 -80t22 -82.5t5.5 -76h47q-9 62 -15 122q-3 25 -5.5 52.5l-5 54.5t-3.5 51.5t-1 45.5q0 25 1.5 55.5t12.5 54.5
h-1131v-30l125 -17q13 -2 15 -12.5t2 -36.5v-1446q0 -26 -2 -36.5t-15 -12.5l-125 -16v-31h1213q-4 28 -8 59q-3 26 -5 60t-2 69q0 25 0.5 56.5t2.5 65t4.5 66.5t7.5 62h-27z" />
    <glyph glyph-name="uni1EBA" unicode="&#x1eba;" horiz-adv-x="1366" 
d="M1315 438q-5 -29 -7.5 -62t-4.5 -66.5t-2.5 -65t-0.5 -56.5q0 -35 2 -69t5 -60q4 -31 8 -59h-1213v31l125 16q13 2 15 12.5t2 36.5v1446q0 26 -2 36.5t-15 12.5l-125 17v30h1131q-11 -24 -12.5 -54.5t-1.5 -55.5q0 -21 1 -45.5t3.5 -51.5l5 -54.5t5.5 -52.5
q6 -60 15 -122h-47q0 35 -5.5 76t-22 82.5t-47.5 80t-83 68.5t-128 48t-181 18h-217q-32 0 -40.5 -11t-8.5 -22v-631h281q33 0 57.5 12.5t43 32.5t31 46.5t20.5 53.5q19 64 22 146h43v-657h-43q5 85 -11 152q-7 28 -19 55.5t-31 49.5t-47 35t-66 13h-281v-725q0 -28 4 -41.5
t16 -20.5q13 -6 58 -11t139 -5q130 0 222 11.5t154.5 34t100.5 56t61.5 77t37 96.5t26.5 116h27zM959 2062q8 -33 4.5 -57t-15 -43.5t-30.5 -36t-41 -33.5l-29.5 -24t-31.5 -28.5t-31.5 -36t-30.5 -46.5h-20q-2 12 -1.5 30.5t6 40.5t18 47t36.5 52q51 60 51 113q0 60 -55 88
v-2q-31 14 -53 14q-16 0 -28.5 -6.5t-26.5 -17.5q-5 -5 -9 -9.5t-2 -7.5q0 -6 13 -10q27 -12 40.5 -26t16.5 -29q0 -28 -14.5 -43t-40.5 -17q-20 0 -37.5 9.5t-28.5 29.5q-9 26 -8.5 46t6.5 32q20 54 63.5 78.5t102.5 24.5q31 0 60 -7.5t52.5 -23t40 -40.5t23.5 -61z" />
    <glyph glyph-name="uni1EB8" unicode="&#x1eb8;" horiz-adv-x="1366" 
d="M1315 438q-5 -29 -7.5 -62t-4.5 -66.5t-2.5 -65t-0.5 -56.5q0 -35 2 -69t5 -60q4 -31 8 -59h-1213v31l125 16q13 2 15 12.5t2 36.5v1446q0 26 -2 36.5t-15 12.5l-125 17v30h1131q-11 -24 -12.5 -54.5t-1.5 -55.5q0 -21 1 -45.5t3.5 -51.5l5 -54.5t5.5 -52.5
q6 -60 15 -122h-47q0 35 -5.5 76t-22 82.5t-47.5 80t-83 68.5t-128 48t-181 18h-217q-32 0 -40.5 -11t-8.5 -22v-631h281q33 0 57.5 12.5t43 32.5t31 46.5t20.5 53.5q19 64 22 146h43v-657h-43q5 85 -11 152q-7 28 -19 55.5t-31 49.5t-47 35t-66 13h-281v-725q0 -28 4 -41.5
t16 -20.5q13 -6 58 -11t139 -5q130 0 222 11.5t154.5 34t100.5 56t61.5 77t37 96.5t26.5 116h27zM699 -403q-21 0 -39.5 8t-32.5 21.5t-22 32t-8 39.5q0 22 8 40.5t22 32.5t32.5 22t39.5 8t40 -8t33 -22t22 -32.5t8 -40.5q0 -21 -8 -39.5t-22 -32t-33 -21.5t-40 -8z" />
    <glyph glyph-name="Igrave" unicode="&#xcc;" horiz-adv-x="713" 
d="M137 2132q-6 5 -8 9q-2 3 -1 6t9 3h189q10 0 16.5 -3t10.5 -6q4 -4 7 -9l154 -350h-35zM610 1638v-30l-125 -17q-12 -2 -14 -12.5t-2 -36.5v-1446q0 -26 2 -36.5t14 -12.5l125 -16v-31h-508v31l125 16q13 2 15 12.5t2 36.5v1446q0 26 -2 36.5t-15 12.5l-125 17v30h508z
" />
    <glyph glyph-name="Iacute" unicode="&#xcd;" horiz-adv-x="713" 
d="M602 2150q8 0 9 -3t-1 -6q-3 -4 -8 -9l-342 -350h-35l154 350q3 5 7 9q4 3 10.5 6t17.5 3h188zM610 1638v-30l-125 -17q-12 -2 -14 -12.5t-2 -36.5v-1446q0 -26 2 -36.5t14 -12.5l125 -16v-31h-508v31l125 16q13 2 15 12.5t2 36.5v1446q0 26 -2 36.5t-15 12.5l-125 17v30
h508z" />
    <glyph glyph-name="Icircumflex" unicode="&#xce;" horiz-adv-x="713" 
d="M102 1765l228 349q18 31 28 34q6 3 11.5 1.5t9.5 -4.5q4 -4 8 -9l264 -371h-159l-175 254l-170 -254h-45zM631 1638v-30l-125 -17q-13 -2 -15 -12.5t-2 -36.5v-1446q0 -26 2 -36.5t15 -12.5l125 -16v-31h-508v31l125 16q12 2 14 12.5t2 36.5v1446q0 26 -2 36.5t-14 12.5
l-125 17v30h508z" />
    <glyph glyph-name="Itilde" unicode="&#x128;" horiz-adv-x="883" 
d="M199 2073q23 35 54 56t54 21q18 0 30.5 -1.5t25.5 -5t29 -9.5t40 -14l71.5 -24t82.5 -23t77 -7t54 23q10 11 18 22l14 19l13 18l18 -14l-94 -137q-25 -35 -58.5 -58.5t-68.5 -23.5q-25 0 -57.5 9.5t-69.5 23.5q-18 6 -54 21.5t-76.5 26.5t-78 10t-57.5 -28l-19 -26.5
t-13 -19.5q-6 -10 -11 -17l-21 14zM696 1638v-30l-125 -17q-12 -2 -14 -12.5t-2 -36.5v-1446q0 -26 2 -36.5t14 -12.5l125 -16v-31h-508v31l125 16q13 2 15 12.5t2 36.5v1446q0 26 -2 36.5t-15 12.5l-125 17v30h508z" />
    <glyph glyph-name="Idieresis" unicode="&#xcf;" horiz-adv-x="713" 
d="M330 2036q0 -23 -9 -43.5t-24.5 -36t-36 -24.5t-43.5 -9t-44 9t-36.5 24.5t-25 36t-9.5 43.5t9.5 43.5t25 36.5t36.5 25t44 9t43.5 -9t36 -25t24.5 -36.5t9 -43.5zM739 2036q0 -23 -8.5 -43.5t-24 -36t-36.5 -24.5t-45 -9q-23 0 -43 9t-34.5 24.5t-23 36t-8.5 43.5
t8.5 43.5t23 36.5t34.5 25t43 9q24 0 45 -9t36.5 -25t24 -36.5t8.5 -43.5zM168 1638v-30l125 -17q12 -2 14 -12.5t2 -36.5v-1446q0 -26 -2 -36.5t-14 -12.5l-125 -16v-31h508v31l-125 16q-12 2 -14 12.5t-2 36.5v1446q0 26 2 36.5t14 12.5l125 17v30h-508z" />
    <glyph glyph-name="uni1EC8" unicode="&#x1ec8;" horiz-adv-x="713" 
d="M610 1638v-30l-125 -17q-12 -2 -14 -12.5t-2 -36.5v-1446q0 -26 2 -36.5t14 -12.5l125 -16v-31h-508v31l125 16q13 2 15 12.5t2 36.5v1446q0 26 -2 36.5t-15 12.5l-125 17v30h508zM586 2062q8 -33 4.5 -57t-15 -43.5t-30.5 -36t-41 -33.5l-29.5 -24t-31.5 -28.5
t-31.5 -36t-30.5 -46.5h-20q-2 12 -1.5 30.5t6 40.5t18 47t36.5 52q51 60 51 113q0 60 -55 88v-2q-31 14 -53 14q-16 0 -28.5 -6.5t-26.5 -17.5q-5 -5 -9 -9.5t-2 -7.5q0 -6 13 -10q27 -12 40.5 -26t16.5 -29q0 -28 -14.5 -43t-40.5 -17q-20 0 -37.5 9.5t-28.5 29.5
q-9 26 -8.5 46t6.5 32q20 54 63.5 78.5t102.5 24.5q31 0 60 -7.5t52.5 -23t40 -40.5t23.5 -61z" />
    <glyph glyph-name="uni1ECA" unicode="&#x1eca;" horiz-adv-x="713" 
d="M610 1638v-30l-125 -17q-12 -2 -14 -12.5t-2 -36.5v-1446q0 -26 2 -36.5t14 -12.5l125 -16v-31h-508v31l125 16q13 2 15 12.5t2 36.5v1446q0 26 -2 36.5t-15 12.5l-125 17v30h508zM356 -403q-21 0 -39.5 8t-32.5 21.5t-22 32t-8 39.5q0 22 8 40.5t22 32.5t32.5 22t39.5 8
t40 -8t33 -22t22 -32.5t8 -40.5q0 -21 -8 -39.5t-22 -32t-33 -21.5t-40 -8z" />
    <glyph glyph-name="IJ" unicode="&#x132;" horiz-adv-x="713" 
d="M610 1638v-30l-125 -17q-12 -2 -14 -12.5t-2 -36.5v-1446q0 -26 2 -36.5t14 -12.5l125 -16v-31h-508v31l125 16q13 2 15 12.5t2 36.5v1446q0 26 -2 36.5t-15 12.5l-125 17v30h508zM1288 1638v-30l-125 -17q-13 -2 -15 -12.5t-2 -36.5v-1374q-24 0 -40 -23.5t-30.5 -65.5
t-32.5 -101t-46 -130q-19 -51 -52 -83t-72.5 -48.5t-83 -18t-83.5 10.5q-33 9 -61 26t-48.5 41t-30.5 53.5t-7 64.5q1 15 10 33.5t26 34.5t42.5 27t60.5 11q25 0 45 -12t34 -30.5t22 -40t8 -40.5q0 -28 -9 -47t-20 -30q-13 -13 -29 -21q39 -11 67 2.5t47 46.5t30.5 83
t17.5 112.5t8 134.5t2 149v1235q0 26 -2 36.5t-14 12.5l-125 17v30h508z" />
    <glyph glyph-name="Ntilde" unicode="&#xd1;" horiz-adv-x="1501" 
d="M504 1966q24 38 48 55.5t51.5 20.5t60 -5.5t73.5 -23.5l71.5 -24t82.5 -22.5t77 -7t54 22.5q10 11 18.5 22.5l14.5 19.5q7 10 12 18l18 -14l-94 -138q-27 -40 -55 -58.5t-58.5 -21.5t-65 6.5t-75.5 24.5q-18 6 -54 22t-76.5 27t-78 10t-57.5 -28q-11 -15 -19 -27l-13 -20
q-6 -10 -11 -17l-20 15zM1413 1638v-30l-125 -17q-12 -2 -14 -12.5t-2 -36.5v-1511q0 -9 -2 -16q-2 -6 -5.5 -10.5t-9.5 -4.5q-8 0 -19 9.5t-20 20.5q-11 13 -22 31l-870 1272v-1237q0 -26 2 -36.5t14 -12.5l125 -16v-31h-377v31l125 16q12 2 14 12.5t2 36.5v1417v40
t-1.5 23t-4.5 10.5t-8 4.5l-127 17v30h309l781 -1161v1065q0 26 -2 36.5t-15 12.5l-125 17v30h377z" />
    <glyph glyph-name="Ograve" unicode="&#xd2;" horiz-adv-x="1683" 
d="M535 2132q-5 5 -8 9q-2 3 -1 6t9 3h188q10 0 17 -3t11 -6q4 -4 7 -9l153 -350h-34zM842 1669q105 0 203.5 -30t184 -85t156 -132.5t121 -172t78 -203.5t27.5 -227t-27.5 -226.5t-78 -203t-121 -172t-156 -132.5t-184 -85.5t-203.5 -30.5t-203.5 30.5t-184 85.5
t-156 132.5t-121 172t-78 203t-27.5 226.5t27.5 227t78 203.5t121 172t156 132.5t183.5 85t204 30zM842 39q71 0 138 26t126 74.5t108.5 118t85 156t55 189t19.5 216.5t-19.5 216.5t-55 189t-85 156t-108.5 118t-126 74.5t-138 26q-107 0 -203.5 -57.5t-170 -161
t-116.5 -247t-43 -314.5t43 -314.5t116.5 -247t170 -161t203.5 -57.5z" />
    <glyph glyph-name="Oacute" unicode="&#xd3;" horiz-adv-x="1683" 
d="M1102 2150q8 0 8.5 -3t-1.5 -6l-7 -9l-342 -350h-35l154 350q3 5 7 9q4 3 10.5 6t16.5 3h189zM842 1669q105 0 203.5 -30t184 -85t156 -132.5t121 -172t78 -203.5t27.5 -227t-27.5 -226.5t-78 -203t-121 -172t-156 -132.5t-184 -85.5t-203.5 -30.5t-203.5 30.5t-184 85.5
t-156 132.5t-121 172t-78 203t-27.5 226.5t27.5 227t78 203.5t121 172t156 132.5t183.5 85t204 30zM842 39q71 0 138 26t126 74.5t108.5 118t85 156t55 189t19.5 216.5t-19.5 216.5t-55 189t-85 156t-108.5 118t-126 74.5t-138 26q-107 0 -203.5 -57.5t-170 -161
t-116.5 -247t-43 -314.5t43 -314.5t116.5 -247t170 -161t203.5 -57.5z" />
    <glyph glyph-name="Ocircumflex" unicode="&#xd4;" horiz-adv-x="1683" 
d="M588 1765l227 349q18 30 29 34q6 3 11 1.5t9 -4.5q4 -4 8 -9l265 -371h-160l-174 254l-170 -254h-45zM842 1669q105 0 203.5 -30t184 -85t156 -132.5t121 -172t78 -203.5t27.5 -227t-27.5 -226.5t-78 -203t-121 -172t-156 -132.5t-184 -85.5t-203.5 -30.5t-203.5 30.5
t-184 85.5t-156 132.5t-121 172t-78 203t-27.5 226.5t27.5 227t78 203.5t121 172t156 132.5t183.5 85t204 30zM842 39q71 0 138 26t126 74.5t108.5 118t85 156t55 189t19.5 216.5t-19.5 216.5t-55 189t-85 156t-108.5 118t-126 74.5t-138 26q-107 0 -203.5 -57.5t-170 -161
t-116.5 -247t-43 -314.5t43 -314.5t116.5 -247t170 -161t203.5 -57.5z" />
    <glyph glyph-name="uni1ED2" unicode="&#x1ed2;" horiz-adv-x="1683" 
d="M588 1765l227 349q18 30 29 34q6 3 11 1.5t9 -4.5q4 -4 8 -9l265 -371h-160l-174 254l-170 -254h-45zM842 1669q105 0 203.5 -30t184 -85t156 -132.5t121 -172t78 -203.5t27.5 -227t-27.5 -226.5t-78 -203t-121 -172t-156 -132.5t-184 -85.5t-203.5 -30.5t-203.5 30.5
t-184 85.5t-156 132.5t-121 172t-78 203t-27.5 226.5t27.5 227t78 203.5t121 172t156 132.5t183.5 85t204 30zM842 39q71 0 138 26t126 74.5t108.5 118t85 156t55 189t19.5 216.5t-19.5 216.5t-55 189t-85 156t-108.5 118t-126 74.5t-138 26q-107 0 -203.5 -57.5t-170 -161
t-116.5 -247t-43 -314.5t43 -314.5t116.5 -247t170 -161t203.5 -57.5zM884 2307q-6 5 -8 9q-2 3 -1 6t9 3h189q10 0 16.5 -3t10.5 -6q4 -4 7 -9l154 -350h-35z" />
    <glyph glyph-name="uni1ED0" unicode="&#x1ed0;" horiz-adv-x="1683" 
d="M588 1765l227 349q18 30 29 34q6 3 11 1.5t9 -4.5q4 -4 8 -9l265 -371h-160l-174 254l-170 -254h-45zM842 1669q105 0 203.5 -30t184 -85t156 -132.5t121 -172t78 -203.5t27.5 -227t-27.5 -226.5t-78 -203t-121 -172t-156 -132.5t-184 -85.5t-203.5 -30.5t-203.5 30.5
t-184 85.5t-156 132.5t-121 172t-78 203t-27.5 226.5t27.5 227t78 203.5t121 172t156 132.5t183.5 85t204 30zM842 39q71 0 138 26t126 74.5t108.5 118t85 156t55 189t19.5 216.5t-19.5 216.5t-55 189t-85 156t-108.5 118t-126 74.5t-138 26q-107 0 -203.5 -57.5t-170 -161
t-116.5 -247t-43 -314.5t43 -314.5t116.5 -247t170 -161t203.5 -57.5zM1433 2325q8 0 9 -3t-1 -6q-3 -4 -8 -9l-342 -350h-34l153 350q3 5 7 9q4 3 10.5 6t17.5 3h188z" />
    <glyph glyph-name="uni1ED6" unicode="&#x1ed6;" horiz-adv-x="1683" 
d="M588 1765l227 349q18 30 29 34q6 3 11 1.5t9 -4.5q4 -4 8 -9l265 -371h-160l-174 254l-170 -254h-45zM842 1669q105 0 203.5 -30t184 -85t156 -132.5t121 -172t78 -203.5t27.5 -227t-27.5 -226.5t-78 -203t-121 -172t-156 -132.5t-184 -85.5t-203.5 -30.5t-203.5 30.5
t-184 85.5t-156 132.5t-121 172t-78 203t-27.5 226.5t27.5 227t78 203.5t121 172t156 132.5t183.5 85t204 30zM842 39q71 0 138 26t126 74.5t108.5 118t85 156t55 189t19.5 216.5t-19.5 216.5t-55 189t-85 156t-108.5 118t-126 74.5t-138 26q-107 0 -203.5 -57.5t-170 -161
t-116.5 -247t-43 -314.5t43 -314.5t116.5 -247t170 -161t203.5 -57.5zM686 2382q24 38 48 55.5t51.5 20.5t60 -5.5t73.5 -23.5l71.5 -24t82.5 -23t77 -7t54 23q20 23 33 41q7 10 12 18l19 -14l-95 -137q-27 -40 -55 -58.5t-58.5 -21.5t-65 6.5t-75.5 24.5q-18 6 -54 21.5
t-76.5 26.5t-78 10t-57.5 -28l-19 -26.5t-13 -19.5q-6 -10 -11 -17l-20 14z" />
    <glyph glyph-name="uni1ED4" unicode="&#x1ed4;" horiz-adv-x="1683" 
d="M588 1765l227 349q18 30 29 34q6 3 11 1.5t9 -4.5q4 -4 8 -9l265 -371h-160l-174 254l-170 -254h-45zM842 1669q105 0 203.5 -30t184 -85t156 -132.5t121 -172t78 -203.5t27.5 -227t-27.5 -226.5t-78 -203t-121 -172t-156 -132.5t-184 -85.5t-203.5 -30.5t-203.5 30.5
t-184 85.5t-156 132.5t-121 172t-78 203t-27.5 226.5t27.5 227t78 203.5t121 172t156 132.5t183.5 85t204 30zM842 39q71 0 138 26t126 74.5t108.5 118t85 156t55 189t19.5 216.5t-19.5 216.5t-55 189t-85 156t-108.5 118t-126 74.5t-138 26q-107 0 -203.5 -57.5t-170 -161
t-116.5 -247t-43 -314.5t43 -314.5t116.5 -247t170 -161t203.5 -57.5zM1312 2245q8 -33 4.5 -57t-15 -43.5t-30.5 -36t-41 -33.5l-29.5 -24t-31.5 -28.5t-31.5 -36t-30.5 -46.5h-20q-2 12 -1.5 30.5t6 40.5t18 47t36.5 52q51 60 51 113q0 60 -55 88v-2q-31 14 -53 14
q-16 0 -28.5 -6.5t-26.5 -17.5q-5 -5 -9 -9.5t-2 -7.5q0 -6 13 -10q27 -12 40.5 -26t16.5 -29q0 -28 -14.5 -43t-40.5 -17q-20 0 -37.5 9.5t-28.5 29.5q-9 26 -8.5 46t6.5 32q20 54 63.5 78.5t102.5 24.5q31 0 60 -7.5t52.5 -23t40 -40.5t23.5 -61z" />
    <glyph glyph-name="uni1ED8" unicode="&#x1ed8;" horiz-adv-x="1683" 
d="M588 1765l227 349q18 30 29 34q6 3 11 1.5t9 -4.5q4 -4 8 -9l265 -371h-160l-174 254l-170 -254h-45zM842 1669q105 0 203.5 -30t184 -85t156 -132.5t121 -172t78 -203.5t27.5 -227t-27.5 -226.5t-78 -203t-121 -172t-156 -132.5t-184 -85.5t-203.5 -30.5t-203.5 30.5
t-184 85.5t-156 132.5t-121 172t-78 203t-27.5 226.5t27.5 227t78 203.5t121 172t156 132.5t183.5 85t204 30zM842 39q71 0 138 26t126 74.5t108.5 118t85 156t55 189t19.5 216.5t-19.5 216.5t-55 189t-85 156t-108.5 118t-126 74.5t-138 26q-107 0 -203.5 -57.5t-170 -161
t-116.5 -247t-43 -314.5t43 -314.5t116.5 -247t170 -161t203.5 -57.5zM857 -403q-21 0 -39.5 8t-32.5 21.5t-22 32t-8 39.5q0 22 8 40.5t22 32.5t32.5 22t39.5 8t40 -8t33 -22t22 -32.5t8 -40.5q0 -21 -8 -39.5t-22 -32t-33 -21.5t-40 -8z" />
    <glyph glyph-name="Otilde" unicode="&#xd5;" horiz-adv-x="1683" 
d="M610 2073q25 38 49 55.5t51 20.5t59.5 -5.5t74.5 -23.5l71 -24t82.5 -23t77 -7t53.5 23q20 23 33 41l13 18l18 -14l-94 -137q-28 -40 -56 -58.5t-58.5 -21.5t-65 6.5t-74.5 24.5q-18 6 -54 21.5t-76.5 26.5t-78 10t-57.5 -28l-19 -26.5t-13 -19.5q-6 -10 -11 -17l-21 14z
M842 1669q105 0 203.5 -30t184 -85t156 -132.5t121 -172t78 -203.5t27.5 -227t-27.5 -226.5t-78 -203t-121 -172t-156 -132.5t-184 -85.5t-203.5 -30.5t-203.5 30.5t-184 85.5t-156 132.5t-121 172t-78 203t-27.5 226.5t27.5 227t78 203.5t121 172t156 132.5t183.5 85
t204 30zM842 39q71 0 138 26t126 74.5t108.5 118t85 156t55 189t19.5 216.5t-19.5 216.5t-55 189t-85 156t-108.5 118t-126 74.5t-138 26q-107 0 -203.5 -57.5t-170 -161t-116.5 -247t-43 -314.5t43 -314.5t116.5 -247t170 -161t203.5 -57.5z" />
    <glyph glyph-name="Odieresis" unicode="&#xd6;" horiz-adv-x="1683" 
d="M756 2036q0 -23 -9 -43.5t-24.5 -36t-36 -24.5t-43.5 -9t-44 9t-36.5 24.5t-25 36t-9.5 43.5t9.5 43.5t25 36.5t36.5 25t44 9t43.5 -9t36 -25t24.5 -36.5t9 -43.5zM1165 2036q0 -23 -8.5 -43.5t-24 -36t-36.5 -24.5t-45 -9q-23 0 -43 9t-34.5 24.5t-23 36t-8.5 43.5
t8.5 43.5t23 36.5t34.5 25t43 9q24 0 45 -9t36.5 -25t24 -36.5t8.5 -43.5zM842 1669q-106 0 -204 -30t-183.5 -85t-156 -132.5t-121 -172t-78 -203.5t-27.5 -227t27.5 -226.5t78 -203t121 -172t156 -132.5t184 -85.5t203.5 -30.5t203.5 30.5t184 85.5t156 132.5t121 172
t78 203t27.5 226.5t-27.5 227t-78 203.5t-121 172t-156 132.5t-184 85t-203.5 30zM842 39q-107 0 -203.5 57.5t-170 161t-116.5 247t-43 314.5t43 314.5t116.5 247t170 161t203.5 57.5q71 0 138 -26t126 -74.5t108.5 -118t85 -156t55 -189t19.5 -216.5t-19.5 -216.5
t-55 -189t-85 -156t-108.5 -118t-126 -74.5t-138 -26z" />
    <glyph glyph-name="uni1ECE" unicode="&#x1ece;" horiz-adv-x="1683" 
d="M842 1669q105 0 203.5 -30t184 -85t156 -132.5t121 -172t78 -203.5t27.5 -227t-27.5 -226.5t-78 -203t-121 -172t-156 -132.5t-184 -85.5t-203.5 -30.5t-203.5 30.5t-184 85.5t-156 132.5t-121 172t-78 203t-27.5 226.5t27.5 227t78 203.5t121 172t156 132.5t183.5 85
t204 30zM842 39q71 0 138 26t126 74.5t108.5 118t85 156t55 189t19.5 216.5t-19.5 216.5t-55 189t-85 156t-108.5 118t-126 74.5t-138 26q-107 0 -203.5 -57.5t-170 -161t-116.5 -247t-43 -314.5t43 -314.5t116.5 -247t170 -161t203.5 -57.5zM1003 2062q8 -33 4.5 -57
t-15 -43.5t-30.5 -36t-41 -33.5l-29.5 -24t-31.5 -28.5t-31.5 -36t-30.5 -46.5h-20q-2 12 -1.5 30.5t6 40.5t18 47t36.5 52q51 60 51 113q0 60 -55 88v-2q-31 14 -53 14q-16 0 -28.5 -6.5t-26.5 -17.5q-5 -5 -9 -9.5t-2 -7.5q0 -6 13 -10q27 -12 40.5 -26t16.5 -29
q0 -28 -14.5 -43t-40.5 -17q-20 0 -37.5 9.5t-28.5 29.5q-9 26 -8.5 46t6.5 32q20 54 63.5 78.5t102.5 24.5q31 0 60 -7.5t52.5 -23t40 -40.5t23.5 -61z" />
    <glyph glyph-name="uni1ECC" unicode="&#x1ecc;" horiz-adv-x="1683" 
d="M842 1669q105 0 203.5 -30t184 -85t156 -132.5t121 -172t78 -203.5t27.5 -227t-27.5 -226.5t-78 -203t-121 -172t-156 -132.5t-184 -85.5t-203.5 -30.5t-203.5 30.5t-184 85.5t-156 132.5t-121 172t-78 203t-27.5 226.5t27.5 227t78 203.5t121 172t156 132.5t183.5 85
t204 30zM842 39q71 0 138 26t126 74.5t108.5 118t85 156t55 189t19.5 216.5t-19.5 216.5t-55 189t-85 156t-108.5 118t-126 74.5t-138 26q-107 0 -203.5 -57.5t-170 -161t-116.5 -247t-43 -314.5t43 -314.5t116.5 -247t170 -161t203.5 -57.5zM857 -403q-21 0 -39.5 8
t-32.5 21.5t-22 32t-8 39.5q0 22 8 40.5t22 32.5t32.5 22t39.5 8t40 -8t33 -22t22 -32.5t8 -40.5q0 -21 -8 -39.5t-22 -32t-33 -21.5t-40 -8z" />
    <glyph glyph-name="Ohorn" unicode="&#x1a0;" horiz-adv-x="1683" 
d="M842 1669q108 0 206.5 -31t186.5 -88q52 -4 98 12.5t81 45t56 66.5t23.5 76.5t-16 75t-62.5 62.5q9 -15 12 -24.5t3 -26.5q1 -21 -7.5 -40.5t-23 -34t-34 -23t-40.5 -8.5q-27 -1 -47 8t-33 23.5t-19.5 33.5t-6.5 39q1 22 8.5 44t21.5 40t34.5 30t47.5 15q45 4 83.5 -10.5
t66.5 -43.5t43.5 -70.5t15.5 -90.5q0 -37 -13.5 -77.5t-41 -77t-69.5 -65t-99 -40.5q67 -59 121.5 -132.5t93 -159t59.5 -181t21 -197.5q0 -118 -27.5 -226.5t-78 -203t-121 -172t-156 -132.5t-184 -85.5t-203.5 -30.5t-203.5 30.5t-184 85.5t-156 132.5t-121 172t-78 203
t-27.5 226.5t27.5 227t78 203.5t121 172t156 132.5t183.5 85t204 30zM842 39q71 0 138 26t126 74.5t108.5 118t85 156t55 189t19.5 216.5t-19.5 216.5t-55 189t-85 156t-108.5 118t-126 74.5t-138 26q-107 0 -203.5 -57.5t-170 -161t-116.5 -247t-43 -314.5t43 -314.5
t116.5 -247t170 -161t203.5 -57.5z" />
    <glyph glyph-name="uni1EDC" unicode="&#x1edc;" horiz-adv-x="1683" 
d="M842 1669q109 0 207 -31t186 -88q52 -4 98 12.5t81 45t56 66.5t23.5 76.5t-16 75t-62.5 62.5q9 -15 12 -24.5t3 -26.5q1 -21 -7.5 -40.5t-23 -34t-34 -23t-40.5 -8.5q-27 -1 -47 7.5t-33 23.5t-19.5 34t-6.5 39q1 22 8.5 44t21.5 40t34.5 30t47.5 15q45 4 83.5 -10.5
t66.5 -43.5t43.5 -70.5t15.5 -90.5q0 -37 -13.5 -77.5t-41 -77t-69.5 -65t-99 -40.5q67 -59 121.5 -132.5t93 -159t59.5 -181t21 -197.5q0 -118 -27.5 -226.5t-78 -203t-121 -172t-156 -132.5t-183.5 -85.5t-204 -30.5t-204 30.5t-183.5 85.5t-156 132.5t-121 172t-78 203
t-27.5 226.5t27.5 227t78 203.5t121 172t156 132.5t183.5 85t204 30zM842 39q71 0 138 26t126 74.5t108.5 118t85 156t55 189t19.5 216.5t-19.5 216.5t-55 189t-85 156t-108.5 118t-126 74.5t-138 26q-107 0 -203.5 -57.5t-170 -161t-116.5 -247t-43 -314.5t43 -314.5
t116.5 -247t170 -161t203.5 -57.5zM535 2132q-6 6 -8 9t-1 6t9 3h188q10 0 17 -3t11 -6q3 -3 7 -9l153 -350h-34z" />
    <glyph glyph-name="uni1EDA" unicode="&#x1eda;" horiz-adv-x="1683" 
d="M842 1669q109 0 207 -31t186 -88q52 -4 98 12.5t81 45t56 66.5t23.5 76.5t-16 75t-62.5 62.5q9 -15 12 -24.5t3 -26.5q1 -21 -7.5 -40.5t-23 -34t-34 -23t-40.5 -8.5q-27 -1 -47 7.5t-33 23.5t-19.5 34t-6.5 39q1 22 8.5 44t21.5 40t34.5 30t47.5 15q45 4 83.5 -10.5
t66.5 -43.5t43.5 -70.5t15.5 -90.5q0 -37 -13.5 -77.5t-41 -77t-69.5 -65t-99 -40.5q67 -59 121.5 -132.5t93 -159t59.5 -181t21 -197.5q0 -118 -27.5 -226.5t-78 -203t-121 -172t-156 -132.5t-183.5 -85.5t-204 -30.5t-204 30.5t-183.5 85.5t-156 132.5t-121 172t-78 203
t-27.5 226.5t27.5 227t78 203.5t121 172t156 132.5t183.5 85t204 30zM842 39q71 0 138 26t126 74.5t108.5 118t85 156t55 189t19.5 216.5t-19.5 216.5t-55 189t-85 156t-108.5 118t-126 74.5t-138 26q-107 0 -203.5 -57.5t-170 -161t-116.5 -247t-43 -314.5t43 -314.5
t116.5 -247t170 -161t203.5 -57.5zM1102 2150q8 0 8.5 -3t-1.5 -6q-4 -6 -7 -9l-342 -350h-35l154 350q4 6 7 9q4 3 10.5 6t16.5 3h189z" />
    <glyph glyph-name="uni1EE0" unicode="&#x1ee0;" horiz-adv-x="1683" 
d="M842 1669q108 0 206.5 -31t186.5 -88q52 -4 98 12.5t81 45t56 66.5t23.5 76.5t-16 75t-62.5 62.5q9 -15 12 -24.5t3 -26.5q1 -21 -7.5 -40.5t-23 -34t-34 -23t-40.5 -8.5q-27 -1 -47 8t-33 23.5t-19.5 33.5t-6.5 39q1 22 8.5 44t21.5 40t34.5 30t47.5 15q45 4 83.5 -10.5
t66.5 -43.5t43.5 -70.5t15.5 -90.5q0 -37 -13.5 -77.5t-41 -77t-69.5 -65t-99 -40.5q67 -59 121.5 -132.5t93 -159t59.5 -181t21 -197.5q0 -118 -27.5 -226.5t-78 -203t-121 -172t-156 -132.5t-184 -85.5t-203.5 -30.5t-203.5 30.5t-184 85.5t-156 132.5t-121 172t-78 203
t-27.5 226.5t27.5 227t78 203.5t121 172t156 132.5t183.5 85t204 30zM842 39q71 0 138 26t126 74.5t108.5 118t85 156t55 189t19.5 216.5t-19.5 216.5t-55 189t-85 156t-108.5 118t-126 74.5t-138 26q-107 0 -203.5 -57.5t-170 -161t-116.5 -247t-43 -314.5t43 -314.5
t116.5 -247t170 -161t203.5 -57.5zM551 2073q24 38 48 55.5t51.5 20.5t60 -5.5t73.5 -23.5l71.5 -24t82.5 -23t77 -7t54 23q20 23 33 41q7 10 12 18l19 -14l-95 -137q-27 -40 -55 -58.5t-58.5 -21.5t-65 6.5t-75.5 24.5q-18 6 -54 21.5t-76.5 26.5t-78 10t-57.5 -28
l-19 -26.5t-13 -19.5q-6 -10 -11 -17l-20 14z" />
    <glyph glyph-name="uni1EDE" unicode="&#x1ede;" horiz-adv-x="1683" 
d="M842 1669q108 0 206.5 -31t186.5 -88q52 -4 98 12.5t81 45t56 66.5t23.5 76.5t-16 75t-62.5 62.5q9 -15 12 -24.5t3 -26.5q1 -21 -7.5 -40.5t-23 -34t-34 -23t-40.5 -8.5q-27 -1 -47 8t-33 23.5t-19.5 33.5t-6.5 39q1 22 8.5 44t21.5 40t34.5 30t47.5 15q45 4 83.5 -10.5
t66.5 -43.5t43.5 -70.5t15.5 -90.5q0 -37 -13.5 -77.5t-41 -77t-69.5 -65t-99 -40.5q67 -59 121.5 -132.5t93 -159t59.5 -181t21 -197.5q0 -118 -27.5 -226.5t-78 -203t-121 -172t-156 -132.5t-184 -85.5t-203.5 -30.5t-203.5 30.5t-184 85.5t-156 132.5t-121 172t-78 203
t-27.5 226.5t27.5 227t78 203.5t121 172t156 132.5t183.5 85t204 30zM842 39q71 0 138 26t126 74.5t108.5 118t85 156t55 189t19.5 216.5t-19.5 216.5t-55 189t-85 156t-108.5 118t-126 74.5t-138 26q-107 0 -203.5 -57.5t-170 -161t-116.5 -247t-43 -314.5t43 -314.5
t116.5 -247t170 -161t203.5 -57.5zM1047 2062q8 -33 4.5 -57t-15 -43.5t-30.5 -36t-41 -33.5l-29.5 -24t-31.5 -28.5t-31.5 -36t-30.5 -46.5h-20q-2 12 -1.5 30.5t6 40.5t18 47t36.5 52q51 60 51 113q0 60 -55 88v-2q-31 14 -53 14q-16 0 -28.5 -6.5t-26.5 -17.5
q-5 -5 -9 -9.5t-2 -7.5q0 -6 13 -10q27 -12 40.5 -26t16.5 -29q0 -28 -14.5 -43t-40.5 -17q-20 0 -37.5 9.5t-28.5 29.5q-9 26 -8.5 46t6.5 32q20 54 63.5 78.5t102.5 24.5q31 0 60 -7.5t52.5 -23t40 -40.5t23.5 -61z" />
    <glyph glyph-name="uni1EE2" unicode="&#x1ee2;" horiz-adv-x="1683" 
d="M842 1669q108 0 206.5 -31t186.5 -88q52 -4 98 12.5t81 45t56 66.5t23.5 76.5t-16 75t-62.5 62.5q9 -15 12 -24.5t3 -26.5q1 -21 -7.5 -40.5t-23 -34t-34 -23t-40.5 -8.5q-27 -1 -47 8t-33 23.5t-19.5 33.5t-6.5 39q1 22 8.5 44t21.5 40t34.5 30t47.5 15q45 4 83.5 -10.5
t66.5 -43.5t43.5 -70.5t15.5 -90.5q0 -37 -13.5 -77.5t-41 -77t-69.5 -65t-99 -40.5q67 -59 121.5 -132.5t93 -159t59.5 -181t21 -197.5q0 -118 -27.5 -226.5t-78 -203t-121 -172t-156 -132.5t-184 -85.5t-203.5 -30.5t-203.5 30.5t-184 85.5t-156 132.5t-121 172t-78 203
t-27.5 226.5t27.5 227t78 203.5t121 172t156 132.5t183.5 85t204 30zM842 39q71 0 138 26t126 74.5t108.5 118t85 156t55 189t19.5 216.5t-19.5 216.5t-55 189t-85 156t-108.5 118t-126 74.5t-138 26q-107 0 -203.5 -57.5t-170 -161t-116.5 -247t-43 -314.5t43 -314.5
t116.5 -247t170 -161t203.5 -57.5zM857 -403q-21 0 -39.5 8t-32.5 21.5t-22 32t-8 39.5q0 22 8 40.5t22 32.5t32.5 22t39.5 8t40 -8t33 -22t22 -32.5t8 -40.5q0 -21 -8 -39.5t-22 -32t-33 -21.5t-40 -8z" />
    <glyph glyph-name="Oslash" unicode="&#xd8;" horiz-adv-x="1683" 
d="M1255 1536q80 -56 145.5 -132.5t112.5 -168.5t73 -197t26 -219q0 -118 -27.5 -226.5t-78 -203t-121 -172t-156 -132.5t-184 -85.5t-203.5 -30.5q-106 0 -202 29.5t-181 83.5l-64 -115h-96l90 166q-72 58 -130.5 132.5t-100 162.5t-64 186.5t-22.5 204.5q0 118 27.5 227
t78 203.5t121 172t156 132.5t183.5 85t204 30q91 0 175.5 -22t162.5 -64l47 86h100zM1124 1483q-62 57 -133.5 86.5t-148.5 29.5q-107 0 -203.5 -57.5t-170 -161t-116.5 -247t-43 -314.5q0 -168 41.5 -309t112.5 -244zM520 195q68 -75 150 -115.5t172 -40.5q71 0 138 26
t126 74.5t108.5 118t85 156t55 189t19.5 216.5q0 93 -13.5 178t-37.5 160.5t-58.5 140.5t-76.5 117z" />
    <glyph glyph-name="OE" unicode="&#x152;" horiz-adv-x="2322" 
d="M2271 438q-5 -29 -7.5 -62t-4 -66.5t-2 -65t-0.5 -56.5q0 -35 2 -69t5 -60q3 -31 7 -59h-1429q-105 0 -203.5 28t-184 79.5t-156 125t-121 164.5t-78 197.5t-27.5 224.5t27.5 225t78 198t121 164t156 124.5t183.5 79.5t204 28h1347q-11 -24 -12.5 -54.5t-1.5 -55.5
q0 -21 1 -45.5t3.5 -51.5l5 -54.5t5.5 -52.5q7 -60 16 -122h-47q0 35 -5.5 76t-22 82.5t-47.5 80t-83 68.5t-128 48t-181 18h-217q-32 0 -41 -11t-9 -22v-631h281q33 0 57.5 12.5t43 32.5t31 46.5t20.5 53.5q19 64 22 146h43v-657h-43q6 85 -10 152q-7 28 -19 55.5
t-31.5 49.5t-47.5 35t-66 13h-281v-725q0 -28 4.5 -41.5t16.5 -20.5q12 -6 57.5 -11t138.5 -5q131 0 222.5 11.5t154 34t100.5 56t61.5 77t37 96.5t27.5 116h26zM1200 1294q0 72 -32 126t-83 91t-115 55.5t-128 18.5q-107 0 -203.5 -55.5t-170 -156t-116.5 -242t-43 -312.5
t43 -312.5t116.5 -242t170 -156t203.5 -55.5q64 0 128 18.5t115 55.5t83 91.5t32 125.5v950z" />
    <glyph glyph-name="Ugrave" unicode="&#xd9;" horiz-adv-x="1604" 
d="M545 2132q-5 5 -8 9q-2 3 -1 6t9 3h188q10 0 17 -3t11 -6q4 -4 7 -9l154 -350h-35zM1516 1638v-30l-125 -17q-13 -2 -14 -12.5t-1 -36.5v-958q0 -124 -24.5 -235t-84.5 -194.5t-162 -132.5t-257 -49q-139 0 -238 27t-166 77t-106.5 121t-60.5 159.5t-27 192.5t-6 220v772
q0 26 -2 36.5t-15 12.5l-125 17v30h508v-30l-125 -17q-12 -2 -14 -12.5t-2 -36.5v-768q0 -107 2.5 -202.5t14 -175.5t35.5 -143.5t67 -108t108.5 -68t159.5 -23.5q126 0 208 44.5t130 122t67 181t19 222.5v919q0 26 -2 36.5t-14 12.5l-125 17v30h377z" />
    <glyph glyph-name="Uacute" unicode="&#xda;" horiz-adv-x="1604" 
d="M1112 2150q8 0 9 -3t-1 -6q-3 -4 -8 -9l-342 -350h-35l154 350q3 5 7 9q4 3 10.5 6t17.5 3h188zM1516 1638v-30l-125 -17q-13 -2 -14 -12.5t-1 -36.5v-958q0 -124 -24.5 -235t-84.5 -194.5t-162 -132.5t-257 -49q-139 0 -238 27t-166 77t-106.5 121t-60.5 159.5
t-27 192.5t-6 220v772q0 26 -2 36.5t-15 12.5l-125 17v30h508v-30l-125 -17q-12 -2 -14 -12.5t-2 -36.5v-768q0 -107 2.5 -202.5t14 -175.5t35.5 -143.5t67 -108t108.5 -68t159.5 -23.5q126 0 208 44.5t130 122t67 181t19 222.5v919q0 26 -2 36.5t-14 12.5l-125 17v30h377z
" />
    <glyph glyph-name="Ucircumflex" unicode="&#xdb;" horiz-adv-x="1604" 
d="M590 1765l227 349q18 30 29 34q6 3 11 1.5t9 -4.5q4 -4 8 -9l265 -371h-160l-174 254l-170 -254h-45zM1516 1638v-30l-125 -17q-13 -2 -14 -12.5t-1 -36.5v-958q0 -124 -24.5 -235t-84.5 -194.5t-162 -132.5t-257 -49q-139 0 -238 27t-166 77t-106.5 121t-60.5 159.5
t-27 192.5t-6 220v772q0 26 -2 36.5t-15 12.5l-125 17v30h508v-30l-125 -17q-12 -2 -14 -12.5t-2 -36.5v-768q0 -107 2.5 -202.5t14 -175.5t35.5 -143.5t67 -108t108.5 -68t159.5 -23.5q126 0 208 44.5t130 122t67 181t19 222.5v919q0 26 -2 36.5t-14 12.5l-125 17v30h377z
" />
    <glyph glyph-name="Utilde" unicode="&#x168;" horiz-adv-x="1604" 
d="M594 2073q24 38 48 55.5t51.5 20.5t60 -5.5t73.5 -23.5l71.5 -24t82.5 -23t77 -7t54 23q20 23 33 41q7 10 12 18l19 -14l-95 -137q-27 -40 -55 -58.5t-58.5 -21.5t-65 6.5t-75.5 24.5q-18 6 -54 21.5t-76.5 26.5t-78 10t-57.5 -28l-19 -26.5t-13 -19.5q-6 -10 -11 -17
l-20 14zM1516 1638v-30l-125 -17q-13 -2 -14 -12.5t-1 -36.5v-958q0 -124 -24.5 -235t-84.5 -194.5t-162 -132.5t-257 -49q-139 0 -238 27t-166 77t-106.5 121t-60.5 159.5t-27 192.5t-6 220v772q0 26 -2 36.5t-15 12.5l-125 17v30h508v-30l-125 -17q-12 -2 -14 -12.5
t-2 -36.5v-768q0 -107 2.5 -202.5t14 -175.5t35.5 -143.5t67 -108t108.5 -68t159.5 -23.5q126 0 208 44.5t130 122t67 181t19 222.5v919q0 26 -2 36.5t-14 12.5l-125 17v30h377z" />
    <glyph glyph-name="Udieresis" unicode="&#xdc;" horiz-adv-x="1604" 
d="M709 2036q0 -23 -9 -43.5t-24.5 -36t-36 -24.5t-43.5 -9t-44 9t-36.5 24.5t-25 36t-9.5 43.5t9.5 43.5t25 36.5t36.5 25t44 9t43.5 -9t36 -25t24.5 -36.5t9 -43.5zM1118 2036q0 -23 -8.5 -43.5t-24 -36t-36.5 -24.5t-45 -9q-23 0 -43 9t-34.5 24.5t-23 36t-8.5 43.5
t8.5 43.5t23 36.5t34.5 25t43 9q24 0 45 -9t36.5 -25t24 -36.5t8.5 -43.5zM1139 1638v-30l125 -17q12 -2 14 -12.5t2 -36.5v-919q0 -119 -19 -222.5t-67 -181t-130 -122t-208 -44.5q-94 0 -159.5 23.5t-108.5 68t-67 108t-35.5 143.5t-14 175.5t-2.5 202.5v768q0 26 2 36.5
t14 12.5l125 17v30h-508v-30l125 -17q13 -2 15 -12.5t2 -36.5v-772q0 -116 6 -220t27 -192.5t60.5 -159.5t106.5 -121t166 -77t238 -27q155 0 257 49t162 132.5t84.5 194.5t24.5 235v958q0 26 1 36.5t14 12.5l125 17v30h-377z" />
    <glyph glyph-name="uni1EE6" unicode="&#x1ee6;" horiz-adv-x="1604" 
d="M1516 1638v-30l-125 -17q-13 -2 -14 -12.5t-1 -36.5v-958q0 -124 -24.5 -235t-84.5 -194.5t-162 -132.5t-257 -49q-139 0 -238 27t-166 77t-106.5 121t-60.5 159.5t-27 192.5t-6 220v772q0 26 -2 36.5t-15 12.5l-125 17v30h508v-30l-125 -17q-12 -2 -14 -12.5t-2 -36.5
v-768q0 -107 2.5 -202.5t14 -175.5t35.5 -143.5t67 -108t108.5 -68t159.5 -23.5q126 0 208 44.5t130 122t67 181t19 222.5v919q0 26 -2 36.5t-14 12.5l-125 17v30h377zM1004 2062q8 -33 4.5 -57t-15 -43.5t-30.5 -36t-41 -33.5l-29.5 -24t-31.5 -28.5t-31.5 -36t-30.5 -46.5
h-20q-2 12 -1.5 30.5t6 40.5t18 47t36.5 52q51 60 51 113q0 60 -55 88v-2q-31 14 -53 14q-16 0 -28.5 -6.5t-26.5 -17.5q-5 -5 -9 -9.5t-2 -7.5q0 -6 13 -10q27 -12 40.5 -26t16.5 -29q0 -28 -14.5 -43t-40.5 -17q-20 0 -37.5 9.5t-28.5 29.5q-9 26 -8.5 46t6.5 32
q20 54 63.5 78.5t102.5 24.5q31 0 60 -7.5t52.5 -23t40 -40.5t23.5 -61z" />
    <glyph glyph-name="uni1EE4" unicode="&#x1ee4;" horiz-adv-x="1604" 
d="M1516 1638v-30l-125 -17q-13 -2 -14 -12.5t-1 -36.5v-958q0 -124 -24.5 -235t-84.5 -194.5t-162 -132.5t-257 -49q-139 0 -238 27t-166 77t-106.5 121t-60.5 159.5t-27 192.5t-6 220v772q0 26 -2 36.5t-15 12.5l-125 17v30h508v-30l-125 -17q-12 -2 -14 -12.5t-2 -36.5
v-768q0 -107 2.5 -202.5t14 -175.5t35.5 -143.5t67 -108t108.5 -68t159.5 -23.5q126 0 208 44.5t130 122t67 181t19 222.5v919q0 26 -2 36.5t-14 12.5l-125 17v30h377zM824 -403q-21 0 -39.5 8t-32.5 21.5t-22 32t-8 39.5q0 22 8 40.5t22 32.5t32.5 22t39.5 8t40 -8t33 -22
t22 -32.5t8 -40.5q0 -21 -8 -39.5t-22 -32t-33 -21.5t-40 -8z" />
    <glyph glyph-name="Uhorn" unicode="&#x1af;" horiz-adv-x="1604" 
d="M1376 1638v-86q44 7 81.5 28.5t64.5 51t41.5 64.5t13.5 69.5t-20.5 66.5t-59.5 56q9 -15 11.5 -24.5t2.5 -26.5q1 -21 -7.5 -40.5t-22.5 -34t-33.5 -23t-40.5 -8.5q-27 -1 -47 8t-33.5 23.5t-20 33.5t-6.5 39q1 22 8.5 44t22 40t35 30t47.5 15q45 4 83.5 -10.5
t66.5 -43.5t43.5 -70.5t15.5 -90.5q0 -39 -14.5 -82t-44.5 -80.5t-76.5 -65t-110.5 -36.5v-901q0 -124 -24.5 -235t-84.5 -194.5t-162 -132.5t-257 -49q-139 0 -238 27t-166 77t-106.5 121t-60.5 159.5t-27 192.5t-6 220v772q0 26 -2 36.5t-15 12.5l-125 17v30h508v-30
l-125 -17q-12 -2 -14 -12.5t-2 -36.5v-768q0 -107 2.5 -202.5t14 -175.5t35.5 -143.5t67 -108t108.5 -68t159.5 -23.5q126 0 208 44.5t130 122t67 181t19 222.5v919q0 26 -2 36.5t-14 12.5l-125 17v30h237z" />
    <glyph glyph-name="uni1EEA" unicode="&#x1eea;" horiz-adv-x="1604" 
d="M1376 1552q67 11 116.5 51.5t70.5 92t7.5 104t-73.5 88.5q9 -15 11.5 -24.5t2.5 -26.5q1 -21 -7 -40.5t-22.5 -34t-34 -23t-40.5 -8.5q-27 -1 -47 7.5t-33.5 23.5t-20 34t-6.5 39q1 22 8.5 44t22 40t35 30t47.5 15q45 4 83.5 -10.5t66.5 -43.5t43.5 -70.5t15.5 -90.5
q0 -39 -14.5 -82t-44.5 -80.5t-76.5 -65t-110.5 -36.5v-901q0 -124 -24.5 -235t-84.5 -194.5t-162 -132.5t-257 -49q-139 0 -238 27t-166 77t-106.5 121t-60.5 159.5t-27 192.5t-6 220v772q0 26 -2 36.5t-15 12.5l-125 17v30h508v-30l-125 -17q-12 -2 -14 -12.5t-2 -36.5
v-768q0 -107 2.5 -202.5t14 -175.5t35.5 -143.5t67 -108t108.5 -68t159.5 -23.5q126 0 208 44.5t130 122t67 181t19 222.5v919q0 26 -2 36.5t-14 12.5l-125 17v30h237v-86zM545 2132q-6 6 -8 9t-1 6t9 3h188q10 0 17 -3t11 -6q3 -3 7 -9l154 -350h-35z" />
    <glyph glyph-name="uni1EE8" unicode="&#x1ee8;" horiz-adv-x="1604" 
d="M1376 1552q67 11 116.5 51.5t70.5 92t7.5 104t-73.5 88.5q9 -15 11.5 -24.5t2.5 -26.5q1 -21 -7 -40.5t-22.5 -34t-34 -23t-40.5 -8.5q-27 -1 -47 7.5t-33.5 23.5t-20 34t-6.5 39q1 22 8.5 44t22 40t35 30t47.5 15q45 4 83.5 -10.5t66.5 -43.5t43.5 -70.5t15.5 -90.5
q0 -39 -14.5 -82t-44.5 -80.5t-76.5 -65t-110.5 -36.5v-901q0 -124 -24.5 -235t-84.5 -194.5t-162 -132.5t-257 -49q-139 0 -238 27t-166 77t-106.5 121t-60.5 159.5t-27 192.5t-6 220v772q0 26 -2 36.5t-15 12.5l-125 17v30h508v-30l-125 -17q-12 -2 -14 -12.5t-2 -36.5
v-768q0 -107 2.5 -202.5t14 -175.5t35.5 -143.5t67 -108t108.5 -68t159.5 -23.5q126 0 208 44.5t130 122t67 181t19 222.5v919q0 26 -2 36.5t-14 12.5l-125 17v30h237v-86zM1112 2150q8 0 9 -3t-1 -6t-8 -9l-342 -350h-35l154 350q4 6 7 9q4 3 10.5 6t17.5 3h188z" />
    <glyph glyph-name="uni1EEE" unicode="&#x1eee;" horiz-adv-x="1604" 
d="M1376 1638v-86q44 7 81.5 28.5t64.5 51t41.5 64.5t13.5 69.5t-20.5 66.5t-59.5 56q9 -15 11.5 -24.5t2.5 -26.5q1 -21 -7.5 -40.5t-22.5 -34t-33.5 -23t-40.5 -8.5q-27 -1 -47 8t-33.5 23.5t-20 33.5t-6.5 39q1 22 8.5 44t22 40t35 30t47.5 15q45 4 83.5 -10.5
t66.5 -43.5t43.5 -70.5t15.5 -90.5q0 -39 -14.5 -82t-44.5 -80.5t-76.5 -65t-110.5 -36.5v-901q0 -124 -24.5 -235t-84.5 -194.5t-162 -132.5t-257 -49q-139 0 -238 27t-166 77t-106.5 121t-60.5 159.5t-27 192.5t-6 220v772q0 26 -2 36.5t-15 12.5l-125 17v30h508v-30
l-125 -17q-12 -2 -14 -12.5t-2 -36.5v-768q0 -107 2.5 -202.5t14 -175.5t35.5 -143.5t67 -108t108.5 -68t159.5 -23.5q126 0 208 44.5t130 122t67 181t19 222.5v919q0 26 -2 36.5t-14 12.5l-125 17v30h237zM551 2073q24 38 48 55.5t51.5 20.5t60 -5.5t73.5 -23.5l71.5 -24
t82.5 -23t77 -7t54 23q20 23 33 41q7 10 12 18l19 -14l-95 -137q-27 -40 -55 -58.5t-58.5 -21.5t-65 6.5t-75.5 24.5q-18 6 -54 21.5t-76.5 26.5t-78 10t-57.5 -28l-19 -26.5t-13 -19.5q-6 -10 -11 -17l-20 14z" />
    <glyph glyph-name="uni1EEC" unicode="&#x1eec;" horiz-adv-x="1604" 
d="M1376 1638v-86q44 7 81.5 28.5t64.5 51t41.5 64.5t13.5 69.5t-20.5 66.5t-59.5 56q9 -15 11.5 -24.5t2.5 -26.5q1 -21 -7.5 -40.5t-22.5 -34t-33.5 -23t-40.5 -8.5q-27 -1 -47 8t-33.5 23.5t-20 33.5t-6.5 39q1 22 8.5 44t22 40t35 30t47.5 15q45 4 83.5 -10.5
t66.5 -43.5t43.5 -70.5t15.5 -90.5q0 -39 -14.5 -82t-44.5 -80.5t-76.5 -65t-110.5 -36.5v-901q0 -124 -24.5 -235t-84.5 -194.5t-162 -132.5t-257 -49q-139 0 -238 27t-166 77t-106.5 121t-60.5 159.5t-27 192.5t-6 220v772q0 26 -2 36.5t-15 12.5l-125 17v30h508v-30
l-125 -17q-12 -2 -14 -12.5t-2 -36.5v-768q0 -107 2.5 -202.5t14 -175.5t35.5 -143.5t67 -108t108.5 -68t159.5 -23.5q126 0 208 44.5t130 122t67 181t19 222.5v919q0 26 -2 36.5t-14 12.5l-125 17v30h237zM1004 2062q8 -33 4.5 -57t-15 -43.5t-30.5 -36t-41 -33.5
l-29.5 -24t-31.5 -28.5t-31.5 -36t-30.5 -46.5h-20q-2 12 -1.5 30.5t6 40.5t18 47t36.5 52q51 60 51 113q0 60 -55 88v-2q-31 14 -53 14q-16 0 -28.5 -6.5t-26.5 -17.5q-5 -5 -9 -9.5t-2 -7.5q0 -6 13 -10q27 -12 40.5 -26t16.5 -29q0 -28 -14.5 -43t-40.5 -17
q-20 0 -37.5 9.5t-28.5 29.5q-9 26 -8.5 46t6.5 32q20 54 63.5 78.5t102.5 24.5q31 0 60 -7.5t52.5 -23t40 -40.5t23.5 -61z" />
    <glyph glyph-name="uni1EF0" unicode="&#x1ef0;" horiz-adv-x="1604" 
d="M1376 1638v-86q44 7 81.5 28.5t64.5 51t41.5 64.5t13.5 69.5t-20.5 66.5t-59.5 56q9 -15 11.5 -24.5t2.5 -26.5q1 -21 -7.5 -40.5t-22.5 -34t-33.5 -23t-40.5 -8.5q-27 -1 -47 8t-33.5 23.5t-20 33.5t-6.5 39q1 22 8.5 44t22 40t35 30t47.5 15q45 4 83.5 -10.5
t66.5 -43.5t43.5 -70.5t15.5 -90.5q0 -39 -14.5 -82t-44.5 -80.5t-76.5 -65t-110.5 -36.5v-901q0 -124 -24.5 -235t-84.5 -194.5t-162 -132.5t-257 -49q-139 0 -238 27t-166 77t-106.5 121t-60.5 159.5t-27 192.5t-6 220v772q0 26 -2 36.5t-15 12.5l-125 17v30h508v-30
l-125 -17q-12 -2 -14 -12.5t-2 -36.5v-768q0 -107 2.5 -202.5t14 -175.5t35.5 -143.5t67 -108t108.5 -68t159.5 -23.5q126 0 208 44.5t130 122t67 181t19 222.5v919q0 26 -2 36.5t-14 12.5l-125 17v30h237zM824 -403q-21 0 -39.5 8t-32.5 21.5t-22 32t-8 39.5q0 22 8 40.5
t22 32.5t32.5 22t39.5 8t40 -8t33 -22t22 -32.5t8 -40.5q0 -21 -8 -39.5t-22 -32t-33 -21.5t-40 -8z" />
    <glyph glyph-name="Ygrave" unicode="&#x1ef2;" horiz-adv-x="1442" 
d="M473 2132q-6 5 -8 9q-2 3 -1 6t9 3h189q10 0 16.5 -3t10.5 -6q4 -4 7 -9l154 -350h-35zM1411 1638v-30l-108 -15q-19 -3 -31 -18t-19 -25l-424 -641v-813q0 -26 2 -36.5t15 -12.5l125 -16v-31h-508v31l125 16q12 2 14 12.5t2 36.5v729l-422 717l-18.5 31t-24.5 20
l-108 15v30h508v-30l-125 -17q-13 -2 -15.5 -12.5t13.5 -36.5l348 -592l397 600q11 19 3.5 29t-19.5 12l-125 17v30h395z" />
    <glyph glyph-name="Yacute" unicode="&#xdd;" horiz-adv-x="1442" 
d="M1061 2150q8 0 8.5 -3t-1.5 -6l-7 -9l-342 -350h-35l154 350q3 5 7 9q4 3 10.5 6t16.5 3h189zM1411 1638v-30l-108 -15q-19 -3 -31 -18t-19 -25l-424 -641v-813q0 -26 2 -36.5t15 -12.5l125 -16v-31h-508v31l125 16q12 2 14 12.5t2 36.5v729l-422 717l-18.5 31t-24.5 20
l-108 15v30h508v-30l-125 -17q-13 -2 -15.5 -12.5t13.5 -36.5l348 -592l397 600q11 19 3.5 29t-19.5 12l-125 17v30h395z" />
    <glyph glyph-name="uni1EF8" horiz-adv-x="1442" 
d="M1411 1638v-30l-108 -15q-19 -3 -31 -18t-19 -25l-424 -641v-813q0 -26 2 -36.5t15 -12.5l125 -16v-31h-508v31l125 16q12 2 14 12.5t2 36.5v729l-422 717l-18.5 31t-24.5 20l-108 15v30h508v-30l-125 -17q-13 -2 -15.5 -12.5t13.5 -36.5l348 -592l397 600q11 19 3.5 29
t-19.5 12l-125 17v30h395zM587 2073q24 38 48 55.5t51.5 20.5t60 -5.5t73.5 -23.5l71.5 -24t82.5 -23t77 -7t54 23q10 11 18 21.5l15 19.5q7 10 12 18l19 -14l-95 -137q-27 -41 -55 -59t-58.5 -21t-65 6.5t-75.5 24.5q-12 4 -32.5 13t-45.5 18t-52.5 17t-53 10t-47.5 -4
t-35 -24l-19 -26.5t-13 -19.5q-3 -5 -6 -9t-5 -8l-20 14l96 144v0z" />
    <glyph glyph-name="Ydieresis" unicode="&#x178;" horiz-adv-x="1442" 
d="M688 2036q0 -23 -9 -43.5t-24.5 -36t-36 -24.5t-43.5 -9t-43.5 9t-36.5 24.5t-25 36t-9 43.5t9 43.5t25 36.5t36.5 25t43.5 9t43.5 -9t36 -25t24.5 -36.5t9 -43.5zM1098 2036q0 -23 -8.5 -43.5t-24 -36t-36.5 -24.5t-46 -9q-23 0 -43 9t-34.5 24.5t-23 36t-8.5 43.5
t8.5 43.5t23 36.5t34.5 25t43 9q25 0 46 -9t36.5 -25t24 -36.5t8.5 -43.5zM1016 1638v-30l125 -17q12 -2 19.5 -12t-3.5 -29l-397 -600l-348 592q-16 26 -13.5 36.5t15.5 12.5l125 17v30h-508v-30l108 -15q14 -3 24.5 -20l18.5 -31l422 -717v-729q0 -26 -2 -36.5t-14 -12.5
l-125 -16v-31h508v31l-125 16q-13 2 -15 12.5t-2 36.5v813l424 641q7 10 19 25t31 18l108 15v30h-395z" />
    <glyph glyph-name="uni1EF6" unicode="&#x1ef6;" horiz-adv-x="1442" 
d="M1411 1638v-30l-108 -15q-19 -3 -31 -18t-19 -25l-424 -641v-813q0 -26 2 -36.5t15 -12.5l125 -16v-31h-508v31l125 16q12 2 14 12.5t2 36.5v729l-422 717l-18.5 31t-24.5 20l-108 15v30h508v-30l-125 -17q-13 -2 -15.5 -12.5t13.5 -36.5l348 -592l397 600q11 19 3.5 29
t-19.5 12l-125 17v30h395zM923 2062q8 -33 4.5 -57t-15 -43.5t-30.5 -36t-41 -33.5l-29.5 -24t-31.5 -28.5t-31.5 -36t-30.5 -46.5h-20q-2 12 -1.5 30.5t6 40.5t18 47t36.5 52q51 60 51 113q0 60 -55 88v-2q-31 14 -53 14q-16 0 -28.5 -6.5t-26.5 -17.5q-5 -5 -9 -9.5
t-2 -7.5q0 -6 13 -10q27 -12 40.5 -26t16.5 -29q0 -28 -14.5 -43t-40.5 -17q-20 0 -37.5 9.5t-28.5 29.5q-9 26 -8.5 46t6.5 32q20 54 63.5 78.5t102.5 24.5q31 0 60 -7.5t52.5 -23t40 -40.5t23.5 -61z" />
    <glyph glyph-name="uni1EF4" unicode="&#x1ef4;" horiz-adv-x="1442" 
d="M1411 1638v-30l-108 -15q-19 -3 -31 -18t-19 -25l-424 -641v-813q0 -26 2 -36.5t15 -12.5l125 -16v-31h-508v31l125 16q12 2 14 12.5t2 36.5v729l-422 717l-18.5 31t-24.5 20l-108 15v30h508v-30l-125 -17q-13 -2 -15.5 -12.5t13.5 -36.5l348 -592l397 600q11 19 3.5 29
t-19.5 12l-125 17v30h395zM718 -403q-21 0 -39.5 8t-32.5 21.5t-22 32t-8 39.5q0 22 8 40.5t22 32.5t32.5 22t39.5 8t40 -8t33 -22t22 -32.5t8 -40.5q0 -21 -8 -39.5t-22 -32t-33 -21.5t-40 -8z" />
    <glyph glyph-name="Eth" unicode="&#xd0;" horiz-adv-x="1653" 
d="M-21 879q-32 17 -58.5 40.5t-43.5 52t-24.5 62.5t-2.5 72q6 30 20 52t33 35.5t41 18.5t42 2q13 -2 25 -9t21 -19t14.5 -28.5t4.5 -37.5q-15 -5 -30.5 -12.5t-28.5 -19t-22 -26.5t-11 -36q-1 -29 15 -50.5t42 -38.5zM16 937q27 -18 60.5 -29.5t62 -18t47.5 -9.5l19 -3
q-2 0 10 1t29 3v661q0 26 -2 36.5t-15 12.5l-125 17v30q138 7 259.5 11t214 5.5t148.5 2t62 0.5q127 0 234.5 -31t194.5 -85.5t153 -129.5t112 -163.5t71 -186.5t30 -199q4 -107 -14.5 -212t-60 -201t-106 -178t-152.5 -142t-199.5 -94.5t-245.5 -34.5h-701v31l125 16
q13 2 15 12.5t2 36.5v738q-51 0 -100 3.5t-93 14.5q-40 10 -72 27zM810 772q-39 30 -82 44t-87.5 19t-88.5 4t-83 -1v-678q0 -44 19.5 -66.5t43.5 -33.5q28 -12 64 -13q33 -3 70 -4q32 -1 72.5 -0.5t84.5 4.5q85 7 155.5 43.5t126 94.5t96 135t66 165t35.5 184t5 193
q-4 83 -19.5 164t-42 155t-64.5 140t-87 118.5t-109.5 90t-132.5 55.5q-32 10 -85 14q-45 4 -118 4t-180 -10v-708q48 -1 93 -1.5t88 -5t83 -15.5t78 -33z" />
    <glyph glyph-name="Thorn" unicode="&#xde;" horiz-adv-x="1323" 
d="M1200 735q0 -100 -33.5 -178t-92 -132t-139.5 -82t-175 -28h-424v-315h-111v1458h111v-303h424q94 0 175 -28t139.5 -82t92 -132t33.5 -178zM1090 735q0 82 -25.5 142.5t-70.5 100.5t-108 59.5t-138 19.5h-412v-643h412q75 0 138 19.5t108 59t70.5 100t25.5 142.5z" />
    <glyph glyph-name="a" unicode="a" horiz-adv-x="975" 
d="M778 252q0 -29 3 -62.5t7.5 -61.5t10.5 -46.5t12 -18.5h123v-30q-52 0 -93.5 -5.5t-74 -14.5t-56 -20.5t-40.5 -23.5q-42 8 -62 30t-20 64v80q-11 -35 -38 -66.5t-63.5 -55.5t-78.5 -38t-82 -14q-60 0 -106 19.5t-77 52t-46 74.5t-14.5 87t17 90t50.5 83l16 16.5l16 16.5
l406 127v219q0 71 -9.5 124.5t-35.5 79.5q-24 24 -56 33.5t-66 8t-67 -13t-59 -28.5q-53 -34 -83 -75t-30 -84q6 10 17 18q9 7 24.5 13t40.5 6q18 0 34 -7t28.5 -20t20 -31.5t7.5 -40.5q0 -24 -8.5 -42t-22.5 -30t-32 -18t-37 -6q-35 2 -69 23.5t-48 64.5q-11 36 -7 70.5
t18 66t36 59t49 50.5q49 38 99.5 55.5t118.5 22.5q74 5 127 -6.5t89.5 -34t58.5 -53.5t33.5 -64t15 -65.5t3.5 -59.5v-518zM262 389q-30 -65 -27 -118.5t25 -93.5t57 -64.5t70 -30.5q21 -4 55.5 -1t66.5 22.5t55.5 62t23.5 117.5v206z" />
    <glyph glyph-name="b" unicode="b" horiz-adv-x="1167" 
d="M590 1034q47 -11 101 -29t108 -46.5t105 -71t92.5 -102.5t70 -141t37.5 -187q7 -82 -7 -151.5t-44.5 -126t-74.5 -98.5t-96.5 -68.5t-111 -37.5t-117.5 -4q-41 5 -72 13t-59.5 21t-56.5 32t-62 45q0 -17 0.5 -34t0 -32t-3.5 -26t-9 -17q-7 -6 -27.5 -3t-53 9t-76 12.5
t-95.5 8.5v35h47q8 0 13 16.5t8.5 42t5.5 57.5t3 63.5t1 58v42.5v1012q0 18 -0.5 52t-3.5 68t-9 59.5t-18 25.5l-125 -4v47q63 0 111.5 9.5t84.5 22t61 24.5t42 16q13 2 21.5 -2t13 -17t6.5 -37.5t2 -62.5v-570zM403 283q0 -75 24.5 -126t60.5 -82t76.5 -44t72.5 -13
q46 0 91 20t80 68.5t57 129.5t22 204q0 79 -17 145t-45 119.5t-65 95.5t-77 73t-81 52t-76 33l-123 -51v-624z" />
    <glyph glyph-name="c" unicode="c" horiz-adv-x="985" 
d="M934 248q-4 -12 -12 -38t-24 -58t-43.5 -66t-70 -61.5t-103.5 -45.5t-144 -18q-125 0 -216 45.5t-149.5 120.5t-86 171t-24.5 198q4 98 36.5 194t92.5 174t147 130t200 63q47 4 96.5 -2.5t95 -23.5t84.5 -42.5t65.5 -59t37.5 -74t2 -85.5q-8 -38 -37.5 -58t-61.5 -22
q-20 -1 -39.5 5t-34.5 18t-24.5 30.5t-9.5 42.5q0 36 13 57t32 44q19 24 7 52.5t-46 49.5t-85.5 29t-111.5 -8q-74 -20 -126.5 -70t-85.5 -118.5t-47 -149.5t-9 -164q5 -91 31.5 -176.5t73 -151t111.5 -104t148 -35.5q52 1 92.5 17t71 39t52 50.5t36 53.5t22 47t11.5 31z
" />
    <glyph glyph-name="d" unicode="d" horiz-adv-x="1167" 
d="M1106 61v-30q-52 0 -106.5 -12t-101 -24.5l-80 -21t-42.5 -0.5q-6 6 -8.5 17t-3.5 26t-0.5 32t0.5 34q-34 -26 -62 -45t-56 -32t-59.5 -21t-72.5 -13q-59 -6 -117 4.5t-110.5 37t-96.5 68.5t-74.5 98.5t-45 126t-7.5 151.5q9 106 37.5 187t70 141t93 102.5t105.5 71
t108 46.5t101 29l186 -76v371q0 18 -0.5 51.5t-3.5 67.5t-9 59t-18 25l-125 -4v47q61 0 108 8.5t83 19t61.5 20.5t42.5 13q14 2 23 -1.5t14.5 -16.5t7.5 -36t2 -60v-1284q1 -29 4 -60t8 -57t10.5 -43t10.5 -17h123zM606 973q-53 -18 -110.5 -59t-105 -107t-78.5 -157.5
t-31 -209.5q0 -123 21.5 -204t57 -129.5t80 -68.5t90.5 -20q32 0 72.5 13t76.5 44t60.5 82t24.5 126v624z" />
    <glyph glyph-name="e" unicode="e" horiz-adv-x="985" 
d="M272 487q0 -15 2 -36l5 -44t10 -61q34 -156 116 -228.5t216 -72.5q47 0 85 15t68 38t52.5 51t38 54.5t25 48t13.5 31.5l31 -33q-1 -7 -7.5 -31t-22.5 -55.5t-44 -66t-71 -63.5t-104 -48t-144 -19q-122 0 -212 46.5t-150 123t-89.5 174t-28.5 199.5t32 200t91 175.5
t149.5 124.5t207.5 47q75 0 133 -20.5t101.5 -53t74 -73t49 -80.5t27 -76.5t8.5 -59.5q0 -6 -4.5 -8.5t-14.5 -5.5zM745 676q-3 93 -28 166q-11 31 -27 61t-39 53t-54.5 37.5t-72.5 14.5q-53 0 -92 -20.5t-67 -54t-46 -76t-29 -86.5q-26 -104 -22 -236z" />
    <glyph glyph-name="f" unicode="f" horiz-adv-x="639" 
d="M223 1024q0 48 1.5 105t11.5 118t32 121.5t64 114.5q56 81 121.5 116.5t130.5 38.5q53 1 101.5 -15.5t85.5 -45t59.5 -64t23.5 -71.5q0 -21 -8 -39.5t-21.5 -33t-32.5 -22.5t-40 -8q-22 0 -40.5 8t-32.5 22.5t-22 33t-8 39.5q0 28 13 50.5t34 35.5q13 9 20.5 18t-5.5 19
q-2 2 -13 8t-28 10.5t-38 6t-44 -4.5q-31 -8 -62 -34t-56 -82.5t-40.5 -149t-15.5 -232.5v-63h219v-47h-219v-881q0 -26 2 -36.5t14 -12.5l125 -16v-31h-473v31l125 16q12 2 14 12.5t2 36.5v881h-141v47h141z" />
    <glyph glyph-name="g" unicode="g" horiz-adv-x="1100" 
d="M252 436q-60 54 -87 124t-24 142q1 68 27 132t72.5 113.5t113 79.5t150.5 30q91 0 168.5 -41.5t128.5 -110.5q34 -48 69 -70.5t63.5 -28t47 0.5t18.5 14t-10 16.5l-22.5 20t-22.5 27t-10 37.5q0 23 7.5 39.5t20.5 27t29 15.5t33 4q29 -2 56 -21t36 -53q7 -29 0.5 -56.5
t-23 -50t-42 -38t-56.5 -19.5q-32 -6 -69 2.5t-74 34.5q15 -51 14 -106t-16.5 -107.5t-45.5 -99t-73.5 -82t-100.5 -56t-126 -20.5q-56 0 -108 16.5t-97 42.5q-16 -7 -38.5 -24.5t-42 -41t-32.5 -51.5t-9.5 -56.5t28 -55t78.5 -47.5q151 24 260 39t187 6.5t131 -47.5
t91 -123q6 -12 13 -49.5t4 -89.5t-23.5 -112t-69.5 -117t-133 -105.5t-215 -77.5q-142 -32 -247 -24t-175.5 43t-106.5 90t-40 118q-2 45 11.5 91t43 88t74.5 77.5t105 59.5q-69 40 -99 82.5t-32.5 84t17.5 81.5t52 74t70.5 61.5t72.5 44.5zM682 698q0 81 -15 141.5
t-40 101.5t-56.5 61.5t-64.5 21.5q-34 1 -66.5 -19t-58 -60.5t-41.5 -102.5t-16 -144t15 -144t40 -103t56.5 -62t64.5 -22q34 -1 66.5 19.5t58 61.5t41.5 103.5t16 146.5zM266 -16q-32 -29 -57 -68q-22 -33 -39.5 -81t-17.5 -109q0 -44 22 -88t67 -78.5t112.5 -53.5
t158.5 -12q102 9 168 41.5t105 74.5t57 85.5t24 73.5q15 86 -9 143.5t-94.5 85t-192.5 24.5t-304 -38z" />
    <glyph glyph-name="h" unicode="h" horiz-adv-x="1204" 
d="M1163 31v-31h-473v31l125 16q12 2 14 12.5t2 36.5v543q0 91 -10.5 152t-33.5 98t-60 52t-90 15q-51 0 -87 -14t-60 -35.5t-38.5 -48t-22 -52t-9.5 -47t-2 -32.5v-631q0 -26 2 -36.5t14 -12.5l125 -16v-31h-473v31l125 16q12 2 14 12.5t2 36.5v1233q0 18 -0.5 51.5
t-3.5 67.5t-9 59t-17 25l-125 -4v47q65 0 116 11t89 23.5t64.5 22.5t43.5 8q17 -3 25 -22t8 -66v-591l313 94q47 0 98.5 -16.5t94 -57t70.5 -109t28 -172.5v-604q0 -26 2 -36.5t14 -12.5z" />
    <glyph glyph-name="i" unicode="i" horiz-adv-x="621" 
d="M307 1319q-24 0 -44.5 8.5t-35.5 23.5t-23.5 35.5t-8.5 43.5q0 48 32 80t80 32q22 0 42.5 -8.5t35.5 -23.5t24 -35.5t9 -44.5q0 -23 -9 -43.5t-24 -35.5t-35.5 -23.5t-42.5 -8.5zM559 31v-31h-473v31l125 16q12 2 14 12.5t2 36.5v649q0 18 -0.5 51.5t-3.5 67t-9 58
t-17 24.5l-125 -4v47q64 0 114 11t87.5 24.5t64 24.5t43.5 12q20 0 28.5 -17t8.5 -63v-885q0 -26 2 -36.5t14 -12.5z" />
    <glyph glyph-name="j" unicode="j" horiz-adv-x="539" 
d="M262 1321q-23 0 -43 9t-35 24t-23.5 35t-8.5 43q0 22 8.5 42t23.5 35t35 24t43 9q22 0 42.5 -9t35.5 -24t24 -35t9 -42q0 -23 -9 -43t-24 -35t-35.5 -24t-42.5 -9zM29 989q64 0 115 11.5t90 25t66 24t44 9.5q16 0 23.5 -15.5t7.5 -50.5v-1190q-18 1 -32 -18.5t-28 -55.5
t-30 -86t-39 -110q-12 -32 -33 -54.5t-47 -37t-55.5 -21t-57.5 -4.5q-31 1 -59 11.5t-49.5 29t-34 44.5t-12.5 59q0 13 6 30.5t18.5 33t32 26.5t45.5 10q23 0 40 -9t28 -23t16.5 -30.5t5.5 -31.5q0 -17 -4 -32q-4 -14 -13 -27.5t-26 -22.5q47 -15 74 3t41 72.5t18 149
t4 232.5v804q0 18 -0.5 51.5t-3.5 67t-9 58t-17 24.5l-125 -4v47z" />
    <glyph glyph-name="k" unicode="k" horiz-adv-x="1255" 
d="M1090 977h-111q-23 0 -39.5 -1.5t-35 -10.5t-43 -29t-63 -56.5l-95 -93.5l-138.5 -139q32 -35 79.5 -92.5l101.5 -123.5l110.5 -133l106 -122t87.5 -91t56 -38l108 -14v-33h-516v33l111 14q20 3 10.5 29t-38 67t-71.5 92l-89.5 103.5l-93 102.5l-81.5 89l-28 -28v-406
q0 -26 2 -36.5t14 -12.5l125 -16v-31h-473v31l125 16q12 2 14 12.5t2 36.5v1233q0 18 -0.5 51.5t-3.5 67.5t-9 59t-17 25l-125 -4v47q65 0 116 10.5t89 23t64.5 22.5t43.5 9q17 0 25 -17t8 -60v-998l291 289q44 48 63.5 73t20.5 36t-12.5 12.5t-35.5 1.5h-122v47h467v-47z
" />
    <glyph glyph-name="l" unicode="l" horiz-adv-x="600" 
d="M559 31v-31h-473v31l125 16q12 2 14 12.5t2 36.5v1235v31.5t-1 41.5t-3 45t-5 41.5t-8.5 30t-12.5 11.5l-125 -4v47q59 0 106 8.5t84 19.5t64 21t45 14q24 5 35.5 -9t11.5 -62v-1471q0 -26 2 -36.5t14 -12.5z" />
    <glyph glyph-name="m" unicode="m" horiz-adv-x="1716" 
d="M1675 31v-31h-473v31l125 16q12 2 14 12.5t2 36.5v543q0 91 -7.5 152t-28.5 98t-59 52t-99 15q-46 0 -76.5 -14t-50.5 -35.5t-30.5 -48t-15 -52t-5 -47t-0.5 -32.5v-631q0 -26 2 -36.5t14 -12.5l125 -16v-31h-473v31l125 16q12 2 14 12.5t2 36.5v543q0 91 -7.5 152
t-28.5 98t-59 52t-99 15q-46 0 -77 -14t-50.5 -35.5t-30 -48t-15 -52t-5 -47t-0.5 -32.5v-631q0 -26 2 -36.5t14 -12.5l125 -16v-31h-473v31l125 16q12 2 14 12.5t2 36.5v647q0 18 -0.5 52t-3.5 67.5t-9 58.5t-18 25l-125 -4v47q59 0 106.5 9t84 20t63.5 22t45 15
q13 2 22 -1t15 -13.5t8.5 -30t2.5 -49.5l272 94q29 0 60.5 -6t61.5 -19.5t57.5 -36t49.5 -55.5l334 117q47 0 98.5 -16.5t94 -57t70.5 -109t28 -172.5v-604q0 -26 2 -36.5t14 -12.5z" />
    <glyph glyph-name="n" unicode="n" horiz-adv-x="1194" 
d="M1153 31v-31h-473v31l125 16q12 2 14 12.5t2 36.5v543q0 91 -10.5 152t-33.5 98t-60 52t-90 15q-51 0 -87 -14t-60 -35.5t-38.5 -48t-22 -52t-9.5 -47t-2 -32.5v-631q0 -26 2 -36.5t14 -12.5l125 -16v-31h-473v31l125 16q12 2 14 12.5t2 36.5v647q0 18 -0.5 52t-3.5 67.5
t-9 58.5t-18 25l-125 -4v47q61 0 109.5 10t86 22t64 23t44.5 13q22 3 32.5 -17t10.5 -79l313 94q47 0 98.5 -16.5t94 -57t70.5 -109t28 -172.5v-604q0 -26 2 -36.5t14 -12.5z" />
    <glyph glyph-name="o" unicode="o" 
d="M561 1059q103 0 194 -43t159 -118t107.5 -175.5t39.5 -214.5q0 -113 -39.5 -213t-107.5 -174.5t-159 -118t-194 -43.5t-194 43.5t-159 118t-107.5 174.5t-39.5 213q0 114 39.5 214.5t107.5 175.5t159 118t194 43zM561 0q58 0 109.5 40t89.5 109.5t60 163t22 201.5
t-22 201t-60 161.5t-89.5 108t-109.5 39.5t-109 -39.5t-89 -108t-60 -161.5t-22 -201t22 -201.5t60 -163t89 -109.5t109 -40z" />
    <glyph glyph-name="p" unicode="p" horiz-adv-x="1190" 
d="M72 993q64 0 113 8.5t85.5 19.5t62 21t42.5 13q13 2 21.5 -1.5t13 -16t6.5 -35t2 -58.5q23 25 52 45t61.5 34.5t65.5 22.5t65 9q94 3 182.5 -27t155 -92.5t102.5 -157t24 -221.5q-7 -104 -36 -184.5t-72 -141t-96.5 -103.5t-109.5 -72.5t-112 -48t-104 -30.5l-178 60
v-522q0 -26 2 -37t14 -13l125 -16v-31h-473v31l125 16q12 2 14 13t2 37v1235v31.5t-1 41.5t-3 44.5t-5 41t-8.5 30t-12.5 11.5l-125 -4v47zM530 57q61 18 126 56t119 100t89 151t35 209q0 127 -22 209.5t-58 132t-81.5 71t-92.5 24.5q-32 2 -71 -11t-74 -44t-58.5 -81
t-23.5 -122v-660z" />
    <glyph glyph-name="q" unicode="q" horiz-adv-x="1167" 
d="M995 950q-11 1 -17 -23.5t-9 -58t-3.5 -67t-0.5 -51.5v-1235q0 -26 2 -37t14 -13l125 -16v-31h-473v31l125 16q12 2 14 13t2 37v575q-24 -23 -53.5 -42t-61.5 -34t-65 -24.5t-64 -12.5q-60 -6 -120 5t-114.5 38.5t-100.5 70.5t-78 100.5t-47 129t-7 156.5q8 105 37 185.5
t72 141t96.5 103t110.5 72t113 48t104 30.5l178 -64q0 38 8 52t25 14q15 -1 36 -11l48 -22t59 -21.5t70 -9.5v-47zM774 946l-178 62q-54 -18 -108.5 -60.5t-98.5 -110.5t-72 -162t-28 -214q0 -127 22.5 -207.5t59 -127t82.5 -64t94 -17.5q31 0 70 12t74 37.5t59 64.5t24 93
v694z" />
    <glyph glyph-name="r" unicode="r" horiz-adv-x="872" 
d="M61 989q64 0 113.5 8t86 18.5t62 21t42.5 14.5q14 3 22.5 -1.5t13 -20.5t6 -46.5t1.5 -79.5q28 42 58.5 70.5t61 46t61.5 25t60 6.5q45 -1 82.5 -19t62.5 -46t34 -63.5t-3 -70.5q-10 -27 -26 -45.5t-35.5 -29t-40.5 -14t-41 0.5q-32 6 -55 30.5t-23 67.5q0 38 12 57
t27 29.5t27 17.5t12 19q0 5 -13.5 10t-34.5 5t-48 -7t-54 -26q-24 -17 -46 -44.5t-39.5 -69t-28 -98.5t-10.5 -132v-527q0 -26 2 -36.5t14 -12.5l125 -16v-31h-473v31l125 16q12 2 14 12.5t2 36.5v647q0 18 -0.5 52t-3.5 67.5t-9 58.5t-18 25l-125 -4v47z" />
    <glyph glyph-name="s" unicode="s" horiz-adv-x="836" 
d="M78 0q1 4 3 14q1 8 2 23t1 39t-3.5 63.5t-8.5 77.5q-5 44 -11 92h33q0 -80 34 -136.5t85.5 -92.5t112 -53t112.5 -17q51 0 86.5 13t57.5 36.5t32 56t9 70.5q-1 33 -15.5 58.5t-39.5 46.5t-58.5 39t-71.5 35l-81 36.5t-82 41.5t-76 51.5t-62.5 66t-42.5 85t-16 108.5
q0 67 17.5 116t46 83t63 55t68.5 32t63 15t47 4q33 0 61.5 -5t52 -12t42 -15t32.5 -13q16 -7 28.5 -6t21.5 5q11 4 18 11h31q-1 -7 -2 -18q-1 -9 -1.5 -23t-0.5 -33q0 -23 2.5 -56.5t6.5 -64.5q4 -36 9 -75h-33q0 6 -1.5 27.5t-9 51t-23.5 61.5t-45 59t-73 44t-108 17
q-110 0 -156 -53.5t-36 -141.5q3 -28 21.5 -53t46.5 -47.5t60.5 -41t64.5 -34t58.5 -27l41.5 -18.5q57 -28 104 -57t82 -65t56.5 -82.5t27.5 -108.5q10 -98 -17.5 -162t-77 -101.5t-112 -52t-123.5 -14.5q-54 0 -97 13.5t-77 29.5t-58.5 29.5t-41.5 13.5t-26 -6.5t-14 -14.5
q-5 -9 -7 -20h-33z" />
    <glyph glyph-name="t" unicode="t" horiz-adv-x="737" 
d="M410 262q0 -29 5 -68t18.5 -74t38 -60t63.5 -25q35 0 65 12t53 28t37.5 31t18.5 21l28 -21q-11 -15 -39 -40t-69.5 -48.5t-93 -41t-109.5 -17.5q-72 0 -114.5 20.5t-64.5 58.5t-28 92t-6 122v737h-141v35q34 -1 68 3q29 4 64 13t66 29q30 18 49.5 54.5t31.5 72.5
q14 42 22 90h37v-262h219v-35h-219v-727z" />
    <glyph glyph-name="u" unicode="u" horiz-adv-x="1204" 
d="M1006 285q1 -29 2.5 -63t5 -63t10.5 -49t18 -20l121 4v-41q-88 0 -148 -13.5t-98 -29.5t-57 -29.5t-26 -13.5q-16 0 -20.5 18.5t-4.5 73.5l-320 -92q-35 3 -70.5 8t-67.5 18.5t-60 38t-48.5 65.5t-32 100.5t-11.5 144.5v375v35t-1 48.5t-3 53.5t-5.5 48.5t-9.5 35.5
t-14 14q-45 0 -79 -2t-46 -4v45q67 0 119 11t90 24.5t64 24.5t42 12q19 0 26 -18t7 -66v-578q0 -99 10 -167.5t33 -110.5t60 -61t90 -19q51 0 88.5 14t63.5 36.5t42 50.5t24.5 56t11.5 52.5t3 40.5v424v35t-1 48.5t-3 53.5t-5.5 48.5t-9.5 35.5t-14 14q-43 0 -76.5 -2
t-46.5 -4v45q61 0 109 9.5t85 21.5t63.5 23.5t44.5 15.5q24 6 34.5 -10.5t10.5 -71.5v-694z" />
    <glyph glyph-name="v" unicode="v" horiz-adv-x="1108" 
d="M1067 993l-125 -16q-23 -3 -33 -19t-14 -28l-297 -928q-2 -5 -14.5 -7.5t-26.5 -2.5t-26 2.5t-13 7.5l-313 926q-6 17 -11 26.5t-9.5 14t-9 6t-9.5 2.5l-125 16v31h473v-31l-125 -16q-9 -2 -12.5 -8.5t2.5 -20.5l239 -706l226 700q5 19 -2.5 26t-18.5 9l-125 16v31h369
v-31z" />
    <glyph glyph-name="w" unicode="w" horiz-adv-x="1581" 
d="M1540 1024v-31l-125 -16q-23 -3 -32.5 -19t-12.5 -28l-299 -928q-2 -5 -14.5 -7.5t-26.5 -2.5t-26 2.5t-13 7.5l-198 612l-195 -612q-2 -5 -14.5 -7.5t-26.5 -2.5t-26 2.5t-13 7.5l-313 926q-6 17 -11 26.5t-9.5 14t-9.5 6t-9 2.5l-125 16v31h946v-31l-125 -16
q-9 -2 -12.5 -8.5t2.5 -20.5l240 -706l225 700q5 19 -2.5 26t-18.5 9l-125 16v31h369zM762 686l-82 242q-12 34 -19 49.5t-22 15.5h-250q-8 0 -12 -4.5t-4.5 -11t1.5 -14.5t5 -15l239 -706z" />
    <glyph glyph-name="x" unicode="x" horiz-adv-x="1137" 
d="M1096 0h-506v31l125 16q12 2 21 14t-5 35l-201 334l-241 -334q-8 -10 -8.5 -18.5t3 -15t9.5 -10.5t12 -5l125 -16v-31h-389v31l125 16q12 2 26.5 15.5t28.5 33.5l279 385l-269 447q-15 26 -23.5 36.5t-21.5 12.5l-125 16v31h502v-31l-125 -16q-6 -1 -12 -3.5t-10 -8.5
t-3 -15t9 -22l190 -318l232 318q14 20 5.5 33.5t-22.5 15.5l-125 16v31h388v-31l-125 -16q-13 -2 -25.5 -15.5t-28.5 -33.5l-266 -371l277 -461q14 -23 25 -35t24 -14l125 -16v-31z" />
    <glyph glyph-name="y" unicode="y" horiz-adv-x="1108" 
d="M1067 1024v-31l-125 -16q-23 -3 -33 -19t-14 -28l-442 -1379q-12 -41 -32.5 -68t-45.5 -43t-53 -21t-56 -1q-31 5 -58.5 20t-47 39t-28.5 55t-3 67q2 13 8.5 27.5t18.5 27t30 21t45 8.5q25 0 45 -11.5t33 -31t17 -44t-2 -49.5q-8 -32 -35.5 -48.5t-59.5 -16.5
q20 -13 45.5 -17.5t49.5 3.5t44 29.5t31 60.5l131 405l-325 965q-6 17 -11 26.5t-9.5 14t-9.5 6t-9 2.5l-125 16v31h473v-31l-125 -16q-9 -2 -12.5 -8.5t2.5 -20.5l239 -706l226 700q5 19 -2.5 26t-18.5 9l-125 16v31h369z" />
    <glyph glyph-name="z" unicode="z" horiz-adv-x="936" 
d="M864 309q-6 -45 -10 -85q-4 -35 -7 -71.5t-3 -60.5q0 -29 1 -53t3 -39h-787v35l566 954h-201q-58 -1 -99.5 -16.5t-70.5 -40t-46.5 -53t-27.5 -54.5t-13 -45.5t-3 -25.5h-29q5 38 9 74q4 31 7 64t3 56q0 17 -0.5 35t-1.5 32q-1 17 -2 32h28l27 -23h627v-35l-566 -954h236
q51 0 109.5 13.5t109 45.5t84 84.5t33.5 130.5h24z" />
    <glyph glyph-name="agrave" unicode="&#xe0;" horiz-adv-x="975" 
d="M225 1518q-6 5 -8 9q-2 3 -1 6t9 3h189q10 0 16 -3t11 -6q4 -4 8 -9l153 -351h-35zM778 252q0 -29 3 -62.5t7.5 -61.5t10.5 -46.5t12 -18.5h123v-30q-52 0 -93.5 -5.5t-74 -14.5t-56 -20.5t-40.5 -23.5q-42 8 -62 30t-20 64v80q-11 -35 -38 -66.5t-63.5 -55.5t-78.5 -38
t-82 -14q-60 0 -106 19.5t-77 52t-46 74.5t-14.5 87t17 90t50.5 83q6 7 11.5 12.5l10.5 10.5l10 10l406 127v219q0 71 -9.5 124.5t-35.5 79.5q-24 24 -56 33.5t-66 8t-67 -13t-59 -28.5q-53 -34 -83 -75t-30 -84q6 10 17 18q9 7 24.5 13t40.5 6q18 0 34 -7t28.5 -20
t20 -31.5t7.5 -40.5q0 -25 -9.5 -43.5t-25 -30.5t-35 -17t-40.5 -3q-34 2 -64 23t-43 63q-11 36 -7 70.5t18 66t36 59t49 50.5q49 38 99.5 55.5t118.5 22.5q74 5 127 -6.5t89.5 -34t58.5 -53.5t33.5 -64t15 -65.5t3.5 -59.5v-518zM262 389q-30 -65 -27 -118.5t25 -93.5
t57 -64.5t70 -30.5q21 -4 55.5 -1t66.5 22.5t55.5 62t23.5 117.5v206z" />
    <glyph glyph-name="aacute" unicode="&#xe1;" horiz-adv-x="975" 
d="M715 1536q8 0 8.5 -3t-1.5 -6l-7 -9l-342 -351h-35l154 351q3 5 7 9q4 3 10.5 6t16.5 3h189zM778 252q0 -29 3 -62.5t7.5 -61.5t10.5 -46.5t12 -18.5h123v-30q-52 0 -93.5 -5.5t-74 -14.5t-56 -20.5t-40.5 -23.5q-42 8 -62 30t-20 64v80q-11 -35 -38 -66.5t-63.5 -55.5
t-78.5 -38t-82 -14q-60 0 -106 19.5t-77 52t-46 74.5t-14.5 87t17 90t50.5 83q6 7 11.5 12.5l10.5 10.5l10 10l406 127v219q0 71 -9.5 124.5t-35.5 79.5q-24 24 -56 33.5t-66 8t-67 -13t-59 -28.5q-53 -34 -83 -75t-30 -84q6 10 17 18q9 7 24.5 13t40.5 6q18 0 34 -7
t28.5 -20t20 -31.5t7.5 -40.5q0 -24 -8.5 -42t-22.5 -30t-32 -18t-37 -6q-35 2 -69 23.5t-48 64.5q-11 36 -7 70.5t18 66t36 59t49 50.5q49 38 99.5 55.5t118.5 22.5q74 5 127 -6.5t89.5 -34t58.5 -53.5t33.5 -64t15 -65.5t3.5 -59.5v-518zM262 389q-30 -65 -27 -118.5
t25 -93.5t57 -64.5t70 -30.5q21 -4 55.5 -1t66.5 22.5t55.5 62t23.5 117.5v206z" />
    <glyph glyph-name="acircumflex" unicode="&#xe2;" horiz-adv-x="975" 
d="M231 1186l228 348q19 32 28 35q6 3 11.5 1t9.5 -5q4 -4 8 -9l264 -370h-159l-175 254l-170 -254h-45zM778 252q0 -29 3 -62.5t7.5 -61.5t10.5 -46.5t12 -18.5h123v-30q-52 0 -93.5 -5.5t-74 -14.5t-56 -20.5t-40.5 -23.5q-42 8 -62 30t-20 64v80q-11 -35 -38 -66.5
t-63.5 -55.5t-78.5 -38t-82 -14q-60 0 -106 19.5t-77 52t-46 74.5t-14.5 87t17 90t50.5 83q6 7 11.5 12.5l10.5 10.5l10 10l406 127v219q0 71 -9.5 124.5t-35.5 79.5q-24 24 -56 33.5t-66 8t-67 -13t-59 -28.5q-53 -34 -83 -75t-30 -84q6 10 17 18q9 7 24.5 13t40.5 6
q18 0 34 -7t28.5 -20t20 -31.5t7.5 -40.5q0 -24 -8.5 -42t-22.5 -30t-32 -18t-37 -6q-35 0 -69 22.5t-48 65.5q-11 36 -7 70.5t18 66t36 59t49 50.5q49 38 99.5 55.5t118.5 22.5q74 5 127 -6.5t89.5 -34t58.5 -53.5t33.5 -64t15 -65.5t3.5 -59.5v-518zM262 389
q-30 -65 -27 -118.5t25 -93.5t57 -64.5t70 -30.5q21 -4 55.5 -1t66.5 22.5t55.5 62t23.5 117.5v206z" />
    <glyph glyph-name="uni1EA7" unicode="&#x1ea7;" horiz-adv-x="975" 
d="M231 1186l228 348q19 32 28 35q6 3 11.5 1t9.5 -5q4 -4 8 -9l264 -370h-159l-175 254l-170 -254h-45zM778 252q0 -29 3 -62.5t7.5 -61.5t10.5 -46.5t12 -18.5h123v-30q-52 0 -93.5 -5.5t-74 -14.5t-56 -20.5t-40.5 -23.5q-42 8 -62 30t-20 64v80q-11 -35 -38 -66.5
t-63.5 -55.5t-78.5 -38t-82 -14q-60 0 -106 19.5t-77 52t-46 74.5t-14.5 87t17 90t50.5 83q6 7 11.5 12.5l10.5 10.5l10 10l406 127v219q0 71 -9.5 124.5t-35.5 79.5q-24 24 -56 33.5t-66 8t-67 -13t-59 -28.5q-53 -34 -83 -75t-30 -84q6 10 17 18q9 7 24.5 13t40.5 6
q18 0 34 -7t28.5 -20t20 -31.5t7.5 -40.5q0 -24 -8.5 -42t-22.5 -30t-32 -18t-37 -6q-35 0 -69 22.5t-48 65.5q-11 36 -7 70.5t18 66t36 59t49 50.5q49 38 99.5 55.5t118.5 22.5q74 5 127 -6.5t89.5 -34t58.5 -53.5t33.5 -64t15 -65.5t3.5 -59.5v-518zM262 389
q-30 -65 -27 -118.5t25 -93.5t57 -64.5t70 -30.5q21 -4 55.5 -1t66.5 22.5t55.5 62t23.5 117.5v206zM446 1819q-6 5 -8 9q-2 3 -1 6t9 3h189q10 0 16.5 -3t10.5 -6q4 -4 7 -9l154 -351h-35z" />
    <glyph glyph-name="uni1EA5" unicode="&#x1ea5;" horiz-adv-x="975" 
d="M276 1186l170 254l175 -254h159l-264 370q-4 5 -8 9q-4 3 -9.5 5t-11.5 -1q-9 -3 -28 -35l-228 -348h45zM778 770q0 27 -3.5 59.5t-15 65.5t-33.5 64t-58.5 53.5t-89.5 34t-127 6.5q-68 -5 -118.5 -22.5t-99.5 -55.5q-27 -23 -49 -50.5t-36 -59t-18 -66t7 -70.5
q14 -43 48 -65.5t69 -22.5q19 0 37 6t32 18t22.5 30t8.5 42q0 22 -7.5 40.5t-20 31.5t-28.5 20t-34 7q-25 0 -40.5 -6t-24.5 -13q-11 -8 -17 -18q0 43 30 84t83 75q26 17 59 28.5t67 13t66 -8t56 -33.5q26 -26 35.5 -79.5t9.5 -124.5v-219l-406 -127l-10 -10l-10.5 -10.5
t-11.5 -12.5q-34 -38 -50.5 -83t-17 -90t14.5 -87t46 -74.5t77 -52t106 -19.5q40 0 82 14t78.5 38t63.5 55.5t38 66.5v-80q0 -42 20 -64t62 -30q17 12 40.5 23.5t56 20.5t74 14.5t93.5 5.5v30h-123q-6 0 -12 18.5t-10.5 46.5t-7.5 61.5t-3 62.5v518zM588 489v-206
q0 -75 -23.5 -117.5t-55.5 -62t-66.5 -22.5t-55.5 1q-35 6 -70 30.5t-57 64.5t-25 93.5t27 118.5zM692 1468h-35l154 351q3 5 7 9q4 3 10.5 6t16.5 3h189q8 0 8.5 -3t-1.5 -6l-7 -9z" />
    <glyph glyph-name="uni1EAB" unicode="&#x1eab;" horiz-adv-x="975" 
d="M231 1186l228 348q19 32 28 35q6 3 11.5 1t9.5 -5q4 -4 8 -9l264 -370h-159l-175 254l-170 -254h-45zM778 252q0 -29 3 -62.5t7.5 -61.5t10.5 -46.5t12 -18.5h123v-30q-52 0 -93.5 -5.5t-74 -14.5t-56 -20.5t-40.5 -23.5q-42 8 -62 30t-20 64v80q-11 -35 -38 -66.5
t-63.5 -55.5t-78.5 -38t-82 -14q-60 0 -106 19.5t-77 52t-46 74.5t-14.5 87t17 90t50.5 83q6 7 11.5 12.5l10.5 10.5l10 10l406 127v219q0 71 -9.5 124.5t-35.5 79.5q-24 24 -56 33.5t-66 8t-67 -13t-59 -28.5q-53 -34 -83 -75t-30 -84q6 10 17 18q9 7 24.5 13t40.5 6
q18 0 34 -7t28.5 -20t20 -31.5t7.5 -40.5q0 -24 -8.5 -42t-22.5 -30t-32 -18t-37 -6q-35 0 -69 22.5t-48 65.5q-11 36 -7 70.5t18 66t36 59t49 50.5q49 38 99.5 55.5t118.5 22.5q74 5 127 -6.5t89.5 -34t58.5 -53.5t33.5 -64t15 -65.5t3.5 -59.5v-518zM262 389
q-30 -65 -27 -118.5t25 -93.5t57 -64.5t70 -30.5q21 -4 55.5 -1t66.5 22.5t55.5 62t23.5 117.5v206zM320 1771q23 35 54.5 56.5t54.5 21.5q18 0 30.5 -1.5t25 -5.5l28.5 -9.5l41 -14.5l71 -24t82.5 -22.5t77 -7t53.5 23.5q20 23 33 41q7 10 12 18l19 -14l-94 -138
q-25 -35 -58.5 -58.5t-68.5 -23.5q-25 0 -57.5 9.5t-69.5 23.5q-12 4 -32.5 13t-45.5 18.5t-52.5 17.5t-53.5 10t-48 -4t-35 -24q-11 -15 -19 -27l-13 -20q-6 -10 -11 -17l-20 15z" />
    <glyph glyph-name="uni1EA9" unicode="&#x1ea9;" horiz-adv-x="975" 
d="M231 1186l228 348q19 32 28 35q6 3 11.5 1t9.5 -5q4 -4 8 -9l264 -370h-159l-175 254l-170 -254h-45zM778 252q0 -29 3 -62.5t7.5 -61.5t10.5 -46.5t12 -18.5h123v-30q-52 0 -93.5 -5.5t-74 -14.5t-56 -20.5t-40.5 -23.5q-42 8 -62 30t-20 64v80q-11 -35 -38 -66.5
t-63.5 -55.5t-78.5 -38t-82 -14q-60 0 -106 19.5t-77 52t-46 74.5t-14.5 87t17 90t50.5 83q6 7 11.5 12.5l10.5 10.5l10 10l406 127v219q0 71 -9.5 124.5t-35.5 79.5q-24 24 -56 33.5t-66 8t-67 -13t-59 -28.5q-53 -34 -83 -75t-30 -84q6 10 17 18q9 7 24.5 13t40.5 6
q18 0 34 -7t28.5 -20t20 -31.5t7.5 -40.5q0 -24 -8.5 -42t-22.5 -30t-32 -18t-37 -6q-35 0 -69 22.5t-48 65.5q-11 36 -7 70.5t18 66t36 59t49 50.5q49 38 99.5 55.5t118.5 22.5q74 5 127 -6.5t89.5 -34t58.5 -53.5t33.5 -64t15 -65.5t3.5 -59.5v-518zM262 389
q-30 -65 -27 -118.5t25 -93.5t57 -64.5t70 -30.5q21 -4 55.5 -1t66.5 22.5t55.5 62t23.5 117.5v206zM934 1777q8 -33 4.5 -57t-15 -43.5t-30.5 -36t-41 -33.5l-29.5 -24t-31.5 -28.5t-31.5 -36t-30.5 -46.5h-20q-2 12 -1.5 30.5t6 40.5t18 47t36.5 52q51 60 51 113
q0 60 -55 88v-2q-31 14 -53 14q-16 0 -28.5 -6.5t-26.5 -17.5q-5 -5 -9 -9.5t-2 -7.5q0 -6 13 -10q27 -12 40.5 -26t16.5 -29q0 -28 -14.5 -43t-40.5 -17q-20 0 -37.5 9.5t-28.5 29.5q-9 26 -8.5 46t6.5 32q20 54 63.5 78.5t102.5 24.5q31 0 60 -7.5t52.5 -23t40 -40.5
t23.5 -61z" />
    <glyph glyph-name="uni1EAD" unicode="&#x1ead;" horiz-adv-x="975" 
d="M231 1186l228 348q19 32 28 35q6 3 11.5 1t9.5 -5q4 -4 8 -9l264 -370h-159l-175 254l-170 -254h-45zM778 252q0 -29 3 -62.5t7.5 -61.5t10.5 -46.5t12 -18.5h123v-30q-52 0 -93.5 -5.5t-74 -14.5t-56 -20.5t-40.5 -23.5q-42 8 -62 30t-20 64v80q-11 -35 -38 -66.5
t-63.5 -55.5t-78.5 -38t-82 -14q-60 0 -106 19.5t-77 52t-46 74.5t-14.5 87t17 90t50.5 83q6 7 11.5 12.5l10.5 10.5l10 10l406 127v219q0 71 -9.5 124.5t-35.5 79.5q-24 24 -56 33.5t-66 8t-67 -13t-59 -28.5q-53 -34 -83 -75t-30 -84q6 10 17 18q9 7 24.5 13t40.5 6
q18 0 34 -7t28.5 -20t20 -31.5t7.5 -40.5q0 -24 -8.5 -42t-22.5 -30t-32 -18t-37 -6q-35 0 -69 22.5t-48 65.5q-11 36 -7 70.5t18 66t36 59t49 50.5q49 38 99.5 55.5t118.5 22.5q74 5 127 -6.5t89.5 -34t58.5 -53.5t33.5 -64t15 -65.5t3.5 -59.5v-518zM262 389
q-30 -65 -27 -118.5t25 -93.5t57 -64.5t70 -30.5q21 -4 55.5 -1t66.5 22.5t55.5 62t23.5 117.5v206zM500 -403q-21 0 -39.5 8t-32.5 21.5t-22 32t-8 39.5q0 22 8 40.5t22 32.5t32.5 22t39.5 8t40 -8t33 -22t22 -32.5t8 -40.5q0 -21 -8 -39.5t-22 -32t-33 -21.5t-40 -8z" />
    <glyph glyph-name="atilde" unicode="&#xe3;" horiz-adv-x="975" 
d="M233 1458q23 35 54.5 56.5t54.5 21.5q18 0 30.5 -1.5t25 -5.5l28.5 -9.5l41 -14.5l71 -24t82.5 -22.5t77 -7t54.5 23.5q10 11 18 22l14 19l13 18l18 -14l-94 -138q-25 -35 -58.5 -58.5t-68.5 -23.5q-25 0 -57.5 9.5t-69.5 23.5q-18 6 -54 22t-76.5 27t-78 10t-57.5 -28
q-11 -15 -19 -27l-13 -20q-6 -10 -11 -17l-21 15zM778 252q0 -29 3 -62.5t7.5 -61.5t10.5 -46.5t12 -18.5h123v-30q-52 0 -93.5 -5.5t-74 -14.5t-56 -20.5t-40.5 -23.5q-42 8 -62 30t-20 64v80q-11 -35 -38 -66.5t-63.5 -55.5t-78.5 -38t-82 -14q-60 0 -106 19.5t-77 52
t-46 74.5t-14.5 87t17 90t50.5 83q6 7 11.5 12.5l10.5 10.5l10 10l406 127v219q0 71 -9.5 124.5t-35.5 79.5q-24 24 -56 33.5t-66 8t-67 -13t-59 -28.5q-53 -34 -83 -75t-30 -84q6 10 17 18q9 7 24.5 13t40.5 6q18 0 34 -7t28.5 -20t20 -31.5t7.5 -40.5q0 -23 -8 -40.5
t-21.5 -29.5t-31 -18.5t-35.5 -7.5q-18 0 -36.5 5.5t-35 16.5t-29.5 27.5t-20 38.5q-11 36 -7 70.5t18 66t36 59t49 50.5q49 38 99.5 55.5t118.5 22.5q74 5 127 -6.5t89.5 -34t58.5 -53.5t33.5 -64t15 -65.5t3.5 -59.5v-518zM262 389q-30 -65 -27 -118.5t25 -93.5t57 -64.5
t70 -30.5q21 -4 55.5 -1t66.5 22.5t55.5 62t23.5 117.5v206z" />
    <glyph glyph-name="adieresis" unicode="&#xe4;" horiz-adv-x="975" 
d="M365 1432q0 -23 -9 -43.5t-24.5 -36t-36 -24.5t-43.5 -9t-44 9t-37 24.5t-25 36t-9 43.5t9 43.5t25 36.5t37 25t44 9t43.5 -9t36 -25t24.5 -36.5t9 -43.5zM774 1432q0 -23 -8.5 -43.5t-24 -36t-36.5 -24.5t-46 -9q-23 0 -42.5 9t-34 24.5t-23 36t-8.5 43.5t8.5 43.5
t23 36.5t34 25t42.5 9q25 0 46 -9t36.5 -25t24 -36.5t8.5 -43.5zM778 770q0 27 -3.5 59.5t-15 65.5t-33.5 64t-58.5 53.5t-89.5 34t-127 6.5q-68 -5 -118.5 -22.5t-99.5 -55.5q-27 -23 -49 -50.5t-36 -59t-18 -66t7 -70.5q13 -42 45 -63.5t66 -24.5q21 -1 40 5t33.5 18
t23.5 30.5t9 42.5q0 22 -7.5 40.5t-20 31.5t-28.5 20t-34 7q-25 0 -40.5 -6t-24.5 -13q-11 -8 -17 -18q0 43 30 84t83 75q26 17 59 28.5t67 13t66 -8t56 -33.5q26 -26 35.5 -79.5t9.5 -124.5v-219l-406 -127l-10 -10l-10.5 -10.5t-11.5 -12.5q-34 -38 -50.5 -83t-17 -90
t14.5 -87t46 -74.5t77 -52t106 -19.5q40 0 82 14t78.5 38t63.5 55.5t38 66.5v-80q0 -42 20 -64t62 -30q17 12 40.5 23.5t56 20.5t74 14.5t93.5 5.5v30h-123q-6 0 -12 18.5t-10.5 46.5t-7.5 61.5t-3 62.5v518zM588 489v-206q0 -75 -23.5 -117.5t-55.5 -62t-66.5 -22.5
t-55.5 1q-35 6 -70 30.5t-57 64.5t-25 93.5t27 118.5z" />
    <glyph glyph-name="abreve" unicode="&#x103;" horiz-adv-x="975" 
d="M731 1507l-37 -55q-45 -66 -105.5 -99.5t-125.5 -33.5q-62 -2 -121.5 28.5t-105.5 90.5l-54 69h160l14 -20q25 -37 58.5 -59.5t68.5 -28.5q53 -10 103.5 13t87.5 77l12 18h45zM778 252q0 -29 3 -62.5t7.5 -61.5t10.5 -46.5t12 -18.5h123v-30q-52 0 -93.5 -5.5t-74 -14.5
t-56 -20.5t-40.5 -23.5q-42 8 -62 30t-20 64v80q-11 -35 -38 -66.5t-63.5 -55.5t-78.5 -38t-82 -14q-60 0 -106 19.5t-77 52t-46 74.5t-14.5 87t17 90t50.5 83q6 7 11.5 12.5l10.5 10.5l10 10l406 127v219q0 71 -9.5 124.5t-35.5 79.5q-24 24 -56 33.5t-66 8t-67 -13
t-59 -28.5q-53 -34 -83 -75t-30 -84q6 10 17 18q9 7 24.5 13t40.5 6q18 0 34 -7t28.5 -20t20 -31.5t7.5 -40.5q0 -24 -8.5 -42t-22.5 -30t-32 -18t-37 -6q-35 0 -69 22.5t-48 65.5q-11 36 -7 70.5t18 66t36 59t49 50.5q49 38 99.5 55.5t118.5 22.5q74 5 127 -6.5t89.5 -34
t58.5 -53.5t33.5 -64t15 -65.5t3.5 -59.5v-518zM262 389q-30 -65 -27 -118.5t25 -93.5t57 -64.5t70 -30.5q21 -4 55.5 -1t66.5 22.5t55.5 62t23.5 117.5v206z" />
    <glyph glyph-name="uni1EB1" unicode="&#x1eb1;" horiz-adv-x="975" 
d="M731 1507l-37 -55q-45 -66 -105.5 -99.5t-125.5 -33.5q-62 -2 -121.5 28.5t-105.5 90.5l-54 69h160l14 -20q25 -37 58.5 -59.5t68.5 -28.5q53 -10 103.5 13t87.5 77l12 18h45zM778 252q0 -29 3 -62.5t7.5 -61.5t10.5 -46.5t12 -18.5h123v-30q-52 0 -93.5 -5.5t-74 -14.5
t-56 -20.5t-40.5 -23.5q-42 8 -62 30t-20 64v80q-11 -35 -38 -66.5t-63.5 -55.5t-78.5 -38t-82 -14q-60 0 -106 19.5t-77 52t-46 74.5t-14.5 87t17 90t50.5 83q6 7 11.5 12.5l10.5 10.5l10 10l406 127v219q0 71 -9.5 124.5t-35.5 79.5q-24 24 -56 33.5t-66 8t-67 -13
t-59 -28.5q-53 -34 -83 -75t-30 -84q6 10 17 18q9 7 24.5 13t40.5 6q18 0 34 -7t28.5 -20t20 -31.5t7.5 -40.5q0 -24 -8.5 -42t-22.5 -30t-32 -18t-37 -6q-35 0 -69 22.5t-48 65.5q-11 36 -7 70.5t18 66t36 59t49 50.5q49 38 99.5 55.5t118.5 22.5q74 5 127 -6.5t89.5 -34
t58.5 -53.5t33.5 -64t15 -65.5t3.5 -59.5v-518zM262 389q-30 -65 -27 -118.5t25 -93.5t57 -64.5t70 -30.5q21 -4 55.5 -1t66.5 22.5t55.5 62t23.5 117.5v206zM191 1894q-6 5 -8 9q-2 3 -1 6t9 3h189q10 0 16.5 -3t10.5 -6q4 -4 7 -9l154 -351h-35z" />
    <glyph glyph-name="uni1EAF" unicode="&#x1eaf;" horiz-adv-x="975" 
d="M686 1507l-12 -18q-37 -54 -87.5 -77t-103.5 -13q-35 6 -68.5 28.5t-58.5 59.5l-14 20h-160l54 -69q46 -60 105.5 -90.5t121.5 -28.5q65 0 125.5 33.5t105.5 99.5l37 55h-45zM778 770q0 27 -3.5 59.5t-15 65.5t-33.5 64t-58.5 53.5t-89.5 34t-127 6.5
q-68 -5 -118.5 -22.5t-99.5 -55.5q-27 -23 -49 -50.5t-36 -59t-18 -66t7 -70.5q14 -43 48 -65.5t69 -22.5q19 0 37 6t32 18t22.5 30t8.5 42q0 22 -7.5 40.5t-20 31.5t-28.5 20t-34 7q-25 0 -40.5 -6t-24.5 -13q-11 -8 -17 -18q0 43 30 84t83 75q26 17 59 28.5t67 13t66 -8
t56 -33.5q26 -26 35.5 -79.5t9.5 -124.5v-219l-406 -127l-10 -10l-10.5 -10.5t-11.5 -12.5q-34 -38 -50.5 -83t-17 -90t14.5 -87t46 -74.5t77 -52t106 -19.5q40 0 82 14t78.5 38t63.5 55.5t38 66.5v-80q0 -42 20 -64t62 -30q17 12 40.5 23.5t56 20.5t74 14.5t93.5 5.5v30
h-123q-6 0 -12 18.5t-10.5 46.5t-7.5 61.5t-3 62.5v518zM588 489v-206q0 -75 -23.5 -117.5t-55.5 -62t-66.5 -22.5t-55.5 1q-35 6 -70 30.5t-57 64.5t-25 93.5t27 118.5zM474 1543h-35l154 351q3 5 7 9q4 3 10.5 6t16.5 3h189q8 0 8.5 -3t-1.5 -6l-7 -9z" />
    <glyph glyph-name="uni1EB5" unicode="&#x1eb5;" horiz-adv-x="975" 
d="M731 1507l-37 -55q-45 -66 -105.5 -99.5t-125.5 -33.5q-62 -2 -121.5 28.5t-105.5 90.5l-54 69h160l14 -20q25 -37 58.5 -59.5t68.5 -28.5q53 -10 103.5 13t87.5 77l12 18h45zM778 252q0 -29 3 -62.5t7.5 -61.5t10.5 -46.5t12 -18.5h123v-30q-52 0 -93.5 -5.5t-74 -14.5
t-56 -20.5t-40.5 -23.5q-42 8 -62 30t-20 64v80q-11 -35 -38 -66.5t-63.5 -55.5t-78.5 -38t-82 -14q-60 0 -106 19.5t-77 52t-46 74.5t-14.5 87t17 90t50.5 83q6 7 11.5 12.5l10.5 10.5l10 10l406 127v219q0 71 -9.5 124.5t-35.5 79.5q-24 24 -56 33.5t-66 8t-67 -13
t-59 -28.5q-53 -34 -83 -75t-30 -84q6 10 17 18q9 7 24.5 13t40.5 6q18 0 34 -7t28.5 -20t20 -31.5t7.5 -40.5q0 -24 -8.5 -42t-22.5 -30t-32 -18t-37 -6q-35 0 -69 22.5t-48 65.5q-11 36 -7 70.5t18 66t36 59t49 50.5q49 38 99.5 55.5t118.5 22.5q74 5 127 -6.5t89.5 -34
t58.5 -53.5t33.5 -64t15 -65.5t3.5 -59.5v-518zM262 389q-30 -65 -27 -118.5t25 -93.5t57 -64.5t70 -30.5q21 -4 55.5 -1t66.5 22.5t55.5 62t23.5 117.5v206zM336 1773q23 35 54.5 56.5t54.5 21.5q18 0 30.5 -1.5t25 -5.5l28.5 -9.5l41 -14.5l71 -24t82.5 -22.5t77 -7
t53.5 23.5q20 23 33 41q7 10 12 18l19 -14l-94 -138q-25 -35 -58.5 -58.5t-68.5 -23.5q-25 0 -57.5 9.5t-69.5 23.5q-12 4 -32.5 13t-45.5 18.5t-52.5 17.5t-53.5 10t-48 -4t-35 -24q-11 -15 -19 -27l-13 -20q-6 -10 -11 -17l-20 15z" />
    <glyph glyph-name="uni1EB3" unicode="&#x1eb3;" horiz-adv-x="975" 
d="M731 1507l-37 -55q-45 -66 -105.5 -99.5t-125.5 -33.5q-62 -2 -121.5 28.5t-105.5 90.5l-54 69h160l14 -20q25 -37 58.5 -59.5t68.5 -28.5q53 -10 103.5 13t87.5 77l12 18h45zM778 252q0 -29 3 -62.5t7.5 -61.5t10.5 -46.5t12 -18.5h123v-30q-52 0 -93.5 -5.5t-74 -14.5
t-56 -20.5t-40.5 -23.5q-42 8 -62 30t-20 64v80q-11 -35 -38 -66.5t-63.5 -55.5t-78.5 -38t-82 -14q-60 0 -106 19.5t-77 52t-46 74.5t-14.5 87t17 90t50.5 83q6 7 11.5 12.5l10.5 10.5l10 10l406 127v219q0 71 -9.5 124.5t-35.5 79.5q-24 24 -56 33.5t-66 8t-67 -13
t-59 -28.5q-53 -34 -83 -75t-30 -84q6 10 17 18q9 7 24.5 13t40.5 6q18 0 34 -7t28.5 -20t20 -31.5t7.5 -40.5q0 -24 -8.5 -42t-22.5 -30t-32 -18t-37 -6q-35 0 -69 22.5t-48 65.5q-11 36 -7 70.5t18 66t36 59t49 50.5q49 38 99.5 55.5t118.5 22.5q74 5 127 -6.5t89.5 -34
t58.5 -53.5t33.5 -64t15 -65.5t3.5 -59.5v-518zM262 389q-30 -65 -27 -118.5t25 -93.5t57 -64.5t70 -30.5q21 -4 55.5 -1t66.5 22.5t55.5 62t23.5 117.5v206zM689 1839q8 -33 4.5 -57t-15 -43.5t-30.5 -36t-41 -33.5l-29.5 -24t-31.5 -28.5t-31.5 -36t-30.5 -46.5h-20
q-2 12 -1.5 30.5t6 40.5t18 47t36.5 52q51 60 51 113q0 60 -55 88v-2q-31 14 -53 14q-16 0 -28.5 -6.5t-26.5 -17.5q-5 -5 -9 -9.5t-2 -7.5q0 -6 13 -10q27 -12 40.5 -26t16.5 -29q0 -28 -14.5 -43t-40.5 -17q-20 0 -37.5 9.5t-28.5 29.5q-9 26 -8.5 46t6.5 32
q20 54 63.5 78.5t102.5 24.5q31 0 60 -7.5t52.5 -23t40 -40.5t23.5 -61z" />
    <glyph glyph-name="uni1EB7" unicode="&#x1eb7;" horiz-adv-x="975" 
d="M731 1507l-37 -55q-45 -66 -105.5 -99.5t-125.5 -33.5q-62 -2 -121.5 28.5t-105.5 90.5l-54 69h160l14 -20q25 -37 58.5 -59.5t68.5 -28.5q53 -10 103.5 13t87.5 77l12 18h45zM778 252q0 -29 3 -62.5t7.5 -61.5t10.5 -46.5t12 -18.5h123v-30q-52 0 -93.5 -5.5t-74 -14.5
t-56 -20.5t-40.5 -23.5q-42 8 -62 30t-20 64v80q-11 -35 -38 -66.5t-63.5 -55.5t-78.5 -38t-82 -14q-60 0 -106 19.5t-77 52t-46 74.5t-14.5 87t17 90t50.5 83q6 7 11.5 12.5l10.5 10.5l10 10l406 127v219q0 71 -9.5 124.5t-35.5 79.5q-24 24 -56 33.5t-66 8t-67 -13
t-59 -28.5q-53 -34 -83 -75t-30 -84q6 10 17 18q9 7 24.5 13t40.5 6q18 0 34 -7t28.5 -20t20 -31.5t7.5 -40.5q0 -24 -8.5 -42t-22.5 -30t-32 -18t-37 -6q-35 0 -69 22.5t-48 65.5q-11 36 -7 70.5t18 66t36 59t49 50.5q49 38 99.5 55.5t118.5 22.5q74 5 127 -6.5t89.5 -34
t58.5 -53.5t33.5 -64t15 -65.5t3.5 -59.5v-518zM262 389q-30 -65 -27 -118.5t25 -93.5t57 -64.5t70 -30.5q21 -4 55.5 -1t66.5 22.5t55.5 62t23.5 117.5v206zM500 -403q-21 0 -39.5 8t-32.5 21.5t-22 32t-8 39.5q0 22 8 40.5t22 32.5t32.5 22t39.5 8t40 -8t33 -22t22 -32.5
t8 -40.5q0 -21 -8 -39.5t-22 -32t-33 -21.5t-40 -8z" />
    <glyph glyph-name="aring" unicode="&#xe5;" horiz-adv-x="975" 
d="M627 1393q0 -29 -11 -55t-30.5 -45.5t-45.5 -30.5t-57 -11q-29 0 -53.5 11t-42.5 30.5t-28.5 45.5t-10.5 55q0 28 10.5 54t28.5 45.5t42.5 31.5t53.5 12q31 0 57 -12t45.5 -31.5t30.5 -45.5t11 -54zM578 1393q0 18 -7.5 35t-20 30t-30 21t-37.5 8q-18 0 -34 -8t-28 -21
t-19 -30t-7 -35q0 -19 7 -36t19 -29.5t28 -20t34 -7.5q41 0 68 27.5t27 65.5zM778 770q0 27 -3.5 59.5t-15 65.5t-33.5 64t-58.5 53.5t-89.5 34t-127 6.5q-68 -5 -118.5 -22.5t-99.5 -55.5q-27 -23 -49 -50.5t-36 -59t-18 -66t7 -70.5q14 -43 48 -65.5t69 -22.5q19 0 37 6
t32 18t22.5 30t8.5 42q0 22 -7.5 40.5t-20 31.5t-28.5 20t-34 7q-25 0 -40.5 -6t-24.5 -13q-11 -8 -17 -18q0 43 30 84t83 75q26 17 59 28.5t67 13t66 -8t56 -33.5q26 -26 35.5 -79.5t9.5 -124.5v-219l-406 -127l-10 -10l-10.5 -10.5t-11.5 -12.5q-34 -38 -50.5 -83t-17 -90
t14.5 -87t46 -74.5t77 -52t106 -19.5q40 0 82 14t78.5 38t63.5 55.5t38 66.5v-80q0 -42 20 -64t62 -30q17 12 40.5 23.5t56 20.5t74 14.5t93.5 5.5v30h-123q-6 0 -12 18.5t-10.5 46.5t-7.5 61.5t-3 62.5v518zM588 489v-206q0 -75 -23.5 -117.5t-55.5 -62t-66.5 -22.5
t-55.5 1q-35 6 -70 30.5t-57 64.5t-25 93.5t27 118.5z" />
    <glyph glyph-name="uni1EA3" unicode="&#x1ea3;" horiz-adv-x="975" 
d="M778 252q0 -29 3 -62.5t7.5 -61.5t10.5 -46.5t12 -18.5h123v-30q-52 0 -93.5 -5.5t-74 -14.5t-56 -20.5t-40.5 -23.5q-42 8 -62 30t-20 64v80q-11 -35 -38 -66.5t-63.5 -55.5t-78.5 -38t-82 -14q-60 0 -106 19.5t-77 52t-46 74.5t-14.5 87t17 90t50.5 83l16 16.5l16 16.5
l406 127v219q0 71 -9.5 124.5t-35.5 79.5q-24 24 -56 33.5t-66 8t-67 -13t-59 -28.5q-53 -34 -83 -75t-30 -84q6 10 17 18q9 7 24.5 13t40.5 6q18 0 34 -7t28.5 -20t20 -31.5t7.5 -40.5q0 -24 -8.5 -42t-22.5 -30t-32 -18t-37 -6q-35 2 -69 23.5t-48 64.5q-11 36 -7 70.5
t18 66t36 59t49 50.5q49 38 99.5 55.5t118.5 22.5q74 5 127 -6.5t89.5 -34t58.5 -53.5t33.5 -64t15 -65.5t3.5 -59.5v-518zM262 389q-30 -65 -27 -118.5t25 -93.5t57 -64.5t70 -30.5q21 -4 55.5 -1t66.5 22.5t55.5 62t23.5 117.5v206zM705 1470q8 -33 4.5 -57t-15 -43.5
t-30.5 -36t-41 -33.5l-29.5 -24t-31.5 -28.5t-31.5 -36t-30.5 -46.5h-20q-2 12 -1.5 30.5t6 40.5t18 47t36.5 52q51 60 51 113q0 60 -55 88v-2q-31 14 -53 14q-16 0 -28.5 -6.5t-26.5 -17.5q-5 -5 -9 -9.5t-2 -7.5q0 -6 13 -10q27 -12 40.5 -26t16.5 -29q0 -28 -14.5 -43
t-40.5 -17q-20 0 -37.5 9.5t-28.5 29.5q-9 26 -8.5 46t6.5 32q20 54 63.5 78.5t102.5 24.5q31 0 60 -7.5t52.5 -23t40 -40.5t23.5 -61z" />
    <glyph glyph-name="uni1EA1" unicode="&#x1ea1;" horiz-adv-x="975" 
d="M778 252q0 -29 3 -62.5t7.5 -61.5t10.5 -46.5t12 -18.5h123v-30q-52 0 -93.5 -5.5t-74 -14.5t-56 -20.5t-40.5 -23.5q-42 8 -62 30t-20 64v80q-11 -35 -38 -66.5t-63.5 -55.5t-78.5 -38t-82 -14q-60 0 -106 19.5t-77 52t-46 74.5t-14.5 87t17 90t50.5 83l16 16.5l16 16.5
l406 127v219q0 71 -9.5 124.5t-35.5 79.5q-24 24 -56 33.5t-66 8t-67 -13t-59 -28.5q-53 -34 -83 -75t-30 -84q6 10 17 18q9 7 24.5 13t40.5 6q18 0 34 -7t28.5 -20t20 -31.5t7.5 -40.5q0 -24 -8.5 -42t-22.5 -30t-32 -18t-37 -6q-35 2 -69 23.5t-48 64.5q-11 36 -7 70.5
t18 66t36 59t49 50.5q49 38 99.5 55.5t118.5 22.5q74 5 127 -6.5t89.5 -34t58.5 -53.5t33.5 -64t15 -65.5t3.5 -59.5v-518zM262 389q-30 -65 -27 -118.5t25 -93.5t57 -64.5t70 -30.5q21 -4 55.5 -1t66.5 22.5t55.5 62t23.5 117.5v206zM500 -403q-21 0 -39.5 8t-32.5 21.5
t-22 32t-8 39.5q0 22 8 40.5t22 32.5t32.5 22t39.5 8t40 -8t33 -22t22 -32.5t8 -40.5q0 -21 -8 -39.5t-22 -32t-33 -21.5t-40 -8z" />
    <glyph glyph-name="ae" unicode="&#xe6;" horiz-adv-x="1450" 
d="M737 514q0 -18 2 -42l5 -48.5t10 -63.5q34 -155 116 -228t215 -73q47 0 85.5 15t68.5 38t52.5 51t38 54.5t25 48t13.5 31.5l31 -33q-1 -7 -7.5 -30.5t-22.5 -55t-44 -66t-71 -63.5t-104 -48t-144 -19q-69 0 -127.5 15.5t-107.5 44t-88.5 67.5t-68.5 86q-11 -53 -43 -94.5
t-74 -71t-88.5 -45t-86.5 -15.5q-60 0 -105.5 19.5t-76 51.5t-45.5 73.5t-14.5 85t16.5 86t48 77.5l33 33l406 127v232q0 71 -9.5 124.5t-35.5 79.5q-24 24 -56 33.5t-66 8t-67 -13t-59 -28.5q-53 -34 -83 -75t-30 -84q6 10 17 18q9 7 24.5 13t40.5 6q18 0 34 -7t28.5 -20
t20 -31.5t7.5 -40.5q0 -23 -8 -40.5t-21 -29.5t-30.5 -18.5t-36.5 -7.5q-18 0 -36.5 5.5t-35 16.5t-29.5 27.5t-20 38.5q-11 36 -7.5 70.5t18 66t36.5 59t49 50.5q25 19 49 33t50.5 23t55 14.5t62.5 7.5q53 4 95.5 -1t75.5 -16.5t57.5 -28.5t42.5 -38q56 48 128.5 75
t160.5 27q75 0 133 -19.5t101.5 -50.5t74 -70t49 -77.5t27 -74t8.5 -58.5q0 -6 -4.5 -8.5t-14.5 -5.5zM1210 702q0 8 -1 34.5t-7 62t-19.5 75t-38 72.5t-62.5 54.5t-93 21.5q-53 0 -92 -20t-67 -52.5t-46 -74t-29 -84.5q-26 -101 -22 -230zM584 477l-326 -100
q-28 -60 -25 -111.5t25 -90t56 -63t69 -30.5q21 -4 55.5 -1t66.5 22.5t55.5 62t23.5 117.5v194z" />
    <glyph glyph-name="aeacute" unicode="&#x1fd;" horiz-adv-x="1815" 
d="M737 514q0 -18 2 -42l5 -48.5t10 -63.5q34 -155 116 -228t215 -73q47 0 85.5 15t68.5 38t52.5 51t38 54.5t25 48t13.5 31.5l31 -33q-1 -7 -7.5 -30.5t-22.5 -55t-44 -66t-71 -63.5t-104 -48t-144 -19q-69 0 -127.5 15.5t-107.5 44t-88.5 67.5t-68.5 86q-11 -53 -43 -94.5
t-74 -71t-88.5 -45t-86.5 -15.5q-60 0 -105.5 19.5t-76 51.5t-45.5 73.5t-14.5 85t16.5 86t48 77.5l33 33l406 127v232q0 71 -9.5 124.5t-35.5 79.5q-24 24 -56 33.5t-66 8t-67 -13t-59 -28.5q-53 -34 -83 -75t-30 -84q6 10 17 18q9 7 24.5 13t40.5 6q18 0 34 -7t28.5 -20
t20 -31.5t7.5 -40.5q0 -23 -8 -40.5t-21 -29.5t-30.5 -18.5t-36.5 -7.5q-18 0 -36.5 5.5t-35 16.5t-29.5 27.5t-20 38.5q-11 36 -7.5 70.5t18 66t36.5 59t49 50.5q25 19 49 33t50.5 23t55 14.5t62.5 7.5q53 4 95.5 -1t75.5 -16.5t57.5 -28.5t42.5 -38q56 48 128.5 75
t160.5 27q75 0 133 -19.5t101.5 -50.5t74 -70t49 -77.5t27 -74t8.5 -58.5q0 -6 -4.5 -8.5t-14.5 -5.5zM1210 702q0 8 -1 34.5t-7 62t-19.5 75t-38 72.5t-62.5 54.5t-93 21.5q-53 0 -92 -20t-67 -52.5t-46 -74t-29 -84.5q-26 -101 -22 -230zM584 477l-326 -100
q-28 -60 -25 -111.5t25 -90t56 -63t69 -30.5q21 -4 55.5 -1t66.5 22.5t55.5 62t23.5 117.5v194zM1041 1536q8 0 8.5 -3t-1.5 -6l-7 -9l-342 -351h-35l154 351q3 5 7 9q4 3 10.5 6t16.5 3h189z" />
    <glyph glyph-name="uni01E3" unicode="&#x1e3;" horiz-adv-x="1815" 
d="M1380 707q10 3 14.5 5.5t4.5 8.5q0 23 -8.5 58.5t-27 74t-49 77.5t-74 70t-101.5 50.5t-133 19.5q-88 0 -160.5 -27t-128.5 -75q-18 21 -42.5 38t-57.5 28.5t-75.5 16.5t-95.5 1q-34 -2 -62.5 -7.5t-55 -14.5t-50.5 -23t-49 -33q-27 -23 -49 -50.5t-36.5 -59t-18 -66
t7.5 -70.5q7 -22 20 -38.5t29.5 -27.5t35 -16.5t36.5 -5.5q19 1 36.5 7.5t30.5 18.5t21 29.5t8 40.5q0 22 -7.5 40.5t-20 31.5t-28.5 20t-34 7q-25 0 -40.5 -6t-24.5 -13q-11 -8 -17 -18q0 43 30 84t83 75q26 17 59 28.5t67 13t66 -8t56 -33.5q26 -26 35.5 -79.5t9.5 -124.5
v-232l-406 -127l-33 -33q-32 -35 -48 -77.5t-16.5 -86t14.5 -85t45.5 -73.5t76 -51.5t105.5 -19.5q40 0 86.5 15.5t88.5 45t74 71t43 94.5q29 -47 68.5 -86t88.5 -67.5t107.5 -44t127.5 -15.5q83 0 144 19t104 48t71 63.5t44 66t22.5 55t7.5 30.5l-31 33q-4 -10 -13.5 -31.5
t-25 -48t-38 -54.5t-52.5 -51t-68.5 -38t-85.5 -15q-133 0 -215 73t-116 228q-7 35 -10 63.5l-5 48.5q-2 24 -2 42zM733 561q-4 129 22 230q11 43 29 84.5t46 74t67 52.5t92 20q55 0 93 -21.5t62.5 -54.5t38 -72.5t19.5 -75t7 -62t1 -34.5zM584 283q0 -75 -23.5 -117.5
t-55.5 -62t-66.5 -22.5t-55.5 1q-35 6 -69 30.5t-56 63t-25 90t25 111.5l326 100v-194zM664 1374v121h848v-121h-848z" />
    <glyph glyph-name="ccedilla" unicode="&#xe7;" horiz-adv-x="987" 
d="M936 248q-4 -13 -12.5 -38.5t-24.5 -56.5t-41.5 -63.5t-65 -60t-95 -46.5t-130.5 -22l-28 -78q59 0 103.5 -19.5t74.5 -50.5t45 -69.5t14 -77.5q-1 -32 -13 -62t-35 -52.5t-58 -36t-82 -13.5q-48 0 -87 13t-67 30t-45.5 32.5t-23.5 21.5l16 14l36 -22t37.5 -20
t40.5 -14.5t44 -5.5q36 0 62.5 9t44.5 24.5t27 35.5t11 42q2 32 -10.5 65.5t-39 60.5t-66.5 44.5t-91 17.5l31 111q-114 5 -198 50.5t-139.5 117t-83 162t-26.5 186.5q0 67 14 134t41 128.5t67.5 116t93 97t117.5 69.5t143 35q47 4 96.5 -2.5t95 -23.5t84.5 -42.5t65.5 -59
t37.5 -74t2 -85.5q-6 -24 -19 -40.5t-30.5 -26t-37.5 -12.5t-40 1q-32 6 -56 30t-24 64q0 36 13 57t32 44q19 24 7 52.5t-46 49.5t-85.5 29t-111.5 -8q-74 -20 -127 -71t-86 -121t-46 -153t-7 -167q6 -89 32.5 -173t72.5 -148t110.5 -101.5t146.5 -34.5q52 1 92.5 17t71 39
t52 50.5t36 53.5t22 47t11.5 31z" />
    <glyph glyph-name="dcroat" unicode="&#x111;" horiz-adv-x="1167" 
d="M606 973q-53 -18 -110.5 -59t-105 -107t-78.5 -157.5t-31 -209.5q0 -123 21.5 -204t57 -129.5t80 -68.5t90.5 -20q32 0 72.5 13t76.5 44t60.5 82t24.5 126v624zM1106 61v-30q-52 0 -106.5 -12t-101 -24.5l-80 -21t-42.5 -0.5q-6 6 -8.5 17t-3.5 26t-0.5 32t0.5 34
q-34 -26 -62 -45t-56 -32t-59.5 -21t-72.5 -13q-59 -6 -117 4.5t-110.5 37t-96.5 68.5t-74.5 98.5t-45 126t-7.5 151.5q9 106 37.5 187t70 141t93 102.5t105.5 71t108 46.5t101 29l186 -76v202q-111 -4 -199 22.5t-139 91.5q-23 32 -21 67.5t21 57.5q14 16 35 18t43 -18
q18 -15 24 -33.5t9 -38t7.5 -38t18.5 -33.5q26 -26 73 -41t128 -15v29v39t-1 60.5t-3 69.5t-5.5 66t-8.5 49t-13 19l-125 -4v47q61 0 108 8.5t83 19t61.5 20.5t42.5 13q14 2 23 -1.5t14.5 -16.5t7.5 -36t2 -60v-309l152 12l2 -27l-154 -20v-940q1 -29 4 -60t8 -57t10.5 -43
t10.5 -17h123z" />
    <glyph glyph-name="egrave" unicode="&#xe8;" horiz-adv-x="985" 
d="M272 1518q-6 5 -8 9q-2 3 -1 6t9 3h189q10 0 16 -3t11 -6q4 -4 8 -9l153 -351h-35zM272 487q0 -15 2 -36l5 -44t10 -61q34 -156 116 -228.5t216 -72.5q47 0 85 15t68 38t52.5 51t38 54.5t25 48t13.5 31.5l31 -33q-1 -7 -7.5 -31t-22.5 -55.5t-44 -66t-71 -63.5t-104 -48
t-144 -19q-120 0 -209.5 45.5t-149 120t-89.5 170t-32 195.5q0 69 13 137t39.5 130.5t66.5 115.5t93.5 92.5t120.5 61.5t147 22q75 0 133 -20.5t101.5 -53t74 -73t49 -80.5t27 -76.5t8.5 -59.5q0 -6 -4.5 -8.5t-14.5 -5.5zM745 676q-3 93 -28 166q-11 31 -27 61t-39 53
t-54.5 37.5t-72.5 14.5q-53 0 -92 -20.5t-67 -54t-46 -76t-29 -86.5q-26 -104 -22 -236z" />
    <glyph glyph-name="eacute" unicode="&#xe9;" horiz-adv-x="985" 
d="M720 1536q8 0 8.5 -3t-1.5 -6l-7 -9l-342 -351h-35l154 351q3 5 7 9q4 3 10.5 6t16.5 3h189zM271 487q0 -15 2 -36l5 -44t10 -61q34 -156 116 -228.5t216 -72.5q47 0 85 15t68 38t52.5 51t38 54.5t25 48t13.5 31.5l31 -33q-1 -7 -7.5 -31t-22.5 -55.5t-44 -66t-71 -63.5
t-104 -48t-144 -19q-121 0 -211 46t-150 121t-89.5 171.5t-29.5 198.5q0 103 30.5 202t91 177t150 126t208.5 48q75 0 133 -20.5t101.5 -53t74 -73t49 -80.5t27 -76.5t8.5 -59.5q0 -6 -4.5 -8.5t-14.5 -5.5zM744 676q-3 93 -28 166q-11 31 -27 61t-39 53t-54.5 37.5
t-72.5 14.5q-53 0 -92 -20.5t-67 -54t-46 -76t-29 -86.5q-26 -104 -22 -236z" />
    <glyph glyph-name="ecircumflex" unicode="&#xea;" horiz-adv-x="985" 
d="M258 1186l227 348q21 32 29 35q6 3 11 1t9 -5l9 -9l264 -370h-160l-174 254l-170 -254h-45zM272 487q0 -15 2 -36l5 -44t10 -61q34 -156 116 -228.5t216 -72.5q47 0 85 15t68 38t52.5 51t38 54.5t25 48t13.5 31.5l31 -33q-1 -7 -7.5 -31t-22.5 -55.5t-44 -66t-71 -63.5
t-104 -48t-144 -19q-122 0 -213 47t-151 124.5t-89 176t-27 201.5q3 101 34.5 198.5t91.5 173.5t148.5 122.5t205.5 46.5q75 0 133 -20.5t101.5 -53t74 -73t49 -80.5t27 -76.5t8.5 -59.5q0 -6 -4.5 -8.5t-14.5 -5.5zM745 676q-3 93 -28 166q-11 31 -27 61t-39 53t-54.5 37.5
t-72.5 14.5q-53 0 -92 -20.5t-67 -54t-46 -76t-29 -86.5q-26 -104 -22 -236z" />
    <glyph glyph-name="uni1EC1" unicode="&#x1ec1;" horiz-adv-x="985" 
d="M258 1186l227 348q21 32 29 35q6 3 11 1t9 -5l9 -9l264 -370h-160l-174 254l-170 -254h-45zM272 487q0 -15 2 -36l5 -44t10 -61q34 -156 116 -228.5t216 -72.5q47 0 85 15t68 38t52.5 51t38 54.5t25 48t13.5 31.5l31 -33q-1 -7 -7.5 -31t-22.5 -55.5t-44 -66t-71 -63.5
t-104 -48t-144 -19q-122 0 -213 47t-151 124.5t-89 176t-27 201.5q3 101 34.5 198.5t91.5 173.5t148.5 122.5t205.5 46.5q75 0 133 -20.5t101.5 -53t74 -73t49 -80.5t27 -76.5t8.5 -59.5q0 -6 -4.5 -8.5t-14.5 -5.5zM745 676q-3 93 -28 166q-11 31 -27 61t-39 53t-54.5 37.5
t-72.5 14.5q-53 0 -92 -20.5t-67 -54t-46 -76t-29 -86.5q-26 -104 -22 -236zM446 1819q-6 5 -8 9q-2 3 -1 6t9 3h189q10 0 16.5 -3t10.5 -6q4 -4 7 -9l154 -351h-35z" />
    <glyph glyph-name="uni1EBF" unicode="&#x1ebf;" horiz-adv-x="985" 
d="M303 1186l170 254l174 -254h160l-264 370l-9 9q-4 3 -9 5t-11 -1q-8 -3 -29 -35l-227 -348h45zM915 680q10 3 14.5 5.5t4.5 8.5q0 23 -8.5 59.5t-27 76.5t-49 80.5t-74 73t-101.5 53t-133 20.5q-117 0 -205.5 -46.5t-148.5 -122.5t-91.5 -173.5t-34.5 -198.5
q-2 -103 27 -201.5t89 -176t151 -124.5t213 -47q83 0 144 19t104 48t71 63.5t44 66t22.5 55.5t7.5 31l-31 33q-4 -10 -13.5 -31.5t-25 -48t-38 -54.5t-52.5 -51t-68 -38t-85 -15q-134 0 -216 72.5t-116 228.5q-7 35 -10 61l-5 44q-2 21 -2 36zM268 535q-4 132 22 236
q11 44 29 86.5t46 76t67 54t92 20.5q41 0 72.5 -14.5t54.5 -37.5t39 -53t27 -61q25 -73 28 -166zM714 1468h-35l154 351q3 5 7 9q4 3 10.5 6t16.5 3h189q8 0 8.5 -3t-1.5 -6l-7 -9z" />
    <glyph glyph-name="uni1EC5" unicode="&#x1ec5;" horiz-adv-x="985" 
d="M258 1186l227 348q21 32 29 35q6 3 11 1t9 -5l9 -9l264 -370h-160l-174 254l-170 -254h-45zM272 487q0 -15 2 -36l5 -44t10 -61q34 -156 116 -228.5t216 -72.5q47 0 85 15t68 38t52.5 51t38 54.5t25 48t13.5 31.5l31 -33q-1 -7 -7.5 -31t-22.5 -55.5t-44 -66t-71 -63.5
t-104 -48t-144 -19q-122 0 -213 47t-151 124.5t-89 176t-27 201.5q3 101 34.5 198.5t91.5 173.5t148.5 122.5t205.5 46.5q75 0 133 -20.5t101.5 -53t74 -73t49 -80.5t27 -76.5t8.5 -59.5q0 -6 -4.5 -8.5t-14.5 -5.5zM745 676q-3 93 -28 166q-11 31 -27 61t-39 53t-54.5 37.5
t-72.5 14.5q-53 0 -92 -20.5t-67 -54t-46 -76t-29 -86.5q-26 -104 -22 -236zM351 1771q23 35 54.5 56.5t54.5 21.5q18 0 30.5 -1.5t25 -5.5l28.5 -9.5l41 -14.5l71 -24t82.5 -22.5t77 -7t53.5 23.5q20 23 33 41q7 10 12 18l19 -14l-94 -138q-25 -35 -58.5 -58.5t-68.5 -23.5
q-25 0 -57.5 9.5t-69.5 23.5q-12 4 -32.5 13t-45.5 18.5t-52.5 17.5t-53.5 10t-48 -4t-35 -24q-11 -15 -19 -27l-13 -20q-6 -10 -11 -17l-20 15z" />
    <glyph glyph-name="uni1EC3" unicode="&#x1ec3;" horiz-adv-x="985" 
d="M258 1186l227 348q21 32 29 35q6 3 11 1t9 -5l9 -9l264 -370h-160l-174 254l-170 -254h-45zM272 487q0 -15 2 -36l5 -44t10 -61q34 -156 116 -228.5t216 -72.5q47 0 85 15t68 38t52.5 51t38 54.5t25 48t13.5 31.5l31 -33q-1 -7 -7.5 -31t-22.5 -55.5t-44 -66t-71 -63.5
t-104 -48t-144 -19q-122 0 -213 47t-151 124.5t-89 176t-27 201.5q3 101 34.5 198.5t91.5 173.5t148.5 122.5t205.5 46.5q75 0 133 -20.5t101.5 -53t74 -73t49 -80.5t27 -76.5t8.5 -59.5q0 -6 -4.5 -8.5t-14.5 -5.5zM745 676q-3 93 -28 166q-11 31 -27 61t-39 53t-54.5 37.5
t-72.5 14.5q-53 0 -92 -20.5t-67 -54t-46 -76t-29 -86.5q-26 -104 -22 -236zM955 1777q8 -33 4.5 -57t-15 -43.5t-30.5 -36t-41 -33.5l-29.5 -24t-31.5 -28.5t-31.5 -36t-30.5 -46.5h-20q-2 12 -1.5 30.5t6 40.5t18 47t36.5 52q51 60 51 113q0 60 -55 88v-2q-31 14 -53 14
q-16 0 -28.5 -6.5t-26.5 -17.5q-5 -5 -9 -9.5t-2 -7.5q0 -6 13 -10q27 -12 40.5 -26t16.5 -29q0 -28 -14.5 -43t-40.5 -17q-20 0 -37.5 9.5t-28.5 29.5q-9 26 -8.5 46t6.5 32q20 54 63.5 78.5t102.5 24.5q31 0 60 -7.5t52.5 -23t40 -40.5t23.5 -61z" />
    <glyph glyph-name="uni1EC7" unicode="&#x1ec7;" horiz-adv-x="985" 
d="M258 1186l227 348q21 32 29 35q6 3 11 1t9 -5l9 -9l264 -370h-160l-174 254l-170 -254h-45zM272 487q0 -15 2 -36l5 -44t10 -61q34 -156 116 -228.5t216 -72.5q47 0 85 15t68 38t52.5 51t38 54.5t25 48t13.5 31.5l31 -33q-1 -7 -7.5 -31t-22.5 -55.5t-44 -66t-71 -63.5
t-104 -48t-144 -19q-122 0 -213 47t-151 124.5t-89 176t-27 201.5q3 101 34.5 198.5t91.5 173.5t148.5 122.5t205.5 46.5q75 0 133 -20.5t101.5 -53t74 -73t49 -80.5t27 -76.5t8.5 -59.5q0 -6 -4.5 -8.5t-14.5 -5.5zM745 676q-3 93 -28 166q-11 31 -27 61t-39 53t-54.5 37.5
t-72.5 14.5q-53 0 -92 -20.5t-67 -54t-46 -76t-29 -86.5q-26 -104 -22 -236zM499 -403q-21 0 -39.5 8t-32.5 21.5t-22 32t-8 39.5q0 22 8 40.5t22 32.5t32.5 22t39.5 8t40 -8t33 -22t22 -32.5t8 -40.5q0 -21 -8 -39.5t-22 -32t-33 -21.5t-40 -8z" />
    <glyph glyph-name="uni1EBD" horiz-adv-x="985" 
d="M272 487q0 -15 2 -36l5 -44t10 -61q34 -156 116 -228.5t216 -72.5q47 0 85 15t68 38t52.5 51t38 54.5t25 48t13.5 31.5l31 -33q-1 -7 -7.5 -31t-22.5 -55.5t-44 -66t-71 -63.5t-104 -48t-144 -19q-122 0 -212 46.5t-150 123t-89.5 174t-28.5 199.5t32 200t91 175.5
t149.5 124.5t207.5 47q75 0 133 -20.5t101.5 -53t74 -73t49 -80.5t27 -76.5t8.5 -59.5q0 -6 -4.5 -8.5t-14.5 -5.5zM745 676q-3 93 -28 166q-11 31 -27 61t-39 53t-54.5 37.5t-72.5 14.5q-53 0 -92 -20.5t-67 -54t-46 -76t-29 -86.5q-26 -104 -22 -236zM362 1458
q23 35 54.5 56.5t54.5 21.5q18 0 30.5 -1.5t25 -5t28.5 -9.5l41 -15l71 -24t82.5 -22.5t77 -7t53.5 23.5q10 11 18 21.5l15 19.5q7 10 12 18l19 -14l-94 -138q-25 -35 -58.5 -58.5t-68.5 -23.5q-25 0 -57.5 9.5t-69.5 23.5q-12 4 -32.5 13t-45.5 18.5t-53 17.5t-53.5 10
t-47.5 -4t-35 -24q-11 -15 -19 -27l-13 -20q-3 -5 -6 -9t-5 -8l-20 15l96 143v0z" />
    <glyph glyph-name="edieresis" unicode="&#xeb;" horiz-adv-x="985" 
d="M451 1432q0 -23 -9 -43.5t-24.5 -36t-36 -24.5t-43.5 -9t-44 9t-37 24.5t-25 36t-9 43.5t9 43.5t25 36.5t37 25t44 9t43.5 -9t36 -25t24.5 -36.5t9 -43.5zM860 1432q0 -23 -8.5 -43.5t-24 -36t-36.5 -24.5t-46 -9q-23 0 -42.5 9t-34 24.5t-23 36t-8.5 43.5t8.5 43.5
t23 36.5t34 25t42.5 9q25 0 46 -9t36.5 -25t24 -36.5t8.5 -43.5zM915 680q10 3 14.5 5.5t4.5 8.5q0 23 -8.5 59.5t-27 76.5t-49 80.5t-74 73t-101.5 53t-133 20.5q-80 0 -147 -22.5t-120.5 -61.5t-94 -93t-67 -116t-39.5 -130.5t-12 -137.5q2 -101 32.5 -196t90 -169
t149 -119t208.5 -45q83 0 144 19t104 48t71 63.5t44 66t22.5 55.5t7.5 31l-31 33q-4 -10 -13.5 -31.5t-25 -48t-38 -54.5t-52.5 -51t-68 -38t-85 -15q-134 0 -216 72.5t-116 228.5q-7 35 -10 61l-5 44q-2 21 -2 36zM268 535q-4 132 22 236q11 44 29 86.5t46 76t67 54
t92 20.5q41 0 72.5 -14.5t54.5 -37.5t39 -53t27 -61q25 -73 28 -166z" />
    <glyph glyph-name="uni1EBB" unicode="&#x1ebb;" horiz-adv-x="985" 
d="M272 487q0 -15 2 -36l5 -44t10 -61q34 -156 116 -228.5t216 -72.5q47 0 85 15t68 38t52.5 51t38 54.5t25 48t13.5 31.5l31 -33q-1 -7 -7.5 -31t-22.5 -55.5t-44 -66t-71 -63.5t-104 -48t-144 -19q-122 0 -212 46.5t-150 123t-89.5 174t-28.5 199.5t32 200t91 175.5
t149.5 124.5t207.5 47q75 0 133 -20.5t101.5 -53t74 -73t49 -80.5t27 -76.5t8.5 -59.5q0 -6 -4.5 -8.5t-14.5 -5.5zM745 676q-3 93 -28 166q-11 31 -27 61t-39 53t-54.5 37.5t-72.5 14.5q-53 0 -92 -20.5t-67 -54t-46 -76t-29 -86.5q-26 -104 -22 -236zM705 1470
q8 -33 4.5 -57t-15 -43.5t-30.5 -36t-41 -33.5l-29.5 -24t-31.5 -28.5t-31.5 -36t-30.5 -46.5h-20q-2 12 -1.5 30.5t6 40.5t18 47t36.5 52q51 60 51 113q0 60 -55 88v-2q-31 14 -53 14q-16 0 -28.5 -6.5t-26.5 -17.5q-5 -5 -9 -9.5t-2 -7.5q0 -6 13 -10q27 -12 40.5 -26
t16.5 -29q0 -28 -14.5 -43t-40.5 -17q-20 0 -37.5 9.5t-28.5 29.5q-9 26 -8.5 46t6.5 32q20 54 63.5 78.5t102.5 24.5q31 0 60 -7.5t52.5 -23t40 -40.5t23.5 -61z" />
    <glyph glyph-name="uni1EB9" unicode="&#x1eb9;" horiz-adv-x="985" 
d="M272 487q0 -15 2 -36l5 -44t10 -61q34 -156 116 -228.5t216 -72.5q47 0 85 15t68 38t52.5 51t38 54.5t25 48t13.5 31.5l31 -33q-1 -7 -7.5 -31t-22.5 -55.5t-44 -66t-71 -63.5t-104 -48t-144 -19q-122 0 -212 46.5t-150 123t-89.5 174t-28.5 199.5t32 200t91 175.5
t149.5 124.5t207.5 47q75 0 133 -20.5t101.5 -53t74 -73t49 -80.5t27 -76.5t8.5 -59.5q0 -6 -4.5 -8.5t-14.5 -5.5zM745 676q-3 93 -28 166q-11 31 -27 61t-39 53t-54.5 37.5t-72.5 14.5q-53 0 -92 -20.5t-67 -54t-46 -76t-29 -86.5q-26 -104 -22 -236zM499 -403
q-21 0 -39.5 8t-32.5 21.5t-22 32t-8 39.5q0 22 8 40.5t22 32.5t32.5 22t39.5 8t40 -8t33 -22t22 -32.5t8 -40.5q0 -21 -8 -39.5t-22 -32t-33 -21.5t-40 -8z" />
    <glyph glyph-name="igrave" unicode="&#xec;" horiz-adv-x="621" 
d="M81 1518q-6 5 -8 9q-2 3 -1 6t9 3h189q10 0 16 -3t11 -6q4 -4 8 -9l153 -351h-35zM593 31v-31h-473v31l125 16q13 2 15 12.5t2 36.5v649q0 18 -0.5 51.5t-3.5 67t-9 58t-18 24.5l-125 -4v47q58 0 104.5 9t83 21t63.5 23.5t46 16.5q26 6 37.5 -9t11.5 -69v-885
q0 -26 2 -36.5t15 -12.5z" />
    <glyph glyph-name="iacute" unicode="&#xed;" horiz-adv-x="621" 
d="M578 1536q8 0 9 -3t-1 -6q-3 -4 -8 -9l-342 -351h-35l154 351q3 5 7 9q4 3 10.5 6t17.5 3h188zM560 31v-31h-473v31l125 16q12 2 14 12.5t2 36.5v649q0 18 -0.5 51.5t-3.5 67t-9 58t-18 24.5l-125 -4v47q59 0 106.5 10t84.5 22t64.5 23.5t45.5 14.5q12 2 21 0t14 -10.5
t7.5 -25t2.5 -42.5v-885q0 -26 2 -36.5t15 -12.5z" />
    <glyph glyph-name="icircumflex" unicode="&#xee;" horiz-adv-x="621" 
d="M72 1186l227 348q21 32 29 35q6 3 11 1t9 -5l9 -9l264 -370h-160l-174 254l-170 -254h-45zM578 31v-31h-473v31l125 16q12 2 14 12.5t2 36.5v649q0 18 -0.5 51.5t-3.5 67t-9 58t-18 24.5l-125 -4v47q61 0 109 10t85.5 23t65 24.5t46.5 14.5q21 3 31 -13.5t10 -66.5v-885
q0 -26 2 -36.5t14 -12.5z" />
    <glyph glyph-name="idieresis" unicode="&#xef;" horiz-adv-x="621" 
d="M299 1432q0 -23 -9 -43.5t-24.5 -36t-36 -24.5t-43.5 -9t-43.5 9t-36.5 24.5t-25 36t-9 43.5t9 43.5t25 36.5t36.5 25t43.5 9t43.5 -9t36 -25t24.5 -36.5t9 -43.5zM709 1432q0 -23 -8.5 -43.5t-24 -36t-36.5 -24.5t-46 -9q-23 0 -43 9t-34.5 24.5t-23 36t-8.5 43.5
t8.5 43.5t23 36.5t34.5 25t43 9q25 0 46 -9t36.5 -25t24 -36.5t8.5 -43.5zM510 47q-12 2 -14 12.5t-2 36.5v885q0 45 -8 62.5t-25 17.5t-44 -11.5t-65 -25t-89 -24.5t-115 -11v-47l124 4q12 0 18 -24.5t9 -58t3.5 -67t0.5 -51.5v-649q0 -26 -2 -36.5t-14 -12.5l-125 -16v-31
h473v31z" />
    <glyph glyph-name="uni1EC9" unicode="&#x1ec9;" horiz-adv-x="621" 
d="M560 31v-31h-473v31l125 16q12 2 14 12.5t2 36.5v649q0 18 -0.5 51.5t-3.5 67t-9 58t-18 24.5l-125 -4v47q59 0 106.5 10t84.5 22t64.5 23.5t45.5 14.5q12 2 21 0t14 -10.5t7.5 -25t2.5 -42.5v-885q0 -26 2 -36.5t15 -12.5zM495 1470q8 -33 4.5 -57t-15 -43.5t-30.5 -36
t-41 -33.5l-29.5 -24t-31.5 -28.5t-31.5 -36t-30.5 -46.5h-20q-2 12 -1.5 30.5t6 40.5t18 47t36.5 52q51 60 51 113q0 60 -55 88v-2q-31 14 -53 14q-16 0 -28.5 -6.5t-26.5 -17.5q-5 -5 -9 -9.5t-2 -7.5q0 -6 13 -10q27 -12 40.5 -26t16.5 -29q0 -28 -14.5 -43t-40.5 -17
q-20 0 -37.5 9.5t-28.5 29.5q-9 26 -8.5 46t6.5 32q20 54 63.5 78.5t102.5 24.5q31 0 60 -7.5t52.5 -23t40 -40.5t23.5 -61z" />
    <glyph glyph-name="uni1ECB" unicode="&#x1ecb;" horiz-adv-x="621" 
d="M307 1319q-24 0 -44.5 8.5t-35.5 23.5t-23.5 35.5t-8.5 43.5q0 48 32 80t80 32q22 0 42.5 -8.5t35.5 -23.5t24 -35.5t9 -44.5q0 -23 -9 -43.5t-24 -35.5t-35.5 -23.5t-42.5 -8.5zM559 31v-31h-473v31l125 16q12 2 14 12.5t2 36.5v649q0 18 -0.5 51.5t-3.5 67t-9 58
t-17 24.5l-125 -4v47q64 0 114 11t87.5 24.5t64 24.5t43.5 12q20 0 28.5 -17t8.5 -63v-885q0 -26 2 -36.5t14 -12.5zM283 -403q-21 0 -39.5 8t-32.5 21.5t-22 32t-8 39.5q0 22 8 40.5t22 32.5t32.5 22t39.5 8t40 -8t33 -22t22 -32.5t8 -40.5q0 -21 -8 -39.5t-22 -32
t-33 -21.5t-40 -8z" />
    <glyph glyph-name="dotlessi" unicode="&#x131;" horiz-adv-x="502" 
d="M199 0v987h104v-987h-104z" />
    <glyph glyph-name="ij" unicode="&#x133;" horiz-adv-x="621" 
d="M307 1319q-24 0 -44.5 8.5t-35.5 23.5t-23.5 35.5t-8.5 43.5q0 48 32 80t80 32q22 0 42.5 -8.5t35.5 -23.5t24 -35.5t9 -44.5q0 -23 -9 -43.5t-24 -35.5t-35.5 -23.5t-42.5 -8.5zM559 31v-31h-473v31l125 16q12 2 14 12.5t2 36.5v649q0 18 -0.5 51.5t-3.5 67t-9 58
t-17 24.5l-125 -4v47q64 0 114 11t87.5 24.5t64 24.5t43.5 12q20 0 28.5 -17t8.5 -63v-885q0 -26 2 -36.5t14 -12.5zM713 1321q-23 0 -43 9t-35 24t-23.5 35t-8.5 43q0 22 8.5 42t23.5 35t35 24t43 9q22 0 42.5 -9t35.5 -24t24 -35t9 -42q0 -23 -9 -43t-24 -35t-35.5 -24
t-42.5 -9zM480 989q64 0 115 11.5t90 25t66 24t44 9.5q16 0 23.5 -15.5t7.5 -50.5v-1190q-18 1 -32 -18.5t-28 -55.5t-30 -86t-39 -110q-12 -32 -33 -54.5t-47 -37t-55.5 -21t-57.5 -4.5q-31 1 -59 11.5t-49.5 29t-34 44.5t-12.5 59q0 13 6 30.5t18.5 33t32 26.5t45.5 10
q23 0 40 -9t28 -23t16.5 -30.5t5.5 -31.5q0 -17 -4 -32q-4 -14 -13 -27.5t-26 -22.5q47 -15 74 3t41 72.5t18 149t4 232.5v804q0 18 -0.5 51.5t-3.5 67t-9 58t-17 24.5l-125 -4v47z" />
    <glyph glyph-name="ntilde" unicode="&#xf1;" horiz-adv-x="1194" 
d="M373 1458q24 39 48 56.5t51.5 20.5t60 -6t73.5 -24l71.5 -24t82.5 -22.5t77 -7t54 23.5q20 23 33 41q7 10 12 18l18 -14l-94 -138q-28 -40 -55.5 -58.5t-58 -21.5t-65 6.5t-75.5 24.5q-18 6 -54 22t-76.5 27t-78 10t-57.5 -28q-11 -15 -19 -27l-13 -20q-6 -10 -11 -17
l-21 15zM1153 31v-31h-473v31l125 16q12 2 14 12.5t2 36.5v543q0 91 -10.5 152t-33.5 98t-60 52t-90 15q-51 0 -87 -14t-60 -35.5t-38.5 -48t-22 -52t-9.5 -47t-2 -32.5v-631q0 -26 2 -36.5t14 -12.5l125 -16v-31h-473v31l125 16q12 2 14 12.5t2 36.5v647q0 18 -0.5 52
t-3.5 67.5t-9 58.5t-18 25l-125 -4v47q61 0 109 10t84.5 22t63 23t44.5 13q25 5 35.5 -15t10.5 -81l313 94q47 0 98.5 -16.5t94 -57t70.5 -109t28 -172.5v-604q0 -26 2 -36.5t14 -12.5z" />
    <glyph glyph-name="ograve" unicode="&#xf2;" 
d="M295 1518q-5 5 -8 9q-2 3 -1 6t9 3h188q10 0 17 -3t11 -6q4 -4 7 -9l154 -351h-35zM561 1059q103 0 194 -43t159 -118t107.5 -175.5t39.5 -214.5q0 -113 -39.5 -213t-107.5 -174.5t-159 -118t-194 -43.5t-194 43.5t-159 118t-107.5 174.5t-39.5 213q0 114 39.5 214.5
t107.5 175.5t159 118t194 43zM561 0q58 0 109.5 40t89.5 109.5t60 163t22 201.5t-22 201t-60 161.5t-89.5 108t-109.5 39.5t-109 -39.5t-89 -108t-60 -161.5t-22 -201t22 -201.5t60 -163t89 -109.5t109 -40z" />
    <glyph glyph-name="oacute" unicode="&#xf3;" 
d="M793 1536q8 0 8.5 -3t-1.5 -6l-7 -9l-342 -351h-35l153 351q3 5 8 9q4 3 10.5 6t16.5 3h189zM561 1059q103 0 194 -43t159 -118t107.5 -175.5t39.5 -214.5q0 -113 -39.5 -213t-107.5 -174.5t-159 -118t-194 -43.5t-194 43.5t-159 118t-107.5 174.5t-39.5 213
q0 114 39.5 214.5t107.5 175.5t159 118t194 43zM561 0q58 0 109.5 40t89.5 109.5t60 163t22 201.5t-22 201t-60 161.5t-89.5 108t-109.5 39.5t-109 -39.5t-89 -108t-60 -161.5t-22 -201t22 -201.5t60 -163t89 -109.5t109 -40z" />
    <glyph glyph-name="ocircumflex" unicode="&#xf4;" 
d="M309 1186l228 348q19 32 28 35q6 3 11.5 1t9.5 -5q4 -4 8 -9l264 -370h-160l-174 254l-170 -254h-45zM561 1059q103 0 194 -43t159 -118t107.5 -175.5t39.5 -214.5q0 -113 -39.5 -213t-107.5 -174.5t-159 -118t-194 -43.5t-194 43.5t-159 118t-107.5 174.5t-39.5 213
q0 114 39.5 214.5t107.5 175.5t159 118t194 43zM561 0q58 0 109.5 40t89.5 109.5t60 163t22 201.5t-22 201t-60 161.5t-89.5 108t-109.5 39.5t-109 -39.5t-89 -108t-60 -161.5t-22 -201t22 -201.5t60 -163t89 -109.5t109 -40z" />
    <glyph glyph-name="uni1ED3" unicode="&#x1ed3;" 
d="M309 1186l228 348q19 32 28 35q6 3 11.5 1t9.5 -5q4 -4 8 -9l264 -370h-160l-174 254l-170 -254h-45zM561 1059q103 0 194 -43t159 -118t107.5 -175.5t39.5 -214.5q0 -113 -39.5 -213t-107.5 -174.5t-159 -118t-194 -43.5t-194 43.5t-159 118t-107.5 174.5t-39.5 213
q0 114 39.5 214.5t107.5 175.5t159 118t194 43zM561 0q58 0 109.5 40t89.5 109.5t60 163t22 201.5t-22 201t-60 161.5t-89.5 108t-109.5 39.5t-109 -39.5t-89 -108t-60 -161.5t-22 -201t22 -201.5t60 -163t89 -109.5t109 -40zM488 1819q-6 5 -8 9q-2 3 -1 6t9 3h189
q10 0 16.5 -3t10.5 -6q4 -4 7 -9l154 -351h-35z" />
    <glyph glyph-name="uni1ED1" unicode="&#x1ed1;" 
d="M354 1186l170 254l174 -254h160l-264 370q-4 5 -8 9q-4 3 -9.5 5t-11.5 -1q-9 -3 -28 -35l-228 -348h45zM561 1059q-103 0 -194 -43t-159 -118t-107.5 -175.5t-39.5 -214.5q0 -113 39.5 -213t107.5 -174.5t159 -118t194 -43.5t194 43.5t159 118t107.5 174.5t39.5 213
q0 114 -39.5 214.5t-107.5 175.5t-159 118t-194 43zM561 0q-58 0 -109 40t-89 109.5t-60 163t-22 201.5t22 201t60 161.5t89 108t109 39.5t109.5 -39.5t89.5 -108t60 -161.5t22 -201t-22 -201.5t-60 -163t-89.5 -109.5t-109.5 -40zM750 1468h-35l154 351q3 5 7 9q4 3 10.5 6
t16.5 3h189q8 0 8.5 -3t-1.5 -6l-7 -9z" />
    <glyph glyph-name="uni1ED7" unicode="&#x1ed7;" 
d="M309 1186l228 348q19 32 28 35q6 3 11.5 1t9.5 -5q4 -4 8 -9l264 -370h-160l-174 254l-170 -254h-45zM561 1059q103 0 194 -43t159 -118t107.5 -175.5t39.5 -214.5q0 -113 -39.5 -213t-107.5 -174.5t-159 -118t-194 -43.5t-194 43.5t-159 118t-107.5 174.5t-39.5 213
q0 114 39.5 214.5t107.5 175.5t159 118t194 43zM561 0q58 0 109.5 40t89.5 109.5t60 163t22 201.5t-22 201t-60 161.5t-89.5 108t-109.5 39.5t-109 -39.5t-89 -108t-60 -161.5t-22 -201t22 -201.5t60 -163t89 -109.5t109 -40zM349 1771q23 35 54.5 56.5t54.5 21.5
q18 0 30.5 -1.5t25 -5.5l28.5 -9.5l41 -14.5l71 -24t82.5 -22.5t77 -7t53.5 23.5q20 23 33 41q7 10 12 18l19 -14l-94 -138q-25 -35 -58.5 -58.5t-68.5 -23.5q-25 0 -57.5 9.5t-69.5 23.5q-12 4 -32.5 13t-45.5 18.5t-52.5 17.5t-53.5 10t-48 -4t-35 -24q-11 -15 -19 -27
l-13 -20q-6 -10 -11 -17l-20 15z" />
    <glyph glyph-name="uni1ED5" unicode="&#x1ed5;" 
d="M309 1186l228 348q19 32 28 35q6 3 11.5 1t9.5 -5q4 -4 8 -9l264 -370h-160l-174 254l-170 -254h-45zM561 1059q103 0 194 -43t159 -118t107.5 -175.5t39.5 -214.5q0 -113 -39.5 -213t-107.5 -174.5t-159 -118t-194 -43.5t-194 43.5t-159 118t-107.5 174.5t-39.5 213
q0 114 39.5 214.5t107.5 175.5t159 118t194 43zM561 0q58 0 109.5 40t89.5 109.5t60 163t22 201.5t-22 201t-60 161.5t-89.5 108t-109.5 39.5t-109 -39.5t-89 -108t-60 -161.5t-22 -201t22 -201.5t60 -163t89 -109.5t109 -40zM1008 1777q8 -33 4.5 -57t-15 -43.5t-30.5 -36
t-41 -33.5l-29.5 -24t-31.5 -28.5t-31.5 -36t-30.5 -46.5h-20q-2 12 -1.5 30.5t6 40.5t18 47t36.5 52q51 60 51 113q0 60 -55 88v-2q-31 14 -53 14q-16 0 -28.5 -6.5t-26.5 -17.5q-5 -5 -9 -9.5t-2 -7.5q0 -6 13 -10q27 -12 40.5 -26t16.5 -29q0 -28 -14.5 -43t-40.5 -17
q-20 0 -37.5 9.5t-28.5 29.5q-9 26 -8.5 46t6.5 32q20 54 63.5 78.5t102.5 24.5q31 0 60 -7.5t52.5 -23t40 -40.5t23.5 -61z" />
    <glyph glyph-name="uni1ED9" unicode="&#x1ed9;" 
d="M309 1186l228 348q19 32 28 35q6 3 11.5 1t9.5 -5q4 -4 8 -9l264 -370h-160l-174 254l-170 -254h-45zM561 1059q103 0 194 -43t159 -118t107.5 -175.5t39.5 -214.5q0 -113 -39.5 -213t-107.5 -174.5t-159 -118t-194 -43.5t-194 43.5t-159 118t-107.5 174.5t-39.5 213
q0 114 39.5 214.5t107.5 175.5t159 118t194 43zM561 0q58 0 109.5 40t89.5 109.5t60 163t22 201.5t-22 201t-60 161.5t-89.5 108t-109.5 39.5t-109 -39.5t-89 -108t-60 -161.5t-22 -201t22 -201.5t60 -163t89 -109.5t109 -40zM530 -403q-21 0 -39.5 8t-32.5 21.5t-22 32
t-8 39.5q0 22 8 40.5t22 32.5t32.5 22t39.5 8t40 -8t33 -22t22 -32.5t8 -40.5q0 -21 -8 -39.5t-22 -32t-33 -21.5t-40 -8z" />
    <glyph glyph-name="otilde" unicode="&#xf5;" 
d="M330 1458q24 39 48 56.5t51.5 20.5t60 -6t73.5 -24l71.5 -24t82.5 -22.5t77 -7t54 23.5q10 11 18 22l14 19l13 18l18 -14l-94 -138q-28 -40 -55.5 -58.5t-58 -21.5t-65 6.5t-75.5 24.5q-18 6 -54 22t-76.5 27t-78 10t-57.5 -28q-11 -15 -19 -27l-13 -20q-6 -10 -11 -17
l-21 15zM561 1059q103 0 194 -43t159 -118t107.5 -175.5t39.5 -214.5q0 -113 -39.5 -213t-107.5 -174.5t-159 -118t-194 -43.5t-194 43.5t-159 118t-107.5 174.5t-39.5 213q0 114 39.5 214.5t107.5 175.5t159 118t194 43zM561 0q58 0 109.5 40t89.5 109.5t60 163t22 201.5
t-22 201t-60 161.5t-89.5 108t-109.5 39.5t-109 -39.5t-89 -108t-60 -161.5t-22 -201t22 -201.5t60 -163t89 -109.5t109 -40z" />
    <glyph glyph-name="odieresis" unicode="&#xf6;" 
d="M479 1432q0 -23 -9 -43.5t-24 -36t-35.5 -24.5t-43.5 -9t-44 9t-37 24.5t-25 36t-9 43.5t9 43.5t25 36.5t37 25t44 9t43.5 -9t35.5 -25t24 -36.5t9 -43.5zM889 1432q0 -23 -8.5 -43.5t-24 -36t-36.5 -24.5t-46 -9q-23 0 -42.5 9t-34 24.5t-23 36t-8.5 43.5t8.5 43.5
t23 36.5t34 25t42.5 9q25 0 46 -9t36.5 -25t24 -36.5t8.5 -43.5zM561 1059q-103 0 -194 -43t-159 -118t-107.5 -175.5t-39.5 -214.5q0 -113 39.5 -213t107.5 -174.5t159 -118t194 -43.5t194 43.5t159 118t107.5 174.5t39.5 213q0 114 -39.5 214.5t-107.5 175.5t-159 118
t-194 43zM561 0q-58 0 -109 40t-89 109.5t-60 163t-22 201.5t22 201t60 161.5t89 108t109 39.5t109.5 -39.5t89.5 -108t60 -161.5t22 -201t-22 -201.5t-60 -163t-89.5 -109.5t-109.5 -40z" />
    <glyph glyph-name="uni1ECF" unicode="&#x1ecf;" 
d="M561 1059q103 0 194 -43t159 -118t107.5 -175.5t39.5 -214.5q0 -113 -39.5 -213t-107.5 -174.5t-159 -118t-194 -43.5t-194 43.5t-159 118t-107.5 174.5t-39.5 213q0 114 39.5 214.5t107.5 175.5t159 118t194 43zM561 0q58 0 109.5 40t89.5 109.5t60 163t22 201.5
t-22 201t-60 161.5t-89.5 108t-109.5 39.5t-109 -39.5t-89 -108t-60 -161.5t-22 -201t22 -201.5t60 -163t89 -109.5t109 -40zM705 1470q8 -33 4.5 -57t-15 -43.5t-30.5 -36t-41 -33.5l-29.5 -24t-31.5 -28.5t-31.5 -36t-30.5 -46.5h-20q-2 12 -1.5 30.5t6 40.5t18 47
t36.5 52q51 60 51 113q0 60 -55 88v-2q-31 14 -53 14q-16 0 -28.5 -6.5t-26.5 -17.5q-5 -5 -9 -9.5t-2 -7.5q0 -6 13 -10q27 -12 40.5 -26t16.5 -29q0 -28 -14.5 -43t-40.5 -17q-20 0 -37.5 9.5t-28.5 29.5q-9 26 -8.5 46t6.5 32q20 54 63.5 78.5t102.5 24.5q31 0 60 -7.5
t52.5 -23t40 -40.5t23.5 -61z" />
    <glyph glyph-name="uni1ECD" unicode="&#x1ecd;" 
d="M561 1059q103 0 194 -43t159 -118t107.5 -175.5t39.5 -214.5q0 -113 -39.5 -213t-107.5 -174.5t-159 -118t-194 -43.5t-194 43.5t-159 118t-107.5 174.5t-39.5 213q0 114 39.5 214.5t107.5 175.5t159 118t194 43zM561 0q58 0 109.5 40t89.5 109.5t60 163t22 201.5
t-22 201t-60 161.5t-89.5 108t-109.5 39.5t-109 -39.5t-89 -108t-60 -161.5t-22 -201t22 -201.5t60 -163t89 -109.5t109 -40zM502 -403q-21 0 -39.5 8t-32.5 21.5t-22 32t-8 39.5q0 22 8 40.5t22 32.5t32.5 22t39.5 8t40 -8t33 -22t22 -32.5t8 -40.5q0 -21 -8 -39.5t-22 -32
t-33 -21.5t-40 -8z" />
    <glyph glyph-name="ohorn" unicode="&#x1a1;" 
d="M561 1059q83 0 158 -29q51 6 95 28t76.5 53.5t51 69.5t20 76.5t-17.5 75t-61 64.5q9 -16 11.5 -25t2.5 -26q1 -22 -7.5 -41.5t-22.5 -34t-33.5 -23t-40.5 -8.5q-27 -1 -47 8t-33.5 23.5t-20 33.5t-6.5 39q1 22 8.5 44t21.5 40t35 30.5t48 15.5q45 4 83.5 -10.5
t66.5 -43.5t43.5 -71t15.5 -91q0 -35 -8.5 -73.5t-30.5 -75t-58.5 -68.5t-91.5 -53l-6 -4q55 -36 101 -86t78.5 -111t50.5 -131.5t18 -146.5q0 -113 -39.5 -213t-107.5 -174.5t-159 -118t-194 -43.5t-194 43.5t-159 118t-107.5 174.5t-39.5 213q0 114 39.5 214.5
t107.5 175.5t159 118t194 43zM561 0q58 0 109.5 40t89.5 109.5t60 163t22 201.5t-22 201t-60 161.5t-89.5 108t-109.5 39.5t-109 -39.5t-89 -108t-60 -161.5t-22 -201t22 -201.5t60 -163t89 -109.5t109 -40z" />
    <glyph glyph-name="uni1EDD" unicode="&#x1edd;" 
d="M561 1059q82 0 158 -29q51 6 95 27.5t76.5 53t51 70t19.5 77t-17.5 75t-60.5 64.5q9 -16 11.5 -25t2.5 -26q1 -22 -7 -41.5t-22.5 -34t-34 -23t-40.5 -8.5q-27 -1 -47 7.5t-33.5 23.5t-20 34t-6.5 39q1 22 8.5 44t21.5 40t35 30.5t48 15.5q45 4 83.5 -10.5t66.5 -43.5
t43.5 -70.5t15.5 -91.5q0 -35 -8.5 -73.5t-30.5 -75.5t-58.5 -68.5t-91.5 -52.5l-6 -4q55 -36 100.5 -86.5t78.5 -111t51 -131t18 -146.5q0 -113 -39.5 -213t-107.5 -174.5t-159 -118t-194 -43.5t-194 43.5t-159 118t-107.5 174.5t-39.5 213q0 114 39.5 214.5t107.5 175.5
t159 118t194 43zM561 0q58 0 109.5 40t89.5 109.5t60 163t22 201.5t-22 201t-60 161.5t-89.5 108t-109.5 39.5t-109 -39.5t-89 -108t-60 -161.5t-22 -201t22 -201.5t60 -163t89 -109.5t109 -40zM295 1518q-6 6 -8 9t-1 6t9 3h188q10 0 17 -3t11 -6q3 -3 7 -9l154 -351h-35z
" />
    <glyph glyph-name="uni1EDB" unicode="&#x1edb;" 
d="M561 1059q83 0 158 -29q51 6 95 28t76.5 53.5t51 69.5t20 76.5t-17.5 75t-61 64.5q9 -16 11.5 -25t2.5 -26q1 -22 -7.5 -41.5t-22.5 -34t-33.5 -23t-40.5 -8.5q-27 -1 -47 8t-33.5 23.5t-20 33.5t-6.5 39q1 22 8.5 44t21.5 40t35 30.5t48 15.5q45 4 83.5 -10.5
t66.5 -43.5t43.5 -71t15.5 -91q0 -35 -8.5 -73.5t-30.5 -75t-58.5 -68.5t-91.5 -53l-6 -4q55 -36 101 -86t78.5 -111t50.5 -131.5t18 -146.5q0 -113 -39.5 -213t-107.5 -174.5t-159 -118t-194 -43.5t-194 43.5t-159 118t-107.5 174.5t-39.5 213q0 114 39.5 214.5
t107.5 175.5t159 118t194 43zM561 0q58 0 109.5 40t89.5 109.5t60 163t22 201.5t-22 201t-60 161.5t-89.5 108t-109.5 39.5t-109 -39.5t-89 -108t-60 -161.5t-22 -201t22 -201.5t60 -163t89 -109.5t109 -40zM695 1536q8 0 8.5 -3t-1.5 -6l-7 -9l-342 -351h-35l154 351
q3 5 7 9q4 3 10.5 6t16.5 3h189z" />
    <glyph glyph-name="uni1EE1" unicode="&#x1ee1;" 
d="M561 1059q83 0 158 -29q51 6 95 28t76.5 53.5t51 69.5t20 76.5t-17.5 75t-61 64.5q9 -16 11.5 -25t2.5 -26q1 -22 -7.5 -41.5t-22.5 -34t-33.5 -23t-40.5 -8.5q-27 -1 -47 8t-33.5 23.5t-20 33.5t-6.5 39q1 22 8.5 44t21.5 40t35 30.5t48 15.5q45 4 83.5 -10.5
t66.5 -43.5t43.5 -71t15.5 -91q0 -35 -8.5 -73.5t-30.5 -75t-58.5 -68.5t-91.5 -53l-6 -4q55 -36 101 -86t78.5 -111t50.5 -131.5t18 -146.5q0 -113 -39.5 -213t-107.5 -174.5t-159 -118t-194 -43.5t-194 43.5t-159 118t-107.5 174.5t-39.5 213q0 114 39.5 214.5
t107.5 175.5t159 118t194 43zM561 0q58 0 109.5 40t89.5 109.5t60 163t22 201.5t-22 201t-60 161.5t-89.5 108t-109.5 39.5t-109 -39.5t-89 -108t-60 -161.5t-22 -201t22 -201.5t60 -163t89 -109.5t109 -40zM116 1458q23 35 54.5 56.5t54.5 21.5q18 0 30.5 -1.5t25 -5.5
l28.5 -9.5l41 -14.5l71 -24t82.5 -22.5t77 -7t53.5 23.5q20 23 33 41q7 10 12 18l19 -14l-94 -138q-25 -35 -58.5 -58.5t-68.5 -23.5q-25 0 -57.5 9.5t-69.5 23.5q-12 4 -32.5 13t-45.5 18.5t-52.5 17.5t-53.5 10t-48 -4t-35 -24q-11 -15 -19 -27l-13 -20q-6 -10 -11 -17
l-20 15z" />
    <glyph glyph-name="uni1EDF" unicode="&#x1edf;" 
d="M561 1059q83 0 158 -29q51 6 95 28t76.5 53.5t51 69.5t20 76.5t-17.5 75t-61 64.5q9 -16 11.5 -25t2.5 -26q1 -22 -7.5 -41.5t-22.5 -34t-33.5 -23t-40.5 -8.5q-27 -1 -47 8t-33.5 23.5t-20 33.5t-6.5 39q1 22 8.5 44t21.5 40t35 30.5t48 15.5q45 4 83.5 -10.5
t66.5 -43.5t43.5 -71t15.5 -91q0 -35 -8.5 -73.5t-30.5 -75t-58.5 -68.5t-91.5 -53l-6 -4q55 -36 101 -86t78.5 -111t50.5 -131.5t18 -146.5q0 -113 -39.5 -213t-107.5 -174.5t-159 -118t-194 -43.5t-194 43.5t-159 118t-107.5 174.5t-39.5 213q0 114 39.5 214.5
t107.5 175.5t159 118t194 43zM561 0q58 0 109.5 40t89.5 109.5t60 163t22 201.5t-22 201t-60 161.5t-89.5 108t-109.5 39.5t-109 -39.5t-89 -108t-60 -161.5t-22 -201t22 -201.5t60 -163t89 -109.5t109 -40zM631 1470q8 -33 4.5 -57t-15 -43.5t-30.5 -36t-41 -33.5
l-29.5 -24t-31.5 -28.5t-31.5 -36t-30.5 -46.5h-20q-2 12 -1.5 30.5t6 40.5t18 47t36.5 52q51 60 51 113q0 60 -55 88v-2q-31 14 -53 14q-16 0 -28.5 -6.5t-26.5 -17.5q-5 -5 -9 -9.5t-2 -7.5q0 -6 13 -10q27 -12 40.5 -26t16.5 -29q0 -28 -14.5 -43t-40.5 -17
q-20 0 -37.5 9.5t-28.5 29.5q-9 26 -8.5 46t6.5 32q20 54 63.5 78.5t102.5 24.5q31 0 60 -7.5t52.5 -23t40 -40.5t23.5 -61z" />
    <glyph glyph-name="uni1EE3" unicode="&#x1ee3;" 
d="M561 1059q83 0 158 -29q51 6 95 28t76.5 53.5t51 69.5t20 76.5t-17.5 75t-61 64.5q9 -16 11.5 -25t2.5 -26q1 -22 -7.5 -41.5t-22.5 -34t-33.5 -23t-40.5 -8.5q-27 -1 -47 8t-33.5 23.5t-20 33.5t-6.5 39q1 22 8.5 44t21.5 40t35 30.5t48 15.5q45 4 83.5 -10.5
t66.5 -43.5t43.5 -71t15.5 -91q0 -35 -8.5 -73.5t-30.5 -75t-58.5 -68.5t-91.5 -53l-6 -4q55 -36 101 -86t78.5 -111t50.5 -131.5t18 -146.5q0 -113 -39.5 -213t-107.5 -174.5t-159 -118t-194 -43.5t-194 43.5t-159 118t-107.5 174.5t-39.5 213q0 114 39.5 214.5
t107.5 175.5t159 118t194 43zM561 0q58 0 109.5 40t89.5 109.5t60 163t22 201.5t-22 201t-60 161.5t-89.5 108t-109.5 39.5t-109 -39.5t-89 -108t-60 -161.5t-22 -201t22 -201.5t60 -163t89 -109.5t109 -40zM502 -403q-21 0 -39.5 8t-32.5 21.5t-22 32t-8 39.5q0 22 8 40.5
t22 32.5t32.5 22t39.5 8t40 -8t33 -22t22 -32.5t8 -40.5q0 -21 -8 -39.5t-22 -32t-33 -21.5t-40 -8z" />
    <glyph glyph-name="oslash" unicode="&#xf8;" horiz-adv-x="1128" 
d="M926 885q63 -75 99 -171.5t36 -205.5q0 -113 -39.5 -213t-107.5 -174.5t-159 -118t-194 -43.5q-85 0 -161.5 30t-139.5 83l-86 -105h-96l127 156q-66 75 -105 173.5t-39 211.5q0 114 39.5 214.5t107.5 175.5t159 118t194 43q88 0 166 -31.5t143 -87.5l97 119h100z
M782 831q-38 90 -95.5 141.5t-125.5 51.5q-58 0 -109 -39.5t-89 -108t-60 -161.5t-22 -201q0 -140 36 -254zM348 180q38 -83 93 -131.5t120 -48.5q58 0 109.5 40t89.5 109.5t60 163t22 201.5q0 63 -8 122t-23 112z" />
    <glyph glyph-name="oe" unicode="&#x153;" horiz-adv-x="1780" 
d="M1067 487q0 -15 2 -36l5 -44t9 -61q34 -156 116.5 -228.5t215.5 -72.5q47 0 85.5 15t68.5 38t52 51t38 54.5t25.5 48t13.5 31.5l31 -33q-1 -7 -7.5 -31t-23 -55.5t-44 -66t-71 -63.5t-104.5 -48t-144 -19q-67 0 -124 14.5t-105 41t-86.5 63.5t-67.5 82q-35 -48 -78 -86.5
t-93 -65.5t-105.5 -42t-114.5 -15q-103 0 -194 43.5t-159 118t-107.5 174.5t-39.5 213q0 114 39.5 214.5t107.5 175.5t159 118t194 43q59 0 115 -15t106 -42t93 -65.5t77 -86.5q30 46 69 84t87 65.5t105 42.5t122 15q75 0 133 -20.5t102 -53t74 -73t49 -80.5t27.5 -76.5
t8.5 -59.5q0 -6 -5 -8.5t-14 -5.5zM561 0q58 0 109.5 40t89.5 109.5t60 163t22 201.5t-22 201t-60 161.5t-89.5 108t-109.5 39.5t-109 -39.5t-89 -108t-60 -161.5t-22 -201t22 -201.5t60 -163t89 -109.5t109 -40zM1540 676q-3 93 -28 166q-11 31 -27 61t-39 53t-54.5 37.5
t-72.5 14.5q-53 0 -92.5 -20.5t-67 -54t-45.5 -76t-29 -86.5q-26 -104 -22 -236z" />
    <glyph glyph-name="germandbls" unicode="&#xdf;" horiz-adv-x="1239" 
d="M213 1024q0 81 9.5 160.5t31.5 151t57 132.5t86 105.5t118.5 70t154.5 25.5q86 0 161 -24t131 -68t88.5 -105.5t32.5 -136.5q0 -77 -32.5 -138.5t-85.5 -107t-120.5 -74t-137.5 -40.5q100 -8 182.5 -40t142 -92t92.5 -149.5t33 -210.5q0 -110 -31 -204t-86.5 -163
t-132.5 -108t-168 -39q-48 0 -96.5 19.5t-83.5 52.5t-51 76.5t0 91.5q11 34 38.5 50.5t55.5 16.5t49 -15.5t21 -49.5q0 -25 -12.5 -46t-41.5 -38l-30.5 -19t-12.5 -20q2 -19 15 -35t34 -28t48.5 -18.5t58.5 -6.5q36 0 66 21t53.5 56.5t40.5 83t28.5 100.5t17 108t5.5 106
q0 124 -20 215t-64 150.5t-114.5 88.5t-172.5 29l19 37q152 2 224.5 92.5t72.5 274.5q0 133 -50 204.5t-153 71.5q-57 0 -100 -21t-74.5 -59t-52 -89.5t-32.5 -113t-17 -129.5t-5 -139v-1087h-331v31l125 16q12 2 14 12.5t2 36.5v928z" />
    <glyph glyph-name="ugrave" unicode="&#xf9;" horiz-adv-x="1204" 
d="M295 1518q-5 5 -8 9q-2 3 -1 6t9 3h188q10 0 17 -3t11 -6q4 -4 7 -9l154 -351h-35zM1006 285q1 -29 2.5 -63t5 -63t10.5 -49t18 -20l121 4v-41q-88 0 -148 -13.5t-98 -29.5t-57 -29.5t-26 -13.5q-16 0 -20.5 18.5t-4.5 73.5l-320 -92q-35 3 -70.5 8t-67.5 18.5t-60 38
t-48.5 65.5t-32 100.5t-11.5 144.5v375v35t-1 48.5t-3 53.5t-5.5 48.5t-9.5 35.5t-14 14q-45 0 -79 -2t-46 -4v45q69 0 121.5 11.5t91 25t64.5 25t42 10.5q16 -2 22.5 -20t6.5 -64v-578q0 -99 10 -167.5t33 -110.5t60 -61t90 -19q51 0 88.5 14t63.5 36.5t42 50.5t24.5 56
t11.5 52.5t3 40.5v424v35t-1 48.5t-3 53.5t-5.5 48.5t-9.5 35.5t-14 14q-43 0 -76.5 -2t-46.5 -4v45q68 0 119.5 11.5t90 25t64.5 25t42 10.5q17 0 24 -18t7 -66v-694z" />
    <glyph glyph-name="uacute" unicode="&#xfa;" horiz-adv-x="1204" 
d="M891 1536q8 0 8.5 -3t-1.5 -6l-7 -9l-342 -351h-35l154 351q3 5 7 9q4 3 10.5 6t16.5 3h189zM1006 285q1 -29 2.5 -63t5 -63t10.5 -49t18 -20l121 4v-41q-88 0 -148 -13.5t-98 -29.5t-57 -29.5t-26 -13.5q-16 0 -20.5 18.5t-4.5 73.5l-320 -92q-35 3 -70.5 8t-67.5 18.5
t-60 38t-48.5 65.5t-32 100.5t-11.5 144.5v375v35t-1 48.5t-3 53.5t-5.5 48.5t-9.5 35.5t-14 14q-45 0 -79 -2t-46 -4v45q69 0 121.5 11.5t91 25t64.5 25t42 10.5q16 -2 22.5 -20t6.5 -64v-578q0 -99 10 -167.5t33 -110.5t60 -61t90 -19q51 0 88.5 14t63.5 36.5t42 50.5
t24.5 56t11.5 52.5t3 40.5v424v35t-1 48.5t-3 53.5t-5.5 48.5t-9.5 35.5t-14 14q-43 0 -76.5 -2t-46.5 -4v45q69 0 121.5 12t91 25.5t64.5 24.5t41 10q15 -2 22 -20t7 -64v-694z" />
    <glyph glyph-name="ucircumflex" unicode="&#xfb;" horiz-adv-x="1204" 
d="M322 1186l227 348q19 32 29 35q6 3 11 1t9 -5q4 -4 8 -9l264 -370h-159l-174 254l-170 -254h-45zM1006 285q1 -29 2.5 -63t5 -63t10.5 -49t18 -20l121 4v-41q-88 0 -148 -13.5t-98 -29.5t-57 -29.5t-26 -13.5q-16 0 -20.5 18.5t-4.5 73.5l-320 -92q-35 3 -70.5 8
t-67.5 18.5t-60 38t-48.5 65.5t-32 100.5t-11.5 144.5v375v35t-1 48.5t-3 53.5t-5.5 48.5t-9.5 35.5t-14 14q-45 0 -79 -2t-46 -4v45q64 0 113.5 10t87 22.5t64 24t44.5 13.5q22 5 30.5 -12t8.5 -70v-578q0 -99 10 -167.5t33 -110.5t60 -61t90 -19q51 0 88.5 14t63.5 36.5
t42 50.5t24.5 56t11.5 52.5t3 40.5v424v35t-1 48.5t-3 53.5t-5.5 48.5t-9.5 35.5t-14 14q-43 0 -76.5 -2t-46.5 -4v45q62 0 110.5 10t85.5 22.5t63.5 24t44.5 15.5q23 5 33 -12.5t10 -71.5v-694z" />
    <glyph glyph-name="utilde" unicode="&#x169;" horiz-adv-x="1204" 
d="M365 1458q24 39 48 56.5t51 20.5t59.5 -6t74.5 -24l71.5 -24t82.5 -22.5t77 -7t54 23.5q10 11 18 22l14 19l13 18l18 -14l-94 -138q-28 -40 -55.5 -58.5t-58 -21.5t-65 6.5t-75.5 24.5q-18 6 -54 22t-76.5 27t-78 10t-57.5 -28q-11 -15 -19 -27l-13 -20q-6 -10 -11 -17
l-21 15zM1006 285q1 -29 2.5 -63t5 -63t10.5 -49t18 -20l121 4v-41q-88 0 -148 -13.5t-98 -29.5t-57 -29.5t-26 -13.5q-16 0 -20.5 18.5t-4.5 73.5l-320 -92q-35 3 -70.5 8t-67.5 18.5t-60 38t-48.5 65.5t-32 100.5t-11.5 144.5v375v35t-1 48.5t-3 53.5t-5.5 48.5t-9.5 35.5
t-14 14q-45 0 -79 -2t-46 -4v45q69 0 121.5 11.5t91 25t64.5 25t42 10.5q16 -2 22.5 -20t6.5 -64v-578q0 -99 10 -167.5t33 -110.5t60 -61t90 -19q51 0 88.5 14t63.5 36.5t42 50.5t24.5 56t11.5 52.5t3 40.5v424v35t-1 48.5t-3 53.5t-5.5 48.5t-9.5 35.5t-14 14
q-43 0 -76.5 -2t-46.5 -4v45q69 0 122 12t91 25.5t64 24.5t41 10q15 -2 22 -20.5t7 -63.5v-694z" />
    <glyph glyph-name="uni1EE7" unicode="&#x1ee7;" horiz-adv-x="1204" 
d="M1006 285q1 -29 2.5 -63t5 -63t10.5 -49t18 -20l121 4v-41q-88 0 -148 -13.5t-98 -29.5t-57 -29.5t-26 -13.5q-16 0 -20.5 18.5t-4.5 73.5l-320 -92q-35 3 -70.5 8t-67.5 18.5t-60 38t-48.5 65.5t-32 100.5t-11.5 144.5v375v35t-1 48.5t-3 53.5t-5.5 48.5t-9.5 35.5
t-14 14q-45 0 -79 -2t-46 -4v45q67 0 119 11t90 24.5t64 24.5t42 12q19 0 26 -18t7 -66v-578q0 -99 10 -167.5t33 -110.5t60 -61t90 -19q51 0 88.5 14t63.5 36.5t42 50.5t24.5 56t11.5 52.5t3 40.5v424v35t-1 48.5t-3 53.5t-5.5 48.5t-9.5 35.5t-14 14q-43 0 -76.5 -2
t-46.5 -4v45q61 0 109 9.5t85 21.5t63.5 23.5t44.5 15.5q24 6 34.5 -10.5t10.5 -71.5v-694zM789 1470q8 -33 4.5 -57t-15 -43.5t-30.5 -36t-41 -33.5l-29.5 -24t-31.5 -28.5t-31.5 -36t-30.5 -46.5h-20q-2 12 -1.5 30.5t6 40.5t18 47t36.5 52q51 60 51 113q0 60 -55 88v-2
q-31 14 -53 14q-16 0 -28.5 -6.5t-26.5 -17.5q-5 -5 -9 -9.5t-2 -7.5q0 -6 13 -10q27 -12 40.5 -26t16.5 -29q0 -28 -14.5 -43t-40.5 -17q-20 0 -37.5 9.5t-28.5 29.5q-9 26 -8.5 46t6.5 32q20 54 63.5 78.5t102.5 24.5q31 0 60 -7.5t52.5 -23t40 -40.5t23.5 -61z" />
    <glyph glyph-name="uni1EE5" unicode="&#x1ee5;" horiz-adv-x="1204" 
d="M1006 285q1 -29 2.5 -63t5.5 -63t10.5 -49t17.5 -20l121 4v-41q-88 0 -148 -13.5t-98 -29.5t-57 -29.5t-26 -13.5q-16 0 -20.5 18.5t-4.5 73.5l-320 -92q-35 3 -70.5 8.5t-67.5 19t-60 37.5t-48.5 64.5t-32 100.5t-11.5 145v375v35t-1 48.5t-3 53.5t-5.5 48.5t-9.5 35.5
t-14 14q-45 0 -79 -2t-46 -4v45q67 0 119 11t90 24t64 24.5t42 12.5q19 0 26 -18t7 -66v-578q0 -99 10 -167.5t33 -110.5t60 -61t90 -19q51 0 88.5 14t63.5 36.5t42 50.5t24.5 56t11.5 52.5t3 40.5v424v35t-1 48.5t-3 53.5t-5.5 48.5t-9.5 35.5t-14 14q-43 0 -76.5 -2
t-46.5 -4v45q61 0 109 9.5t85 21.5t63.5 23.5t44.5 15.5q24 6 34.5 -10.5t10.5 -71.5v-694zM619 -403q-21 0 -39.5 8t-32.5 21.5t-22 32t-8 39.5q0 22 8 40.5t22 32.5t32.5 22t39.5 8t40 -8t33 -22t22 -32.5t8 -40.5q0 -21 -8 -39.5t-22 -32t-33 -21.5t-40 -8z" />
    <glyph glyph-name="uhorn" unicode="&#x1b0;" horiz-adv-x="1204" 
d="M1006 285q1 -29 2.5 -63t5 -63t10.5 -49t18 -20l121 4v-41q-88 0 -148 -13.5t-98 -29.5t-57 -29.5t-26 -13.5q-16 0 -20.5 18.5t-4.5 73.5l-320 -92q-35 3 -70.5 8t-67.5 18.5t-60 38t-48.5 65.5t-32 100.5t-11.5 144.5v375v35t-1 48.5t-3 53.5t-5.5 48.5t-9.5 35.5
t-14 14q-45 0 -79 -2t-46 -4v45q67 0 119 11t90 24.5t64 24.5t42 12q19 0 26 -18t7 -66v-578q0 -99 10 -167.5t33 -110.5t60 -61t90 -19q51 0 88.5 14t63.5 36.5t42 50.5t24.5 56t11.5 52.5t3 40.5v424v35t-1 48.5t-3 53.5t-5.5 48.5t-9.5 35.5t-14 14q-43 0 -76.5 -2
t-46.5 -4v45q122 0 203 11.5t113 27.5q37 17 70.5 42.5t59.5 57t41 66.5t14.5 70.5t-20 69t-61.5 61.5q10 -16 12.5 -25t2.5 -26q1 -22 -7.5 -41.5t-22.5 -34t-33.5 -23t-41.5 -8.5q-27 -1 -46.5 8t-33 23.5t-20 33.5t-6.5 39q1 22 8.5 44t21.5 40t34.5 30.5t47.5 15.5
q45 4 83.5 -10.5t66.5 -43.5t43.5 -71t15.5 -91q0 -35 -8.5 -73.5t-30 -75t-58 -68.5t-91.5 -53q-10 -3 -10 -14v-688z" />
    <glyph glyph-name="uni1EEB" unicode="&#x1eeb;" horiz-adv-x="1204" 
d="M1006 285q1 -29 2.5 -63t5.5 -63t10.5 -49t17.5 -20l121 4v-41q-88 0 -148 -13.5t-98 -29.5t-57 -29.5t-26 -13.5q-16 0 -20.5 18.5t-4.5 73.5l-320 -92q-35 3 -70.5 8.5t-67.5 19t-60 37.5t-48.5 64.5t-32 100.5t-11.5 145v375v35t-1 48.5t-3 53.5t-5.5 48.5t-9.5 35.5
t-14 14q-45 0 -79 -2t-46 -4v45q67 0 119 11t90 24t64 24.5t42 12.5q19 0 26 -18t7 -66v-578q0 -99 10 -167.5t33 -110.5t60 -61t90 -19q51 0 88.5 14t63.5 36.5t42 50.5t24.5 56t11.5 52.5t3 40.5v424v35t-1 48.5t-3 53.5t-5.5 48.5t-9.5 35.5t-14 14q-43 0 -76.5 -2
t-46.5 -4v45q123 0 203.5 11.5t112.5 27.5q37 17 70.5 42.5t59.5 57t41 66.5t14.5 70t-20 68.5t-61.5 62.5q10 -16 12.5 -25t2.5 -26q1 -22 -7 -41.5t-22.5 -34t-34 -23t-41.5 -8.5q-27 -1 -46.5 7.5t-33 23.5t-20 34t-6.5 39q1 22 8.5 44t21.5 40t34.5 30.5t47.5 15.5
q45 4 83.5 -10.5t66.5 -43.5t43.5 -70.5t15.5 -91.5q0 -35 -8.5 -73.5t-30 -75.5t-58 -68.5t-91.5 -52.5q-10 -3 -10 -14v-688zM295 1518q-6 6 -8 9t-1 6t9 3h188q10 0 17 -3t11 -6q3 -3 7 -9l154 -351h-35z" />
    <glyph glyph-name="uni1EE9" unicode="&#x1ee9;" horiz-adv-x="1204" 
d="M1006 285q1 -29 2.5 -63t5.5 -63t10.5 -49t17.5 -20l121 4v-41q-88 0 -148 -13.5t-98 -29.5t-57 -29.5t-26 -13.5q-16 0 -20.5 18.5t-4.5 73.5l-320 -92q-35 3 -70.5 8.5t-67.5 19t-60 37.5t-48.5 64.5t-32 100.5t-11.5 145v375v35t-1 48.5t-3 53.5t-5.5 48.5t-9.5 35.5
t-14 14q-45 0 -79 -2t-46 -4v45q67 0 119 11t90 24t64 24.5t42 12.5q19 0 26 -18t7 -66v-578q0 -99 10 -167.5t33 -110.5t60 -61t90 -19q51 0 88.5 14t63.5 36.5t42 50.5t24.5 56t11.5 52.5t3 40.5v424v35t-1 48.5t-3 53.5t-5.5 48.5t-9.5 35.5t-14 14q-43 0 -76.5 -2
t-46.5 -4v45q123 0 203.5 11.5t112.5 27.5q37 17 70.5 42.5t59.5 57t41 66.5t14.5 70t-20 68.5t-61.5 62.5q10 -16 12.5 -25t2.5 -26q1 -22 -7 -41.5t-22.5 -34t-34 -23t-41.5 -8.5q-27 -1 -46.5 7.5t-33 23.5t-20 34t-6.5 39q1 22 8.5 44t21.5 40t34.5 30.5t47.5 15.5
q45 4 83.5 -10.5t66.5 -43.5t43.5 -70.5t15.5 -91.5q0 -35 -8.5 -73.5t-30 -75.5t-58 -68.5t-91.5 -52.5q-10 -3 -10 -14v-688zM891 1536q8 0 8.5 -3t-1.5 -6q-4 -6 -7 -9l-342 -351h-35l154 351q4 6 7 9q4 3 10.5 6t16.5 3h189z" />
    <glyph glyph-name="uni1EEF" unicode="&#x1eef;" horiz-adv-x="1204" 
d="M1006 285q1 -29 2.5 -63t5 -63t10.5 -49t18 -20l121 4v-41q-88 0 -148 -13.5t-98 -29.5t-57 -29.5t-26 -13.5q-16 0 -20.5 18.5t-4.5 73.5l-320 -92q-35 3 -70.5 8t-67.5 18.5t-60 38t-48.5 65.5t-32 100.5t-11.5 144.5v375v35t-1 48.5t-3 53.5t-5.5 48.5t-9.5 35.5
t-14 14q-45 0 -79 -2t-46 -4v45q67 0 119 11t90 24.5t64 24.5t42 12q19 0 26 -18t7 -66v-578q0 -99 10 -167.5t33 -110.5t60 -61t90 -19q51 0 88.5 14t63.5 36.5t42 50.5t24.5 56t11.5 52.5t3 40.5v424v35t-1 48.5t-3 53.5t-5.5 48.5t-9.5 35.5t-14 14q-43 0 -76.5 -2
t-46.5 -4v45q122 0 203 11.5t113 27.5q37 17 70.5 42.5t59.5 57t41 66.5t14.5 70.5t-20 69t-61.5 61.5q10 -16 12.5 -25t2.5 -26q1 -22 -7.5 -41.5t-22.5 -34t-33.5 -23t-41.5 -8.5q-27 -1 -46.5 8t-33 23.5t-20 33.5t-6.5 39q1 22 8.5 44t21.5 40t34.5 30.5t47.5 15.5
q45 4 83.5 -10.5t66.5 -43.5t43.5 -71t15.5 -91q0 -35 -8.5 -73.5t-30 -75t-58 -68.5t-91.5 -53q-10 -3 -10 -14v-688zM262 1458q23 35 54.5 56.5t54.5 21.5q18 0 30.5 -1.5t25 -5.5l28.5 -9.5l41 -14.5l71 -24t82.5 -22.5t77 -7t53.5 23.5q20 23 33 41q7 10 12 18l19 -14
l-94 -138q-25 -35 -58.5 -58.5t-68.5 -23.5q-25 0 -57.5 9.5t-69.5 23.5q-12 4 -32.5 13t-45.5 18.5t-52.5 17.5t-53.5 10t-48 -4t-35 -24q-11 -15 -19 -27l-13 -20q-6 -10 -11 -17l-20 15z" />
    <glyph glyph-name="uni1EED" unicode="&#x1eed;" horiz-adv-x="1204" 
d="M1006 285q1 -29 2.5 -63t5 -63t10.5 -49t18 -20l121 4v-41q-88 0 -148 -13.5t-98 -29.5t-57 -29.5t-26 -13.5q-16 0 -20.5 18.5t-4.5 73.5l-320 -92q-35 3 -70.5 8t-67.5 18.5t-60 38t-48.5 65.5t-32 100.5t-11.5 144.5v375v35t-1 48.5t-3 53.5t-5.5 48.5t-9.5 35.5
t-14 14q-45 0 -79 -2t-46 -4v45q67 0 119 11t90 24.5t64 24.5t42 12q19 0 26 -18t7 -66v-578q0 -99 10 -167.5t33 -110.5t60 -61t90 -19q51 0 88.5 14t63.5 36.5t42 50.5t24.5 56t11.5 52.5t3 40.5v424v35t-1 48.5t-3 53.5t-5.5 48.5t-9.5 35.5t-14 14q-43 0 -76.5 -2
t-46.5 -4v45q122 0 203 11.5t113 27.5q37 17 70.5 42.5t59.5 57t41 66.5t14.5 70.5t-20 69t-61.5 61.5q10 -16 12.5 -25t2.5 -26q1 -22 -7.5 -41.5t-22.5 -34t-33.5 -23t-41.5 -8.5q-27 -1 -46.5 8t-33 23.5t-20 33.5t-6.5 39q1 22 8.5 44t21.5 40t34.5 30.5t47.5 15.5
q45 4 83.5 -10.5t66.5 -43.5t43.5 -71t15.5 -91q0 -35 -8.5 -73.5t-30 -75t-58 -68.5t-91.5 -53q-10 -3 -10 -14v-688zM770 1507q8 -33 4.5 -57t-15 -43.5t-30.5 -36t-41 -33.5l-29.5 -24t-31.5 -28.5t-31.5 -36t-30.5 -46.5h-20q-2 12 -1.5 30.5t6 40.5t18 47t36.5 52
q51 60 51 113q0 60 -55 88v-2q-31 14 -53 14q-16 0 -28.5 -6.5t-26.5 -17.5q-5 -5 -9 -9.5t-2 -7.5q0 -6 13 -10q27 -12 40.5 -26t16.5 -29q0 -28 -14.5 -43t-40.5 -17q-20 0 -37.5 9.5t-28.5 29.5q-9 26 -8.5 46t6.5 32q20 54 63.5 78.5t102.5 24.5q31 0 60 -7.5t52.5 -23
t40 -40.5t23.5 -61z" />
    <glyph glyph-name="uni1EF1" unicode="&#x1ef1;" horiz-adv-x="1204" 
d="M1006 285q1 -29 2.5 -63t5.5 -63t10.5 -49t17.5 -20l121 4v-41q-88 0 -148 -13.5t-98 -29.5t-57 -29.5t-26 -13.5q-16 0 -20.5 18.5t-4.5 73.5l-320 -92q-35 3 -70.5 8.5t-67.5 19t-60 37.5t-48.5 64.5t-32 100.5t-11.5 145v375v35t-1 48.5t-3 53.5t-5.5 48.5t-9.5 35.5
t-14 14q-45 0 -79 -2t-46 -4v45q67 0 119 11t90 24t64 24.5t42 12.5q19 0 26 -18t7 -66v-578q0 -99 10 -167.5t33 -110.5t60 -61t90 -19q51 0 88.5 14t63.5 36.5t42 50.5t24.5 56t11.5 52.5t3 40.5v424v35t-1 48.5t-3 53.5t-5.5 48.5t-9.5 35.5t-14 14q-43 0 -76.5 -2
t-46.5 -4v45q123 0 203.5 11.5t112.5 27.5q37 17 70.5 42.5t59.5 57t41 66.5t14.5 70t-20 68.5t-61.5 62.5q10 -16 12.5 -25t2.5 -26q1 -22 -7 -41.5t-22.5 -34t-34 -23t-41.5 -8.5q-27 -1 -46.5 7.5t-33 23.5t-20 34t-6.5 39q1 22 8.5 44t21.5 40t34.5 30.5t47.5 15.5
q45 4 83.5 -10.5t66.5 -43.5t43.5 -70.5t15.5 -91.5q0 -35 -8.5 -73.5t-30 -75.5t-58 -68.5t-91.5 -52.5q-10 -3 -10 -14v-688zM619 -403q-21 0 -39.5 8t-32.5 21.5t-22 32t-8 39.5q0 22 8 40.5t22 32.5t32.5 22t39.5 8t40 -8t33 -22t22 -32.5t8 -40.5q0 -21 -8 -39.5
t-22 -32t-33 -21.5t-40 -8z" />
    <glyph glyph-name="ygrave" unicode="&#x1ef3;" horiz-adv-x="1108" 
d="M274 1518q-6 5 -8 9q-2 3 -1 6t9 3h189q10 0 16 -3t11 -6q4 -4 8 -9l153 -351h-35zM1067 1024v-31l-125 -16q-23 -3 -33 -19t-14 -28l-442 -1379q-12 -40 -32.5 -67t-45.5 -43t-53 -21.5t-56 -1.5q-31 4 -58.5 19t-47.5 39t-29 55.5t-2 67.5q2 13 8.5 27.5t18.5 27t30 21
t45 8.5q25 0 45 -11.5t33 -31t17 -44t-2 -49.5q-8 -32 -35.5 -48.5t-59.5 -16.5q20 -13 45.5 -17.5t49.5 3.5t44 29.5t31 60.5l131 405l-325 965q-6 17 -11 26.5t-9.5 14t-9.5 6t-9 2.5l-125 16v31h473v-31l-125 -16q-9 -2 -12.5 -8.5t2.5 -20.5l239 -706l226 700
q5 19 -2.5 26t-18.5 9l-125 16v31h369z" />
    <glyph glyph-name="yacute" unicode="&#xfd;" horiz-adv-x="1108" 
d="M891 1536q8 0 8.5 -3t-1.5 -6l-7 -9l-342 -351h-35l154 351q3 5 7 9q4 3 10.5 6t16.5 3h189zM1067 1024v-31l-125 -16q-23 -3 -33 -19t-14 -28l-442 -1379q-12 -39 -31.5 -66t-43.5 -43t-51.5 -22t-54.5 -4q-32 4 -60.5 19t-49 39t-30.5 55.5t-3 69.5q2 13 8.5 27.5
t18.5 27t30 21t45 8.5q25 0 45 -11.5t33 -31t17 -44t-2 -49.5q-8 -32 -35.5 -48.5t-59.5 -16.5q20 -13 45.5 -17.5t49.5 3.5t44 29.5t31 60.5l131 405l-325 965q-6 17 -11 26.5t-9.5 14t-9.5 6t-9 2.5l-125 16v31h473v-31l-125 -16q-9 -2 -12.5 -8.5t2.5 -20.5l239 -706
l226 700q5 19 -2.5 26t-18.5 9l-125 16v31h369z" />
    <glyph glyph-name="uni1EF9" horiz-adv-x="1108" 
d="M1067 1024v-31l-125 -16q-23 -3 -33 -19t-14 -28l-442 -1379q-12 -41 -32.5 -68t-45.5 -43t-53 -21t-56 -1q-31 5 -58.5 20t-47 39t-28.5 55t-3 67q2 13 8.5 27.5t18.5 27t30 21t45 8.5q25 0 45 -11.5t33 -31t17 -44t-2 -49.5q-8 -32 -35.5 -48.5t-59.5 -16.5
q20 -13 45.5 -17.5t49.5 3.5t44 29.5t31 60.5l131 405l-325 965q-6 17 -11 26.5t-9.5 14t-9.5 6t-9 2.5l-125 16v31h473v-31l-125 -16q-9 -2 -12.5 -8.5t2.5 -20.5l239 -706l226 700q5 19 -2.5 26t-18.5 9l-125 16v31h369zM276 1458q23 35 54.5 56.5t54.5 21.5
q18 0 30.5 -1.5t25 -5t28.5 -9.5l41 -15l71 -24t82.5 -22.5t77 -7t53.5 23.5q10 11 18 21.5l15 19.5q7 10 12 18l19 -14l-94 -138q-25 -35 -58.5 -58.5t-68.5 -23.5q-25 0 -57.5 9.5t-69.5 23.5q-12 4 -32.5 13t-45.5 18.5t-53 17.5t-53.5 10t-47.5 -4t-35 -24
q-11 -15 -19 -27l-13 -20q-3 -5 -6 -9t-5 -8l-20 15l96 143v0z" />
    <glyph glyph-name="ydieresis" unicode="&#xff;" horiz-adv-x="1108" 
d="M477 1432q0 -23 -9 -43.5t-24 -36t-35.5 -24.5t-43.5 -9t-44 9t-37 24.5t-25 36t-9 43.5t9 43.5t25 36.5t37 25t44 9t43.5 -9t35.5 -25t24 -36.5t9 -43.5zM887 1432q0 -23 -8.5 -43.5t-24 -36t-36.5 -24.5t-46 -9q-23 0 -42.5 9t-34 24.5t-23 36t-8.5 43.5t8.5 43.5
t23 36.5t34 25t42.5 9q25 0 46 -9t36.5 -25t24 -36.5t8.5 -43.5zM698 1024v-31l125 -16q11 -2 18.5 -9t2.5 -26l-226 -700l-239 706q-6 14 -2.5 20.5t12.5 8.5l125 16v31h-473v-31l125 -16q4 -1 9 -2.5t9.5 -6t9.5 -14t11 -26.5l325 -965l-131 -405q-11 -39 -31 -60.5
t-44 -29.5t-49.5 -3.5t-45.5 17.5q32 0 59.5 16.5t35.5 48.5q6 25 2 49.5t-17 44t-33 31t-45 11.5q-27 0 -45 -8.5t-30 -21t-18.5 -27t-8.5 -27.5q-7 -37 3 -69t30.5 -56t49 -39t60.5 -19q27 -2 54.5 4t51.5 22t43.5 43t31.5 66l442 1379q4 12 14 28t33 19l125 16v31h-369z
" />
    <glyph glyph-name="uni1EF7" unicode="&#x1ef7;" horiz-adv-x="1108" 
d="M1067 1024v-31l-125 -16q-23 -3 -33 -19t-14 -28l-442 -1379q-12 -41 -32.5 -68t-45.5 -43t-53 -21t-56 -1q-31 5 -58.5 20t-47 39t-28.5 55t-3 67q2 13 8.5 27.5t18.5 27t30 21t45 8.5q25 0 45 -11.5t33 -31t17 -44t-2 -49.5q-8 -32 -35.5 -48.5t-59.5 -16.5
q20 -13 45.5 -17.5t49.5 3.5t44 29.5t31 60.5l131 405l-325 965q-6 17 -11 26.5t-9.5 14t-9.5 6t-9 2.5l-125 16v31h473v-31l-125 -16q-9 -2 -12.5 -8.5t2.5 -20.5l239 -706l226 700q5 19 -2.5 26t-18.5 9l-125 16v31h369zM785 1470q8 -33 4.5 -57t-15 -43.5t-30.5 -36
t-41 -33.5l-29.5 -24t-31.5 -28.5t-31.5 -36t-30.5 -46.5h-20q-2 12 -1.5 30.5t6 40.5t18 47t36.5 52q51 60 51 113q0 60 -55 88v-2q-31 14 -53 14q-16 0 -28.5 -6.5t-26.5 -17.5q-5 -5 -9 -9.5t-2 -7.5q0 -6 13 -10q27 -12 40.5 -26t16.5 -29q0 -28 -14.5 -43t-40.5 -17
q-20 0 -37.5 9.5t-28.5 29.5q-9 26 -8.5 46t6.5 32q20 54 63.5 78.5t102.5 24.5q31 0 60 -7.5t52.5 -23t40 -40.5t23.5 -61z" />
    <glyph glyph-name="uni1EF5" unicode="&#x1ef5;" horiz-adv-x="1108" 
d="M1067 1024v-31l-125 -16q-23 -3 -33 -19t-14 -28l-442 -1379q-12 -41 -32.5 -68t-45.5 -43t-53 -21t-56 -1q-31 5 -58.5 20t-47 39t-28.5 55t-3 67q2 13 8.5 27.5t18.5 27t30 21t45 8.5q25 0 45 -11.5t33 -31t17 -44t-2 -49.5q-8 -32 -35.5 -48.5t-59.5 -16.5
q20 -13 45.5 -17.5t49.5 3.5t44 29.5t31 60.5l131 405l-325 965q-6 17 -11 26.5t-9.5 14t-9.5 6t-9 2.5l-125 16v31h473v-31l-125 -16q-9 -2 -12.5 -8.5t2.5 -20.5l239 -706l226 700q5 19 -2.5 26t-18.5 9l-125 16v31h369zM698 -403q-21 0 -39.5 8t-32.5 21.5t-22 32
t-8 39.5q0 22 8 40.5t22 32.5t32.5 22t39.5 8t40 -8t33 -22t22 -32.5t8 -40.5q0 -21 -8 -39.5t-22 -32t-33 -21.5t-40 -8z" />
    <glyph glyph-name="eth" unicode="&#xf0;" horiz-adv-x="1077" 
d="M936 494q0 -53 -4.5 -107t-17.5 -105.5t-37.5 -99t-63.5 -86.5q-53 -52 -122 -80t-152 -28q-84 0 -153 28t-122 80q-39 39 -63 86.5t-37.5 99t-18 105.5t-4.5 107t4.5 107t18 105t37.5 98.5t63 86.5q53 53 122 80.5t153 27.5q38 0 80 -8t73 -26l-137 231h-240v78h195
l-109 184h109l106 -184h162v-78h-116l147 -252q42 -71 67 -126t38.5 -105.5t17.5 -102.5t4 -116zM831 494q0 43 -2 88t-11 88.5t-26.5 82.5t-48.5 70q-40 41 -92 62.5t-112 21.5t-112.5 -21.5t-92.5 -62.5q-31 -31 -48.5 -70t-26.5 -82.5t-11 -88.5t-2 -88t2 -88.5t11 -89
t26.5 -82.5t48.5 -70q40 -40 92.5 -62t112.5 -22t112 22t92 62q31 31 48.5 70t26.5 82.5t11 89t2 88.5z" />
    <glyph glyph-name="thorn" unicode="&#xfe;" horiz-adv-x="1106" 
d="M965 494q0 -59 -6 -117.5t-20 -113.5t-39 -103.5t-62 -85.5q-39 -38 -102 -62t-140 -24q-42 0 -80.5 5.5t-75 21t-71 42.5t-66.5 70v-598h-104v1929h104v-598q32 43 66.5 70t71 42.5t75 21t80.5 5.5q77 0 140 -23.5t102 -62.5q37 -38 62 -86t39 -103t20 -113.5t6 -116.5z
M860 494q0 76 -9.5 150.5t-39 132.5t-84.5 94t-145 36q-91 0 -146 -36t-84.5 -94t-39 -132.5t-9.5 -150.5q0 -77 9.5 -151t39 -132.5t84.5 -94.5t146 -36q90 0 145 36t84.5 94.5t39 132.5t9.5 151z" />
    <glyph glyph-name="fi" unicode="&#xfb01;" horiz-adv-x="1260" 
d="M1198 31v-31h-473v31l125 16q12 2 14 12.5t2 36.5v649q0 18 -0.5 56.5t-3.5 77.5t-9 68.5t-17 29.5h-422v-881q0 -26 2 -36.5t14 -12.5l125 -16v-31h-473v31l125 16q12 2 14 12.5t2 36.5v881h-141v47h141q0 48 -0.5 102.5t8 111.5t29.5 114t64 110q38 48 86 82t100.5 55
t107.5 29.5t109 7.5q67 -1 127.5 -16t107 -41t74 -61.5t27.5 -75.5q0 -26 -9.5 -45t-24.5 -32t-34.5 -19t-38.5 -5t-37 7.5t-31.5 19t-21.5 31t-8 43.5q0 28 13 50.5t34 35.5q13 9 20.5 18t-5.5 19l-19.5 6.5t-43 10.5t-61 7t-71.5 -2q-54 -7 -109 -32.5t-100 -82
t-73.5 -150t-28.5 -235.5v-63h297q57 0 102.5 6.5t82 15l63.5 15t47 6.5q13 1 23 -2.5t16 -13.5t9 -27t3 -43v-885q0 -26 2 -36.5t14 -12.5z" />
    <glyph glyph-name="fl" unicode="&#xfb02;" horiz-adv-x="1239" 
d="M1198 31v-31h-473v31l125 16q12 2 14 12.5t2 36.5v1235q0 38 0.5 71.5t-5.5 62.5t-21.5 54t-46.5 46q-3 2 -23 9.5t-49 12t-65 1.5t-72 -21q-33 -18 -63.5 -51.5t-54.5 -90.5t-38 -140t-14 -198v-63h219v-47h-219v-881q0 -26 2 -36.5t14 -12.5l125 -16v-31h-473v31
l125 16q12 2 14 12.5t2 36.5v881h-141v47h141q0 48 1.5 105t12 118t32.5 121.5t63 114.5q33 43 73.5 73t82.5 48t83 26t76 8h377q12 0 19 -1t10 -8t3.5 -21t0.5 -41v-1471q0 -26 2 -36.5t14 -12.5z" />
    <glyph glyph-name="ampersand" unicode="&#x26;" horiz-adv-x="1661" 
d="M1702 0h-361l-213 233q-44 -75 -122.5 -133t-174.5 -92.5t-201 -43t-202.5 15.5t-179 83.5t-129.5 161.5q-45 94 -47.5 177.5t24 155t74.5 130.5t104 105.5t112.5 78.5t100.5 50l-35 40l-47 53.5l-48 57t-38 51.5q-22 37 -35 86.5t-12 102t17 104.5t51 94q50 58 122 90.5
t148 40t148 -9.5t123 -57q45 -35 72.5 -81.5t35.5 -99t-5.5 -108t-51.5 -109t-101.5 -102t-154.5 -86.5l520 -563l51 84q42 66 67.5 117.5t38 93.5t13.5 75.5t-6 63.5q-9 24 -26 39.5t-34.5 29.5t-33 30t-21.5 42q-9 45 13.5 66.5t56.5 19.5q31 0 61 -18.5t45 -56.5
q22 -53 21 -113.5t-20 -126t-53 -134.5t-79 -138l-61 -105l256 -284l16 -18t23.5 -21.5t30 -19t36.5 -11.5l109 -10zM403 1364q4 -42 23 -80.5t51 -79.5t76 -86.5l98 -101.5q39 26 80.5 64t74 83.5t51.5 95.5t13 101q-5 57 -25.5 99t-51.5 71t-70 44.5t-80 18.5
q-47 3 -92 -10.5t-79.5 -42.5t-54 -73.5t-14.5 -102.5zM508 897q-98 -55 -151.5 -127.5t-71.5 -151t-5.5 -158t48.5 -147.5q48 -92 113 -148.5t137 -82t147 -22.5t144 29t127.5 72.5t97.5 108.5z" />
    <glyph glyph-name="comma" unicode="," horiz-adv-x="520" 
d="M82 -305q40 16 73.5 40.5t57 55.5t36.5 66t13 73q0 32 -11.5 57.5t-30.5 45t-42.5 33.5t-48.5 24q0 28 11.5 53.5t32 44.5t47.5 30t59 11q30 0 59 -13t51 -37t35.5 -57.5t13.5 -74.5q0 -84 -26 -148t-72.5 -110.5t-109.5 -76.5t-138 -46z" />
    <glyph glyph-name="semicolon" unicode=";" horiz-adv-x="520" 
d="M276 782q-24 0 -46 9.5t-38.5 26t-26 38.5t-9.5 47t9.5 47.5t26 38.5t38.5 25.5t46 9.5q25 0 47.5 -9.5t38.5 -25.5t25.5 -38.5t9.5 -47.5t-9.5 -47t-25.5 -38.5t-38.5 -26t-47.5 -9.5zM82 -305q40 16 73.5 40.5t57 55.5t36.5 66t13 73q0 32 -11.5 57.5t-30.5 45
t-42.5 33.5t-48.5 24q0 28 11.5 53.5t32 44.5t47.5 30t59 11q30 0 59 -13t51 -37t35.5 -57.5t13.5 -74.5q0 -84 -26 -148t-72.5 -110.5t-109.5 -76.5t-138 -46z" />
    <glyph glyph-name="colon" unicode=":" horiz-adv-x="406" 
d="M203 782q-25 0 -47 9.5t-38.5 26t-26 38.5t-9.5 47t9.5 47.5t26 38.5t38.5 25.5t47 9.5t47 -9.5t38.5 -25.5t26 -38.5t9.5 -47.5t-9.5 -47t-26 -38.5t-38.5 -26t-47 -9.5zM203 -35q-25 0 -47 9.5t-38.5 25.5t-26 38t-9.5 48q0 25 9.5 47.5t26 38.5t38.5 25.5t47 9.5
t47 -9.5t38.5 -25.5t26 -38.5t9.5 -47.5q0 -26 -9.5 -48t-26 -38t-38.5 -25.5t-47 -9.5z" />
    <glyph glyph-name="period" unicode="." horiz-adv-x="406" 
d="M203 -35q-25 0 -47 9.5t-38.5 25.5t-26 38t-9.5 48q0 25 9.5 47.5t26 38.5t38.5 25.5t47 9.5t47 -9.5t38.5 -25.5t26 -38.5t9.5 -47.5q0 -26 -9.5 -48t-26 -38t-38.5 -25.5t-47 -9.5z" />
    <glyph glyph-name="ellipsis" unicode="&#x2026;" horiz-adv-x="1257" 
d="M203 -35q-25 0 -47 9.5t-38.5 25.5t-26 38t-9.5 48q0 25 9.5 47.5t26 38.5t38.5 25.5t47 9.5t47 -9.5t38.5 -25.5t26 -38.5t9.5 -47.5q0 -26 -9.5 -48t-26 -38t-38.5 -25.5t-47 -9.5zM631 -35q-25 0 -47 9.5t-38.5 25.5t-26 38t-9.5 48q0 25 9.5 47.5t26 38.5t38.5 25.5
t47 9.5t47 -9.5t38.5 -25.5t26 -38.5t9.5 -47.5q0 -26 -9.5 -48t-26 -38t-38.5 -25.5t-47 -9.5zM1055 -35q-25 0 -47 9.5t-38.5 25.5t-26 38t-9.5 48q0 25 9.5 47.5t26 38.5t38.5 25.5t47 9.5t47 -9.5t38.5 -25.5t26 -38.5t9.5 -47.5q0 -26 -9.5 -48t-26 -38t-38.5 -25.5
t-47 -9.5z" />
    <glyph glyph-name="exclam" unicode="!" horiz-adv-x="428" 
d="M256 442q-7 3 -18.5 5t-23.5 2t-23.5 -2t-18.5 -5q0 109 -6.5 227t-16.5 232.5t-22 219l-22 187l-16.5 135.5t-6.5 64q0 28 10.5 52t28.5 42t42 28.5t52 10.5q27 0 51 -10.5t41.5 -28.5t28 -42t10.5 -52q0 -11 -6.5 -64l-16.5 -135.5l-22 -187t-22 -219t-16.5 -232.5
t-6.5 -227zM213 -35q-25 0 -47 9.5t-38.5 25.5t-26 38t-9.5 48q0 25 9.5 47.5t26 38.5t38.5 25.5t47 9.5t47.5 -9.5t38.5 -25.5t25.5 -38.5t9.5 -47.5q0 -26 -9.5 -48t-25.5 -38t-38.5 -25.5t-47.5 -9.5z" />
    <glyph glyph-name="exclamdown" unicode="&#xa1;" horiz-adv-x="428" 
d="M213 1042q25 0 47.5 -9.5t38.5 -25.5t25.5 -38t9.5 -47q0 -26 -9.5 -48t-25.5 -38t-38.5 -25.5t-47.5 -9.5t-47 9.5t-38.5 25.5t-26 38t-9.5 48q0 25 9.5 47t26 38t38.5 25.5t47 9.5zM256 565q0 -108 6.5 -226t16.5 -233t22 -219.5l22 -187l16.5 -135.5t6.5 -64
q0 -27 -10.5 -51.5t-28 -42.5t-41.5 -28.5t-51 -10.5q-28 0 -52 10.5t-42 28.5t-28.5 42.5t-10.5 51.5q0 11 6.5 64l16.5 135.5l22 187t22 219.5t16.5 232.5t6.5 226.5q7 -3 18.5 -4.5t23.5 -1.5t23.5 1.5t18.5 4.5z" />
    <glyph glyph-name="question" unicode="?" horiz-adv-x="1065" 
d="M956 1362q31 -92 25.5 -160t-37.5 -121.5t-84.5 -97.5t-115.5 -88.5l-132 -93.5t-133 -113q-27 -28 -35.5 -58t0.5 -55.5t35.5 -42t69.5 -16.5q6 -27 -0.5 -47.5t-20.5 -34t-34.5 -20t-42.5 -4.5q-34 3 -65 26t-42 70q-12 56 0 104.5t40 91.5t68 82t84 77.5l87 78
t77 82.5q64 81 80 159.5t-4 147t-69 123t-113 88.5q-45 24 -95 36t-99.5 9t-97 -21.5t-87.5 -54.5q-14 -12 -22.5 -25.5t-6.5 -29.5q0 -17 17.5 -29.5t42.5 -27.5q42 -25 59 -53.5t17 -63.5q0 -26 -10.5 -44t-27 -30t-38 -17t-43.5 -3q-37 3 -69.5 27t-43.5 67
q-14 56 -2 105.5t41 93.5q32 48 74 83.5t91 59t102 34.5t108 11q72 0 142.5 -20t131 -58.5t107.5 -95.5t71 -131zM459 207q25 0 47 -9.5t38.5 -25.5t26 -38.5t9.5 -47.5q0 -26 -9.5 -48t-26 -38t-38.5 -25.5t-47 -9.5t-47 9.5t-38.5 25.5t-26 38t-9.5 48q0 25 9.5 47.5
t26 38.5t38.5 25.5t47 9.5z" />
    <glyph glyph-name="questiondown" unicode="&#xbf;" horiz-adv-x="1065" 
d="M606 801q-25 0 -47 9.5t-38.5 25.5t-26 38t-9.5 48q0 25 9.5 47t26 38t38.5 25.5t47 9.5t47 -9.5t38.5 -25.5t26 -38t9.5 -47q0 -26 -9.5 -48t-26 -38t-38.5 -25.5t-47 -9.5zM109 -354q-31 92 -25.5 160t37.5 121.5t84.5 97t115.5 88l132 93.5t133 113q27 28 35.5 58.5
t-0.5 56t-35.5 42t-69.5 16.5q-5 22 -1.5 40t13.5 31.5t25 22t33 10.5q20 4 41 0.5t39.5 -15t33 -31.5t21.5 -48q12 -57 0 -105t-40 -91t-68 -82.5t-84 -77.5l-87 -77.5t-77 -82.5q-56 -70 -75.5 -138t-10.5 -129.5t42.5 -114t81.5 -91.5t105.5 -62t117.5 -27t118 13.5
t106 60.5q14 13 22.5 26.5t6.5 29.5q0 17 -17.5 29l-42.5 28q-42 25 -59 53.5t-17 63.5q0 46 30.5 69t70.5 25q21 1 41.5 -4.5t38.5 -17.5t31.5 -30t19.5 -42q14 -56 2 -106t-41 -93q-42 -62 -100.5 -103t-125 -62t-137.5 -22.5t-139 15.5q-54 14 -104.5 39t-93 61.5
t-75.5 83.5t-52 105z" />
    <glyph glyph-name="quoteleft" unicode="&#x2018;" horiz-adv-x="522" 
d="M440 1626q-41 -16 -74.5 -40.5t-57 -55t-36 -65.5t-12.5 -72q0 -32 11.5 -57.5t30.5 -45t43 -34t48 -25.5q0 -29 -12 -54t-32 -43.5t-47 -29t-58 -8.5q-31 1 -58.5 14.5t-49 37t-35.5 56t-17 72.5q-7 78 18 141.5t72.5 111.5t112.5 80t139 48z" />
    <glyph glyph-name="quoteright" unicode="&#x2019;" horiz-adv-x="522" 
d="M82 1126q42 16 75 41t56.5 55.5t36 65.5t12.5 72q0 32 -11.5 57.5t-30.5 45t-42.5 34t-48.5 25.5q0 28 12 53t32.5 44t47.5 29t58 9q30 -2 57.5 -15t49 -36.5t35.5 -56t17 -72.5q7 -78 -18 -141.5t-72 -111.5t-112.5 -80t-139.5 -48z" />
    <glyph glyph-name="quotedblleft" unicode="&#x201c;" horiz-adv-x="954" 
d="M440 1626q-41 -16 -74.5 -40.5t-57 -55t-36 -65.5t-12.5 -72q0 -32 11.5 -57.5t30.5 -45t43 -34t48 -25.5q0 -29 -12 -54t-32 -43.5t-47 -29t-58 -8.5q-31 1 -58.5 14.5t-49 37t-35.5 56t-17 72.5q-7 78 18 141.5t72.5 111.5t112.5 80t139 48zM872 1626
q-41 -16 -73.5 -40.5t-55 -55t-35 -65.5t-12.5 -72q0 -32 11.5 -57.5t30 -45t42.5 -34t49 -25.5q0 -29 -12 -54t-32.5 -43.5t-48 -29t-58.5 -8.5q-31 1 -58.5 14.5t-48.5 37t-35 56t-18 72.5q-8 78 17.5 141.5t73.5 111.5t113 80t138 48z" />
    <glyph glyph-name="quotedblright" unicode="&#x201d;" horiz-adv-x="954" 
d="M82 1126q40 16 73 41t55.5 55.5t35 65.5t12.5 72q0 32 -11 57.5t-30 45t-43 34t-49 25.5q0 28 12 53t33 44t48.5 29t57.5 9q31 -2 58.5 -15t48.5 -36.5t35 -56t18 -72.5q8 -78 -17 -141.5t-73 -111.5t-113.5 -80t-138.5 -48zM514 1126q42 16 75 41t56.5 55.5t36 65.5
t12.5 72q0 32 -11.5 57.5t-30.5 45t-42.5 34t-48.5 25.5q0 28 12 53t32.5 44t47.5 29t58 9q31 -2 58.5 -15t49 -36.5t35 -56t16.5 -72.5q7 -78 -18 -141.5t-72 -111.5t-112.5 -80t-139.5 -48z" />
    <glyph glyph-name="quotesinglbase" unicode="&#x201a;" horiz-adv-x="520" 
d="M82 -305q40 16 73.5 40.5t57 55.5t36.5 66t13 73q0 32 -11.5 57.5t-30.5 45t-42.5 33.5t-48.5 24q0 28 11.5 53.5t32 44.5t47.5 30t59 11q30 0 59 -13t51 -37t35.5 -57.5t13.5 -74.5q0 -84 -26 -148t-72.5 -110.5t-109.5 -76.5t-138 -46z" />
    <glyph glyph-name="quotedblbase" unicode="&#x201e;" horiz-adv-x="954" 
d="M82 -301q40 16 73 40.5t55.5 55t35 65.5t12.5 72q0 32 -11 57.5t-30 45t-43 34t-49 25.5q0 28 12 53.5t33 44t48.5 28.5t57.5 9q31 -2 58.5 -15t48.5 -36.5t35 -56t18 -72.5q8 -78 -17 -141.5t-73 -111.5t-113.5 -80t-138.5 -48zM514 -301q42 16 75 40.5t56.5 55t36 65.5
t12.5 72q0 32 -11.5 57.5t-30.5 45t-42.5 34t-48.5 25.5q0 28 12 53.5t32.5 44t47.5 28.5t58 9q31 -2 58.5 -15t49 -36.5t35 -56t16.5 -72.5q7 -78 -18 -141.5t-72 -111.5t-112.5 -80t-139.5 -48z" />
    <glyph glyph-name="guilsinglleft" unicode="&#x2039;" horiz-adv-x="485" 
d="M219 504l184 -311h-34q-51 66 -121.5 139.5t-149.5 142.5q-34 29 0 57q79 70 149.5 143.5t121.5 139.5h34z" />
    <glyph glyph-name="guilsinglright" unicode="&#x203a;" horiz-adv-x="485" 
d="M266 504l-184 311h35q51 -66 121.5 -139.5t148.5 -143.5q32 -28 0 -57q-78 -69 -148.5 -142.5t-121.5 -139.5h-35z" />
    <glyph glyph-name="guillemotleft" unicode="&#xab;" horiz-adv-x="811" 
d="M240 504l184 -311h-35q-51 66 -121.5 139.5t-148.5 142.5q-35 29 0 57q78 70 148.5 143.5t121.5 139.5h35zM524 504l185 -311h-35q-51 66 -121.5 139.5t-149.5 142.5q-31 29 0 57q79 70 149.5 143.5t121.5 139.5h35z" />
    <glyph glyph-name="guillemotright" unicode="&#xbb;" horiz-adv-x="811" 
d="M287 504l-185 311h35q51 -66 121.5 -139.5t149.5 -143.5q31 -28 0 -57q-79 -69 -149.5 -142.5t-121.5 -139.5h-35zM571 504l-184 311h35q51 -66 121.5 -139.5t148.5 -143.5q32 -28 0 -57q-78 -69 -148.5 -142.5t-121.5 -139.5h-35z" />
    <glyph glyph-name="slash" unicode="/" horiz-adv-x="948" 
d="M770 1716h96l-692 -1794h-92z" />
    <glyph glyph-name="bar" unicode="|" horiz-adv-x="268" 
d="M94 -242v1794h92v-1794h-92z" />
    <glyph glyph-name="endash" unicode="&#x2013;" horiz-adv-x="1421" 
d="M82 461v121h1257v-121h-1257z" />
    <glyph glyph-name="emdash" unicode="&#x2014;" horiz-adv-x="1217" 
d="M82 461v121h1053v-121h-1053z" />
    <glyph glyph-name="bullet" unicode="&#x2022;" horiz-adv-x="551" 
d="M276 319q-39 0 -74 15.5t-62 41.5t-42.5 61.5t-15.5 76.5q0 40 15.5 75t42.5 61.5t62 41.5t74 15q40 0 75 -15t61.5 -41.5t41.5 -61.5t15 -75q0 -41 -15 -76.5t-41.5 -61.5t-61.5 -41.5t-75 -15.5z" />
    <glyph glyph-name="periodcentered" unicode="&#xb7;" horiz-adv-x="406" 
d="M203 451q-25 0 -47 9.5t-38.5 25.5t-26 38t-9.5 47t9.5 47.5t26 38.5t38.5 25.5t47 9.5t47 -9.5t38.5 -25.5t26 -38.5t9.5 -47.5t-9.5 -47t-26 -38t-38.5 -25.5t-47 -9.5z" />
    <glyph glyph-name="parenleft" unicode="(" horiz-adv-x="612" 
d="M487 -410q-102 111 -178.5 235.5t-127 257.5t-75.5 271.5t-24 278.5q1 138 26.5 275t76 268t126 254t176.5 233l43 -12q-115 -237 -173 -494.5t-58 -523.5q-2 -269 56 -530t175 -500z" />
    <glyph glyph-name="parenright" unicode=")" horiz-adv-x="612" 
d="M125 1663q100 -109 175 -230.5t125.5 -251t76.5 -264.5t28 -272q2 -141 -22.5 -281.5t-75.5 -275t-127.5 -260.5t-179.5 -238l-43 13q119 241 176 504.5t55 533.5q-2 264 -59.5 519.5t-171.5 490.5z" />
    <glyph glyph-name="bracketleft" unicode="[" horiz-adv-x="575" 
d="M481 1591h-239v-1898h239l13 -47h-412v1992h412v-2z" />
    <glyph glyph-name="bracketright" unicode="]" horiz-adv-x="575" 
d="M94 1591l-12 45v2h412v-1992h-412l12 47h240v1898h-240z" />
    <glyph glyph-name="braceleft" unicode="{" horiz-adv-x="813" 
d="M719 1599q-65 0 -108.5 -17.5t-69.5 -49t-38 -75t-16 -94.5t-2 -107.5l4 -114.5q3 -80 -1 -158.5t-28 -145.5t-76 -116.5t-146 -71.5q90 -22 141 -69t76.5 -110t31 -137t2.5 -151q-1 -61 -4 -121.5t-0.5 -115t14 -101t37.5 -80.5t70 -53.5t113 -19.5l12 -37
q-107 0 -180 21.5t-120 59.5t-72.5 89.5t-36.5 111t-11.5 124.5t2.5 130q1 55 2.5 108t-2.5 100.5t-15 88.5t-34 71.5t-60.5 49t-94.5 21.5q-13 1 -19.5 6t-6.5 11.5t6.5 11.5t19.5 6q60 3 98.5 23.5t61.5 54t33 78.5t12.5 96.5t0 108.5t-3.5 116q-2 62 0 123t15 116
t40 102.5t74.5 82t118.5 54t172 19.5z" />
    <glyph glyph-name="braceright" unicode="}" horiz-adv-x="813" 
d="M94 -309q70 0 114.5 20.5t70.5 56.5t36 84.5t12 105.5t-1 119.5t-4 125.5q-1 73 6 144t33 131t76.5 105t137.5 66q-94 22 -146 71t-76 115t-28 144t-1 158l4 116t-1.5 108.5t-15.5 95t-38 75t-69.5 49.5t-109.5 18l-12 39q101 0 172 -19.5t118.5 -54t74.5 -82t40 -102.5
t15 -116t0 -123l-4 -116t0.5 -108.5t12.5 -96.5t33 -78.5t62 -54t99 -23.5q13 -1 19 -6t6 -11.5t-6 -11.5t-19 -6q-60 -4 -98.5 -24t-61.5 -53.5t-33 -77t-13 -95t-1 -107.5l4 -114q1 -62 -1 -124t-15 -118t-39.5 -104t-73.5 -83t-118 -55t-173 -20z" />
    <glyph glyph-name="asterisk" unicode="*" horiz-adv-x="766" 
d="M399 1341q-17 8 -34 0l-16 64.5t-16.5 68.5t-12.5 59t-5 36q0 29 20 49t48 20t49 -20t21 -49q0 -10 -5.5 -36t-13.5 -59t-17.5 -68.5zM356 1337q-8 -5 -12 -13.5t-4 -16.5l-64.5 18l-68 20l-57.5 18t-33 13q-25 14 -33 42t6 52q8 12 20 19.5t25.5 11t26.5 2.5t24 -8
q9 -5 28.5 -22.5l44 -40.5l50.5 -48.5zM426 1307q-2 8 -6 15.5t-10 12.5l47.5 47.5l51 48.5t44.5 40t29 22q24 14 51 7t43 -30q12 -24 5 -52t-32 -44q-8 -5 -32.5 -13t-57 -17.5l-68.5 -19.5t-65 -17zM340 1296q0 -9 5 -18t11 -12l-47.5 -47.5l-51.5 -48l-44.5 -40
t-28.5 -22.5q-24 -14 -52 -6t-42 33q-7 11 -8.5 24t2 26t11.5 24t20 18q8 4 33.5 12.5t58 18l68.5 20zM408 1266q6 3 11 11.5t7 16.5q29 -8 65 -17t68.5 -18.5t57 -18t32.5 -13.5q23 -16 31 -43.5t-4 -50.5q-16 -25 -44 -33t-52 8q-9 5 -29 22.5l-44.5 40l-51 48zM365 1260
q6 -4 16 -4t16 4q9 -29 18.5 -64.5t17.5 -68.5t13 -58.5t5 -34.5q0 -29 -20.5 -49t-49.5 -20q-28 0 -48 20t-20 49q0 9 5.5 34.5t13.5 58.5l17 68.5z" />
    <glyph glyph-name="dagger" unicode="&#x2020;" horiz-adv-x="1200" 
d="M627 1167q-13 10 -28 10t-28 -10l-25 103l-26 109.5t-20 94.5t-8 58q0 31 12 53t31 35t42 17t46 -1q34 -8 59 -33.5t25 -70.5q0 -16 -8 -58t-20 -94.5l-26 -109.5zM647 1092q9 12 9 29t-9 26l103.5 26.5l109 27t94 20.5t58.5 8q24 0 43 -8t32 -21.5t20 -31t9 -35.5
q3 -23 -2.5 -45t-18.5 -40t-34 -29t-49 -11q-17 0 -58.5 9t-94 21.5l-109 27zM551 1147q-5 -11 -6.5 -26t6.5 -29l-101.5 -26.5l-109 -27t-94.5 -21.5t-58 -9q-27 0 -47.5 10t-33.5 26.5t-19.5 37.5t-5.5 42q1 20 8.5 38.5t21 33t32.5 23t44 8.5q16 0 58 -8t94.5 -20
l109 -26zM569 -354q0 33 -3.5 100.5t-9 155.5t-13 189.5t-16.5 203.5l-18 196.5t-18 169.5t-17 122.5t-15 54.5q25 21 57.5 79t56.5 154q10 -2 16.5 -3.5t11.5 -1.5t11.5 1.5t16.5 3.5q23 -96 54 -152.5t60 -80.5q-8 -8 -16.5 -56t-18 -122.5t-19 -169.5t-18 -196.5
t-16 -203t-13 -189t-8.5 -155t-3 -100.5h-62z" />
    <glyph glyph-name="daggerdbl" unicode="&#x2021;" horiz-adv-x="1200" 
d="M627 1167q-13 10 -28 10t-28 -10l-25 103l-26 109.5t-20 94.5t-8 58q0 25 8 44t21.5 32.5t31.5 20.5t37 9q21 1 42 -4.5t37.5 -19t27 -34t10.5 -48.5q0 -16 -8 -58t-20 -94.5l-26 -109.5zM647 1092q9 12 9 29t-9 26l103.5 26.5l109 27t94 20.5t58.5 8q25 0 44 -9
t32.5 -23.5t20.5 -33.5t9 -39q1 -21 -5.5 -42t-19.5 -37.5t-33.5 -26.5t-47.5 -10q-17 0 -58.5 9t-94 21.5l-109 27zM188 1008q-29 0 -50 11.5t-34 29.5t-18 40.5t-2 45.5q5 37 30.5 64.5t73.5 27.5q16 0 58 -8t94.5 -20l109 -26l101.5 -26q-5 -11 -6.5 -26t6.5 -29
l-101.5 -26.5l-109 -27t-94.5 -21.5t-58 -9zM629 1071q14 -48 23 -85.5t17.5 -66.5t17 -49t20.5 -32q-11 -11 -18.5 -41.5t-11.5 -70t-4 -84t4 -84.5t11.5 -70.5t18.5 -41.5q-12 -12 -20.5 -32t-17 -49t-17.5 -66.5t-23 -85.5q-10 2 -16.5 3t-11.5 1t-11.5 -1t-16.5 -3
l-24.5 86l-18.5 67.5t-16 49t-18 30.5q11 11 18 41t10.5 70.5t3 85.5t-4 85t-10.5 70t-17 40q10 10 18 30t16 49.5l18.5 67.5l24.5 86q10 -2 16.5 -3.5t11.5 -1.5t11.5 1.5t16.5 3.5zM551 193q-8 -14 -6.5 -29.5t6.5 -26.5l-101.5 -26l-109 -26t-94.5 -20t-58 -8
q-28 0 -48.5 11t-34 28t-19.5 39t-4 43q2 19 10 37t21 31.5t32 21.5t43 8q16 0 58 -9t94.5 -21.5l109 -27zM1012 276q27 0 47.5 -10.5t34 -27t19.5 -38t5 -42.5q-2 -20 -9 -39t-20.5 -33t-32.5 -22.5t-44 -8.5q-17 0 -58.5 8t-94 20.5l-109 27l-103.5 26.5q9 10 9 26.5
t-9 29.5q47 11 103.5 25.5l109 27t94 21.5t58.5 9zM571 117q13 -10 28 -10t28 10l26 -103l26 -109.5t20 -94.5t8 -58q0 -27 -9.5 -46.5t-25 -33t-35 -20t-39.5 -6.5t-39 7t-34 20.5t-24 33t-9 45.5q0 16 8 58t20 94.5l26 109.5z" />
    <glyph glyph-name="section" unicode="&#xa7;" horiz-adv-x="1184" 
d="M1061 -106q4 -90 -14.5 -161.5t-53 -126t-83 -93t-105.5 -62.5q-75 -31 -159.5 -38t-164.5 6.5t-150 46.5t-118 81q-15 18 -36 46t-35 65t-17 82t18 96q14 32 37.5 53.5t51.5 33t57 12t55 -8.5q31 -11 51 -37.5t17 -68.5q-5 -42 -27 -74t-72 -55q-31 -16 -51 -29t-22 -33
q-1 -33 25.5 -64t69.5 -55t97 -39t109 -16q80 1 141 30t102.5 74t62.5 101.5t21 114.5q0 78 -40 139t-104.5 113t-144.5 96.5l-161 89.5q-66 37 -127 75.5t-107.5 83t-74 95.5t-27.5 113q0 65 13.5 109.5t36.5 78t54.5 63l67.5 64.5q-68 58 -106.5 133t-30.5 176
q10 118 51.5 200t103 133.5t136.5 76t153 26.5q56 2 110.5 -7t103.5 -27t89 -44t68 -57q16 -17 36.5 -45t35 -64.5t16.5 -81t-19 -95.5q-13 -32 -35.5 -53t-50 -32.5t-56.5 -12.5t-54 7q-32 13 -52.5 39.5t-15.5 69.5q5 40 25.5 71t71.5 56l50.5 26t22.5 31q0 29 -20.5 56
t-54.5 49.5t-79 39t-93 25.5t-96.5 8.5t-90.5 -12.5q-45 -15 -78.5 -46t-57.5 -70t-38 -83.5t-18 -87.5q-8 -74 23.5 -132.5t88 -106.5t131 -88.5l152.5 -79.5l149.5 -77.5t132.5 -85t97.5 -100t44.5 -122.5q5 -59 -8 -106t-39 -86.5t-62 -74.5t-78 -69q31 -23 58 -50.5
t46.5 -61.5t31 -75t12.5 -91zM883 188q48 47 65.5 91t10 86t-37.5 82.5t-76.5 80t-106.5 79t-128 79.5l-161.5 92l-163.5 96q-55 -40 -77 -81t-17.5 -81.5t31.5 -81t70.5 -81t100 -79.5t119.5 -77q46 -28 94.5 -54.5l96.5 -52.5l93.5 -50.5z" />
    <glyph glyph-name="paragraph" unicode="&#xb6;" horiz-adv-x="1165" 
d="M459 877q-59 0 -127 26t-126 74t-96 115t-38 149q0 105 33.5 180.5t97 123.5t155 70.5t207.5 22.5h498v-43q-62 0 -92.5 -12t-43 -41.5t-12.5 -80v-128.5v-1130q-27 0 -46.5 -28.5t-39.5 -81t-43 -125.5t-57 -161q-20 -52 -53 -87t-73.5 -54.5t-85.5 -24.5t-89 3
q-43 7 -82 26.5t-68.5 49t-45.5 68t-13 83.5q2 27 14.5 48t31 36t41 23t46.5 10q37 3 71.5 -11t51.5 -45q13 -24 18 -51.5t1 -54t-18.5 -50.5t-39.5 -40q70 -23 111 2.5t62.5 105.5t27.5 217t6 338v576zM700 311q0 -132 -8 -244q-3 -48 -8.5 -96t-13 -90t-18 -74.5
t-23.5 -48.5q14 0 32 36.5t38 91l41.5 118.5t42 118.5t39.5 91t34 36.5v1337h-156v-1276z" />
    <glyph glyph-name="Omega" unicode="&#x3a9;" horiz-adv-x="1335" 
d="M786 0v96q36 17 66.5 35t57 39t49 47t42.5 59q39 63 47.5 176t8.5 277q0 117 -3 200t-14 143.5t-34 104.5t-62 83q-56 55 -127 83.5t-149 28.5q-79 0 -150 -28.5t-127 -83.5q-39 -39 -61.5 -83t-33.5 -104.5t-14 -143.5t-3 -200q0 -164 8.5 -277t46.5 -176q20 -33 43 -59
t49.5 -47t57 -39t65.5 -35v-96h-381v96h186q-46 37 -75.5 71t-51.5 75q-24 45 -36.5 101.5t-17.5 119.5t-5 130.5v135.5q0 124 2.5 213t15 156.5t40 120t77.5 102.5q72 72 166.5 110.5t198.5 38.5q103 0 197.5 -38.5t166.5 -110.5q50 -50 77.5 -102.5t40 -120t15 -156.5
t2.5 -213v-135.5t-5 -130.5t-17 -119.5t-37 -101.5q-22 -41 -51.5 -75t-75.5 -71h186v-96h-381z" />
    <glyph glyph-name="pi" unicode="&#x3c0;" horiz-adv-x="1210" 
d="M887 0v895h-563v-895h-99v987h760v-987h-98z" />
    <glyph glyph-name="grave" unicode="`" horiz-adv-x="549" 
d="M90 1518q-6 5 -8 9q-2 3 -1 6t9 3h189q10 0 16.5 -3t10.5 -6q4 -4 7 -9l154 -351h-35z" />
    <glyph glyph-name="acute" unicode="&#xb4;" horiz-adv-x="549" 
d="M459 1536q8 0 8.5 -3t-1.5 -6l-7 -9l-342 -351h-35l154 351q3 5 7 9q4 3 10.5 6t16.5 3h189z" />
    <glyph glyph-name="circumflex" unicode="&#x2c6;" horiz-adv-x="713" 
d="M82 1186l227 348q21 32 29 35q6 3 11 1t9 -5l9 -9l264 -370h-160l-174 254l-170 -254h-45z" />
    <glyph glyph-name="caron" unicode="&#x2c7;" horiz-adv-x="713" 
d="M631 1559l-228 -349q-19 -31 -28 -34q-7 -4 -12 -2t-9 5q-4 4 -8 9l-264 371h160l174 -254l170 254h45z" />
    <glyph glyph-name="tilde" unicode="&#x2dc;" horiz-adv-x="842" 
d="M178 1458q23 35 54.5 56.5t54.5 21.5q18 0 30.5 -1.5t25 -5t28.5 -9.5l41 -15l71 -24t82.5 -22.5t77 -7t53.5 23.5q10 11 18 21.5l15 19.5q7 10 12 18l19 -14l-94 -138q-25 -35 -58.5 -58.5t-68.5 -23.5q-25 0 -57.5 9.5t-69.5 23.5q-12 4 -32.5 13t-45.5 18.5t-53 17.5
t-53.5 10t-47.5 -4t-35 -24q-11 -15 -19 -27l-13 -20q-3 -5 -6 -9t-5 -8l-20 15l96 143v0z" />
    <glyph glyph-name="dieresis" unicode="&#xa8;" horiz-adv-x="801" 
d="M309 1432q0 -23 -9 -43.5t-24 -36t-35.5 -24.5t-43.5 -9t-44 9t-37 24.5t-25 36t-9 43.5t9 43.5t25 36.5t37 25t44 9t43.5 -9t35.5 -25t24 -36.5t9 -43.5zM719 1432q0 -23 -8.5 -43.5t-24 -36t-36.5 -24.5t-46 -9q-23 0 -42.5 9t-34 24.5t-23 36t-8.5 43.5t8.5 43.5
t23 36.5t34 25t42.5 9q25 0 46 -9t36.5 -25t24 -36.5t8.5 -43.5z" />
    <glyph glyph-name="macron" unicode="&#xaf;" horiz-adv-x="1012" 
d="M82 1374v121h848v-121h-848z" />
    <glyph glyph-name="breve" unicode="&#x2d8;" horiz-adv-x="713" 
d="M631 1507l-37 -55q-43 -63 -101 -96.5t-120 -36.5q-65 -3 -126.5 26.5t-111.5 92.5l-53 69h160l14 -20q28 -42 64.5 -63.5t76.5 -26.5q48 -5 95 18t81 74l13 18h45z" />
    <glyph glyph-name="ring" unicode="&#x2da;" horiz-adv-x="442" 
d="M360 1393q0 -29 -11 -55t-30 -45.5t-45 -30.5t-57 -11q-29 0 -54 11t-43 30.5t-28 45.5t-10 55q0 28 10 54t28 45.5t43 31.5t54 12q31 0 57 -12t45 -31.5t30 -45.5t11 -54zM311 1393q0 18 -7 35t-20 30t-30 21t-37 8q-18 0 -34 -8t-28 -21t-19 -30t-7 -35q0 -19 7 -36
t19 -29.5t28 -20t34 -7.5q20 0 37 7.5t30 20t20 29.5t7 36z" />
    <glyph glyph-name="hungarumlaut" unicode="&#x2dd;" horiz-adv-x="887" 
d="M459 1536q8 0 8.5 -3t-1.5 -6l-7 -9l-342 -351h-35l154 351q3 5 7 9q4 3 10.5 6t16.5 3h189zM797 1536q8 0 8.5 -3t-1.5 -6l-7 -9l-342 -351h-35l153 351q3 5 8 9q4 3 10.5 6t16.5 3h189z" />
    <glyph glyph-name="dotaccent" unicode="&#x2d9;" horiz-adv-x="387" 
d="M305 1432q0 -23 -8.5 -43.5t-24 -36t-36.5 -24.5t-46 -9q-23 0 -42.5 9t-34 24.5t-23 36t-8.5 43.5t8.5 43.5t23 36.5t34 25t42.5 9q25 0 46 -9t36.5 -25t24 -36.5t8.5 -43.5z" />
    <glyph glyph-name="cedilla" unicode="&#xb8;" horiz-adv-x="575" 
d="M285 0l-29 -78q59 0 104 -19t75 -50t45 -69t14 -77q-1 -32 -12.5 -62t-35 -53t-58.5 -37t-83 -14t-87 13t-67 30t-45.5 32.5t-23.5 21.5l16 14q35 -22 73.5 -42t84.5 -20q34 0 60 8.5t44 22.5t28 32.5t13 39.5q5 32 -7 67t-38.5 63.5t-67 47t-93.5 18.5l30 111h60z" />
    <glyph glyph-name="ogonek" unicode="&#x2db;" horiz-adv-x="512" 
d="M262 0q-38 -21 -60 -47t-31 -53t-6 -53.5t17 -47.5q14 -23 38 -39t56 -21.5t71 1t83 29.5l-24 -91q-47 -26 -92 -31t-84 6t-70 35t-51 56q-18 29 -24 63t3 68t34.5 66.5t70.5 58.5h69v0z" />
    <glyph glyph-name="gravecomb" unicode="&#x300;" horiz-adv-x="0" 
d="M-78 2132q-6 5 -8 9q-2 3 -1 6t9 3h189q10 0 16.5 -3t10.5 -6q4 -4 7 -9l154 -350h-35z" />
    <glyph glyph-name="acutecomb" unicode="&#x301;" horiz-adv-x="0" 
d="M340 2150q8 0 9 -3t-1 -6q-3 -4 -8 -9l-342 -350h-34l153 350q3 5 7 9q4 3 10.5 6t17.5 3h188z" />
    <glyph glyph-name="tildecomb" unicode="&#x303;" horiz-adv-x="1024" 
d="M-122 2073q24 38 48 55.5t51.5 20.5t60 -5.5t73.5 -23.5l71.5 -24t82.5 -23t77 -7t54 23q10 11 18 21.5l15 19.5q7 10 12 18l19 -14l-95 -137q-27 -41 -55 -59t-58.5 -21t-65 6.5t-75.5 24.5q-12 4 -32.5 13t-45.5 18t-52.5 17t-53 10t-47.5 -4t-35 -24l-19 -26.5
t-13 -19.5q-3 -5 -6 -9t-5 -8l-20 14l96 144v0z" />
    <glyph glyph-name="hookabovecomb" unicode="&#x309;" horiz-adv-x="0" 
d="M89 1470q8 -33 4.5 -57t-15 -43.5t-30.5 -36t-41 -33.5l-29.5 -24t-31.5 -28.5t-31.5 -36t-30.5 -46.5h-20q-2 12 -1.5 30.5t6 40.5t18 47t36.5 52q51 60 51 113q0 60 -55 88v-2q-31 14 -53 14q-16 0 -28.5 -6.5t-26.5 -17.5q-5 -5 -9 -9.5t-2 -7.5q0 -6 13 -10
q27 -12 40.5 -26t16.5 -29q0 -28 -14.5 -43t-40.5 -17q-20 0 -37.5 9.5t-28.5 29.5q-9 26 -8.5 46t6.5 32q20 54 63.5 78.5t102.5 24.5q31 0 60 -7.5t52.5 -23t40 -40.5t23.5 -61z" />
    <glyph glyph-name="dotbelowcomb" unicode="&#x323;" horiz-adv-x="0" 
d="M-64 -403q-21 0 -39.5 8t-32.5 21.5t-22 32t-8 39.5q0 22 8 40.5t22 32.5t32.5 22t39.5 8t40 -8t33 -22t22 -32.5t8 -40.5q0 -21 -8 -39.5t-22 -32t-33 -21.5t-40 -8z" />
    <glyph glyph-name="asciicircum" unicode="^" horiz-adv-x="1210" 
d="M82 346l434 664q17 29 31.5 46.5t23.5 20.5q11 5 21 2.5t18 -8.5q9 -7 15 -18l503 -707h-305l-331 485l-324 -485h-86z" />
    <glyph glyph-name="asciitilde" unicode="~" horiz-adv-x="1032" 
d="M205 610q31 45 70 72t69 27q22 0 38 -2.5t32.5 -7t37 -12t52.5 -17.5q26 -8 58.5 -19.5t67.5 -22t70.5 -18.5t67.5 -9.5t58 5t42 25.5q13 14 23.5 28l18.5 25q5 6 8.5 12t7.5 11l24 -19l-121 -176q-32 -45 -74.5 -74.5t-88.5 -29.5q-31 0 -72.5 12t-89.5 31
q-15 5 -41.5 16t-58.5 23t-67 22t-68 12.5t-60.5 -5t-44.5 -30.5l-24 -34.5l-17 -25.5l-7.5 -11t-6.5 -10l-27 18l123 184v0z" />
    <glyph glyph-name="brokenbar" unicode="&#xa6;" horiz-adv-x="260" 
d="M82 1550h96v-708h-96v708zM82 467h96v-709h-96v709z" />
    <glyph glyph-name="backslash" unicode="\" horiz-adv-x="948" 
d="M774 -78l-692 1794h96l688 -1794h-92z" />
    <glyph glyph-name="copyright" unicode="&#xa9;" horiz-adv-x="1860" 
d="M930 1667q119 0 228.5 -30.5t205 -86t173.5 -133.5t134 -173t86.5 -204.5t30.5 -228.5q0 -118 -30.5 -227t-86.5 -204t-134 -173.5t-173.5 -134.5t-205 -86.5t-228.5 -30.5q-118 0 -227 30.5t-204.5 86.5t-174 134.5t-134.5 173.5t-87 204t-31 227q0 119 31 228.5
t87 204.5t134.5 173t174 133.5t204.5 86t227 30.5zM930 23q106 0 206 29t187 81.5t159.5 125.5t124.5 160.5t80.5 186.5t28.5 205t-28.5 205.5t-80.5 187t-124.5 160.5t-159.5 125t-187 81t-206 29t-205.5 -29t-186.5 -81t-159.5 -125t-124.5 -160.5t-80.5 -187
t-28.5 -205.5q0 -105 28.5 -204.5t80.5 -187t124.5 -160.5t159.5 -125.5t186.5 -81.5t205.5 -29zM1257 586q-2 -6 -4 -23.5l-4.5 -40.5t-4 -49.5t-1.5 -50.5q0 -22 1 -38.5t3 -28.5q2 -14 4 -25h-32q-4 9 -10 17q-5 7 -13.5 12.5t-21.5 5.5q-14 0 -30 -8.5t-41.5 -18.5
t-65.5 -18.5t-101 -8.5q-96 0 -178 39.5t-141.5 107t-93.5 157t-34 188.5q0 100 33 191t92.5 160t143.5 110t186 41q31 0 61 -7t56.5 -16.5t48.5 -18.5t37 -12q10 -5 17 0t11 13q4 9 7 22h30q-1 -5 -1.5 -11t-0.5 -16v-26.5t2 -42.5q2 -23 4 -51t4 -52q3 -28 5 -57h-39
q-5 58 -31 104q-11 19 -28 38t-41 34t-56 24t-74 9q-69 0 -121 -36.5t-86.5 -96.5t-53 -136.5t-19.5 -156.5q-2 -74 11 -145.5t40 -130t68 -99.5t96 -53q57 -13 101.5 -11.5t78.5 13t58 31t41 41.5q39 52 51 127h36z" />
    <glyph glyph-name="registered" unicode="&#xae;" horiz-adv-x="1860" 
d="M930 1667q119 0 228.5 -30.5t205 -86t173.5 -133.5t134 -173t86.5 -204.5t30.5 -228.5q0 -118 -30.5 -227t-86.5 -204t-134 -173.5t-173.5 -134.5t-205 -86.5t-228.5 -30.5q-118 0 -227 30.5t-204.5 86.5t-174 134.5t-134.5 173.5t-87 204t-31 227q0 119 31 228.5
t87 204.5t134.5 173t174 133.5t204.5 86t227 30.5zM930 23q106 0 206 29t187 81.5t159.5 125.5t124.5 160.5t80.5 186.5t28.5 205t-28.5 205.5t-80.5 187t-124.5 160.5t-159.5 125t-187 81t-206 29t-205.5 -29t-186.5 -81t-159.5 -125t-124.5 -160.5t-80.5 -187
t-28.5 -205.5q0 -105 28.5 -204.5t80.5 -187t124.5 -160.5t159.5 -125.5t186.5 -81.5t205.5 -29zM543 1300l303 13q78 3 146 -6t118.5 -35t79.5 -72t29 -117q0 -70 -20.5 -116.5t-55.5 -75.5t-82.5 -43.5t-102.5 -20.5q37 -3 75 -20.5t70.5 -49.5t55.5 -78.5t29 -107.5
q7 -78 23.5 -120t42 -61t61 -22t82.5 -3l-13 -39q-95 -25 -160.5 -20t-108 29t-66 62t-33.5 80q-6 26 -7.5 58.5t-3.5 67.5t-8 69.5t-21.5 64t-44 51.5t-75.5 31q-11 2 -20.5 2.5t-17.5 -0.5q-9 -1 -17 -2v-416q0 -15 1 -21.5t7 -6.5l76 -10v-39h-342v39l71 10
q10 0 11.5 6.5t1.5 21.5v820q0 17 -1.5 22.5t-11.5 5.5l-71 13v36zM801 866h28q66 0 108 18t66 47.5t32.5 67t8.5 76.5q0 75 -26.5 118.5t-64.5 64t-79.5 22t-72.5 -7.5v-406z" />
    <glyph glyph-name="trademark" unicode="&#x2122;" horiz-adv-x="1772" 
d="M688 1638q-3 -6 -4.5 -16t-2.5 -21.5t-1 -21.5v-16q0 -20 2.5 -48t5.5 -54l8 -62h-45q0 27 -6.5 59t-28.5 60.5t-65 48t-115 20.5v-16v-666q0 -14 3.5 -28.5t25.5 -16.5l82 -8v-37h-357v37l82 8q22 2 25.5 16.5t3.5 28.5v666v16q-72 -1 -114.5 -20.5t-65 -48t-29 -60.5
t-6.5 -59h-45l8 62q3 26 5.5 54t2.5 48v16t-1 21.5t-2.5 21.5t-4.5 16h639zM1583 1595q-4 -1 -6 -2.5t-3 -6t-1 -13v-23.5v-647q0 -6 0.5 -13.5t3.5 -14.5t9 -11.5t18 -5.5l86 -8v-35h-363v35l86 8q10 1 15.5 5.5t8 11.5t3 14.5t0.5 13.5v610l-256 -708l-281 692v-594
q0 -6 0.5 -13.5t3.5 -14.5t9 -11.5t18 -5.5l84 -8v-35h-291v35l82 8q11 1 17 5.5t8.5 11.5t3 14.5t0.5 13.5v651v23t-1 11.5t-3 4.5t-5 2l-81 11v32h249l224 -563l198 563h250v-32z" />
    <glyph glyph-name="at" unicode="@" horiz-adv-x="2169" 
d="M1395 367q0 -47 4 -77t11 -47t16 -23.5t18 -6.5q118 24 218 79q43 23 85.5 55.5t80 75.5t66 97.5t43.5 122.5q21 95 15.5 204t-40 217.5t-98.5 208.5t-160 176.5t-224 122.5t-291 46q-145 0 -265 -39t-215.5 -107.5t-165.5 -162.5t-116.5 -203.5t-69.5 -230t-22 -242.5
q0 -119 22 -235.5t65 -221.5t107 -194.5t149 -155t189.5 -102.5t229.5 -37q149 0 271 23.5t219.5 61.5t172 87t130 100t93.5 100t61.5 87.5t34 62.5t11.5 24q2 2 10.5 6t19.5 7q12 4 27 8q-71 -178 -207 -317q-58 -59 -136.5 -116t-179.5 -101.5t-227 -71.5t-280 -27
q-175 0 -318 38.5t-255 106.5t-193.5 161.5t-133.5 203t-75.5 231t-19.5 246.5q4 131 37 261t94 248t149 219.5t201.5 175.5t251.5 116.5t299 42.5q164 0 300.5 -39t244.5 -108t186.5 -163.5t127 -204.5t65.5 -232t2 -246q-17 -132 -82.5 -239.5t-171 -183.5t-245.5 -117.5
t-306 -41.5q-17 0 -19 25.5t-2 68.5v80q-11 -35 -37.5 -66.5t-63 -55.5t-78.5 -38t-83 -14q-61 0 -106.5 19.5t-76 52t-46 74.5t-15 87t17.5 90t50 83l33 33l405 127v219q0 71 -9.5 124.5t-35.5 79.5q-24 24 -55.5 33.5t-65.5 7.5t-67.5 -13t-59.5 -28q-52 -34 -82 -75
t-30 -84q5 10 16 18q9 7 25 13t41 6q18 0 34 -7t28.5 -20t20 -31.5t7.5 -40.5q0 -24 -8.5 -42t-23 -30t-33 -18t-38.5 -6q-35 2 -67.5 23.5t-46.5 64.5q-11 36 -7.5 70.5t17.5 66t36.5 59t49.5 50.5q24 19 48.5 33t50.5 23t55 14.5t63 7.5q74 5 127.5 -6.5t89.5 -34
t58 -53.5t34 -64t15.5 -65.5t3.5 -59.5v-530zM879 516q-30 -65 -27.5 -118.5t25 -93.5t57.5 -64.5t70 -30.5q21 -4 55 -1t66.5 22.5t55.5 62t23 117.5v206z" />
    <glyph glyph-name="currency" unicode="&#xa4;" horiz-adv-x="1151" 
d="M932 971q45 -59 69.5 -130t24.5 -149q0 -80 -25 -151t-71 -129l133 -136l-76 -75l-133 135q-59 -47 -132.5 -72.5t-158.5 -25.5q-78 0 -147 25.5t-125 70.5l-137 -133l-72 80l135 133q-43 57 -66.5 128.5t-23.5 149.5q0 79 24.5 152t69.5 133l-139 141l76 72l133 -135
q56 48 125 75t147 27q87 0 162 -28.5t135 -79.5l135 135l74 -76zM909 688q0 66 -26.5 126.5t-73.5 107t-110.5 74.5t-137.5 28q-68 0 -126.5 -28t-101.5 -74.5t-68 -107t-25 -126.5q0 -68 25 -130.5t68 -110.5t101.5 -76.5t126.5 -28.5q74 0 137.5 28.5t110.5 76.5
t73.5 110.5t26.5 130.5z" />
    <glyph glyph-name="dollar" unicode="$" horiz-adv-x="1251" 
d="M653 969q36 -17 85 -37t102 -47.5t106 -64t97 -84t75 -109t41 -138.5q14 -122 -8.5 -208t-67 -144t-104.5 -91.5t-121 -50.5t-116.5 -22t-90.5 -4v-149h-92v160q-53 10 -103.5 26.5t-94 32.5l-77.5 27.5t-53 11.5q-24 0 -39 -12.5t-23 -26.5q-10 -18 -15 -39h-48
q4 19 8 43q3 20 6 49t3 66q0 41 -5.5 89t-12.5 91l-17 100h45q0 -68 19.5 -121.5t53 -94.5t77 -71t90.5 -50.5t95 -33t91 -18.5v670q-83 40 -164 84t-145.5 99.5t-104 127t-39.5 166.5q0 101 24.5 175.5t64.5 126.5t90 84.5t100 51.5t96 26t78 9v150h96v-156q35 -5 67 -14
t60.5 -18l52.5 -16.5t44 -10.5q23 -5 42.5 0t33.5 13q17 9 30 21h47q-6 -15 -10 -38q-3 -20 -4.5 -51t2.5 -76q3 -41 7.5 -88t9.5 -88q5 -48 12 -95h-48q-2 27 -7 65t-18 79.5t-36.5 84t-62 78t-93.5 60.5t-131 33v-633zM559 1604q-78 -5 -131.5 -31.5t-86.5 -67t-47.5 -92
t-14.5 -106.5q0 -50 25 -93t65 -79t90 -66.5t100 -54.5v590zM651 41q31 0 65.5 3.5t68.5 14t65 30.5t54.5 52t37.5 79t14 112q0 61 -24.5 110.5t-66 90t-97 75t-117.5 66.5v-633z" />
    <glyph glyph-name="cent" unicode="&#xa2;" horiz-adv-x="985" 
d="M934 391q-4 -12 -11.5 -37t-23 -55.5t-41 -63.5t-65.5 -61t-96.5 -47.5t-133.5 -22.5v-104h-88v109q-110 11 -190 61t-131 125t-73.5 167.5t-17.5 188.5q5 91 33.5 178.5t80.5 160.5t126.5 126t171.5 74v110h88v-98q59 2 116.5 -12.5t106.5 -42.5q35 -18 62.5 -43
t45.5 -54.5t24.5 -64t-0.5 -72.5q-5 -23 -17.5 -39t-29.5 -25.5t-37 -12.5t-39 0q-34 5 -59 28.5t-25 65.5q0 35 13 56t32 44q21 26 6 56.5t-55 52.5q-28 14 -65 20.5t-79 1.5v-975q126 -18 208.5 45t129.5 191zM475 1137q-61 -27 -104.5 -76.5t-71 -113t-39 -137
t-8.5 -148.5q3 -70 19 -138t44 -127.5t68.5 -106t91.5 -73.5v920z" />
    <glyph glyph-name="sterling" unicode="&#xa3;" horiz-adv-x="1298" 
d="M608 526q0 -48 -4 -91.5t-11.5 -81t-19.5 -67t-28 -48.5q39 7 73.5 5t70.5 -11.5t77 -25l92 -34.5q88 -32 153.5 -30.5t109 31.5t65.5 86t22 132l29 -22q0 -64 -3 -113.5t-15 -88.5t-35.5 -68.5t-65.5 -53.5q-45 -26 -90 -36t-89.5 -10t-89 9t-89.5 21l-85 25.5t-86 25
t-87 19t-88 7.5q-71 0 -118 -20t-91 -63q-28 -26 -53 -20t-39 26q-13 17 -11 38.5t25 30.5q80 31 136.5 69t92 87t52 111t16.5 143v201h-295l21 84h274v229q0 48 0.5 106.5t12.5 121t40 124t82 115.5q50 48 103.5 80t109.5 49q77 24 149.5 21t129 -27.5t91 -68.5t34.5 -103
q0 -29 -11.5 -50t-30 -33.5t-41 -16.5t-44.5 1q-31 7 -54.5 31t-23.5 68q0 28 12.5 50.5t34.5 35.5q12 9 20 18t-6 19q-4 2 -29.5 11t-63.5 12.5t-83.5 -3.5t-89.5 -37q-32 -21 -60.5 -57t-50 -91.5t-34.5 -132.5t-13 -180v-292h324l-21 -84h-303v-183z" />
    <glyph glyph-name="florin" unicode="&#x192;" horiz-adv-x="616" 
d="M195 1024q0 54 3.5 115t15.5 124t34.5 124.5t60.5 117.5q29 42 61.5 70t67 45.5t70 24.5t70.5 6q51 -2 96.5 -19.5t80.5 -44t55.5 -58.5t20.5 -63q0 -27 -9 -46.5t-23 -32t-32.5 -18.5t-37.5 -5q-20 0 -39 7t-34 20t-24 32t-9 43q0 31 10 47t23 25.5t23.5 16t12.5 18.5
q0 7 -20.5 19t-52 15.5t-69 -9.5t-71.5 -56q-19 -25 -36 -62.5t-29.5 -90t-19.5 -121t-7 -156.5v-88h219v-47h-219v-1163q-18 0 -32.5 -20.5t-29 -57t-31 -88t-40.5 -113.5q-15 -38 -39 -62.5t-53.5 -38t-62.5 -16.5t-64 4q-29 6 -54.5 20t-44 34.5t-29.5 46.5t-9 57
q4 33 25.5 54.5t49.5 28t57 -2t48 -35.5q13 -18 16.5 -38t-1 -39.5t-15.5 -36t-27 -25.5q48 -15 76.5 2.5t43.5 73.5t19.5 153t4.5 240v1022h-142v47h142z" />
    <glyph glyph-name="yen" unicode="&#xa5;" horiz-adv-x="1442" 
d="M1411 1638v-30l-108 -15q-19 -3 -31 -18t-19 -25l-424 -641h385l-20 -84h-365v-147h385l-20 -84h-365v-498q0 -26 2 -36.5t15 -12.5l125 -16v-31h-508v31l125 16q12 2 14 12.5t2 36.5v498h-377l21 84h356v147h-377l21 84h307l-373 633l-18.5 31t-24.5 20l-108 15v30h508
v-30l-125 -17q-13 -2 -15.5 -12.5t13.5 -36.5l348 -592l397 600q11 19 3.5 29t-19.5 12l-125 17v30h395z" />
    <glyph glyph-name="ordfeminine" unicode="&#xaa;" horiz-adv-x="604" 
d="M432 1196q0 -16 2 -35t5 -35.5t7 -27.5t9 -11h67v-28q-60 0 -94.5 -10.5t-54.5 -24.5q-25 3 -36 17.5t-11 35.5v47q-6 -20 -21.5 -38t-35.5 -32t-44 -22t-47 -8q-51 0 -83.5 23.5t-45.5 58t-6.5 74.5t35.5 73q4 5 8.5 10t8.5 10l9 11l222 68v116q0 41 -3.5 66t-19.5 41
q-15 12 -33 16.5t-37 4t-37.5 -6t-33.5 -14.5q-29 -19 -42.5 -38.5t-13.5 -41.5q11 9 20.5 12.5t20.5 3.5q19 0 33.5 -13.5t14.5 -39.5q0 -28 -18.5 -41.5t-41.5 -11.5q-20 0 -37.5 12t-23.5 37q-6 21 -4.5 40.5t9 37.5t19.5 33.5t27 27.5q29 23 57 32.5t68 12.5
q62 4 98.5 -12.5t55 -42.5t23.5 -55.5t5 -50.5v-281zM139 1262q-16 -37 -13.5 -66t15.5 -50t33.5 -33t40.5 -15q12 -2 31 -0.5t37 12.5t30.5 35t12.5 67v107z" />
    <glyph glyph-name="ordmasculine" unicode="&#xba;" horiz-adv-x="680" 
d="M319 1638q57 0 107.5 -24.5t89 -67t60.5 -98.5t22 -119t-22 -118.5t-60.5 -97t-89 -65.5t-107.5 -24t-108 24t-88.5 65.5t-59.5 97t-22 118.5t22 119t59.5 98.5t88.5 67t108 24.5zM319 1057q33 0 62 21t50.5 57.5t33.5 87t12 110.5q0 59 -12 109t-33.5 86.5t-50.5 57
t-62 20.5q-32 0 -60.5 -20.5t-50 -57t-34 -86.5t-12.5 -109q0 -60 12.5 -110.5t34 -87t50 -57.5t60.5 -21z" />
    <glyph glyph-name="numbersign" unicode="#" horiz-adv-x="1202" 
d="M1120 852h-225l-88 -293h235v-123h-270l-127 -436h-92l127 436h-301l-127 -436h-92l127 436h-205v123h242l84 293h-248v121h284l125 430h93l-125 -430h301l125 430h92l-125 -430h190v-121zM717 559l84 293h-301l-86 -293h303z" />
    <glyph glyph-name="zero" unicode="0" horiz-adv-x="1307" 
d="M653 1667q78 0 150 -30.5t134 -85.5t113.5 -132.5t87.5 -172t56 -203t20 -226.5q0 -117 -20 -225.5t-56 -203t-87.5 -171.5t-113.5 -132.5t-134 -85.5t-150 -30t-149.5 30t-134 85.5t-113.5 132.5t-87.5 171.5t-56.5 203t-20 225.5q0 177 44 331.5t120 270t178 182
t219 66.5zM653 0q54 0 99 32.5t80.5 90.5t62.5 136.5t45 171t26.5 194t8.5 204.5q-1 102 -10 201t-27 188.5t-45 166t-62.5 132.5t-80 87.5t-97.5 31.5t-97.5 -31.5t-80 -87.5t-62 -132.5t-44.5 -166t-27.5 -189t-9.5 -200.5q-1 -103 8 -204.5t26.5 -194t44.5 -171
t63 -136.5t80.5 -90.5t98.5 -32.5z" />
    <glyph glyph-name="one" unicode="1" horiz-adv-x="772" 
d="M711 31v-31h-518v31l124 16q13 2 15 12.5t2 36.5v1110q0 20 -0.5 56t-4 71.5t-11 61.5t-21.5 26q-25 0 -59 -1.5t-65 -3.5q-37 -3 -75 -5h-6l6 41q92 0 158 14.5t112.5 36.5t75.5 47.5t46.5 49t26.5 40.5t15 21q9 5 15.5 5.5t11.5 -9t7.5 -32.5t2.5 -64v-1465
q0 -26 2 -36.5t15 -12.5z" />
    </font>
</defs>
</svg>
